G04 #@! TF.GenerationSoftware,KiCad,Pcbnew,(5.1.10-1-10_14)*
G04 #@! TF.CreationDate,2021-11-16T23:45:20-05:00*
G04 #@! TF.ProjectId,MacClassicRAMCard,4d616343-6c61-4737-9369-6352414d4361,rev?*
G04 #@! TF.SameCoordinates,Original*
G04 #@! TF.FileFunction,Soldermask,Top*
G04 #@! TF.FilePolarity,Negative*
%FSLAX46Y46*%
G04 Gerber Fmt 4.6, Leading zero omitted, Abs format (unit mm)*
G04 Created by KiCad (PCBNEW (5.1.10-1-10_14)) date 2021-11-16 23:45:20*
%MOMM*%
%LPD*%
G01*
G04 APERTURE LIST*
%ADD10O,1.850000X1.850000*%
%ADD11C,2.000000*%
%ADD12C,2.150000*%
G04 APERTURE END LIST*
D10*
X147320000Y-125730000D03*
X147320000Y-123190000D03*
X144780000Y-125730000D03*
X144780000Y-123190000D03*
X142240000Y-125730000D03*
X142240000Y-123190000D03*
X139700000Y-125730000D03*
X139700000Y-123190000D03*
X137160000Y-125730000D03*
X137160000Y-123190000D03*
X134620000Y-125730000D03*
X134620000Y-123190000D03*
X132080000Y-125730000D03*
X132080000Y-123190000D03*
X129540000Y-125730000D03*
X129540000Y-123190000D03*
X127000000Y-125730000D03*
X127000000Y-123190000D03*
X124460000Y-125730000D03*
X124460000Y-123190000D03*
X121920000Y-125730000D03*
X121920000Y-123190000D03*
X119380000Y-125730000D03*
X119380000Y-123190000D03*
X116840000Y-125730000D03*
X116840000Y-123190000D03*
X114300000Y-125730000D03*
X114300000Y-123190000D03*
X111760000Y-125730000D03*
X111760000Y-123190000D03*
X109220000Y-125730000D03*
X109220000Y-123190000D03*
X106680000Y-125730000D03*
X106680000Y-123190000D03*
X104140000Y-125730000D03*
X104140000Y-123190000D03*
X101600000Y-125730000D03*
X101600000Y-123190000D03*
X99060000Y-125730000D03*
X99060000Y-123190000D03*
X96520000Y-125730000D03*
X96520000Y-123190000D03*
X93980000Y-125730000D03*
G36*
G01*
X94830000Y-124115000D02*
X93130000Y-124115000D01*
G75*
G02*
X93055000Y-124040000I0J75000D01*
G01*
X93055000Y-122340000D01*
G75*
G02*
X93130000Y-122265000I75000J0D01*
G01*
X94830000Y-122265000D01*
G75*
G02*
X94905000Y-122340000I0J-75000D01*
G01*
X94905000Y-124040000D01*
G75*
G02*
X94830000Y-124115000I-75000J0D01*
G01*
G37*
D11*
X148336000Y-118364000D03*
X92964000Y-118364000D03*
X144526000Y-133350000D03*
D12*
X94234000Y-133350000D03*
X147066000Y-133350000D03*
D11*
X96774000Y-133350000D03*
G36*
G01*
X115107500Y-109710000D02*
X116032500Y-109710000D01*
G75*
G02*
X116320000Y-109997500I0J-287500D01*
G01*
X116320000Y-110572500D01*
G75*
G02*
X116032500Y-110860000I-287500J0D01*
G01*
X115107500Y-110860000D01*
G75*
G02*
X114820000Y-110572500I0J287500D01*
G01*
X114820000Y-109997500D01*
G75*
G02*
X115107500Y-109710000I287500J0D01*
G01*
G37*
G36*
G01*
X115107500Y-108010000D02*
X116032500Y-108010000D01*
G75*
G02*
X116320000Y-108297500I0J-287500D01*
G01*
X116320000Y-108872500D01*
G75*
G02*
X116032500Y-109160000I-287500J0D01*
G01*
X115107500Y-109160000D01*
G75*
G02*
X114820000Y-108872500I0J287500D01*
G01*
X114820000Y-108297500D01*
G75*
G02*
X115107500Y-108010000I287500J0D01*
G01*
G37*
G36*
G01*
X146325000Y-120731500D02*
X146325000Y-119806500D01*
G75*
G02*
X146612500Y-119519000I287500J0D01*
G01*
X147187500Y-119519000D01*
G75*
G02*
X147475000Y-119806500I0J-287500D01*
G01*
X147475000Y-120731500D01*
G75*
G02*
X147187500Y-121019000I-287500J0D01*
G01*
X146612500Y-121019000D01*
G75*
G02*
X146325000Y-120731500I0J287500D01*
G01*
G37*
G36*
G01*
X144625000Y-120731500D02*
X144625000Y-119806500D01*
G75*
G02*
X144912500Y-119519000I287500J0D01*
G01*
X145487500Y-119519000D01*
G75*
G02*
X145775000Y-119806500I0J-287500D01*
G01*
X145775000Y-120731500D01*
G75*
G02*
X145487500Y-121019000I-287500J0D01*
G01*
X144912500Y-121019000D01*
G75*
G02*
X144625000Y-120731500I0J287500D01*
G01*
G37*
D12*
X92964000Y-90424000D03*
D11*
X95504000Y-90424000D03*
X145796000Y-90424000D03*
D12*
X92964000Y-115824000D03*
X148336000Y-115824000D03*
X148336000Y-90424000D03*
G36*
G01*
X145587500Y-95740000D02*
X146512500Y-95740000D01*
G75*
G02*
X146800000Y-96027500I0J-287500D01*
G01*
X146800000Y-96602500D01*
G75*
G02*
X146512500Y-96890000I-287500J0D01*
G01*
X145587500Y-96890000D01*
G75*
G02*
X145300000Y-96602500I0J287500D01*
G01*
X145300000Y-96027500D01*
G75*
G02*
X145587500Y-95740000I287500J0D01*
G01*
G37*
G36*
G01*
X145587500Y-94040000D02*
X146512500Y-94040000D01*
G75*
G02*
X146800000Y-94327500I0J-287500D01*
G01*
X146800000Y-94902500D01*
G75*
G02*
X146512500Y-95190000I-287500J0D01*
G01*
X145587500Y-95190000D01*
G75*
G02*
X145300000Y-94902500I0J287500D01*
G01*
X145300000Y-94327500D01*
G75*
G02*
X145587500Y-94040000I287500J0D01*
G01*
G37*
G36*
G01*
X115107500Y-95740000D02*
X116032500Y-95740000D01*
G75*
G02*
X116320000Y-96027500I0J-287500D01*
G01*
X116320000Y-96602500D01*
G75*
G02*
X116032500Y-96890000I-287500J0D01*
G01*
X115107500Y-96890000D01*
G75*
G02*
X114820000Y-96602500I0J287500D01*
G01*
X114820000Y-96027500D01*
G75*
G02*
X115107500Y-95740000I287500J0D01*
G01*
G37*
G36*
G01*
X115107500Y-94040000D02*
X116032500Y-94040000D01*
G75*
G02*
X116320000Y-94327500I0J-287500D01*
G01*
X116320000Y-94902500D01*
G75*
G02*
X116032500Y-95190000I-287500J0D01*
G01*
X115107500Y-95190000D01*
G75*
G02*
X114820000Y-94902500I0J287500D01*
G01*
X114820000Y-94327500D01*
G75*
G02*
X115107500Y-94040000I287500J0D01*
G01*
G37*
G36*
G01*
X145587500Y-108010000D02*
X146512500Y-108010000D01*
G75*
G02*
X146800000Y-108297500I0J-287500D01*
G01*
X146800000Y-108872500D01*
G75*
G02*
X146512500Y-109160000I-287500J0D01*
G01*
X145587500Y-109160000D01*
G75*
G02*
X145300000Y-108872500I0J287500D01*
G01*
X145300000Y-108297500D01*
G75*
G02*
X145587500Y-108010000I287500J0D01*
G01*
G37*
G36*
G01*
X145587500Y-109710000D02*
X146512500Y-109710000D01*
G75*
G02*
X146800000Y-109997500I0J-287500D01*
G01*
X146800000Y-110572500D01*
G75*
G02*
X146512500Y-110860000I-287500J0D01*
G01*
X145587500Y-110860000D01*
G75*
G02*
X145300000Y-110572500I0J287500D01*
G01*
X145300000Y-109997500D01*
G75*
G02*
X145587500Y-109710000I287500J0D01*
G01*
G37*
G36*
G01*
X97962500Y-110042000D02*
X98887500Y-110042000D01*
G75*
G02*
X99175000Y-110329500I0J-287500D01*
G01*
X99175000Y-110904500D01*
G75*
G02*
X98887500Y-111192000I-287500J0D01*
G01*
X97962500Y-111192000D01*
G75*
G02*
X97675000Y-110904500I0J287500D01*
G01*
X97675000Y-110329500D01*
G75*
G02*
X97962500Y-110042000I287500J0D01*
G01*
G37*
G36*
G01*
X97962500Y-111742000D02*
X98887500Y-111742000D01*
G75*
G02*
X99175000Y-112029500I0J-287500D01*
G01*
X99175000Y-112604500D01*
G75*
G02*
X98887500Y-112892000I-287500J0D01*
G01*
X97962500Y-112892000D01*
G75*
G02*
X97675000Y-112604500I0J287500D01*
G01*
X97675000Y-112029500D01*
G75*
G02*
X97962500Y-111742000I287500J0D01*
G01*
G37*
G36*
G01*
X100505000Y-111580000D02*
X100155000Y-111580000D01*
G75*
G02*
X99980000Y-111405000I0J175000D01*
G01*
X99980000Y-109705000D01*
G75*
G02*
X100155000Y-109530000I175000J0D01*
G01*
X100505000Y-109530000D01*
G75*
G02*
X100680000Y-109705000I0J-175000D01*
G01*
X100680000Y-111405000D01*
G75*
G02*
X100505000Y-111580000I-175000J0D01*
G01*
G37*
G36*
G01*
X108125000Y-116530000D02*
X107775000Y-116530000D01*
G75*
G02*
X107600000Y-116355000I0J175000D01*
G01*
X107600000Y-114655000D01*
G75*
G02*
X107775000Y-114480000I175000J0D01*
G01*
X108125000Y-114480000D01*
G75*
G02*
X108300000Y-114655000I0J-175000D01*
G01*
X108300000Y-116355000D01*
G75*
G02*
X108125000Y-116530000I-175000J0D01*
G01*
G37*
G36*
G01*
X103045000Y-111580000D02*
X102695000Y-111580000D01*
G75*
G02*
X102520000Y-111405000I0J175000D01*
G01*
X102520000Y-109705000D01*
G75*
G02*
X102695000Y-109530000I175000J0D01*
G01*
X103045000Y-109530000D01*
G75*
G02*
X103220000Y-109705000I0J-175000D01*
G01*
X103220000Y-111405000D01*
G75*
G02*
X103045000Y-111580000I-175000J0D01*
G01*
G37*
G36*
G01*
X108125000Y-111580000D02*
X107775000Y-111580000D01*
G75*
G02*
X107600000Y-111405000I0J175000D01*
G01*
X107600000Y-109705000D01*
G75*
G02*
X107775000Y-109530000I175000J0D01*
G01*
X108125000Y-109530000D01*
G75*
G02*
X108300000Y-109705000I0J-175000D01*
G01*
X108300000Y-111405000D01*
G75*
G02*
X108125000Y-111580000I-175000J0D01*
G01*
G37*
G36*
G01*
X101775000Y-111580000D02*
X101425000Y-111580000D01*
G75*
G02*
X101250000Y-111405000I0J175000D01*
G01*
X101250000Y-109705000D01*
G75*
G02*
X101425000Y-109530000I175000J0D01*
G01*
X101775000Y-109530000D01*
G75*
G02*
X101950000Y-109705000I0J-175000D01*
G01*
X101950000Y-111405000D01*
G75*
G02*
X101775000Y-111580000I-175000J0D01*
G01*
G37*
G36*
G01*
X106855000Y-116530000D02*
X106505000Y-116530000D01*
G75*
G02*
X106330000Y-116355000I0J175000D01*
G01*
X106330000Y-114655000D01*
G75*
G02*
X106505000Y-114480000I175000J0D01*
G01*
X106855000Y-114480000D01*
G75*
G02*
X107030000Y-114655000I0J-175000D01*
G01*
X107030000Y-116355000D01*
G75*
G02*
X106855000Y-116530000I-175000J0D01*
G01*
G37*
G36*
G01*
X106855000Y-111580000D02*
X106505000Y-111580000D01*
G75*
G02*
X106330000Y-111405000I0J175000D01*
G01*
X106330000Y-109705000D01*
G75*
G02*
X106505000Y-109530000I175000J0D01*
G01*
X106855000Y-109530000D01*
G75*
G02*
X107030000Y-109705000I0J-175000D01*
G01*
X107030000Y-111405000D01*
G75*
G02*
X106855000Y-111580000I-175000J0D01*
G01*
G37*
G36*
G01*
X105585000Y-111580000D02*
X105235000Y-111580000D01*
G75*
G02*
X105060000Y-111405000I0J175000D01*
G01*
X105060000Y-109705000D01*
G75*
G02*
X105235000Y-109530000I175000J0D01*
G01*
X105585000Y-109530000D01*
G75*
G02*
X105760000Y-109705000I0J-175000D01*
G01*
X105760000Y-111405000D01*
G75*
G02*
X105585000Y-111580000I-175000J0D01*
G01*
G37*
G36*
G01*
X104315000Y-111580000D02*
X103965000Y-111580000D01*
G75*
G02*
X103790000Y-111405000I0J175000D01*
G01*
X103790000Y-109705000D01*
G75*
G02*
X103965000Y-109530000I175000J0D01*
G01*
X104315000Y-109530000D01*
G75*
G02*
X104490000Y-109705000I0J-175000D01*
G01*
X104490000Y-111405000D01*
G75*
G02*
X104315000Y-111580000I-175000J0D01*
G01*
G37*
G36*
G01*
X101775000Y-116530000D02*
X101425000Y-116530000D01*
G75*
G02*
X101250000Y-116355000I0J175000D01*
G01*
X101250000Y-114655000D01*
G75*
G02*
X101425000Y-114480000I175000J0D01*
G01*
X101775000Y-114480000D01*
G75*
G02*
X101950000Y-114655000I0J-175000D01*
G01*
X101950000Y-116355000D01*
G75*
G02*
X101775000Y-116530000I-175000J0D01*
G01*
G37*
G36*
G01*
X100505000Y-116530000D02*
X100155000Y-116530000D01*
G75*
G02*
X99980000Y-116355000I0J175000D01*
G01*
X99980000Y-114655000D01*
G75*
G02*
X100155000Y-114480000I175000J0D01*
G01*
X100505000Y-114480000D01*
G75*
G02*
X100680000Y-114655000I0J-175000D01*
G01*
X100680000Y-116355000D01*
G75*
G02*
X100505000Y-116530000I-175000J0D01*
G01*
G37*
G36*
G01*
X104315000Y-116530000D02*
X103965000Y-116530000D01*
G75*
G02*
X103790000Y-116355000I0J175000D01*
G01*
X103790000Y-114655000D01*
G75*
G02*
X103965000Y-114480000I175000J0D01*
G01*
X104315000Y-114480000D01*
G75*
G02*
X104490000Y-114655000I0J-175000D01*
G01*
X104490000Y-116355000D01*
G75*
G02*
X104315000Y-116530000I-175000J0D01*
G01*
G37*
G36*
G01*
X103045000Y-116530000D02*
X102695000Y-116530000D01*
G75*
G02*
X102520000Y-116355000I0J175000D01*
G01*
X102520000Y-114655000D01*
G75*
G02*
X102695000Y-114480000I175000J0D01*
G01*
X103045000Y-114480000D01*
G75*
G02*
X103220000Y-114655000I0J-175000D01*
G01*
X103220000Y-116355000D01*
G75*
G02*
X103045000Y-116530000I-175000J0D01*
G01*
G37*
G36*
G01*
X105585000Y-116530000D02*
X105235000Y-116530000D01*
G75*
G02*
X105060000Y-116355000I0J175000D01*
G01*
X105060000Y-114655000D01*
G75*
G02*
X105235000Y-114480000I175000J0D01*
G01*
X105585000Y-114480000D01*
G75*
G02*
X105760000Y-114655000I0J-175000D01*
G01*
X105760000Y-116355000D01*
G75*
G02*
X105585000Y-116530000I-175000J0D01*
G01*
G37*
G36*
G01*
X96675000Y-119806500D02*
X96675000Y-120731500D01*
G75*
G02*
X96387500Y-121019000I-287500J0D01*
G01*
X95812500Y-121019000D01*
G75*
G02*
X95525000Y-120731500I0J287500D01*
G01*
X95525000Y-119806500D01*
G75*
G02*
X95812500Y-119519000I287500J0D01*
G01*
X96387500Y-119519000D01*
G75*
G02*
X96675000Y-119806500I0J-287500D01*
G01*
G37*
G36*
G01*
X94975000Y-119806500D02*
X94975000Y-120731500D01*
G75*
G02*
X94687500Y-121019000I-287500J0D01*
G01*
X94112500Y-121019000D01*
G75*
G02*
X93825000Y-120731500I0J287500D01*
G01*
X93825000Y-119806500D01*
G75*
G02*
X94112500Y-119519000I287500J0D01*
G01*
X94687500Y-119519000D01*
G75*
G02*
X94975000Y-119806500I0J-287500D01*
G01*
G37*
G36*
G01*
X125555000Y-101931000D02*
X125905000Y-101931000D01*
G75*
G02*
X126080000Y-102106000I0J-175000D01*
G01*
X126080000Y-104904000D01*
G75*
G02*
X125905000Y-105079000I-175000J0D01*
G01*
X125555000Y-105079000D01*
G75*
G02*
X125380000Y-104904000I0J175000D01*
G01*
X125380000Y-102106000D01*
G75*
G02*
X125555000Y-101931000I175000J0D01*
G01*
G37*
G36*
G01*
X124285000Y-101931000D02*
X124635000Y-101931000D01*
G75*
G02*
X124810000Y-102106000I0J-175000D01*
G01*
X124810000Y-104904000D01*
G75*
G02*
X124635000Y-105079000I-175000J0D01*
G01*
X124285000Y-105079000D01*
G75*
G02*
X124110000Y-104904000I0J175000D01*
G01*
X124110000Y-102106000D01*
G75*
G02*
X124285000Y-101931000I175000J0D01*
G01*
G37*
G36*
G01*
X126825000Y-93041000D02*
X127175000Y-93041000D01*
G75*
G02*
X127350000Y-93216000I0J-175000D01*
G01*
X127350000Y-96014000D01*
G75*
G02*
X127175000Y-96189000I-175000J0D01*
G01*
X126825000Y-96189000D01*
G75*
G02*
X126650000Y-96014000I0J175000D01*
G01*
X126650000Y-93216000D01*
G75*
G02*
X126825000Y-93041000I175000J0D01*
G01*
G37*
G36*
G01*
X134445000Y-93041000D02*
X134795000Y-93041000D01*
G75*
G02*
X134970000Y-93216000I0J-175000D01*
G01*
X134970000Y-96014000D01*
G75*
G02*
X134795000Y-96189000I-175000J0D01*
G01*
X134445000Y-96189000D01*
G75*
G02*
X134270000Y-96014000I0J175000D01*
G01*
X134270000Y-93216000D01*
G75*
G02*
X134445000Y-93041000I175000J0D01*
G01*
G37*
G36*
G01*
X136985000Y-93041000D02*
X137335000Y-93041000D01*
G75*
G02*
X137510000Y-93216000I0J-175000D01*
G01*
X137510000Y-96014000D01*
G75*
G02*
X137335000Y-96189000I-175000J0D01*
G01*
X136985000Y-96189000D01*
G75*
G02*
X136810000Y-96014000I0J175000D01*
G01*
X136810000Y-93216000D01*
G75*
G02*
X136985000Y-93041000I175000J0D01*
G01*
G37*
G36*
G01*
X143335000Y-93041000D02*
X143685000Y-93041000D01*
G75*
G02*
X143860000Y-93216000I0J-175000D01*
G01*
X143860000Y-96014000D01*
G75*
G02*
X143685000Y-96189000I-175000J0D01*
G01*
X143335000Y-96189000D01*
G75*
G02*
X143160000Y-96014000I0J175000D01*
G01*
X143160000Y-93216000D01*
G75*
G02*
X143335000Y-93041000I175000J0D01*
G01*
G37*
G36*
G01*
X142065000Y-93041000D02*
X142415000Y-93041000D01*
G75*
G02*
X142590000Y-93216000I0J-175000D01*
G01*
X142590000Y-96014000D01*
G75*
G02*
X142415000Y-96189000I-175000J0D01*
G01*
X142065000Y-96189000D01*
G75*
G02*
X141890000Y-96014000I0J175000D01*
G01*
X141890000Y-93216000D01*
G75*
G02*
X142065000Y-93041000I175000J0D01*
G01*
G37*
G36*
G01*
X140795000Y-93041000D02*
X141145000Y-93041000D01*
G75*
G02*
X141320000Y-93216000I0J-175000D01*
G01*
X141320000Y-96014000D01*
G75*
G02*
X141145000Y-96189000I-175000J0D01*
G01*
X140795000Y-96189000D01*
G75*
G02*
X140620000Y-96014000I0J175000D01*
G01*
X140620000Y-93216000D01*
G75*
G02*
X140795000Y-93041000I175000J0D01*
G01*
G37*
G36*
G01*
X139525000Y-93041000D02*
X139875000Y-93041000D01*
G75*
G02*
X140050000Y-93216000I0J-175000D01*
G01*
X140050000Y-96014000D01*
G75*
G02*
X139875000Y-96189000I-175000J0D01*
G01*
X139525000Y-96189000D01*
G75*
G02*
X139350000Y-96014000I0J175000D01*
G01*
X139350000Y-93216000D01*
G75*
G02*
X139525000Y-93041000I175000J0D01*
G01*
G37*
G36*
G01*
X138255000Y-93041000D02*
X138605000Y-93041000D01*
G75*
G02*
X138780000Y-93216000I0J-175000D01*
G01*
X138780000Y-96014000D01*
G75*
G02*
X138605000Y-96189000I-175000J0D01*
G01*
X138255000Y-96189000D01*
G75*
G02*
X138080000Y-96014000I0J175000D01*
G01*
X138080000Y-93216000D01*
G75*
G02*
X138255000Y-93041000I175000J0D01*
G01*
G37*
G36*
G01*
X133175000Y-93041000D02*
X133525000Y-93041000D01*
G75*
G02*
X133700000Y-93216000I0J-175000D01*
G01*
X133700000Y-96014000D01*
G75*
G02*
X133525000Y-96189000I-175000J0D01*
G01*
X133175000Y-96189000D01*
G75*
G02*
X133000000Y-96014000I0J175000D01*
G01*
X133000000Y-93216000D01*
G75*
G02*
X133175000Y-93041000I175000J0D01*
G01*
G37*
G36*
G01*
X131905000Y-93041000D02*
X132255000Y-93041000D01*
G75*
G02*
X132430000Y-93216000I0J-175000D01*
G01*
X132430000Y-96014000D01*
G75*
G02*
X132255000Y-96189000I-175000J0D01*
G01*
X131905000Y-96189000D01*
G75*
G02*
X131730000Y-96014000I0J175000D01*
G01*
X131730000Y-93216000D01*
G75*
G02*
X131905000Y-93041000I175000J0D01*
G01*
G37*
G36*
G01*
X130635000Y-93041000D02*
X130985000Y-93041000D01*
G75*
G02*
X131160000Y-93216000I0J-175000D01*
G01*
X131160000Y-96014000D01*
G75*
G02*
X130985000Y-96189000I-175000J0D01*
G01*
X130635000Y-96189000D01*
G75*
G02*
X130460000Y-96014000I0J175000D01*
G01*
X130460000Y-93216000D01*
G75*
G02*
X130635000Y-93041000I175000J0D01*
G01*
G37*
G36*
G01*
X129365000Y-93041000D02*
X129715000Y-93041000D01*
G75*
G02*
X129890000Y-93216000I0J-175000D01*
G01*
X129890000Y-96014000D01*
G75*
G02*
X129715000Y-96189000I-175000J0D01*
G01*
X129365000Y-96189000D01*
G75*
G02*
X129190000Y-96014000I0J175000D01*
G01*
X129190000Y-93216000D01*
G75*
G02*
X129365000Y-93041000I175000J0D01*
G01*
G37*
G36*
G01*
X128095000Y-93041000D02*
X128445000Y-93041000D01*
G75*
G02*
X128620000Y-93216000I0J-175000D01*
G01*
X128620000Y-96014000D01*
G75*
G02*
X128445000Y-96189000I-175000J0D01*
G01*
X128095000Y-96189000D01*
G75*
G02*
X127920000Y-96014000I0J175000D01*
G01*
X127920000Y-93216000D01*
G75*
G02*
X128095000Y-93041000I175000J0D01*
G01*
G37*
G36*
G01*
X117935000Y-101931000D02*
X118285000Y-101931000D01*
G75*
G02*
X118460000Y-102106000I0J-175000D01*
G01*
X118460000Y-104904000D01*
G75*
G02*
X118285000Y-105079000I-175000J0D01*
G01*
X117935000Y-105079000D01*
G75*
G02*
X117760000Y-104904000I0J175000D01*
G01*
X117760000Y-102106000D01*
G75*
G02*
X117935000Y-101931000I175000J0D01*
G01*
G37*
G36*
G01*
X119205000Y-101931000D02*
X119555000Y-101931000D01*
G75*
G02*
X119730000Y-102106000I0J-175000D01*
G01*
X119730000Y-104904000D01*
G75*
G02*
X119555000Y-105079000I-175000J0D01*
G01*
X119205000Y-105079000D01*
G75*
G02*
X119030000Y-104904000I0J175000D01*
G01*
X119030000Y-102106000D01*
G75*
G02*
X119205000Y-101931000I175000J0D01*
G01*
G37*
G36*
G01*
X120475000Y-101931000D02*
X120825000Y-101931000D01*
G75*
G02*
X121000000Y-102106000I0J-175000D01*
G01*
X121000000Y-104904000D01*
G75*
G02*
X120825000Y-105079000I-175000J0D01*
G01*
X120475000Y-105079000D01*
G75*
G02*
X120300000Y-104904000I0J175000D01*
G01*
X120300000Y-102106000D01*
G75*
G02*
X120475000Y-101931000I175000J0D01*
G01*
G37*
G36*
G01*
X121745000Y-101931000D02*
X122095000Y-101931000D01*
G75*
G02*
X122270000Y-102106000I0J-175000D01*
G01*
X122270000Y-104904000D01*
G75*
G02*
X122095000Y-105079000I-175000J0D01*
G01*
X121745000Y-105079000D01*
G75*
G02*
X121570000Y-104904000I0J175000D01*
G01*
X121570000Y-102106000D01*
G75*
G02*
X121745000Y-101931000I175000J0D01*
G01*
G37*
G36*
G01*
X123015000Y-101931000D02*
X123365000Y-101931000D01*
G75*
G02*
X123540000Y-102106000I0J-175000D01*
G01*
X123540000Y-104904000D01*
G75*
G02*
X123365000Y-105079000I-175000J0D01*
G01*
X123015000Y-105079000D01*
G75*
G02*
X122840000Y-104904000I0J175000D01*
G01*
X122840000Y-102106000D01*
G75*
G02*
X123015000Y-101931000I175000J0D01*
G01*
G37*
G36*
G01*
X135715000Y-93041000D02*
X136065000Y-93041000D01*
G75*
G02*
X136240000Y-93216000I0J-175000D01*
G01*
X136240000Y-96014000D01*
G75*
G02*
X136065000Y-96189000I-175000J0D01*
G01*
X135715000Y-96189000D01*
G75*
G02*
X135540000Y-96014000I0J175000D01*
G01*
X135540000Y-93216000D01*
G75*
G02*
X135715000Y-93041000I175000J0D01*
G01*
G37*
G36*
G01*
X125555000Y-93041000D02*
X125905000Y-93041000D01*
G75*
G02*
X126080000Y-93216000I0J-175000D01*
G01*
X126080000Y-96014000D01*
G75*
G02*
X125905000Y-96189000I-175000J0D01*
G01*
X125555000Y-96189000D01*
G75*
G02*
X125380000Y-96014000I0J175000D01*
G01*
X125380000Y-93216000D01*
G75*
G02*
X125555000Y-93041000I175000J0D01*
G01*
G37*
G36*
G01*
X124285000Y-93041000D02*
X124635000Y-93041000D01*
G75*
G02*
X124810000Y-93216000I0J-175000D01*
G01*
X124810000Y-96014000D01*
G75*
G02*
X124635000Y-96189000I-175000J0D01*
G01*
X124285000Y-96189000D01*
G75*
G02*
X124110000Y-96014000I0J175000D01*
G01*
X124110000Y-93216000D01*
G75*
G02*
X124285000Y-93041000I175000J0D01*
G01*
G37*
G36*
G01*
X123015000Y-93041000D02*
X123365000Y-93041000D01*
G75*
G02*
X123540000Y-93216000I0J-175000D01*
G01*
X123540000Y-96014000D01*
G75*
G02*
X123365000Y-96189000I-175000J0D01*
G01*
X123015000Y-96189000D01*
G75*
G02*
X122840000Y-96014000I0J175000D01*
G01*
X122840000Y-93216000D01*
G75*
G02*
X123015000Y-93041000I175000J0D01*
G01*
G37*
G36*
G01*
X121745000Y-93041000D02*
X122095000Y-93041000D01*
G75*
G02*
X122270000Y-93216000I0J-175000D01*
G01*
X122270000Y-96014000D01*
G75*
G02*
X122095000Y-96189000I-175000J0D01*
G01*
X121745000Y-96189000D01*
G75*
G02*
X121570000Y-96014000I0J175000D01*
G01*
X121570000Y-93216000D01*
G75*
G02*
X121745000Y-93041000I175000J0D01*
G01*
G37*
G36*
G01*
X120475000Y-93041000D02*
X120825000Y-93041000D01*
G75*
G02*
X121000000Y-93216000I0J-175000D01*
G01*
X121000000Y-96014000D01*
G75*
G02*
X120825000Y-96189000I-175000J0D01*
G01*
X120475000Y-96189000D01*
G75*
G02*
X120300000Y-96014000I0J175000D01*
G01*
X120300000Y-93216000D01*
G75*
G02*
X120475000Y-93041000I175000J0D01*
G01*
G37*
G36*
G01*
X135715000Y-101931000D02*
X136065000Y-101931000D01*
G75*
G02*
X136240000Y-102106000I0J-175000D01*
G01*
X136240000Y-104904000D01*
G75*
G02*
X136065000Y-105079000I-175000J0D01*
G01*
X135715000Y-105079000D01*
G75*
G02*
X135540000Y-104904000I0J175000D01*
G01*
X135540000Y-102106000D01*
G75*
G02*
X135715000Y-101931000I175000J0D01*
G01*
G37*
G36*
G01*
X134445000Y-101931000D02*
X134795000Y-101931000D01*
G75*
G02*
X134970000Y-102106000I0J-175000D01*
G01*
X134970000Y-104904000D01*
G75*
G02*
X134795000Y-105079000I-175000J0D01*
G01*
X134445000Y-105079000D01*
G75*
G02*
X134270000Y-104904000I0J175000D01*
G01*
X134270000Y-102106000D01*
G75*
G02*
X134445000Y-101931000I175000J0D01*
G01*
G37*
G36*
G01*
X126825000Y-101931000D02*
X127175000Y-101931000D01*
G75*
G02*
X127350000Y-102106000I0J-175000D01*
G01*
X127350000Y-104904000D01*
G75*
G02*
X127175000Y-105079000I-175000J0D01*
G01*
X126825000Y-105079000D01*
G75*
G02*
X126650000Y-104904000I0J175000D01*
G01*
X126650000Y-102106000D01*
G75*
G02*
X126825000Y-101931000I175000J0D01*
G01*
G37*
G36*
G01*
X128095000Y-101931000D02*
X128445000Y-101931000D01*
G75*
G02*
X128620000Y-102106000I0J-175000D01*
G01*
X128620000Y-104904000D01*
G75*
G02*
X128445000Y-105079000I-175000J0D01*
G01*
X128095000Y-105079000D01*
G75*
G02*
X127920000Y-104904000I0J175000D01*
G01*
X127920000Y-102106000D01*
G75*
G02*
X128095000Y-101931000I175000J0D01*
G01*
G37*
G36*
G01*
X129365000Y-101931000D02*
X129715000Y-101931000D01*
G75*
G02*
X129890000Y-102106000I0J-175000D01*
G01*
X129890000Y-104904000D01*
G75*
G02*
X129715000Y-105079000I-175000J0D01*
G01*
X129365000Y-105079000D01*
G75*
G02*
X129190000Y-104904000I0J175000D01*
G01*
X129190000Y-102106000D01*
G75*
G02*
X129365000Y-101931000I175000J0D01*
G01*
G37*
G36*
G01*
X130635000Y-101931000D02*
X130985000Y-101931000D01*
G75*
G02*
X131160000Y-102106000I0J-175000D01*
G01*
X131160000Y-104904000D01*
G75*
G02*
X130985000Y-105079000I-175000J0D01*
G01*
X130635000Y-105079000D01*
G75*
G02*
X130460000Y-104904000I0J175000D01*
G01*
X130460000Y-102106000D01*
G75*
G02*
X130635000Y-101931000I175000J0D01*
G01*
G37*
G36*
G01*
X131905000Y-101931000D02*
X132255000Y-101931000D01*
G75*
G02*
X132430000Y-102106000I0J-175000D01*
G01*
X132430000Y-104904000D01*
G75*
G02*
X132255000Y-105079000I-175000J0D01*
G01*
X131905000Y-105079000D01*
G75*
G02*
X131730000Y-104904000I0J175000D01*
G01*
X131730000Y-102106000D01*
G75*
G02*
X131905000Y-101931000I175000J0D01*
G01*
G37*
G36*
G01*
X133175000Y-101931000D02*
X133525000Y-101931000D01*
G75*
G02*
X133700000Y-102106000I0J-175000D01*
G01*
X133700000Y-104904000D01*
G75*
G02*
X133525000Y-105079000I-175000J0D01*
G01*
X133175000Y-105079000D01*
G75*
G02*
X133000000Y-104904000I0J175000D01*
G01*
X133000000Y-102106000D01*
G75*
G02*
X133175000Y-101931000I175000J0D01*
G01*
G37*
G36*
G01*
X136985000Y-101931000D02*
X137335000Y-101931000D01*
G75*
G02*
X137510000Y-102106000I0J-175000D01*
G01*
X137510000Y-104904000D01*
G75*
G02*
X137335000Y-105079000I-175000J0D01*
G01*
X136985000Y-105079000D01*
G75*
G02*
X136810000Y-104904000I0J175000D01*
G01*
X136810000Y-102106000D01*
G75*
G02*
X136985000Y-101931000I175000J0D01*
G01*
G37*
G36*
G01*
X138255000Y-101931000D02*
X138605000Y-101931000D01*
G75*
G02*
X138780000Y-102106000I0J-175000D01*
G01*
X138780000Y-104904000D01*
G75*
G02*
X138605000Y-105079000I-175000J0D01*
G01*
X138255000Y-105079000D01*
G75*
G02*
X138080000Y-104904000I0J175000D01*
G01*
X138080000Y-102106000D01*
G75*
G02*
X138255000Y-101931000I175000J0D01*
G01*
G37*
G36*
G01*
X140795000Y-101931000D02*
X141145000Y-101931000D01*
G75*
G02*
X141320000Y-102106000I0J-175000D01*
G01*
X141320000Y-104904000D01*
G75*
G02*
X141145000Y-105079000I-175000J0D01*
G01*
X140795000Y-105079000D01*
G75*
G02*
X140620000Y-104904000I0J175000D01*
G01*
X140620000Y-102106000D01*
G75*
G02*
X140795000Y-101931000I175000J0D01*
G01*
G37*
G36*
G01*
X139525000Y-101931000D02*
X139875000Y-101931000D01*
G75*
G02*
X140050000Y-102106000I0J-175000D01*
G01*
X140050000Y-104904000D01*
G75*
G02*
X139875000Y-105079000I-175000J0D01*
G01*
X139525000Y-105079000D01*
G75*
G02*
X139350000Y-104904000I0J175000D01*
G01*
X139350000Y-102106000D01*
G75*
G02*
X139525000Y-101931000I175000J0D01*
G01*
G37*
G36*
G01*
X117935000Y-93041000D02*
X118285000Y-93041000D01*
G75*
G02*
X118460000Y-93216000I0J-175000D01*
G01*
X118460000Y-96014000D01*
G75*
G02*
X118285000Y-96189000I-175000J0D01*
G01*
X117935000Y-96189000D01*
G75*
G02*
X117760000Y-96014000I0J175000D01*
G01*
X117760000Y-93216000D01*
G75*
G02*
X117935000Y-93041000I175000J0D01*
G01*
G37*
G36*
G01*
X119205000Y-93041000D02*
X119555000Y-93041000D01*
G75*
G02*
X119730000Y-93216000I0J-175000D01*
G01*
X119730000Y-96014000D01*
G75*
G02*
X119555000Y-96189000I-175000J0D01*
G01*
X119205000Y-96189000D01*
G75*
G02*
X119030000Y-96014000I0J175000D01*
G01*
X119030000Y-93216000D01*
G75*
G02*
X119205000Y-93041000I175000J0D01*
G01*
G37*
G36*
G01*
X143335000Y-101931000D02*
X143685000Y-101931000D01*
G75*
G02*
X143860000Y-102106000I0J-175000D01*
G01*
X143860000Y-104904000D01*
G75*
G02*
X143685000Y-105079000I-175000J0D01*
G01*
X143335000Y-105079000D01*
G75*
G02*
X143160000Y-104904000I0J175000D01*
G01*
X143160000Y-102106000D01*
G75*
G02*
X143335000Y-101931000I175000J0D01*
G01*
G37*
G36*
G01*
X142065000Y-101931000D02*
X142415000Y-101931000D01*
G75*
G02*
X142590000Y-102106000I0J-175000D01*
G01*
X142590000Y-104904000D01*
G75*
G02*
X142415000Y-105079000I-175000J0D01*
G01*
X142065000Y-105079000D01*
G75*
G02*
X141890000Y-104904000I0J175000D01*
G01*
X141890000Y-102106000D01*
G75*
G02*
X142065000Y-101931000I175000J0D01*
G01*
G37*
G36*
G01*
X142065000Y-115901000D02*
X142415000Y-115901000D01*
G75*
G02*
X142590000Y-116076000I0J-175000D01*
G01*
X142590000Y-118874000D01*
G75*
G02*
X142415000Y-119049000I-175000J0D01*
G01*
X142065000Y-119049000D01*
G75*
G02*
X141890000Y-118874000I0J175000D01*
G01*
X141890000Y-116076000D01*
G75*
G02*
X142065000Y-115901000I175000J0D01*
G01*
G37*
G36*
G01*
X143335000Y-115901000D02*
X143685000Y-115901000D01*
G75*
G02*
X143860000Y-116076000I0J-175000D01*
G01*
X143860000Y-118874000D01*
G75*
G02*
X143685000Y-119049000I-175000J0D01*
G01*
X143335000Y-119049000D01*
G75*
G02*
X143160000Y-118874000I0J175000D01*
G01*
X143160000Y-116076000D01*
G75*
G02*
X143335000Y-115901000I175000J0D01*
G01*
G37*
G36*
G01*
X119205000Y-107011000D02*
X119555000Y-107011000D01*
G75*
G02*
X119730000Y-107186000I0J-175000D01*
G01*
X119730000Y-109984000D01*
G75*
G02*
X119555000Y-110159000I-175000J0D01*
G01*
X119205000Y-110159000D01*
G75*
G02*
X119030000Y-109984000I0J175000D01*
G01*
X119030000Y-107186000D01*
G75*
G02*
X119205000Y-107011000I175000J0D01*
G01*
G37*
G36*
G01*
X117935000Y-107011000D02*
X118285000Y-107011000D01*
G75*
G02*
X118460000Y-107186000I0J-175000D01*
G01*
X118460000Y-109984000D01*
G75*
G02*
X118285000Y-110159000I-175000J0D01*
G01*
X117935000Y-110159000D01*
G75*
G02*
X117760000Y-109984000I0J175000D01*
G01*
X117760000Y-107186000D01*
G75*
G02*
X117935000Y-107011000I175000J0D01*
G01*
G37*
G36*
G01*
X139525000Y-115901000D02*
X139875000Y-115901000D01*
G75*
G02*
X140050000Y-116076000I0J-175000D01*
G01*
X140050000Y-118874000D01*
G75*
G02*
X139875000Y-119049000I-175000J0D01*
G01*
X139525000Y-119049000D01*
G75*
G02*
X139350000Y-118874000I0J175000D01*
G01*
X139350000Y-116076000D01*
G75*
G02*
X139525000Y-115901000I175000J0D01*
G01*
G37*
G36*
G01*
X140795000Y-115901000D02*
X141145000Y-115901000D01*
G75*
G02*
X141320000Y-116076000I0J-175000D01*
G01*
X141320000Y-118874000D01*
G75*
G02*
X141145000Y-119049000I-175000J0D01*
G01*
X140795000Y-119049000D01*
G75*
G02*
X140620000Y-118874000I0J175000D01*
G01*
X140620000Y-116076000D01*
G75*
G02*
X140795000Y-115901000I175000J0D01*
G01*
G37*
G36*
G01*
X138255000Y-115901000D02*
X138605000Y-115901000D01*
G75*
G02*
X138780000Y-116076000I0J-175000D01*
G01*
X138780000Y-118874000D01*
G75*
G02*
X138605000Y-119049000I-175000J0D01*
G01*
X138255000Y-119049000D01*
G75*
G02*
X138080000Y-118874000I0J175000D01*
G01*
X138080000Y-116076000D01*
G75*
G02*
X138255000Y-115901000I175000J0D01*
G01*
G37*
G36*
G01*
X136985000Y-115901000D02*
X137335000Y-115901000D01*
G75*
G02*
X137510000Y-116076000I0J-175000D01*
G01*
X137510000Y-118874000D01*
G75*
G02*
X137335000Y-119049000I-175000J0D01*
G01*
X136985000Y-119049000D01*
G75*
G02*
X136810000Y-118874000I0J175000D01*
G01*
X136810000Y-116076000D01*
G75*
G02*
X136985000Y-115901000I175000J0D01*
G01*
G37*
G36*
G01*
X133175000Y-115901000D02*
X133525000Y-115901000D01*
G75*
G02*
X133700000Y-116076000I0J-175000D01*
G01*
X133700000Y-118874000D01*
G75*
G02*
X133525000Y-119049000I-175000J0D01*
G01*
X133175000Y-119049000D01*
G75*
G02*
X133000000Y-118874000I0J175000D01*
G01*
X133000000Y-116076000D01*
G75*
G02*
X133175000Y-115901000I175000J0D01*
G01*
G37*
G36*
G01*
X131905000Y-115901000D02*
X132255000Y-115901000D01*
G75*
G02*
X132430000Y-116076000I0J-175000D01*
G01*
X132430000Y-118874000D01*
G75*
G02*
X132255000Y-119049000I-175000J0D01*
G01*
X131905000Y-119049000D01*
G75*
G02*
X131730000Y-118874000I0J175000D01*
G01*
X131730000Y-116076000D01*
G75*
G02*
X131905000Y-115901000I175000J0D01*
G01*
G37*
G36*
G01*
X130635000Y-115901000D02*
X130985000Y-115901000D01*
G75*
G02*
X131160000Y-116076000I0J-175000D01*
G01*
X131160000Y-118874000D01*
G75*
G02*
X130985000Y-119049000I-175000J0D01*
G01*
X130635000Y-119049000D01*
G75*
G02*
X130460000Y-118874000I0J175000D01*
G01*
X130460000Y-116076000D01*
G75*
G02*
X130635000Y-115901000I175000J0D01*
G01*
G37*
G36*
G01*
X129365000Y-115901000D02*
X129715000Y-115901000D01*
G75*
G02*
X129890000Y-116076000I0J-175000D01*
G01*
X129890000Y-118874000D01*
G75*
G02*
X129715000Y-119049000I-175000J0D01*
G01*
X129365000Y-119049000D01*
G75*
G02*
X129190000Y-118874000I0J175000D01*
G01*
X129190000Y-116076000D01*
G75*
G02*
X129365000Y-115901000I175000J0D01*
G01*
G37*
G36*
G01*
X128095000Y-115901000D02*
X128445000Y-115901000D01*
G75*
G02*
X128620000Y-116076000I0J-175000D01*
G01*
X128620000Y-118874000D01*
G75*
G02*
X128445000Y-119049000I-175000J0D01*
G01*
X128095000Y-119049000D01*
G75*
G02*
X127920000Y-118874000I0J175000D01*
G01*
X127920000Y-116076000D01*
G75*
G02*
X128095000Y-115901000I175000J0D01*
G01*
G37*
G36*
G01*
X126825000Y-115901000D02*
X127175000Y-115901000D01*
G75*
G02*
X127350000Y-116076000I0J-175000D01*
G01*
X127350000Y-118874000D01*
G75*
G02*
X127175000Y-119049000I-175000J0D01*
G01*
X126825000Y-119049000D01*
G75*
G02*
X126650000Y-118874000I0J175000D01*
G01*
X126650000Y-116076000D01*
G75*
G02*
X126825000Y-115901000I175000J0D01*
G01*
G37*
G36*
G01*
X134445000Y-115901000D02*
X134795000Y-115901000D01*
G75*
G02*
X134970000Y-116076000I0J-175000D01*
G01*
X134970000Y-118874000D01*
G75*
G02*
X134795000Y-119049000I-175000J0D01*
G01*
X134445000Y-119049000D01*
G75*
G02*
X134270000Y-118874000I0J175000D01*
G01*
X134270000Y-116076000D01*
G75*
G02*
X134445000Y-115901000I175000J0D01*
G01*
G37*
G36*
G01*
X135715000Y-115901000D02*
X136065000Y-115901000D01*
G75*
G02*
X136240000Y-116076000I0J-175000D01*
G01*
X136240000Y-118874000D01*
G75*
G02*
X136065000Y-119049000I-175000J0D01*
G01*
X135715000Y-119049000D01*
G75*
G02*
X135540000Y-118874000I0J175000D01*
G01*
X135540000Y-116076000D01*
G75*
G02*
X135715000Y-115901000I175000J0D01*
G01*
G37*
G36*
G01*
X120475000Y-107011000D02*
X120825000Y-107011000D01*
G75*
G02*
X121000000Y-107186000I0J-175000D01*
G01*
X121000000Y-109984000D01*
G75*
G02*
X120825000Y-110159000I-175000J0D01*
G01*
X120475000Y-110159000D01*
G75*
G02*
X120300000Y-109984000I0J175000D01*
G01*
X120300000Y-107186000D01*
G75*
G02*
X120475000Y-107011000I175000J0D01*
G01*
G37*
G36*
G01*
X121745000Y-107011000D02*
X122095000Y-107011000D01*
G75*
G02*
X122270000Y-107186000I0J-175000D01*
G01*
X122270000Y-109984000D01*
G75*
G02*
X122095000Y-110159000I-175000J0D01*
G01*
X121745000Y-110159000D01*
G75*
G02*
X121570000Y-109984000I0J175000D01*
G01*
X121570000Y-107186000D01*
G75*
G02*
X121745000Y-107011000I175000J0D01*
G01*
G37*
G36*
G01*
X123015000Y-107011000D02*
X123365000Y-107011000D01*
G75*
G02*
X123540000Y-107186000I0J-175000D01*
G01*
X123540000Y-109984000D01*
G75*
G02*
X123365000Y-110159000I-175000J0D01*
G01*
X123015000Y-110159000D01*
G75*
G02*
X122840000Y-109984000I0J175000D01*
G01*
X122840000Y-107186000D01*
G75*
G02*
X123015000Y-107011000I175000J0D01*
G01*
G37*
G36*
G01*
X124285000Y-107011000D02*
X124635000Y-107011000D01*
G75*
G02*
X124810000Y-107186000I0J-175000D01*
G01*
X124810000Y-109984000D01*
G75*
G02*
X124635000Y-110159000I-175000J0D01*
G01*
X124285000Y-110159000D01*
G75*
G02*
X124110000Y-109984000I0J175000D01*
G01*
X124110000Y-107186000D01*
G75*
G02*
X124285000Y-107011000I175000J0D01*
G01*
G37*
G36*
G01*
X125555000Y-107011000D02*
X125905000Y-107011000D01*
G75*
G02*
X126080000Y-107186000I0J-175000D01*
G01*
X126080000Y-109984000D01*
G75*
G02*
X125905000Y-110159000I-175000J0D01*
G01*
X125555000Y-110159000D01*
G75*
G02*
X125380000Y-109984000I0J175000D01*
G01*
X125380000Y-107186000D01*
G75*
G02*
X125555000Y-107011000I175000J0D01*
G01*
G37*
G36*
G01*
X135715000Y-107011000D02*
X136065000Y-107011000D01*
G75*
G02*
X136240000Y-107186000I0J-175000D01*
G01*
X136240000Y-109984000D01*
G75*
G02*
X136065000Y-110159000I-175000J0D01*
G01*
X135715000Y-110159000D01*
G75*
G02*
X135540000Y-109984000I0J175000D01*
G01*
X135540000Y-107186000D01*
G75*
G02*
X135715000Y-107011000I175000J0D01*
G01*
G37*
G36*
G01*
X123015000Y-115901000D02*
X123365000Y-115901000D01*
G75*
G02*
X123540000Y-116076000I0J-175000D01*
G01*
X123540000Y-118874000D01*
G75*
G02*
X123365000Y-119049000I-175000J0D01*
G01*
X123015000Y-119049000D01*
G75*
G02*
X122840000Y-118874000I0J175000D01*
G01*
X122840000Y-116076000D01*
G75*
G02*
X123015000Y-115901000I175000J0D01*
G01*
G37*
G36*
G01*
X121745000Y-115901000D02*
X122095000Y-115901000D01*
G75*
G02*
X122270000Y-116076000I0J-175000D01*
G01*
X122270000Y-118874000D01*
G75*
G02*
X122095000Y-119049000I-175000J0D01*
G01*
X121745000Y-119049000D01*
G75*
G02*
X121570000Y-118874000I0J175000D01*
G01*
X121570000Y-116076000D01*
G75*
G02*
X121745000Y-115901000I175000J0D01*
G01*
G37*
G36*
G01*
X120475000Y-115901000D02*
X120825000Y-115901000D01*
G75*
G02*
X121000000Y-116076000I0J-175000D01*
G01*
X121000000Y-118874000D01*
G75*
G02*
X120825000Y-119049000I-175000J0D01*
G01*
X120475000Y-119049000D01*
G75*
G02*
X120300000Y-118874000I0J175000D01*
G01*
X120300000Y-116076000D01*
G75*
G02*
X120475000Y-115901000I175000J0D01*
G01*
G37*
G36*
G01*
X119205000Y-115901000D02*
X119555000Y-115901000D01*
G75*
G02*
X119730000Y-116076000I0J-175000D01*
G01*
X119730000Y-118874000D01*
G75*
G02*
X119555000Y-119049000I-175000J0D01*
G01*
X119205000Y-119049000D01*
G75*
G02*
X119030000Y-118874000I0J175000D01*
G01*
X119030000Y-116076000D01*
G75*
G02*
X119205000Y-115901000I175000J0D01*
G01*
G37*
G36*
G01*
X117935000Y-115901000D02*
X118285000Y-115901000D01*
G75*
G02*
X118460000Y-116076000I0J-175000D01*
G01*
X118460000Y-118874000D01*
G75*
G02*
X118285000Y-119049000I-175000J0D01*
G01*
X117935000Y-119049000D01*
G75*
G02*
X117760000Y-118874000I0J175000D01*
G01*
X117760000Y-116076000D01*
G75*
G02*
X117935000Y-115901000I175000J0D01*
G01*
G37*
G36*
G01*
X128095000Y-107011000D02*
X128445000Y-107011000D01*
G75*
G02*
X128620000Y-107186000I0J-175000D01*
G01*
X128620000Y-109984000D01*
G75*
G02*
X128445000Y-110159000I-175000J0D01*
G01*
X128095000Y-110159000D01*
G75*
G02*
X127920000Y-109984000I0J175000D01*
G01*
X127920000Y-107186000D01*
G75*
G02*
X128095000Y-107011000I175000J0D01*
G01*
G37*
G36*
G01*
X129365000Y-107011000D02*
X129715000Y-107011000D01*
G75*
G02*
X129890000Y-107186000I0J-175000D01*
G01*
X129890000Y-109984000D01*
G75*
G02*
X129715000Y-110159000I-175000J0D01*
G01*
X129365000Y-110159000D01*
G75*
G02*
X129190000Y-109984000I0J175000D01*
G01*
X129190000Y-107186000D01*
G75*
G02*
X129365000Y-107011000I175000J0D01*
G01*
G37*
G36*
G01*
X130635000Y-107011000D02*
X130985000Y-107011000D01*
G75*
G02*
X131160000Y-107186000I0J-175000D01*
G01*
X131160000Y-109984000D01*
G75*
G02*
X130985000Y-110159000I-175000J0D01*
G01*
X130635000Y-110159000D01*
G75*
G02*
X130460000Y-109984000I0J175000D01*
G01*
X130460000Y-107186000D01*
G75*
G02*
X130635000Y-107011000I175000J0D01*
G01*
G37*
G36*
G01*
X131905000Y-107011000D02*
X132255000Y-107011000D01*
G75*
G02*
X132430000Y-107186000I0J-175000D01*
G01*
X132430000Y-109984000D01*
G75*
G02*
X132255000Y-110159000I-175000J0D01*
G01*
X131905000Y-110159000D01*
G75*
G02*
X131730000Y-109984000I0J175000D01*
G01*
X131730000Y-107186000D01*
G75*
G02*
X131905000Y-107011000I175000J0D01*
G01*
G37*
G36*
G01*
X133175000Y-107011000D02*
X133525000Y-107011000D01*
G75*
G02*
X133700000Y-107186000I0J-175000D01*
G01*
X133700000Y-109984000D01*
G75*
G02*
X133525000Y-110159000I-175000J0D01*
G01*
X133175000Y-110159000D01*
G75*
G02*
X133000000Y-109984000I0J175000D01*
G01*
X133000000Y-107186000D01*
G75*
G02*
X133175000Y-107011000I175000J0D01*
G01*
G37*
G36*
G01*
X138255000Y-107011000D02*
X138605000Y-107011000D01*
G75*
G02*
X138780000Y-107186000I0J-175000D01*
G01*
X138780000Y-109984000D01*
G75*
G02*
X138605000Y-110159000I-175000J0D01*
G01*
X138255000Y-110159000D01*
G75*
G02*
X138080000Y-109984000I0J175000D01*
G01*
X138080000Y-107186000D01*
G75*
G02*
X138255000Y-107011000I175000J0D01*
G01*
G37*
G36*
G01*
X139525000Y-107011000D02*
X139875000Y-107011000D01*
G75*
G02*
X140050000Y-107186000I0J-175000D01*
G01*
X140050000Y-109984000D01*
G75*
G02*
X139875000Y-110159000I-175000J0D01*
G01*
X139525000Y-110159000D01*
G75*
G02*
X139350000Y-109984000I0J175000D01*
G01*
X139350000Y-107186000D01*
G75*
G02*
X139525000Y-107011000I175000J0D01*
G01*
G37*
G36*
G01*
X140795000Y-107011000D02*
X141145000Y-107011000D01*
G75*
G02*
X141320000Y-107186000I0J-175000D01*
G01*
X141320000Y-109984000D01*
G75*
G02*
X141145000Y-110159000I-175000J0D01*
G01*
X140795000Y-110159000D01*
G75*
G02*
X140620000Y-109984000I0J175000D01*
G01*
X140620000Y-107186000D01*
G75*
G02*
X140795000Y-107011000I175000J0D01*
G01*
G37*
G36*
G01*
X142065000Y-107011000D02*
X142415000Y-107011000D01*
G75*
G02*
X142590000Y-107186000I0J-175000D01*
G01*
X142590000Y-109984000D01*
G75*
G02*
X142415000Y-110159000I-175000J0D01*
G01*
X142065000Y-110159000D01*
G75*
G02*
X141890000Y-109984000I0J175000D01*
G01*
X141890000Y-107186000D01*
G75*
G02*
X142065000Y-107011000I175000J0D01*
G01*
G37*
G36*
G01*
X143335000Y-107011000D02*
X143685000Y-107011000D01*
G75*
G02*
X143860000Y-107186000I0J-175000D01*
G01*
X143860000Y-109984000D01*
G75*
G02*
X143685000Y-110159000I-175000J0D01*
G01*
X143335000Y-110159000D01*
G75*
G02*
X143160000Y-109984000I0J175000D01*
G01*
X143160000Y-107186000D01*
G75*
G02*
X143335000Y-107011000I175000J0D01*
G01*
G37*
G36*
G01*
X136985000Y-107011000D02*
X137335000Y-107011000D01*
G75*
G02*
X137510000Y-107186000I0J-175000D01*
G01*
X137510000Y-109984000D01*
G75*
G02*
X137335000Y-110159000I-175000J0D01*
G01*
X136985000Y-110159000D01*
G75*
G02*
X136810000Y-109984000I0J175000D01*
G01*
X136810000Y-107186000D01*
G75*
G02*
X136985000Y-107011000I175000J0D01*
G01*
G37*
G36*
G01*
X134445000Y-107011000D02*
X134795000Y-107011000D01*
G75*
G02*
X134970000Y-107186000I0J-175000D01*
G01*
X134970000Y-109984000D01*
G75*
G02*
X134795000Y-110159000I-175000J0D01*
G01*
X134445000Y-110159000D01*
G75*
G02*
X134270000Y-109984000I0J175000D01*
G01*
X134270000Y-107186000D01*
G75*
G02*
X134445000Y-107011000I175000J0D01*
G01*
G37*
G36*
G01*
X126825000Y-107011000D02*
X127175000Y-107011000D01*
G75*
G02*
X127350000Y-107186000I0J-175000D01*
G01*
X127350000Y-109984000D01*
G75*
G02*
X127175000Y-110159000I-175000J0D01*
G01*
X126825000Y-110159000D01*
G75*
G02*
X126650000Y-109984000I0J175000D01*
G01*
X126650000Y-107186000D01*
G75*
G02*
X126825000Y-107011000I175000J0D01*
G01*
G37*
G36*
G01*
X124285000Y-115901000D02*
X124635000Y-115901000D01*
G75*
G02*
X124810000Y-116076000I0J-175000D01*
G01*
X124810000Y-118874000D01*
G75*
G02*
X124635000Y-119049000I-175000J0D01*
G01*
X124285000Y-119049000D01*
G75*
G02*
X124110000Y-118874000I0J175000D01*
G01*
X124110000Y-116076000D01*
G75*
G02*
X124285000Y-115901000I175000J0D01*
G01*
G37*
G36*
G01*
X125555000Y-115901000D02*
X125905000Y-115901000D01*
G75*
G02*
X126080000Y-116076000I0J-175000D01*
G01*
X126080000Y-118874000D01*
G75*
G02*
X125905000Y-119049000I-175000J0D01*
G01*
X125555000Y-119049000D01*
G75*
G02*
X125380000Y-118874000I0J175000D01*
G01*
X125380000Y-116076000D01*
G75*
G02*
X125555000Y-115901000I175000J0D01*
G01*
G37*
M02*
