G04 #@! TF.GenerationSoftware,KiCad,Pcbnew,(5.1.10-1-10_14)*
G04 #@! TF.CreationDate,2021-11-18T23:27:22-05:00*
G04 #@! TF.ProjectId,MacClassicRAMCard,4d616343-6c61-4737-9369-6352414d4361,rev?*
G04 #@! TF.SameCoordinates,Original*
G04 #@! TF.FileFunction,Soldermask,Bot*
G04 #@! TF.FilePolarity,Negative*
%FSLAX46Y46*%
G04 Gerber Fmt 4.6, Leading zero omitted, Abs format (unit mm)*
G04 Created by KiCad (PCBNEW (5.1.10-1-10_14)) date 2021-11-18 23:27:22*
%MOMM*%
%LPD*%
G01*
G04 APERTURE LIST*
%ADD10O,1.850000X1.850000*%
%ADD11C,2.150000*%
G04 APERTURE END LIST*
D10*
X147320000Y-125730000D03*
X147320000Y-123190000D03*
X144780000Y-125730000D03*
X144780000Y-123190000D03*
X142240000Y-125730000D03*
X142240000Y-123190000D03*
X139700000Y-125730000D03*
X139700000Y-123190000D03*
X137160000Y-125730000D03*
X137160000Y-123190000D03*
X134620000Y-125730000D03*
X134620000Y-123190000D03*
X132080000Y-125730000D03*
X132080000Y-123190000D03*
X129540000Y-125730000D03*
X129540000Y-123190000D03*
X127000000Y-125730000D03*
X127000000Y-123190000D03*
X124460000Y-125730000D03*
X124460000Y-123190000D03*
X121920000Y-125730000D03*
X121920000Y-123190000D03*
X119380000Y-125730000D03*
X119380000Y-123190000D03*
X116840000Y-125730000D03*
X116840000Y-123190000D03*
X114300000Y-125730000D03*
X114300000Y-123190000D03*
X111760000Y-125730000D03*
X111760000Y-123190000D03*
X109220000Y-125730000D03*
X109220000Y-123190000D03*
X106680000Y-125730000D03*
X106680000Y-123190000D03*
X104140000Y-125730000D03*
X104140000Y-123190000D03*
X101600000Y-125730000D03*
X101600000Y-123190000D03*
X99060000Y-125730000D03*
X99060000Y-123190000D03*
X96520000Y-125730000D03*
X96520000Y-123190000D03*
X93980000Y-125730000D03*
G36*
G01*
X94830000Y-124115000D02*
X93130000Y-124115000D01*
G75*
G02*
X93055000Y-124040000I0J75000D01*
G01*
X93055000Y-122340000D01*
G75*
G02*
X93130000Y-122265000I75000J0D01*
G01*
X94830000Y-122265000D01*
G75*
G02*
X94905000Y-122340000I0J-75000D01*
G01*
X94905000Y-124040000D01*
G75*
G02*
X94830000Y-124115000I-75000J0D01*
G01*
G37*
D11*
X94234000Y-133350000D03*
X147066000Y-133350000D03*
X87884000Y-90424000D03*
X153416000Y-90424000D03*
M02*
