G04 #@! TF.GenerationSoftware,KiCad,Pcbnew,(5.1.10-1-10_14)*
G04 #@! TF.CreationDate,2021-11-18T23:27:22-05:00*
G04 #@! TF.ProjectId,MacClassicRAMCard,4d616343-6c61-4737-9369-6352414d4361,rev?*
G04 #@! TF.SameCoordinates,Original*
G04 #@! TF.FileFunction,Paste,Top*
G04 #@! TF.FilePolarity,Positive*
%FSLAX46Y46*%
G04 Gerber Fmt 4.6, Leading zero omitted, Abs format (unit mm)*
G04 Created by KiCad (PCBNEW (5.1.10-1-10_14)) date 2021-11-18 23:27:22*
%MOMM*%
%LPD*%
G01*
G04 APERTURE LIST*
G04 APERTURE END LIST*
G36*
G01*
X115145000Y-109785000D02*
X115995000Y-109785000D01*
G75*
G02*
X116245000Y-110035000I0J-250000D01*
G01*
X116245000Y-110535000D01*
G75*
G02*
X115995000Y-110785000I-250000J0D01*
G01*
X115145000Y-110785000D01*
G75*
G02*
X114895000Y-110535000I0J250000D01*
G01*
X114895000Y-110035000D01*
G75*
G02*
X115145000Y-109785000I250000J0D01*
G01*
G37*
G36*
G01*
X115145000Y-108085000D02*
X115995000Y-108085000D01*
G75*
G02*
X116245000Y-108335000I0J-250000D01*
G01*
X116245000Y-108835000D01*
G75*
G02*
X115995000Y-109085000I-250000J0D01*
G01*
X115145000Y-109085000D01*
G75*
G02*
X114895000Y-108835000I0J250000D01*
G01*
X114895000Y-108335000D01*
G75*
G02*
X115145000Y-108085000I250000J0D01*
G01*
G37*
G36*
G01*
X146400000Y-120694000D02*
X146400000Y-119844000D01*
G75*
G02*
X146650000Y-119594000I250000J0D01*
G01*
X147150000Y-119594000D01*
G75*
G02*
X147400000Y-119844000I0J-250000D01*
G01*
X147400000Y-120694000D01*
G75*
G02*
X147150000Y-120944000I-250000J0D01*
G01*
X146650000Y-120944000D01*
G75*
G02*
X146400000Y-120694000I0J250000D01*
G01*
G37*
G36*
G01*
X144700000Y-120694000D02*
X144700000Y-119844000D01*
G75*
G02*
X144950000Y-119594000I250000J0D01*
G01*
X145450000Y-119594000D01*
G75*
G02*
X145700000Y-119844000I0J-250000D01*
G01*
X145700000Y-120694000D01*
G75*
G02*
X145450000Y-120944000I-250000J0D01*
G01*
X144950000Y-120944000D01*
G75*
G02*
X144700000Y-120694000I0J250000D01*
G01*
G37*
G36*
G01*
X145625000Y-95815000D02*
X146475000Y-95815000D01*
G75*
G02*
X146725000Y-96065000I0J-250000D01*
G01*
X146725000Y-96565000D01*
G75*
G02*
X146475000Y-96815000I-250000J0D01*
G01*
X145625000Y-96815000D01*
G75*
G02*
X145375000Y-96565000I0J250000D01*
G01*
X145375000Y-96065000D01*
G75*
G02*
X145625000Y-95815000I250000J0D01*
G01*
G37*
G36*
G01*
X145625000Y-94115000D02*
X146475000Y-94115000D01*
G75*
G02*
X146725000Y-94365000I0J-250000D01*
G01*
X146725000Y-94865000D01*
G75*
G02*
X146475000Y-95115000I-250000J0D01*
G01*
X145625000Y-95115000D01*
G75*
G02*
X145375000Y-94865000I0J250000D01*
G01*
X145375000Y-94365000D01*
G75*
G02*
X145625000Y-94115000I250000J0D01*
G01*
G37*
G36*
G01*
X115145000Y-95815000D02*
X115995000Y-95815000D01*
G75*
G02*
X116245000Y-96065000I0J-250000D01*
G01*
X116245000Y-96565000D01*
G75*
G02*
X115995000Y-96815000I-250000J0D01*
G01*
X115145000Y-96815000D01*
G75*
G02*
X114895000Y-96565000I0J250000D01*
G01*
X114895000Y-96065000D01*
G75*
G02*
X115145000Y-95815000I250000J0D01*
G01*
G37*
G36*
G01*
X115145000Y-94115000D02*
X115995000Y-94115000D01*
G75*
G02*
X116245000Y-94365000I0J-250000D01*
G01*
X116245000Y-94865000D01*
G75*
G02*
X115995000Y-95115000I-250000J0D01*
G01*
X115145000Y-95115000D01*
G75*
G02*
X114895000Y-94865000I0J250000D01*
G01*
X114895000Y-94365000D01*
G75*
G02*
X115145000Y-94115000I250000J0D01*
G01*
G37*
G36*
G01*
X145625000Y-108085000D02*
X146475000Y-108085000D01*
G75*
G02*
X146725000Y-108335000I0J-250000D01*
G01*
X146725000Y-108835000D01*
G75*
G02*
X146475000Y-109085000I-250000J0D01*
G01*
X145625000Y-109085000D01*
G75*
G02*
X145375000Y-108835000I0J250000D01*
G01*
X145375000Y-108335000D01*
G75*
G02*
X145625000Y-108085000I250000J0D01*
G01*
G37*
G36*
G01*
X145625000Y-109785000D02*
X146475000Y-109785000D01*
G75*
G02*
X146725000Y-110035000I0J-250000D01*
G01*
X146725000Y-110535000D01*
G75*
G02*
X146475000Y-110785000I-250000J0D01*
G01*
X145625000Y-110785000D01*
G75*
G02*
X145375000Y-110535000I0J250000D01*
G01*
X145375000Y-110035000D01*
G75*
G02*
X145625000Y-109785000I250000J0D01*
G01*
G37*
G36*
G01*
X98000000Y-110117000D02*
X98850000Y-110117000D01*
G75*
G02*
X99100000Y-110367000I0J-250000D01*
G01*
X99100000Y-110867000D01*
G75*
G02*
X98850000Y-111117000I-250000J0D01*
G01*
X98000000Y-111117000D01*
G75*
G02*
X97750000Y-110867000I0J250000D01*
G01*
X97750000Y-110367000D01*
G75*
G02*
X98000000Y-110117000I250000J0D01*
G01*
G37*
G36*
G01*
X98000000Y-111817000D02*
X98850000Y-111817000D01*
G75*
G02*
X99100000Y-112067000I0J-250000D01*
G01*
X99100000Y-112567000D01*
G75*
G02*
X98850000Y-112817000I-250000J0D01*
G01*
X98000000Y-112817000D01*
G75*
G02*
X97750000Y-112567000I0J250000D01*
G01*
X97750000Y-112067000D01*
G75*
G02*
X98000000Y-111817000I250000J0D01*
G01*
G37*
G36*
G01*
X100467500Y-111505000D02*
X100192500Y-111505000D01*
G75*
G02*
X100055000Y-111367500I0J137500D01*
G01*
X100055000Y-109742500D01*
G75*
G02*
X100192500Y-109605000I137500J0D01*
G01*
X100467500Y-109605000D01*
G75*
G02*
X100605000Y-109742500I0J-137500D01*
G01*
X100605000Y-111367500D01*
G75*
G02*
X100467500Y-111505000I-137500J0D01*
G01*
G37*
G36*
G01*
X108087500Y-116455000D02*
X107812500Y-116455000D01*
G75*
G02*
X107675000Y-116317500I0J137500D01*
G01*
X107675000Y-114692500D01*
G75*
G02*
X107812500Y-114555000I137500J0D01*
G01*
X108087500Y-114555000D01*
G75*
G02*
X108225000Y-114692500I0J-137500D01*
G01*
X108225000Y-116317500D01*
G75*
G02*
X108087500Y-116455000I-137500J0D01*
G01*
G37*
G36*
G01*
X103007500Y-111505000D02*
X102732500Y-111505000D01*
G75*
G02*
X102595000Y-111367500I0J137500D01*
G01*
X102595000Y-109742500D01*
G75*
G02*
X102732500Y-109605000I137500J0D01*
G01*
X103007500Y-109605000D01*
G75*
G02*
X103145000Y-109742500I0J-137500D01*
G01*
X103145000Y-111367500D01*
G75*
G02*
X103007500Y-111505000I-137500J0D01*
G01*
G37*
G36*
G01*
X108087500Y-111505000D02*
X107812500Y-111505000D01*
G75*
G02*
X107675000Y-111367500I0J137500D01*
G01*
X107675000Y-109742500D01*
G75*
G02*
X107812500Y-109605000I137500J0D01*
G01*
X108087500Y-109605000D01*
G75*
G02*
X108225000Y-109742500I0J-137500D01*
G01*
X108225000Y-111367500D01*
G75*
G02*
X108087500Y-111505000I-137500J0D01*
G01*
G37*
G36*
G01*
X101737500Y-111505000D02*
X101462500Y-111505000D01*
G75*
G02*
X101325000Y-111367500I0J137500D01*
G01*
X101325000Y-109742500D01*
G75*
G02*
X101462500Y-109605000I137500J0D01*
G01*
X101737500Y-109605000D01*
G75*
G02*
X101875000Y-109742500I0J-137500D01*
G01*
X101875000Y-111367500D01*
G75*
G02*
X101737500Y-111505000I-137500J0D01*
G01*
G37*
G36*
G01*
X106817500Y-116455000D02*
X106542500Y-116455000D01*
G75*
G02*
X106405000Y-116317500I0J137500D01*
G01*
X106405000Y-114692500D01*
G75*
G02*
X106542500Y-114555000I137500J0D01*
G01*
X106817500Y-114555000D01*
G75*
G02*
X106955000Y-114692500I0J-137500D01*
G01*
X106955000Y-116317500D01*
G75*
G02*
X106817500Y-116455000I-137500J0D01*
G01*
G37*
G36*
G01*
X106817500Y-111505000D02*
X106542500Y-111505000D01*
G75*
G02*
X106405000Y-111367500I0J137500D01*
G01*
X106405000Y-109742500D01*
G75*
G02*
X106542500Y-109605000I137500J0D01*
G01*
X106817500Y-109605000D01*
G75*
G02*
X106955000Y-109742500I0J-137500D01*
G01*
X106955000Y-111367500D01*
G75*
G02*
X106817500Y-111505000I-137500J0D01*
G01*
G37*
G36*
G01*
X105547500Y-111505000D02*
X105272500Y-111505000D01*
G75*
G02*
X105135000Y-111367500I0J137500D01*
G01*
X105135000Y-109742500D01*
G75*
G02*
X105272500Y-109605000I137500J0D01*
G01*
X105547500Y-109605000D01*
G75*
G02*
X105685000Y-109742500I0J-137500D01*
G01*
X105685000Y-111367500D01*
G75*
G02*
X105547500Y-111505000I-137500J0D01*
G01*
G37*
G36*
G01*
X104277500Y-111505000D02*
X104002500Y-111505000D01*
G75*
G02*
X103865000Y-111367500I0J137500D01*
G01*
X103865000Y-109742500D01*
G75*
G02*
X104002500Y-109605000I137500J0D01*
G01*
X104277500Y-109605000D01*
G75*
G02*
X104415000Y-109742500I0J-137500D01*
G01*
X104415000Y-111367500D01*
G75*
G02*
X104277500Y-111505000I-137500J0D01*
G01*
G37*
G36*
G01*
X101737500Y-116455000D02*
X101462500Y-116455000D01*
G75*
G02*
X101325000Y-116317500I0J137500D01*
G01*
X101325000Y-114692500D01*
G75*
G02*
X101462500Y-114555000I137500J0D01*
G01*
X101737500Y-114555000D01*
G75*
G02*
X101875000Y-114692500I0J-137500D01*
G01*
X101875000Y-116317500D01*
G75*
G02*
X101737500Y-116455000I-137500J0D01*
G01*
G37*
G36*
G01*
X100467500Y-116455000D02*
X100192500Y-116455000D01*
G75*
G02*
X100055000Y-116317500I0J137500D01*
G01*
X100055000Y-114692500D01*
G75*
G02*
X100192500Y-114555000I137500J0D01*
G01*
X100467500Y-114555000D01*
G75*
G02*
X100605000Y-114692500I0J-137500D01*
G01*
X100605000Y-116317500D01*
G75*
G02*
X100467500Y-116455000I-137500J0D01*
G01*
G37*
G36*
G01*
X104277500Y-116455000D02*
X104002500Y-116455000D01*
G75*
G02*
X103865000Y-116317500I0J137500D01*
G01*
X103865000Y-114692500D01*
G75*
G02*
X104002500Y-114555000I137500J0D01*
G01*
X104277500Y-114555000D01*
G75*
G02*
X104415000Y-114692500I0J-137500D01*
G01*
X104415000Y-116317500D01*
G75*
G02*
X104277500Y-116455000I-137500J0D01*
G01*
G37*
G36*
G01*
X103007500Y-116455000D02*
X102732500Y-116455000D01*
G75*
G02*
X102595000Y-116317500I0J137500D01*
G01*
X102595000Y-114692500D01*
G75*
G02*
X102732500Y-114555000I137500J0D01*
G01*
X103007500Y-114555000D01*
G75*
G02*
X103145000Y-114692500I0J-137500D01*
G01*
X103145000Y-116317500D01*
G75*
G02*
X103007500Y-116455000I-137500J0D01*
G01*
G37*
G36*
G01*
X105547500Y-116455000D02*
X105272500Y-116455000D01*
G75*
G02*
X105135000Y-116317500I0J137500D01*
G01*
X105135000Y-114692500D01*
G75*
G02*
X105272500Y-114555000I137500J0D01*
G01*
X105547500Y-114555000D01*
G75*
G02*
X105685000Y-114692500I0J-137500D01*
G01*
X105685000Y-116317500D01*
G75*
G02*
X105547500Y-116455000I-137500J0D01*
G01*
G37*
G36*
G01*
X96600000Y-119844000D02*
X96600000Y-120694000D01*
G75*
G02*
X96350000Y-120944000I-250000J0D01*
G01*
X95850000Y-120944000D01*
G75*
G02*
X95600000Y-120694000I0J250000D01*
G01*
X95600000Y-119844000D01*
G75*
G02*
X95850000Y-119594000I250000J0D01*
G01*
X96350000Y-119594000D01*
G75*
G02*
X96600000Y-119844000I0J-250000D01*
G01*
G37*
G36*
G01*
X94900000Y-119844000D02*
X94900000Y-120694000D01*
G75*
G02*
X94650000Y-120944000I-250000J0D01*
G01*
X94150000Y-120944000D01*
G75*
G02*
X93900000Y-120694000I0J250000D01*
G01*
X93900000Y-119844000D01*
G75*
G02*
X94150000Y-119594000I250000J0D01*
G01*
X94650000Y-119594000D01*
G75*
G02*
X94900000Y-119844000I0J-250000D01*
G01*
G37*
G36*
G01*
X125592500Y-102006000D02*
X125867500Y-102006000D01*
G75*
G02*
X126005000Y-102143500I0J-137500D01*
G01*
X126005000Y-104866500D01*
G75*
G02*
X125867500Y-105004000I-137500J0D01*
G01*
X125592500Y-105004000D01*
G75*
G02*
X125455000Y-104866500I0J137500D01*
G01*
X125455000Y-102143500D01*
G75*
G02*
X125592500Y-102006000I137500J0D01*
G01*
G37*
G36*
G01*
X124322500Y-102006000D02*
X124597500Y-102006000D01*
G75*
G02*
X124735000Y-102143500I0J-137500D01*
G01*
X124735000Y-104866500D01*
G75*
G02*
X124597500Y-105004000I-137500J0D01*
G01*
X124322500Y-105004000D01*
G75*
G02*
X124185000Y-104866500I0J137500D01*
G01*
X124185000Y-102143500D01*
G75*
G02*
X124322500Y-102006000I137500J0D01*
G01*
G37*
G36*
G01*
X126862500Y-93116000D02*
X127137500Y-93116000D01*
G75*
G02*
X127275000Y-93253500I0J-137500D01*
G01*
X127275000Y-95976500D01*
G75*
G02*
X127137500Y-96114000I-137500J0D01*
G01*
X126862500Y-96114000D01*
G75*
G02*
X126725000Y-95976500I0J137500D01*
G01*
X126725000Y-93253500D01*
G75*
G02*
X126862500Y-93116000I137500J0D01*
G01*
G37*
G36*
G01*
X134482500Y-93116000D02*
X134757500Y-93116000D01*
G75*
G02*
X134895000Y-93253500I0J-137500D01*
G01*
X134895000Y-95976500D01*
G75*
G02*
X134757500Y-96114000I-137500J0D01*
G01*
X134482500Y-96114000D01*
G75*
G02*
X134345000Y-95976500I0J137500D01*
G01*
X134345000Y-93253500D01*
G75*
G02*
X134482500Y-93116000I137500J0D01*
G01*
G37*
G36*
G01*
X137022500Y-93116000D02*
X137297500Y-93116000D01*
G75*
G02*
X137435000Y-93253500I0J-137500D01*
G01*
X137435000Y-95976500D01*
G75*
G02*
X137297500Y-96114000I-137500J0D01*
G01*
X137022500Y-96114000D01*
G75*
G02*
X136885000Y-95976500I0J137500D01*
G01*
X136885000Y-93253500D01*
G75*
G02*
X137022500Y-93116000I137500J0D01*
G01*
G37*
G36*
G01*
X143372500Y-93116000D02*
X143647500Y-93116000D01*
G75*
G02*
X143785000Y-93253500I0J-137500D01*
G01*
X143785000Y-95976500D01*
G75*
G02*
X143647500Y-96114000I-137500J0D01*
G01*
X143372500Y-96114000D01*
G75*
G02*
X143235000Y-95976500I0J137500D01*
G01*
X143235000Y-93253500D01*
G75*
G02*
X143372500Y-93116000I137500J0D01*
G01*
G37*
G36*
G01*
X142102500Y-93116000D02*
X142377500Y-93116000D01*
G75*
G02*
X142515000Y-93253500I0J-137500D01*
G01*
X142515000Y-95976500D01*
G75*
G02*
X142377500Y-96114000I-137500J0D01*
G01*
X142102500Y-96114000D01*
G75*
G02*
X141965000Y-95976500I0J137500D01*
G01*
X141965000Y-93253500D01*
G75*
G02*
X142102500Y-93116000I137500J0D01*
G01*
G37*
G36*
G01*
X140832500Y-93116000D02*
X141107500Y-93116000D01*
G75*
G02*
X141245000Y-93253500I0J-137500D01*
G01*
X141245000Y-95976500D01*
G75*
G02*
X141107500Y-96114000I-137500J0D01*
G01*
X140832500Y-96114000D01*
G75*
G02*
X140695000Y-95976500I0J137500D01*
G01*
X140695000Y-93253500D01*
G75*
G02*
X140832500Y-93116000I137500J0D01*
G01*
G37*
G36*
G01*
X139562500Y-93116000D02*
X139837500Y-93116000D01*
G75*
G02*
X139975000Y-93253500I0J-137500D01*
G01*
X139975000Y-95976500D01*
G75*
G02*
X139837500Y-96114000I-137500J0D01*
G01*
X139562500Y-96114000D01*
G75*
G02*
X139425000Y-95976500I0J137500D01*
G01*
X139425000Y-93253500D01*
G75*
G02*
X139562500Y-93116000I137500J0D01*
G01*
G37*
G36*
G01*
X138292500Y-93116000D02*
X138567500Y-93116000D01*
G75*
G02*
X138705000Y-93253500I0J-137500D01*
G01*
X138705000Y-95976500D01*
G75*
G02*
X138567500Y-96114000I-137500J0D01*
G01*
X138292500Y-96114000D01*
G75*
G02*
X138155000Y-95976500I0J137500D01*
G01*
X138155000Y-93253500D01*
G75*
G02*
X138292500Y-93116000I137500J0D01*
G01*
G37*
G36*
G01*
X133212500Y-93116000D02*
X133487500Y-93116000D01*
G75*
G02*
X133625000Y-93253500I0J-137500D01*
G01*
X133625000Y-95976500D01*
G75*
G02*
X133487500Y-96114000I-137500J0D01*
G01*
X133212500Y-96114000D01*
G75*
G02*
X133075000Y-95976500I0J137500D01*
G01*
X133075000Y-93253500D01*
G75*
G02*
X133212500Y-93116000I137500J0D01*
G01*
G37*
G36*
G01*
X131942500Y-93116000D02*
X132217500Y-93116000D01*
G75*
G02*
X132355000Y-93253500I0J-137500D01*
G01*
X132355000Y-95976500D01*
G75*
G02*
X132217500Y-96114000I-137500J0D01*
G01*
X131942500Y-96114000D01*
G75*
G02*
X131805000Y-95976500I0J137500D01*
G01*
X131805000Y-93253500D01*
G75*
G02*
X131942500Y-93116000I137500J0D01*
G01*
G37*
G36*
G01*
X130672500Y-93116000D02*
X130947500Y-93116000D01*
G75*
G02*
X131085000Y-93253500I0J-137500D01*
G01*
X131085000Y-95976500D01*
G75*
G02*
X130947500Y-96114000I-137500J0D01*
G01*
X130672500Y-96114000D01*
G75*
G02*
X130535000Y-95976500I0J137500D01*
G01*
X130535000Y-93253500D01*
G75*
G02*
X130672500Y-93116000I137500J0D01*
G01*
G37*
G36*
G01*
X129402500Y-93116000D02*
X129677500Y-93116000D01*
G75*
G02*
X129815000Y-93253500I0J-137500D01*
G01*
X129815000Y-95976500D01*
G75*
G02*
X129677500Y-96114000I-137500J0D01*
G01*
X129402500Y-96114000D01*
G75*
G02*
X129265000Y-95976500I0J137500D01*
G01*
X129265000Y-93253500D01*
G75*
G02*
X129402500Y-93116000I137500J0D01*
G01*
G37*
G36*
G01*
X128132500Y-93116000D02*
X128407500Y-93116000D01*
G75*
G02*
X128545000Y-93253500I0J-137500D01*
G01*
X128545000Y-95976500D01*
G75*
G02*
X128407500Y-96114000I-137500J0D01*
G01*
X128132500Y-96114000D01*
G75*
G02*
X127995000Y-95976500I0J137500D01*
G01*
X127995000Y-93253500D01*
G75*
G02*
X128132500Y-93116000I137500J0D01*
G01*
G37*
G36*
G01*
X117972500Y-102006000D02*
X118247500Y-102006000D01*
G75*
G02*
X118385000Y-102143500I0J-137500D01*
G01*
X118385000Y-104866500D01*
G75*
G02*
X118247500Y-105004000I-137500J0D01*
G01*
X117972500Y-105004000D01*
G75*
G02*
X117835000Y-104866500I0J137500D01*
G01*
X117835000Y-102143500D01*
G75*
G02*
X117972500Y-102006000I137500J0D01*
G01*
G37*
G36*
G01*
X119242500Y-102006000D02*
X119517500Y-102006000D01*
G75*
G02*
X119655000Y-102143500I0J-137500D01*
G01*
X119655000Y-104866500D01*
G75*
G02*
X119517500Y-105004000I-137500J0D01*
G01*
X119242500Y-105004000D01*
G75*
G02*
X119105000Y-104866500I0J137500D01*
G01*
X119105000Y-102143500D01*
G75*
G02*
X119242500Y-102006000I137500J0D01*
G01*
G37*
G36*
G01*
X120512500Y-102006000D02*
X120787500Y-102006000D01*
G75*
G02*
X120925000Y-102143500I0J-137500D01*
G01*
X120925000Y-104866500D01*
G75*
G02*
X120787500Y-105004000I-137500J0D01*
G01*
X120512500Y-105004000D01*
G75*
G02*
X120375000Y-104866500I0J137500D01*
G01*
X120375000Y-102143500D01*
G75*
G02*
X120512500Y-102006000I137500J0D01*
G01*
G37*
G36*
G01*
X121782500Y-102006000D02*
X122057500Y-102006000D01*
G75*
G02*
X122195000Y-102143500I0J-137500D01*
G01*
X122195000Y-104866500D01*
G75*
G02*
X122057500Y-105004000I-137500J0D01*
G01*
X121782500Y-105004000D01*
G75*
G02*
X121645000Y-104866500I0J137500D01*
G01*
X121645000Y-102143500D01*
G75*
G02*
X121782500Y-102006000I137500J0D01*
G01*
G37*
G36*
G01*
X123052500Y-102006000D02*
X123327500Y-102006000D01*
G75*
G02*
X123465000Y-102143500I0J-137500D01*
G01*
X123465000Y-104866500D01*
G75*
G02*
X123327500Y-105004000I-137500J0D01*
G01*
X123052500Y-105004000D01*
G75*
G02*
X122915000Y-104866500I0J137500D01*
G01*
X122915000Y-102143500D01*
G75*
G02*
X123052500Y-102006000I137500J0D01*
G01*
G37*
G36*
G01*
X135752500Y-93116000D02*
X136027500Y-93116000D01*
G75*
G02*
X136165000Y-93253500I0J-137500D01*
G01*
X136165000Y-95976500D01*
G75*
G02*
X136027500Y-96114000I-137500J0D01*
G01*
X135752500Y-96114000D01*
G75*
G02*
X135615000Y-95976500I0J137500D01*
G01*
X135615000Y-93253500D01*
G75*
G02*
X135752500Y-93116000I137500J0D01*
G01*
G37*
G36*
G01*
X125592500Y-93116000D02*
X125867500Y-93116000D01*
G75*
G02*
X126005000Y-93253500I0J-137500D01*
G01*
X126005000Y-95976500D01*
G75*
G02*
X125867500Y-96114000I-137500J0D01*
G01*
X125592500Y-96114000D01*
G75*
G02*
X125455000Y-95976500I0J137500D01*
G01*
X125455000Y-93253500D01*
G75*
G02*
X125592500Y-93116000I137500J0D01*
G01*
G37*
G36*
G01*
X124322500Y-93116000D02*
X124597500Y-93116000D01*
G75*
G02*
X124735000Y-93253500I0J-137500D01*
G01*
X124735000Y-95976500D01*
G75*
G02*
X124597500Y-96114000I-137500J0D01*
G01*
X124322500Y-96114000D01*
G75*
G02*
X124185000Y-95976500I0J137500D01*
G01*
X124185000Y-93253500D01*
G75*
G02*
X124322500Y-93116000I137500J0D01*
G01*
G37*
G36*
G01*
X123052500Y-93116000D02*
X123327500Y-93116000D01*
G75*
G02*
X123465000Y-93253500I0J-137500D01*
G01*
X123465000Y-95976500D01*
G75*
G02*
X123327500Y-96114000I-137500J0D01*
G01*
X123052500Y-96114000D01*
G75*
G02*
X122915000Y-95976500I0J137500D01*
G01*
X122915000Y-93253500D01*
G75*
G02*
X123052500Y-93116000I137500J0D01*
G01*
G37*
G36*
G01*
X121782500Y-93116000D02*
X122057500Y-93116000D01*
G75*
G02*
X122195000Y-93253500I0J-137500D01*
G01*
X122195000Y-95976500D01*
G75*
G02*
X122057500Y-96114000I-137500J0D01*
G01*
X121782500Y-96114000D01*
G75*
G02*
X121645000Y-95976500I0J137500D01*
G01*
X121645000Y-93253500D01*
G75*
G02*
X121782500Y-93116000I137500J0D01*
G01*
G37*
G36*
G01*
X120512500Y-93116000D02*
X120787500Y-93116000D01*
G75*
G02*
X120925000Y-93253500I0J-137500D01*
G01*
X120925000Y-95976500D01*
G75*
G02*
X120787500Y-96114000I-137500J0D01*
G01*
X120512500Y-96114000D01*
G75*
G02*
X120375000Y-95976500I0J137500D01*
G01*
X120375000Y-93253500D01*
G75*
G02*
X120512500Y-93116000I137500J0D01*
G01*
G37*
G36*
G01*
X135752500Y-102006000D02*
X136027500Y-102006000D01*
G75*
G02*
X136165000Y-102143500I0J-137500D01*
G01*
X136165000Y-104866500D01*
G75*
G02*
X136027500Y-105004000I-137500J0D01*
G01*
X135752500Y-105004000D01*
G75*
G02*
X135615000Y-104866500I0J137500D01*
G01*
X135615000Y-102143500D01*
G75*
G02*
X135752500Y-102006000I137500J0D01*
G01*
G37*
G36*
G01*
X134482500Y-102006000D02*
X134757500Y-102006000D01*
G75*
G02*
X134895000Y-102143500I0J-137500D01*
G01*
X134895000Y-104866500D01*
G75*
G02*
X134757500Y-105004000I-137500J0D01*
G01*
X134482500Y-105004000D01*
G75*
G02*
X134345000Y-104866500I0J137500D01*
G01*
X134345000Y-102143500D01*
G75*
G02*
X134482500Y-102006000I137500J0D01*
G01*
G37*
G36*
G01*
X126862500Y-102006000D02*
X127137500Y-102006000D01*
G75*
G02*
X127275000Y-102143500I0J-137500D01*
G01*
X127275000Y-104866500D01*
G75*
G02*
X127137500Y-105004000I-137500J0D01*
G01*
X126862500Y-105004000D01*
G75*
G02*
X126725000Y-104866500I0J137500D01*
G01*
X126725000Y-102143500D01*
G75*
G02*
X126862500Y-102006000I137500J0D01*
G01*
G37*
G36*
G01*
X128132500Y-102006000D02*
X128407500Y-102006000D01*
G75*
G02*
X128545000Y-102143500I0J-137500D01*
G01*
X128545000Y-104866500D01*
G75*
G02*
X128407500Y-105004000I-137500J0D01*
G01*
X128132500Y-105004000D01*
G75*
G02*
X127995000Y-104866500I0J137500D01*
G01*
X127995000Y-102143500D01*
G75*
G02*
X128132500Y-102006000I137500J0D01*
G01*
G37*
G36*
G01*
X129402500Y-102006000D02*
X129677500Y-102006000D01*
G75*
G02*
X129815000Y-102143500I0J-137500D01*
G01*
X129815000Y-104866500D01*
G75*
G02*
X129677500Y-105004000I-137500J0D01*
G01*
X129402500Y-105004000D01*
G75*
G02*
X129265000Y-104866500I0J137500D01*
G01*
X129265000Y-102143500D01*
G75*
G02*
X129402500Y-102006000I137500J0D01*
G01*
G37*
G36*
G01*
X130672500Y-102006000D02*
X130947500Y-102006000D01*
G75*
G02*
X131085000Y-102143500I0J-137500D01*
G01*
X131085000Y-104866500D01*
G75*
G02*
X130947500Y-105004000I-137500J0D01*
G01*
X130672500Y-105004000D01*
G75*
G02*
X130535000Y-104866500I0J137500D01*
G01*
X130535000Y-102143500D01*
G75*
G02*
X130672500Y-102006000I137500J0D01*
G01*
G37*
G36*
G01*
X131942500Y-102006000D02*
X132217500Y-102006000D01*
G75*
G02*
X132355000Y-102143500I0J-137500D01*
G01*
X132355000Y-104866500D01*
G75*
G02*
X132217500Y-105004000I-137500J0D01*
G01*
X131942500Y-105004000D01*
G75*
G02*
X131805000Y-104866500I0J137500D01*
G01*
X131805000Y-102143500D01*
G75*
G02*
X131942500Y-102006000I137500J0D01*
G01*
G37*
G36*
G01*
X133212500Y-102006000D02*
X133487500Y-102006000D01*
G75*
G02*
X133625000Y-102143500I0J-137500D01*
G01*
X133625000Y-104866500D01*
G75*
G02*
X133487500Y-105004000I-137500J0D01*
G01*
X133212500Y-105004000D01*
G75*
G02*
X133075000Y-104866500I0J137500D01*
G01*
X133075000Y-102143500D01*
G75*
G02*
X133212500Y-102006000I137500J0D01*
G01*
G37*
G36*
G01*
X137022500Y-102006000D02*
X137297500Y-102006000D01*
G75*
G02*
X137435000Y-102143500I0J-137500D01*
G01*
X137435000Y-104866500D01*
G75*
G02*
X137297500Y-105004000I-137500J0D01*
G01*
X137022500Y-105004000D01*
G75*
G02*
X136885000Y-104866500I0J137500D01*
G01*
X136885000Y-102143500D01*
G75*
G02*
X137022500Y-102006000I137500J0D01*
G01*
G37*
G36*
G01*
X138292500Y-102006000D02*
X138567500Y-102006000D01*
G75*
G02*
X138705000Y-102143500I0J-137500D01*
G01*
X138705000Y-104866500D01*
G75*
G02*
X138567500Y-105004000I-137500J0D01*
G01*
X138292500Y-105004000D01*
G75*
G02*
X138155000Y-104866500I0J137500D01*
G01*
X138155000Y-102143500D01*
G75*
G02*
X138292500Y-102006000I137500J0D01*
G01*
G37*
G36*
G01*
X140832500Y-102006000D02*
X141107500Y-102006000D01*
G75*
G02*
X141245000Y-102143500I0J-137500D01*
G01*
X141245000Y-104866500D01*
G75*
G02*
X141107500Y-105004000I-137500J0D01*
G01*
X140832500Y-105004000D01*
G75*
G02*
X140695000Y-104866500I0J137500D01*
G01*
X140695000Y-102143500D01*
G75*
G02*
X140832500Y-102006000I137500J0D01*
G01*
G37*
G36*
G01*
X139562500Y-102006000D02*
X139837500Y-102006000D01*
G75*
G02*
X139975000Y-102143500I0J-137500D01*
G01*
X139975000Y-104866500D01*
G75*
G02*
X139837500Y-105004000I-137500J0D01*
G01*
X139562500Y-105004000D01*
G75*
G02*
X139425000Y-104866500I0J137500D01*
G01*
X139425000Y-102143500D01*
G75*
G02*
X139562500Y-102006000I137500J0D01*
G01*
G37*
G36*
G01*
X117972500Y-93116000D02*
X118247500Y-93116000D01*
G75*
G02*
X118385000Y-93253500I0J-137500D01*
G01*
X118385000Y-95976500D01*
G75*
G02*
X118247500Y-96114000I-137500J0D01*
G01*
X117972500Y-96114000D01*
G75*
G02*
X117835000Y-95976500I0J137500D01*
G01*
X117835000Y-93253500D01*
G75*
G02*
X117972500Y-93116000I137500J0D01*
G01*
G37*
G36*
G01*
X119242500Y-93116000D02*
X119517500Y-93116000D01*
G75*
G02*
X119655000Y-93253500I0J-137500D01*
G01*
X119655000Y-95976500D01*
G75*
G02*
X119517500Y-96114000I-137500J0D01*
G01*
X119242500Y-96114000D01*
G75*
G02*
X119105000Y-95976500I0J137500D01*
G01*
X119105000Y-93253500D01*
G75*
G02*
X119242500Y-93116000I137500J0D01*
G01*
G37*
G36*
G01*
X143372500Y-102006000D02*
X143647500Y-102006000D01*
G75*
G02*
X143785000Y-102143500I0J-137500D01*
G01*
X143785000Y-104866500D01*
G75*
G02*
X143647500Y-105004000I-137500J0D01*
G01*
X143372500Y-105004000D01*
G75*
G02*
X143235000Y-104866500I0J137500D01*
G01*
X143235000Y-102143500D01*
G75*
G02*
X143372500Y-102006000I137500J0D01*
G01*
G37*
G36*
G01*
X142102500Y-102006000D02*
X142377500Y-102006000D01*
G75*
G02*
X142515000Y-102143500I0J-137500D01*
G01*
X142515000Y-104866500D01*
G75*
G02*
X142377500Y-105004000I-137500J0D01*
G01*
X142102500Y-105004000D01*
G75*
G02*
X141965000Y-104866500I0J137500D01*
G01*
X141965000Y-102143500D01*
G75*
G02*
X142102500Y-102006000I137500J0D01*
G01*
G37*
G36*
G01*
X142102500Y-115976000D02*
X142377500Y-115976000D01*
G75*
G02*
X142515000Y-116113500I0J-137500D01*
G01*
X142515000Y-118836500D01*
G75*
G02*
X142377500Y-118974000I-137500J0D01*
G01*
X142102500Y-118974000D01*
G75*
G02*
X141965000Y-118836500I0J137500D01*
G01*
X141965000Y-116113500D01*
G75*
G02*
X142102500Y-115976000I137500J0D01*
G01*
G37*
G36*
G01*
X143372500Y-115976000D02*
X143647500Y-115976000D01*
G75*
G02*
X143785000Y-116113500I0J-137500D01*
G01*
X143785000Y-118836500D01*
G75*
G02*
X143647500Y-118974000I-137500J0D01*
G01*
X143372500Y-118974000D01*
G75*
G02*
X143235000Y-118836500I0J137500D01*
G01*
X143235000Y-116113500D01*
G75*
G02*
X143372500Y-115976000I137500J0D01*
G01*
G37*
G36*
G01*
X119242500Y-107086000D02*
X119517500Y-107086000D01*
G75*
G02*
X119655000Y-107223500I0J-137500D01*
G01*
X119655000Y-109946500D01*
G75*
G02*
X119517500Y-110084000I-137500J0D01*
G01*
X119242500Y-110084000D01*
G75*
G02*
X119105000Y-109946500I0J137500D01*
G01*
X119105000Y-107223500D01*
G75*
G02*
X119242500Y-107086000I137500J0D01*
G01*
G37*
G36*
G01*
X117972500Y-107086000D02*
X118247500Y-107086000D01*
G75*
G02*
X118385000Y-107223500I0J-137500D01*
G01*
X118385000Y-109946500D01*
G75*
G02*
X118247500Y-110084000I-137500J0D01*
G01*
X117972500Y-110084000D01*
G75*
G02*
X117835000Y-109946500I0J137500D01*
G01*
X117835000Y-107223500D01*
G75*
G02*
X117972500Y-107086000I137500J0D01*
G01*
G37*
G36*
G01*
X139562500Y-115976000D02*
X139837500Y-115976000D01*
G75*
G02*
X139975000Y-116113500I0J-137500D01*
G01*
X139975000Y-118836500D01*
G75*
G02*
X139837500Y-118974000I-137500J0D01*
G01*
X139562500Y-118974000D01*
G75*
G02*
X139425000Y-118836500I0J137500D01*
G01*
X139425000Y-116113500D01*
G75*
G02*
X139562500Y-115976000I137500J0D01*
G01*
G37*
G36*
G01*
X140832500Y-115976000D02*
X141107500Y-115976000D01*
G75*
G02*
X141245000Y-116113500I0J-137500D01*
G01*
X141245000Y-118836500D01*
G75*
G02*
X141107500Y-118974000I-137500J0D01*
G01*
X140832500Y-118974000D01*
G75*
G02*
X140695000Y-118836500I0J137500D01*
G01*
X140695000Y-116113500D01*
G75*
G02*
X140832500Y-115976000I137500J0D01*
G01*
G37*
G36*
G01*
X138292500Y-115976000D02*
X138567500Y-115976000D01*
G75*
G02*
X138705000Y-116113500I0J-137500D01*
G01*
X138705000Y-118836500D01*
G75*
G02*
X138567500Y-118974000I-137500J0D01*
G01*
X138292500Y-118974000D01*
G75*
G02*
X138155000Y-118836500I0J137500D01*
G01*
X138155000Y-116113500D01*
G75*
G02*
X138292500Y-115976000I137500J0D01*
G01*
G37*
G36*
G01*
X137022500Y-115976000D02*
X137297500Y-115976000D01*
G75*
G02*
X137435000Y-116113500I0J-137500D01*
G01*
X137435000Y-118836500D01*
G75*
G02*
X137297500Y-118974000I-137500J0D01*
G01*
X137022500Y-118974000D01*
G75*
G02*
X136885000Y-118836500I0J137500D01*
G01*
X136885000Y-116113500D01*
G75*
G02*
X137022500Y-115976000I137500J0D01*
G01*
G37*
G36*
G01*
X133212500Y-115976000D02*
X133487500Y-115976000D01*
G75*
G02*
X133625000Y-116113500I0J-137500D01*
G01*
X133625000Y-118836500D01*
G75*
G02*
X133487500Y-118974000I-137500J0D01*
G01*
X133212500Y-118974000D01*
G75*
G02*
X133075000Y-118836500I0J137500D01*
G01*
X133075000Y-116113500D01*
G75*
G02*
X133212500Y-115976000I137500J0D01*
G01*
G37*
G36*
G01*
X131942500Y-115976000D02*
X132217500Y-115976000D01*
G75*
G02*
X132355000Y-116113500I0J-137500D01*
G01*
X132355000Y-118836500D01*
G75*
G02*
X132217500Y-118974000I-137500J0D01*
G01*
X131942500Y-118974000D01*
G75*
G02*
X131805000Y-118836500I0J137500D01*
G01*
X131805000Y-116113500D01*
G75*
G02*
X131942500Y-115976000I137500J0D01*
G01*
G37*
G36*
G01*
X130672500Y-115976000D02*
X130947500Y-115976000D01*
G75*
G02*
X131085000Y-116113500I0J-137500D01*
G01*
X131085000Y-118836500D01*
G75*
G02*
X130947500Y-118974000I-137500J0D01*
G01*
X130672500Y-118974000D01*
G75*
G02*
X130535000Y-118836500I0J137500D01*
G01*
X130535000Y-116113500D01*
G75*
G02*
X130672500Y-115976000I137500J0D01*
G01*
G37*
G36*
G01*
X129402500Y-115976000D02*
X129677500Y-115976000D01*
G75*
G02*
X129815000Y-116113500I0J-137500D01*
G01*
X129815000Y-118836500D01*
G75*
G02*
X129677500Y-118974000I-137500J0D01*
G01*
X129402500Y-118974000D01*
G75*
G02*
X129265000Y-118836500I0J137500D01*
G01*
X129265000Y-116113500D01*
G75*
G02*
X129402500Y-115976000I137500J0D01*
G01*
G37*
G36*
G01*
X128132500Y-115976000D02*
X128407500Y-115976000D01*
G75*
G02*
X128545000Y-116113500I0J-137500D01*
G01*
X128545000Y-118836500D01*
G75*
G02*
X128407500Y-118974000I-137500J0D01*
G01*
X128132500Y-118974000D01*
G75*
G02*
X127995000Y-118836500I0J137500D01*
G01*
X127995000Y-116113500D01*
G75*
G02*
X128132500Y-115976000I137500J0D01*
G01*
G37*
G36*
G01*
X126862500Y-115976000D02*
X127137500Y-115976000D01*
G75*
G02*
X127275000Y-116113500I0J-137500D01*
G01*
X127275000Y-118836500D01*
G75*
G02*
X127137500Y-118974000I-137500J0D01*
G01*
X126862500Y-118974000D01*
G75*
G02*
X126725000Y-118836500I0J137500D01*
G01*
X126725000Y-116113500D01*
G75*
G02*
X126862500Y-115976000I137500J0D01*
G01*
G37*
G36*
G01*
X134482500Y-115976000D02*
X134757500Y-115976000D01*
G75*
G02*
X134895000Y-116113500I0J-137500D01*
G01*
X134895000Y-118836500D01*
G75*
G02*
X134757500Y-118974000I-137500J0D01*
G01*
X134482500Y-118974000D01*
G75*
G02*
X134345000Y-118836500I0J137500D01*
G01*
X134345000Y-116113500D01*
G75*
G02*
X134482500Y-115976000I137500J0D01*
G01*
G37*
G36*
G01*
X135752500Y-115976000D02*
X136027500Y-115976000D01*
G75*
G02*
X136165000Y-116113500I0J-137500D01*
G01*
X136165000Y-118836500D01*
G75*
G02*
X136027500Y-118974000I-137500J0D01*
G01*
X135752500Y-118974000D01*
G75*
G02*
X135615000Y-118836500I0J137500D01*
G01*
X135615000Y-116113500D01*
G75*
G02*
X135752500Y-115976000I137500J0D01*
G01*
G37*
G36*
G01*
X120512500Y-107086000D02*
X120787500Y-107086000D01*
G75*
G02*
X120925000Y-107223500I0J-137500D01*
G01*
X120925000Y-109946500D01*
G75*
G02*
X120787500Y-110084000I-137500J0D01*
G01*
X120512500Y-110084000D01*
G75*
G02*
X120375000Y-109946500I0J137500D01*
G01*
X120375000Y-107223500D01*
G75*
G02*
X120512500Y-107086000I137500J0D01*
G01*
G37*
G36*
G01*
X121782500Y-107086000D02*
X122057500Y-107086000D01*
G75*
G02*
X122195000Y-107223500I0J-137500D01*
G01*
X122195000Y-109946500D01*
G75*
G02*
X122057500Y-110084000I-137500J0D01*
G01*
X121782500Y-110084000D01*
G75*
G02*
X121645000Y-109946500I0J137500D01*
G01*
X121645000Y-107223500D01*
G75*
G02*
X121782500Y-107086000I137500J0D01*
G01*
G37*
G36*
G01*
X123052500Y-107086000D02*
X123327500Y-107086000D01*
G75*
G02*
X123465000Y-107223500I0J-137500D01*
G01*
X123465000Y-109946500D01*
G75*
G02*
X123327500Y-110084000I-137500J0D01*
G01*
X123052500Y-110084000D01*
G75*
G02*
X122915000Y-109946500I0J137500D01*
G01*
X122915000Y-107223500D01*
G75*
G02*
X123052500Y-107086000I137500J0D01*
G01*
G37*
G36*
G01*
X124322500Y-107086000D02*
X124597500Y-107086000D01*
G75*
G02*
X124735000Y-107223500I0J-137500D01*
G01*
X124735000Y-109946500D01*
G75*
G02*
X124597500Y-110084000I-137500J0D01*
G01*
X124322500Y-110084000D01*
G75*
G02*
X124185000Y-109946500I0J137500D01*
G01*
X124185000Y-107223500D01*
G75*
G02*
X124322500Y-107086000I137500J0D01*
G01*
G37*
G36*
G01*
X125592500Y-107086000D02*
X125867500Y-107086000D01*
G75*
G02*
X126005000Y-107223500I0J-137500D01*
G01*
X126005000Y-109946500D01*
G75*
G02*
X125867500Y-110084000I-137500J0D01*
G01*
X125592500Y-110084000D01*
G75*
G02*
X125455000Y-109946500I0J137500D01*
G01*
X125455000Y-107223500D01*
G75*
G02*
X125592500Y-107086000I137500J0D01*
G01*
G37*
G36*
G01*
X135752500Y-107086000D02*
X136027500Y-107086000D01*
G75*
G02*
X136165000Y-107223500I0J-137500D01*
G01*
X136165000Y-109946500D01*
G75*
G02*
X136027500Y-110084000I-137500J0D01*
G01*
X135752500Y-110084000D01*
G75*
G02*
X135615000Y-109946500I0J137500D01*
G01*
X135615000Y-107223500D01*
G75*
G02*
X135752500Y-107086000I137500J0D01*
G01*
G37*
G36*
G01*
X123052500Y-115976000D02*
X123327500Y-115976000D01*
G75*
G02*
X123465000Y-116113500I0J-137500D01*
G01*
X123465000Y-118836500D01*
G75*
G02*
X123327500Y-118974000I-137500J0D01*
G01*
X123052500Y-118974000D01*
G75*
G02*
X122915000Y-118836500I0J137500D01*
G01*
X122915000Y-116113500D01*
G75*
G02*
X123052500Y-115976000I137500J0D01*
G01*
G37*
G36*
G01*
X121782500Y-115976000D02*
X122057500Y-115976000D01*
G75*
G02*
X122195000Y-116113500I0J-137500D01*
G01*
X122195000Y-118836500D01*
G75*
G02*
X122057500Y-118974000I-137500J0D01*
G01*
X121782500Y-118974000D01*
G75*
G02*
X121645000Y-118836500I0J137500D01*
G01*
X121645000Y-116113500D01*
G75*
G02*
X121782500Y-115976000I137500J0D01*
G01*
G37*
G36*
G01*
X120512500Y-115976000D02*
X120787500Y-115976000D01*
G75*
G02*
X120925000Y-116113500I0J-137500D01*
G01*
X120925000Y-118836500D01*
G75*
G02*
X120787500Y-118974000I-137500J0D01*
G01*
X120512500Y-118974000D01*
G75*
G02*
X120375000Y-118836500I0J137500D01*
G01*
X120375000Y-116113500D01*
G75*
G02*
X120512500Y-115976000I137500J0D01*
G01*
G37*
G36*
G01*
X119242500Y-115976000D02*
X119517500Y-115976000D01*
G75*
G02*
X119655000Y-116113500I0J-137500D01*
G01*
X119655000Y-118836500D01*
G75*
G02*
X119517500Y-118974000I-137500J0D01*
G01*
X119242500Y-118974000D01*
G75*
G02*
X119105000Y-118836500I0J137500D01*
G01*
X119105000Y-116113500D01*
G75*
G02*
X119242500Y-115976000I137500J0D01*
G01*
G37*
G36*
G01*
X117972500Y-115976000D02*
X118247500Y-115976000D01*
G75*
G02*
X118385000Y-116113500I0J-137500D01*
G01*
X118385000Y-118836500D01*
G75*
G02*
X118247500Y-118974000I-137500J0D01*
G01*
X117972500Y-118974000D01*
G75*
G02*
X117835000Y-118836500I0J137500D01*
G01*
X117835000Y-116113500D01*
G75*
G02*
X117972500Y-115976000I137500J0D01*
G01*
G37*
G36*
G01*
X128132500Y-107086000D02*
X128407500Y-107086000D01*
G75*
G02*
X128545000Y-107223500I0J-137500D01*
G01*
X128545000Y-109946500D01*
G75*
G02*
X128407500Y-110084000I-137500J0D01*
G01*
X128132500Y-110084000D01*
G75*
G02*
X127995000Y-109946500I0J137500D01*
G01*
X127995000Y-107223500D01*
G75*
G02*
X128132500Y-107086000I137500J0D01*
G01*
G37*
G36*
G01*
X129402500Y-107086000D02*
X129677500Y-107086000D01*
G75*
G02*
X129815000Y-107223500I0J-137500D01*
G01*
X129815000Y-109946500D01*
G75*
G02*
X129677500Y-110084000I-137500J0D01*
G01*
X129402500Y-110084000D01*
G75*
G02*
X129265000Y-109946500I0J137500D01*
G01*
X129265000Y-107223500D01*
G75*
G02*
X129402500Y-107086000I137500J0D01*
G01*
G37*
G36*
G01*
X130672500Y-107086000D02*
X130947500Y-107086000D01*
G75*
G02*
X131085000Y-107223500I0J-137500D01*
G01*
X131085000Y-109946500D01*
G75*
G02*
X130947500Y-110084000I-137500J0D01*
G01*
X130672500Y-110084000D01*
G75*
G02*
X130535000Y-109946500I0J137500D01*
G01*
X130535000Y-107223500D01*
G75*
G02*
X130672500Y-107086000I137500J0D01*
G01*
G37*
G36*
G01*
X131942500Y-107086000D02*
X132217500Y-107086000D01*
G75*
G02*
X132355000Y-107223500I0J-137500D01*
G01*
X132355000Y-109946500D01*
G75*
G02*
X132217500Y-110084000I-137500J0D01*
G01*
X131942500Y-110084000D01*
G75*
G02*
X131805000Y-109946500I0J137500D01*
G01*
X131805000Y-107223500D01*
G75*
G02*
X131942500Y-107086000I137500J0D01*
G01*
G37*
G36*
G01*
X133212500Y-107086000D02*
X133487500Y-107086000D01*
G75*
G02*
X133625000Y-107223500I0J-137500D01*
G01*
X133625000Y-109946500D01*
G75*
G02*
X133487500Y-110084000I-137500J0D01*
G01*
X133212500Y-110084000D01*
G75*
G02*
X133075000Y-109946500I0J137500D01*
G01*
X133075000Y-107223500D01*
G75*
G02*
X133212500Y-107086000I137500J0D01*
G01*
G37*
G36*
G01*
X138292500Y-107086000D02*
X138567500Y-107086000D01*
G75*
G02*
X138705000Y-107223500I0J-137500D01*
G01*
X138705000Y-109946500D01*
G75*
G02*
X138567500Y-110084000I-137500J0D01*
G01*
X138292500Y-110084000D01*
G75*
G02*
X138155000Y-109946500I0J137500D01*
G01*
X138155000Y-107223500D01*
G75*
G02*
X138292500Y-107086000I137500J0D01*
G01*
G37*
G36*
G01*
X139562500Y-107086000D02*
X139837500Y-107086000D01*
G75*
G02*
X139975000Y-107223500I0J-137500D01*
G01*
X139975000Y-109946500D01*
G75*
G02*
X139837500Y-110084000I-137500J0D01*
G01*
X139562500Y-110084000D01*
G75*
G02*
X139425000Y-109946500I0J137500D01*
G01*
X139425000Y-107223500D01*
G75*
G02*
X139562500Y-107086000I137500J0D01*
G01*
G37*
G36*
G01*
X140832500Y-107086000D02*
X141107500Y-107086000D01*
G75*
G02*
X141245000Y-107223500I0J-137500D01*
G01*
X141245000Y-109946500D01*
G75*
G02*
X141107500Y-110084000I-137500J0D01*
G01*
X140832500Y-110084000D01*
G75*
G02*
X140695000Y-109946500I0J137500D01*
G01*
X140695000Y-107223500D01*
G75*
G02*
X140832500Y-107086000I137500J0D01*
G01*
G37*
G36*
G01*
X142102500Y-107086000D02*
X142377500Y-107086000D01*
G75*
G02*
X142515000Y-107223500I0J-137500D01*
G01*
X142515000Y-109946500D01*
G75*
G02*
X142377500Y-110084000I-137500J0D01*
G01*
X142102500Y-110084000D01*
G75*
G02*
X141965000Y-109946500I0J137500D01*
G01*
X141965000Y-107223500D01*
G75*
G02*
X142102500Y-107086000I137500J0D01*
G01*
G37*
G36*
G01*
X143372500Y-107086000D02*
X143647500Y-107086000D01*
G75*
G02*
X143785000Y-107223500I0J-137500D01*
G01*
X143785000Y-109946500D01*
G75*
G02*
X143647500Y-110084000I-137500J0D01*
G01*
X143372500Y-110084000D01*
G75*
G02*
X143235000Y-109946500I0J137500D01*
G01*
X143235000Y-107223500D01*
G75*
G02*
X143372500Y-107086000I137500J0D01*
G01*
G37*
G36*
G01*
X137022500Y-107086000D02*
X137297500Y-107086000D01*
G75*
G02*
X137435000Y-107223500I0J-137500D01*
G01*
X137435000Y-109946500D01*
G75*
G02*
X137297500Y-110084000I-137500J0D01*
G01*
X137022500Y-110084000D01*
G75*
G02*
X136885000Y-109946500I0J137500D01*
G01*
X136885000Y-107223500D01*
G75*
G02*
X137022500Y-107086000I137500J0D01*
G01*
G37*
G36*
G01*
X134482500Y-107086000D02*
X134757500Y-107086000D01*
G75*
G02*
X134895000Y-107223500I0J-137500D01*
G01*
X134895000Y-109946500D01*
G75*
G02*
X134757500Y-110084000I-137500J0D01*
G01*
X134482500Y-110084000D01*
G75*
G02*
X134345000Y-109946500I0J137500D01*
G01*
X134345000Y-107223500D01*
G75*
G02*
X134482500Y-107086000I137500J0D01*
G01*
G37*
G36*
G01*
X126862500Y-107086000D02*
X127137500Y-107086000D01*
G75*
G02*
X127275000Y-107223500I0J-137500D01*
G01*
X127275000Y-109946500D01*
G75*
G02*
X127137500Y-110084000I-137500J0D01*
G01*
X126862500Y-110084000D01*
G75*
G02*
X126725000Y-109946500I0J137500D01*
G01*
X126725000Y-107223500D01*
G75*
G02*
X126862500Y-107086000I137500J0D01*
G01*
G37*
G36*
G01*
X124322500Y-115976000D02*
X124597500Y-115976000D01*
G75*
G02*
X124735000Y-116113500I0J-137500D01*
G01*
X124735000Y-118836500D01*
G75*
G02*
X124597500Y-118974000I-137500J0D01*
G01*
X124322500Y-118974000D01*
G75*
G02*
X124185000Y-118836500I0J137500D01*
G01*
X124185000Y-116113500D01*
G75*
G02*
X124322500Y-115976000I137500J0D01*
G01*
G37*
G36*
G01*
X125592500Y-115976000D02*
X125867500Y-115976000D01*
G75*
G02*
X126005000Y-116113500I0J-137500D01*
G01*
X126005000Y-118836500D01*
G75*
G02*
X125867500Y-118974000I-137500J0D01*
G01*
X125592500Y-118974000D01*
G75*
G02*
X125455000Y-118836500I0J137500D01*
G01*
X125455000Y-116113500D01*
G75*
G02*
X125592500Y-115976000I137500J0D01*
G01*
G37*
M02*
