G04 #@! TF.GenerationSoftware,KiCad,Pcbnew,(6.0.1-0)*
G04 #@! TF.CreationDate,2022-02-10T22:24:19-05:00*
G04 #@! TF.ProjectId,MacClassicRAMCard,4d616343-6c61-4737-9369-6352414d4361,rev?*
G04 #@! TF.SameCoordinates,Original*
G04 #@! TF.FileFunction,Paste,Top*
G04 #@! TF.FilePolarity,Positive*
%FSLAX46Y46*%
G04 Gerber Fmt 4.6, Leading zero omitted, Abs format (unit mm)*
G04 Created by KiCad (PCBNEW (6.0.1-0)) date 2022-02-10 22:24:19*
%MOMM*%
%LPD*%
G01*
G04 APERTURE LIST*
G04 Aperture macros list*
%AMRoundRect*
0 Rectangle with rounded corners*
0 $1 Rounding radius*
0 $2 $3 $4 $5 $6 $7 $8 $9 X,Y pos of 4 corners*
0 Add a 4 corners polygon primitive as box body*
4,1,4,$2,$3,$4,$5,$6,$7,$8,$9,$2,$3,0*
0 Add four circle primitives for the rounded corners*
1,1,$1+$1,$2,$3*
1,1,$1+$1,$4,$5*
1,1,$1+$1,$6,$7*
1,1,$1+$1,$8,$9*
0 Add four rect primitives between the rounded corners*
20,1,$1+$1,$2,$3,$4,$5,0*
20,1,$1+$1,$4,$5,$6,$7,0*
20,1,$1+$1,$6,$7,$8,$9,0*
20,1,$1+$1,$8,$9,$2,$3,0*%
G04 Aperture macros list end*
%ADD10RoundRect,0.237500X-0.437500X0.262500X-0.437500X-0.262500X0.437500X-0.262500X0.437500X0.262500X0*%
%ADD11RoundRect,0.237500X0.262500X0.437500X-0.262500X0.437500X-0.262500X-0.437500X0.262500X-0.437500X0*%
%ADD12RoundRect,0.125000X-0.150000X1.374000X-0.150000X-1.374000X0.150000X-1.374000X0.150000X1.374000X0*%
%ADD13RoundRect,0.125000X0.150000X-0.825000X0.150000X0.825000X-0.150000X0.825000X-0.150000X-0.825000X0*%
%ADD14RoundRect,0.237500X-0.262500X-0.437500X0.262500X-0.437500X0.262500X0.437500X-0.262500X0.437500X0*%
G04 APERTURE END LIST*
D10*
X115570000Y-108585000D03*
X115570000Y-110285000D03*
D11*
X96100000Y-120269000D03*
X94400000Y-120269000D03*
D10*
X146050000Y-108585000D03*
X146050000Y-110285000D03*
D12*
X143510000Y-94615000D03*
X142240000Y-94615000D03*
X140970000Y-94615000D03*
X139700000Y-94615000D03*
X138430000Y-94615000D03*
X137160000Y-94615000D03*
X135890000Y-94615000D03*
X134620000Y-94615000D03*
X133350000Y-94615000D03*
X132080000Y-94615000D03*
X130810000Y-94615000D03*
X129540000Y-94615000D03*
X128270000Y-94615000D03*
X127000000Y-94615000D03*
X125730000Y-94615000D03*
X124460000Y-94615000D03*
X123190000Y-94615000D03*
X121920000Y-94615000D03*
X120650000Y-94615000D03*
X119380000Y-94615000D03*
X118110000Y-94615000D03*
X118110000Y-103505000D03*
X119380000Y-103505000D03*
X120650000Y-103505000D03*
X121920000Y-103505000D03*
X123190000Y-103505000D03*
X124460000Y-103505000D03*
X125730000Y-103505000D03*
X127000000Y-103505000D03*
X128270000Y-103505000D03*
X129540000Y-103505000D03*
X130810000Y-103505000D03*
X132080000Y-103505000D03*
X133350000Y-103505000D03*
X134620000Y-103505000D03*
X135890000Y-103505000D03*
X137160000Y-103505000D03*
X138430000Y-103505000D03*
X139700000Y-103505000D03*
X140970000Y-103505000D03*
X142240000Y-103505000D03*
X143510000Y-103505000D03*
D13*
X100330000Y-115505000D03*
X101600000Y-115505000D03*
X102870000Y-115505000D03*
X104140000Y-115505000D03*
X105410000Y-115505000D03*
X106680000Y-115505000D03*
X107950000Y-115505000D03*
X107950000Y-110555000D03*
X106680000Y-110555000D03*
X105410000Y-110555000D03*
X104140000Y-110555000D03*
X102870000Y-110555000D03*
X101600000Y-110555000D03*
X100330000Y-110555000D03*
D12*
X143510000Y-108585000D03*
X142240000Y-108585000D03*
X140970000Y-108585000D03*
X139700000Y-108585000D03*
X138430000Y-108585000D03*
X137160000Y-108585000D03*
X135890000Y-108585000D03*
X134620000Y-108585000D03*
X133350000Y-108585000D03*
X132080000Y-108585000D03*
X130810000Y-108585000D03*
X129540000Y-108585000D03*
X128270000Y-108585000D03*
X127000000Y-108585000D03*
X125730000Y-108585000D03*
X124460000Y-108585000D03*
X123190000Y-108585000D03*
X121920000Y-108585000D03*
X120650000Y-108585000D03*
X119380000Y-108585000D03*
X118110000Y-108585000D03*
X118110000Y-117475000D03*
X119380000Y-117475000D03*
X120650000Y-117475000D03*
X121920000Y-117475000D03*
X123190000Y-117475000D03*
X124460000Y-117475000D03*
X125730000Y-117475000D03*
X127000000Y-117475000D03*
X128270000Y-117475000D03*
X129540000Y-117475000D03*
X130810000Y-117475000D03*
X132080000Y-117475000D03*
X133350000Y-117475000D03*
X134620000Y-117475000D03*
X135890000Y-117475000D03*
X137160000Y-117475000D03*
X138430000Y-117475000D03*
X139700000Y-117475000D03*
X140970000Y-117475000D03*
X142240000Y-117475000D03*
X143510000Y-117475000D03*
D14*
X145200000Y-120269000D03*
X146900000Y-120269000D03*
D10*
X98425000Y-110617000D03*
X98425000Y-112317000D03*
X146050000Y-94615000D03*
X146050000Y-96315000D03*
X115570000Y-94615000D03*
X115570000Y-96315000D03*
M02*
