G04 #@! TF.GenerationSoftware,KiCad,Pcbnew,(5.1.10-1-10_14)*
G04 #@! TF.CreationDate,2021-11-16T23:45:20-05:00*
G04 #@! TF.ProjectId,MacClassicRAMCard,4d616343-6c61-4737-9369-6352414d4361,rev?*
G04 #@! TF.SameCoordinates,Original*
G04 #@! TF.FileFunction,Legend,Top*
G04 #@! TF.FilePolarity,Positive*
%FSLAX46Y46*%
G04 Gerber Fmt 4.6, Leading zero omitted, Abs format (unit mm)*
G04 Created by KiCad (PCBNEW (5.1.10-1-10_14)) date 2021-11-16 23:45:20*
%MOMM*%
%LPD*%
G01*
G04 APERTURE LIST*
%ADD10C,0.203200*%
%ADD11C,0.300000*%
%ADD12C,0.200000*%
%ADD13C,0.225000*%
%ADD14C,0.120000*%
%ADD15C,0.152400*%
%ADD16O,1.850000X1.850000*%
%ADD17C,2.000000*%
%ADD18C,2.150000*%
G04 APERTURE END LIST*
D10*
X117940666Y-128840895D02*
X117940666Y-129421466D01*
X117901961Y-129537580D01*
X117824552Y-129614990D01*
X117708438Y-129653695D01*
X117631028Y-129653695D01*
X118714761Y-129653695D02*
X118327714Y-129653695D01*
X118327714Y-128840895D01*
X119450152Y-129576285D02*
X119411447Y-129614990D01*
X119295333Y-129653695D01*
X119217923Y-129653695D01*
X119101809Y-129614990D01*
X119024400Y-129537580D01*
X118985695Y-129460171D01*
X118946990Y-129305352D01*
X118946990Y-129189238D01*
X118985695Y-129034419D01*
X119024400Y-128957009D01*
X119101809Y-128879600D01*
X119217923Y-128840895D01*
X119295333Y-128840895D01*
X119411447Y-128879600D01*
X119450152Y-128918304D01*
X120030723Y-128840895D02*
X120030723Y-129421466D01*
X119992019Y-129537580D01*
X119914609Y-129614990D01*
X119798495Y-129653695D01*
X119721085Y-129653695D01*
X120804819Y-129653695D02*
X120417771Y-129653695D01*
X120417771Y-128840895D01*
X121540209Y-129576285D02*
X121501504Y-129614990D01*
X121385390Y-129653695D01*
X121307980Y-129653695D01*
X121191866Y-129614990D01*
X121114457Y-129537580D01*
X121075752Y-129460171D01*
X121037047Y-129305352D01*
X121037047Y-129189238D01*
X121075752Y-129034419D01*
X121114457Y-128957009D01*
X121191866Y-128879600D01*
X121307980Y-128840895D01*
X121385390Y-128840895D01*
X121501504Y-128879600D01*
X121540209Y-128918304D01*
X122120780Y-128840895D02*
X122120780Y-129421466D01*
X122082076Y-129537580D01*
X122004666Y-129614990D01*
X121888552Y-129653695D01*
X121811142Y-129653695D01*
X122894876Y-129653695D02*
X122507828Y-129653695D01*
X122507828Y-128840895D01*
X123630266Y-129576285D02*
X123591561Y-129614990D01*
X123475447Y-129653695D01*
X123398038Y-129653695D01*
X123281923Y-129614990D01*
X123204514Y-129537580D01*
X123165809Y-129460171D01*
X123127104Y-129305352D01*
X123127104Y-129189238D01*
X123165809Y-129034419D01*
X123204514Y-128957009D01*
X123281923Y-128879600D01*
X123398038Y-128840895D01*
X123475447Y-128840895D01*
X123591561Y-128879600D01*
X123630266Y-128918304D01*
D11*
X96520000Y-99749428D02*
X97463428Y-99749428D01*
X96955428Y-100330000D01*
X97173142Y-100330000D01*
X97318285Y-100402571D01*
X97390857Y-100475142D01*
X97463428Y-100620285D01*
X97463428Y-100983142D01*
X97390857Y-101128285D01*
X97318285Y-101200857D01*
X97173142Y-101273428D01*
X96737714Y-101273428D01*
X96592571Y-101200857D01*
X96520000Y-101128285D01*
X99277714Y-101273428D02*
X99277714Y-99749428D01*
X99785714Y-100838000D01*
X100293714Y-99749428D01*
X100293714Y-101273428D01*
X101527428Y-100475142D02*
X101745142Y-100547714D01*
X101817714Y-100620285D01*
X101890285Y-100765428D01*
X101890285Y-100983142D01*
X101817714Y-101128285D01*
X101745142Y-101200857D01*
X101600000Y-101273428D01*
X101019428Y-101273428D01*
X101019428Y-99749428D01*
X101527428Y-99749428D01*
X101672571Y-99822000D01*
X101745142Y-99894571D01*
X101817714Y-100039714D01*
X101817714Y-100184857D01*
X101745142Y-100330000D01*
X101672571Y-100402571D01*
X101527428Y-100475142D01*
X101019428Y-100475142D01*
X104575428Y-101273428D02*
X104067428Y-100547714D01*
X103704571Y-101273428D02*
X103704571Y-99749428D01*
X104285142Y-99749428D01*
X104430285Y-99822000D01*
X104502857Y-99894571D01*
X104575428Y-100039714D01*
X104575428Y-100257428D01*
X104502857Y-100402571D01*
X104430285Y-100475142D01*
X104285142Y-100547714D01*
X103704571Y-100547714D01*
X105156000Y-100838000D02*
X105881714Y-100838000D01*
X105010857Y-101273428D02*
X105518857Y-99749428D01*
X106026857Y-101273428D01*
X106534857Y-101273428D02*
X106534857Y-99749428D01*
X107042857Y-100838000D01*
X107550857Y-99749428D01*
X107550857Y-101273428D01*
D12*
X93834857Y-102525285D02*
X94221904Y-102525285D01*
X93980000Y-103202619D02*
X93980000Y-102331761D01*
X94028380Y-102235000D01*
X94125142Y-102186619D01*
X94221904Y-102186619D01*
X94705714Y-103202619D02*
X94608952Y-103154238D01*
X94560571Y-103105857D01*
X94512190Y-103009095D01*
X94512190Y-102718809D01*
X94560571Y-102622047D01*
X94608952Y-102573666D01*
X94705714Y-102525285D01*
X94850857Y-102525285D01*
X94947619Y-102573666D01*
X94996000Y-102622047D01*
X95044380Y-102718809D01*
X95044380Y-103009095D01*
X94996000Y-103105857D01*
X94947619Y-103154238D01*
X94850857Y-103202619D01*
X94705714Y-103202619D01*
X95479809Y-103202619D02*
X95479809Y-102525285D01*
X95479809Y-102718809D02*
X95528190Y-102622047D01*
X95576571Y-102573666D01*
X95673333Y-102525285D01*
X95770095Y-102525285D01*
X96882857Y-103202619D02*
X96882857Y-102186619D01*
X97221523Y-102912333D01*
X97560190Y-102186619D01*
X97560190Y-103202619D01*
X98479428Y-103202619D02*
X98479428Y-102670428D01*
X98431047Y-102573666D01*
X98334285Y-102525285D01*
X98140761Y-102525285D01*
X98044000Y-102573666D01*
X98479428Y-103154238D02*
X98382666Y-103202619D01*
X98140761Y-103202619D01*
X98044000Y-103154238D01*
X97995619Y-103057476D01*
X97995619Y-102960714D01*
X98044000Y-102863952D01*
X98140761Y-102815571D01*
X98382666Y-102815571D01*
X98479428Y-102767190D01*
X99398666Y-103154238D02*
X99301904Y-103202619D01*
X99108380Y-103202619D01*
X99011619Y-103154238D01*
X98963238Y-103105857D01*
X98914857Y-103009095D01*
X98914857Y-102718809D01*
X98963238Y-102622047D01*
X99011619Y-102573666D01*
X99108380Y-102525285D01*
X99301904Y-102525285D01*
X99398666Y-102573666D01*
X99834095Y-103202619D02*
X99834095Y-102525285D01*
X99834095Y-102186619D02*
X99785714Y-102235000D01*
X99834095Y-102283380D01*
X99882476Y-102235000D01*
X99834095Y-102186619D01*
X99834095Y-102283380D01*
X100317904Y-102525285D02*
X100317904Y-103202619D01*
X100317904Y-102622047D02*
X100366285Y-102573666D01*
X100463047Y-102525285D01*
X100608190Y-102525285D01*
X100704952Y-102573666D01*
X100753333Y-102670428D01*
X100753333Y-103202619D01*
X101092000Y-102525285D02*
X101479047Y-102525285D01*
X101237142Y-102186619D02*
X101237142Y-103057476D01*
X101285523Y-103154238D01*
X101382285Y-103202619D01*
X101479047Y-103202619D01*
X101962857Y-103202619D02*
X101866095Y-103154238D01*
X101817714Y-103105857D01*
X101769333Y-103009095D01*
X101769333Y-102718809D01*
X101817714Y-102622047D01*
X101866095Y-102573666D01*
X101962857Y-102525285D01*
X102108000Y-102525285D01*
X102204761Y-102573666D01*
X102253142Y-102622047D01*
X102301523Y-102718809D01*
X102301523Y-103009095D01*
X102253142Y-103105857D01*
X102204761Y-103154238D01*
X102108000Y-103202619D01*
X101962857Y-103202619D01*
X102688571Y-103154238D02*
X102785333Y-103202619D01*
X102978857Y-103202619D01*
X103075619Y-103154238D01*
X103124000Y-103057476D01*
X103124000Y-103009095D01*
X103075619Y-102912333D01*
X102978857Y-102863952D01*
X102833714Y-102863952D01*
X102736952Y-102815571D01*
X102688571Y-102718809D01*
X102688571Y-102670428D01*
X102736952Y-102573666D01*
X102833714Y-102525285D01*
X102978857Y-102525285D01*
X103075619Y-102573666D01*
X103559428Y-103202619D02*
X103559428Y-102186619D01*
X103994857Y-103202619D02*
X103994857Y-102670428D01*
X103946476Y-102573666D01*
X103849714Y-102525285D01*
X103704571Y-102525285D01*
X103607809Y-102573666D01*
X103559428Y-102622047D01*
X105833333Y-103105857D02*
X105784952Y-103154238D01*
X105639809Y-103202619D01*
X105543047Y-103202619D01*
X105397904Y-103154238D01*
X105301142Y-103057476D01*
X105252761Y-102960714D01*
X105204380Y-102767190D01*
X105204380Y-102622047D01*
X105252761Y-102428523D01*
X105301142Y-102331761D01*
X105397904Y-102235000D01*
X105543047Y-102186619D01*
X105639809Y-102186619D01*
X105784952Y-102235000D01*
X105833333Y-102283380D01*
X106413904Y-103202619D02*
X106317142Y-103154238D01*
X106268761Y-103057476D01*
X106268761Y-102186619D01*
X107236380Y-103202619D02*
X107236380Y-102670428D01*
X107188000Y-102573666D01*
X107091238Y-102525285D01*
X106897714Y-102525285D01*
X106800952Y-102573666D01*
X107236380Y-103154238D02*
X107139619Y-103202619D01*
X106897714Y-103202619D01*
X106800952Y-103154238D01*
X106752571Y-103057476D01*
X106752571Y-102960714D01*
X106800952Y-102863952D01*
X106897714Y-102815571D01*
X107139619Y-102815571D01*
X107236380Y-102767190D01*
X107671809Y-103154238D02*
X107768571Y-103202619D01*
X107962095Y-103202619D01*
X108058857Y-103154238D01*
X108107238Y-103057476D01*
X108107238Y-103009095D01*
X108058857Y-102912333D01*
X107962095Y-102863952D01*
X107816952Y-102863952D01*
X107720190Y-102815571D01*
X107671809Y-102718809D01*
X107671809Y-102670428D01*
X107720190Y-102573666D01*
X107816952Y-102525285D01*
X107962095Y-102525285D01*
X108058857Y-102573666D01*
X108494285Y-103154238D02*
X108591047Y-103202619D01*
X108784571Y-103202619D01*
X108881333Y-103154238D01*
X108929714Y-103057476D01*
X108929714Y-103009095D01*
X108881333Y-102912333D01*
X108784571Y-102863952D01*
X108639428Y-102863952D01*
X108542666Y-102815571D01*
X108494285Y-102718809D01*
X108494285Y-102670428D01*
X108542666Y-102573666D01*
X108639428Y-102525285D01*
X108784571Y-102525285D01*
X108881333Y-102573666D01*
X109365142Y-103202619D02*
X109365142Y-102525285D01*
X109365142Y-102186619D02*
X109316761Y-102235000D01*
X109365142Y-102283380D01*
X109413523Y-102235000D01*
X109365142Y-102186619D01*
X109365142Y-102283380D01*
X110284380Y-103154238D02*
X110187619Y-103202619D01*
X109994095Y-103202619D01*
X109897333Y-103154238D01*
X109848952Y-103105857D01*
X109800571Y-103009095D01*
X109800571Y-102718809D01*
X109848952Y-102622047D01*
X109897333Y-102573666D01*
X109994095Y-102525285D01*
X110187619Y-102525285D01*
X110284380Y-102573666D01*
D11*
X97758485Y-96596000D02*
X97613342Y-96523428D01*
X97395628Y-96523428D01*
X97177914Y-96596000D01*
X97032771Y-96741142D01*
X96960200Y-96886285D01*
X96887628Y-97176571D01*
X96887628Y-97394285D01*
X96960200Y-97684571D01*
X97032771Y-97829714D01*
X97177914Y-97974857D01*
X97395628Y-98047428D01*
X97540771Y-98047428D01*
X97758485Y-97974857D01*
X97831057Y-97902285D01*
X97831057Y-97394285D01*
X97540771Y-97394285D01*
X98339057Y-96523428D02*
X98701914Y-98047428D01*
X98992200Y-96958857D01*
X99282485Y-98047428D01*
X99645342Y-96523428D01*
X101278200Y-97031428D02*
X101278200Y-98047428D01*
X100915342Y-96450857D02*
X100552485Y-97539428D01*
X101495914Y-97539428D01*
X102729628Y-97031428D02*
X102729628Y-98047428D01*
X102366771Y-96450857D02*
X102003914Y-97539428D01*
X102947342Y-97539428D01*
X103818200Y-96523428D02*
X103963342Y-96523428D01*
X104108485Y-96596000D01*
X104181057Y-96668571D01*
X104253628Y-96813714D01*
X104326200Y-97104000D01*
X104326200Y-97466857D01*
X104253628Y-97757142D01*
X104181057Y-97902285D01*
X104108485Y-97974857D01*
X103963342Y-98047428D01*
X103818200Y-98047428D01*
X103673057Y-97974857D01*
X103600485Y-97902285D01*
X103527914Y-97757142D01*
X103455342Y-97466857D01*
X103455342Y-97104000D01*
X103527914Y-96813714D01*
X103600485Y-96668571D01*
X103673057Y-96596000D01*
X103818200Y-96523428D01*
X105632485Y-96523428D02*
X105342200Y-96523428D01*
X105197057Y-96596000D01*
X105124485Y-96668571D01*
X104979342Y-96886285D01*
X104906771Y-97176571D01*
X104906771Y-97757142D01*
X104979342Y-97902285D01*
X105051914Y-97974857D01*
X105197057Y-98047428D01*
X105487342Y-98047428D01*
X105632485Y-97974857D01*
X105705057Y-97902285D01*
X105777628Y-97757142D01*
X105777628Y-97394285D01*
X105705057Y-97249142D01*
X105632485Y-97176571D01*
X105487342Y-97104000D01*
X105197057Y-97104000D01*
X105051914Y-97176571D01*
X104979342Y-97249142D01*
X104906771Y-97394285D01*
X106358200Y-97612000D02*
X107083914Y-97612000D01*
X106213057Y-98047428D02*
X106721057Y-96523428D01*
X107229057Y-98047428D01*
D13*
X94064666Y-94234000D02*
X93943714Y-94173523D01*
X93762285Y-94173523D01*
X93580857Y-94234000D01*
X93459904Y-94354952D01*
X93399428Y-94475904D01*
X93338952Y-94717809D01*
X93338952Y-94899238D01*
X93399428Y-95141142D01*
X93459904Y-95262095D01*
X93580857Y-95383047D01*
X93762285Y-95443523D01*
X93883238Y-95443523D01*
X94064666Y-95383047D01*
X94125142Y-95322571D01*
X94125142Y-94899238D01*
X93883238Y-94899238D01*
X95213714Y-95443523D02*
X95213714Y-94778285D01*
X95153238Y-94657333D01*
X95032285Y-94596857D01*
X94790380Y-94596857D01*
X94669428Y-94657333D01*
X95213714Y-95383047D02*
X95092761Y-95443523D01*
X94790380Y-95443523D01*
X94669428Y-95383047D01*
X94608952Y-95262095D01*
X94608952Y-95141142D01*
X94669428Y-95020190D01*
X94790380Y-94959714D01*
X95092761Y-94959714D01*
X95213714Y-94899238D01*
X95818476Y-95443523D02*
X95818476Y-94596857D01*
X95818476Y-94838761D02*
X95878952Y-94717809D01*
X95939428Y-94657333D01*
X96060380Y-94596857D01*
X96181333Y-94596857D01*
X96604666Y-95443523D02*
X96604666Y-94596857D01*
X96604666Y-94838761D02*
X96665142Y-94717809D01*
X96725619Y-94657333D01*
X96846571Y-94596857D01*
X96967523Y-94596857D01*
X97874666Y-95383047D02*
X97753714Y-95443523D01*
X97511809Y-95443523D01*
X97390857Y-95383047D01*
X97330380Y-95262095D01*
X97330380Y-94778285D01*
X97390857Y-94657333D01*
X97511809Y-94596857D01*
X97753714Y-94596857D01*
X97874666Y-94657333D01*
X97935142Y-94778285D01*
X97935142Y-94899238D01*
X97330380Y-95020190D01*
X98298000Y-94596857D02*
X98781809Y-94596857D01*
X98479428Y-94173523D02*
X98479428Y-95262095D01*
X98539904Y-95383047D01*
X98660857Y-95443523D01*
X98781809Y-95443523D01*
X99023714Y-94596857D02*
X99507523Y-94596857D01*
X99205142Y-94173523D02*
X99205142Y-95262095D01*
X99265619Y-95383047D01*
X99386571Y-95443523D01*
X99507523Y-95443523D01*
X99991333Y-94173523D02*
X99991333Y-94234000D01*
X99930857Y-94354952D01*
X99870380Y-94415428D01*
X100475142Y-95383047D02*
X100596095Y-95443523D01*
X100838000Y-95443523D01*
X100958952Y-95383047D01*
X101019428Y-95262095D01*
X101019428Y-95201619D01*
X100958952Y-95080666D01*
X100838000Y-95020190D01*
X100656571Y-95020190D01*
X100535619Y-94959714D01*
X100475142Y-94838761D01*
X100475142Y-94778285D01*
X100535619Y-94657333D01*
X100656571Y-94596857D01*
X100838000Y-94596857D01*
X100958952Y-94657333D01*
X102410380Y-94173523D02*
X102712761Y-95443523D01*
X102954666Y-94536380D01*
X103196571Y-95443523D01*
X103498952Y-94173523D01*
X104164190Y-95443523D02*
X104043238Y-95383047D01*
X103982761Y-95322571D01*
X103922285Y-95201619D01*
X103922285Y-94838761D01*
X103982761Y-94717809D01*
X104043238Y-94657333D01*
X104164190Y-94596857D01*
X104345619Y-94596857D01*
X104466571Y-94657333D01*
X104527047Y-94717809D01*
X104587523Y-94838761D01*
X104587523Y-95201619D01*
X104527047Y-95322571D01*
X104466571Y-95383047D01*
X104345619Y-95443523D01*
X104164190Y-95443523D01*
X105131809Y-95443523D02*
X105131809Y-94596857D01*
X105131809Y-94838761D02*
X105192285Y-94717809D01*
X105252761Y-94657333D01*
X105373714Y-94596857D01*
X105494666Y-94596857D01*
X105917999Y-95443523D02*
X105917999Y-94173523D01*
X106038952Y-94959714D02*
X106401809Y-95443523D01*
X106401809Y-94596857D02*
X105917999Y-95080666D01*
X106885619Y-95383047D02*
X107006571Y-95443523D01*
X107248476Y-95443523D01*
X107369428Y-95383047D01*
X107429904Y-95262095D01*
X107429904Y-95201619D01*
X107369428Y-95080666D01*
X107248476Y-95020190D01*
X107067047Y-95020190D01*
X106946095Y-94959714D01*
X106885619Y-94838761D01*
X106885619Y-94778285D01*
X106946095Y-94657333D01*
X107067047Y-94596857D01*
X107248476Y-94596857D01*
X107369428Y-94657333D01*
X107974190Y-95443523D02*
X107974190Y-94173523D01*
X108518476Y-95443523D02*
X108518476Y-94778285D01*
X108458000Y-94657333D01*
X108337047Y-94596857D01*
X108155619Y-94596857D01*
X108034666Y-94657333D01*
X107974190Y-94717809D01*
X109304666Y-95443523D02*
X109183714Y-95383047D01*
X109123238Y-95322571D01*
X109062761Y-95201619D01*
X109062761Y-94838761D01*
X109123238Y-94717809D01*
X109183714Y-94657333D01*
X109304666Y-94596857D01*
X109486095Y-94596857D01*
X109607047Y-94657333D01*
X109667523Y-94717809D01*
X109728000Y-94838761D01*
X109728000Y-95201619D01*
X109667523Y-95322571D01*
X109607047Y-95383047D01*
X109486095Y-95443523D01*
X109304666Y-95443523D01*
X110272285Y-94596857D02*
X110272285Y-95866857D01*
X110272285Y-94657333D02*
X110393238Y-94596857D01*
X110635142Y-94596857D01*
X110756095Y-94657333D01*
X110816571Y-94717809D01*
X110877047Y-94838761D01*
X110877047Y-95201619D01*
X110816571Y-95322571D01*
X110756095Y-95383047D01*
X110635142Y-95443523D01*
X110393238Y-95443523D01*
X110272285Y-95383047D01*
D14*
X92650000Y-123190000D02*
X92650000Y-122080000D01*
X92650000Y-122080000D02*
X93980000Y-122080000D01*
X92650000Y-127190000D02*
X148650000Y-127190000D01*
X147680000Y-124680000D02*
X147680000Y-124240000D01*
X147680000Y-127190000D02*
X147680000Y-126780000D01*
X146960000Y-124680000D02*
X146960000Y-124240000D01*
X146960000Y-127190000D02*
X146960000Y-126780000D01*
X145140000Y-124680000D02*
X145140000Y-124240000D01*
X145140000Y-127190000D02*
X145140000Y-126780000D01*
X144420000Y-124680000D02*
X144420000Y-124240000D01*
X144420000Y-127190000D02*
X144420000Y-126780000D01*
X142600000Y-124680000D02*
X142600000Y-124240000D01*
X142600000Y-127190000D02*
X142600000Y-126780000D01*
X141880000Y-124680000D02*
X141880000Y-124240000D01*
X141880000Y-127190000D02*
X141880000Y-126780000D01*
X140060000Y-124680000D02*
X140060000Y-124240000D01*
X140060000Y-127190000D02*
X140060000Y-126780000D01*
X139340000Y-124680000D02*
X139340000Y-124240000D01*
X139340000Y-127190000D02*
X139340000Y-126780000D01*
X137520000Y-124680000D02*
X137520000Y-124240000D01*
X137520000Y-127190000D02*
X137520000Y-126780000D01*
X136800000Y-124680000D02*
X136800000Y-124240000D01*
X136800000Y-127190000D02*
X136800000Y-126780000D01*
X134980000Y-124680000D02*
X134980000Y-124240000D01*
X134980000Y-127190000D02*
X134980000Y-126780000D01*
X134260000Y-124680000D02*
X134260000Y-124240000D01*
X134260000Y-127190000D02*
X134260000Y-126780000D01*
X132440000Y-124680000D02*
X132440000Y-124240000D01*
X132440000Y-127190000D02*
X132440000Y-126780000D01*
X131720000Y-124680000D02*
X131720000Y-124240000D01*
X131720000Y-127190000D02*
X131720000Y-126780000D01*
X129900000Y-124680000D02*
X129900000Y-124240000D01*
X129900000Y-127190000D02*
X129900000Y-126780000D01*
X129180000Y-124680000D02*
X129180000Y-124240000D01*
X129180000Y-127190000D02*
X129180000Y-126780000D01*
X127360000Y-124680000D02*
X127360000Y-124240000D01*
X127360000Y-127190000D02*
X127360000Y-126780000D01*
X126640000Y-124680000D02*
X126640000Y-124240000D01*
X126640000Y-127190000D02*
X126640000Y-126780000D01*
X124820000Y-124680000D02*
X124820000Y-124240000D01*
X124820000Y-127190000D02*
X124820000Y-126780000D01*
X124100000Y-124680000D02*
X124100000Y-124240000D01*
X124100000Y-127190000D02*
X124100000Y-126780000D01*
X122280000Y-124680000D02*
X122280000Y-124240000D01*
X122280000Y-127190000D02*
X122280000Y-126780000D01*
X121560000Y-124680000D02*
X121560000Y-124240000D01*
X121560000Y-127190000D02*
X121560000Y-126780000D01*
X119740000Y-124680000D02*
X119740000Y-124240000D01*
X119740000Y-127190000D02*
X119740000Y-126780000D01*
X119020000Y-124680000D02*
X119020000Y-124240000D01*
X119020000Y-127190000D02*
X119020000Y-126780000D01*
X117200000Y-124680000D02*
X117200000Y-124240000D01*
X117200000Y-127190000D02*
X117200000Y-126780000D01*
X116480000Y-124680000D02*
X116480000Y-124240000D01*
X116480000Y-127190000D02*
X116480000Y-126780000D01*
X114660000Y-124680000D02*
X114660000Y-124240000D01*
X114660000Y-127190000D02*
X114660000Y-126780000D01*
X113940000Y-124680000D02*
X113940000Y-124240000D01*
X113940000Y-127190000D02*
X113940000Y-126780000D01*
X112120000Y-124680000D02*
X112120000Y-124240000D01*
X112120000Y-127190000D02*
X112120000Y-126780000D01*
X111400000Y-124680000D02*
X111400000Y-124240000D01*
X111400000Y-127190000D02*
X111400000Y-126780000D01*
X109580000Y-124680000D02*
X109580000Y-124240000D01*
X109580000Y-127190000D02*
X109580000Y-126780000D01*
X108860000Y-124680000D02*
X108860000Y-124240000D01*
X108860000Y-127190000D02*
X108860000Y-126780000D01*
X107040000Y-124680000D02*
X107040000Y-124240000D01*
X107040000Y-127190000D02*
X107040000Y-126780000D01*
X106320000Y-124680000D02*
X106320000Y-124240000D01*
X106320000Y-127190000D02*
X106320000Y-126780000D01*
X104500000Y-124680000D02*
X104500000Y-124240000D01*
X104500000Y-127190000D02*
X104500000Y-126780000D01*
X103780000Y-124680000D02*
X103780000Y-124240000D01*
X103780000Y-127190000D02*
X103780000Y-126780000D01*
X101960000Y-124680000D02*
X101960000Y-124240000D01*
X101960000Y-127190000D02*
X101960000Y-126780000D01*
X101240000Y-124680000D02*
X101240000Y-124240000D01*
X101240000Y-127190000D02*
X101240000Y-126780000D01*
X99420000Y-124680000D02*
X99420000Y-124240000D01*
X99420000Y-127190000D02*
X99420000Y-126780000D01*
X98700000Y-124680000D02*
X98700000Y-124240000D01*
X98700000Y-127190000D02*
X98700000Y-126780000D01*
X96880000Y-124680000D02*
X96880000Y-124240000D01*
X96880000Y-127190000D02*
X96880000Y-126780000D01*
X96160000Y-124680000D02*
X96160000Y-124240000D01*
X96160000Y-127190000D02*
X96160000Y-126780000D01*
X94340000Y-124680000D02*
X94340000Y-124300000D01*
X94340000Y-127190000D02*
X94340000Y-126780000D01*
X93620000Y-124680000D02*
X93620000Y-124300000D01*
X93620000Y-127190000D02*
X93620000Y-126780000D01*
D15*
X116370000Y-109028600D02*
X116370000Y-109841400D01*
X114770000Y-109028600D02*
X114770000Y-109841400D01*
X145643600Y-119469000D02*
X146456400Y-119469000D01*
X145643600Y-121069000D02*
X146456400Y-121069000D01*
X146850000Y-95058600D02*
X146850000Y-95871400D01*
X145250000Y-95058600D02*
X145250000Y-95871400D01*
X116370000Y-95058600D02*
X116370000Y-95871400D01*
X114770000Y-95058600D02*
X114770000Y-95871400D01*
X145250000Y-109028600D02*
X145250000Y-109841400D01*
X146850000Y-109028600D02*
X146850000Y-109841400D01*
X97625000Y-111060600D02*
X97625000Y-111873400D01*
X99225000Y-111060600D02*
X99225000Y-111873400D01*
D14*
X99715000Y-113030000D02*
X99715000Y-116480000D01*
X99715000Y-113030000D02*
X99715000Y-111080000D01*
X108565000Y-113030000D02*
X108565000Y-114980000D01*
X108565000Y-113030000D02*
X108565000Y-111080000D01*
D15*
X95656400Y-119469000D02*
X94843600Y-119469000D01*
X95656400Y-121069000D02*
X94843600Y-121069000D01*
D12*
X144130000Y-93915000D02*
X144130000Y-93091000D01*
X116840000Y-93980000D02*
X116840000Y-104205000D01*
X144780000Y-93915000D02*
X144780000Y-104205000D01*
X116840000Y-93915000D02*
X117585000Y-93915000D01*
X116840000Y-104205000D02*
X117585000Y-104205000D01*
X144780000Y-104205000D02*
X144035000Y-104205000D01*
X144780000Y-93915000D02*
X144130000Y-93915000D01*
X144780000Y-107885000D02*
X144130000Y-107885000D01*
X144780000Y-118175000D02*
X144035000Y-118175000D01*
X116840000Y-118175000D02*
X117585000Y-118175000D01*
X116840000Y-107885000D02*
X117585000Y-107885000D01*
X144780000Y-107885000D02*
X144780000Y-118175000D01*
X116840000Y-107950000D02*
X116840000Y-118175000D01*
X144130000Y-107885000D02*
X144130000Y-107061000D01*
D10*
X103520723Y-112584895D02*
X103520723Y-113242876D01*
X103559428Y-113320285D01*
X103598133Y-113358990D01*
X103675542Y-113397695D01*
X103830361Y-113397695D01*
X103907771Y-113358990D01*
X103946476Y-113320285D01*
X103985180Y-113242876D01*
X103985180Y-112584895D01*
X104294819Y-112584895D02*
X104797980Y-112584895D01*
X104527047Y-112894533D01*
X104643161Y-112894533D01*
X104720571Y-112933238D01*
X104759276Y-112971942D01*
X104797980Y-113049352D01*
X104797980Y-113242876D01*
X104759276Y-113320285D01*
X104720571Y-113358990D01*
X104643161Y-113397695D01*
X104410933Y-113397695D01*
X104333523Y-113358990D01*
X104294819Y-113320285D01*
X130190723Y-97852895D02*
X130190723Y-98510876D01*
X130229428Y-98588285D01*
X130268133Y-98626990D01*
X130345542Y-98665695D01*
X130500361Y-98665695D01*
X130577771Y-98626990D01*
X130616476Y-98588285D01*
X130655180Y-98510876D01*
X130655180Y-97852895D01*
X131467980Y-98665695D02*
X131003523Y-98665695D01*
X131235752Y-98665695D02*
X131235752Y-97852895D01*
X131158342Y-97969009D01*
X131080933Y-98046419D01*
X131003523Y-98085123D01*
X130190723Y-112584895D02*
X130190723Y-113242876D01*
X130229428Y-113320285D01*
X130268133Y-113358990D01*
X130345542Y-113397695D01*
X130500361Y-113397695D01*
X130577771Y-113358990D01*
X130616476Y-113320285D01*
X130655180Y-113242876D01*
X130655180Y-112584895D01*
X131003523Y-112662304D02*
X131042228Y-112623600D01*
X131119638Y-112584895D01*
X131313161Y-112584895D01*
X131390571Y-112623600D01*
X131429276Y-112662304D01*
X131467980Y-112739714D01*
X131467980Y-112817123D01*
X131429276Y-112933238D01*
X130964819Y-113397695D01*
X131467980Y-113397695D01*
%LPC*%
D16*
X147320000Y-125730000D03*
X147320000Y-123190000D03*
X144780000Y-125730000D03*
X144780000Y-123190000D03*
X142240000Y-125730000D03*
X142240000Y-123190000D03*
X139700000Y-125730000D03*
X139700000Y-123190000D03*
X137160000Y-125730000D03*
X137160000Y-123190000D03*
X134620000Y-125730000D03*
X134620000Y-123190000D03*
X132080000Y-125730000D03*
X132080000Y-123190000D03*
X129540000Y-125730000D03*
X129540000Y-123190000D03*
X127000000Y-125730000D03*
X127000000Y-123190000D03*
X124460000Y-125730000D03*
X124460000Y-123190000D03*
X121920000Y-125730000D03*
X121920000Y-123190000D03*
X119380000Y-125730000D03*
X119380000Y-123190000D03*
X116840000Y-125730000D03*
X116840000Y-123190000D03*
X114300000Y-125730000D03*
X114300000Y-123190000D03*
X111760000Y-125730000D03*
X111760000Y-123190000D03*
X109220000Y-125730000D03*
X109220000Y-123190000D03*
X106680000Y-125730000D03*
X106680000Y-123190000D03*
X104140000Y-125730000D03*
X104140000Y-123190000D03*
X101600000Y-125730000D03*
X101600000Y-123190000D03*
X99060000Y-125730000D03*
X99060000Y-123190000D03*
X96520000Y-125730000D03*
X96520000Y-123190000D03*
X93980000Y-125730000D03*
G36*
G01*
X94830000Y-124115000D02*
X93130000Y-124115000D01*
G75*
G02*
X93055000Y-124040000I0J75000D01*
G01*
X93055000Y-122340000D01*
G75*
G02*
X93130000Y-122265000I75000J0D01*
G01*
X94830000Y-122265000D01*
G75*
G02*
X94905000Y-122340000I0J-75000D01*
G01*
X94905000Y-124040000D01*
G75*
G02*
X94830000Y-124115000I-75000J0D01*
G01*
G37*
D17*
X148336000Y-118364000D03*
X92964000Y-118364000D03*
X144526000Y-133350000D03*
D18*
X94234000Y-133350000D03*
X147066000Y-133350000D03*
D17*
X96774000Y-133350000D03*
G36*
G01*
X115107500Y-109710000D02*
X116032500Y-109710000D01*
G75*
G02*
X116320000Y-109997500I0J-287500D01*
G01*
X116320000Y-110572500D01*
G75*
G02*
X116032500Y-110860000I-287500J0D01*
G01*
X115107500Y-110860000D01*
G75*
G02*
X114820000Y-110572500I0J287500D01*
G01*
X114820000Y-109997500D01*
G75*
G02*
X115107500Y-109710000I287500J0D01*
G01*
G37*
G36*
G01*
X115107500Y-108010000D02*
X116032500Y-108010000D01*
G75*
G02*
X116320000Y-108297500I0J-287500D01*
G01*
X116320000Y-108872500D01*
G75*
G02*
X116032500Y-109160000I-287500J0D01*
G01*
X115107500Y-109160000D01*
G75*
G02*
X114820000Y-108872500I0J287500D01*
G01*
X114820000Y-108297500D01*
G75*
G02*
X115107500Y-108010000I287500J0D01*
G01*
G37*
G36*
G01*
X146325000Y-120731500D02*
X146325000Y-119806500D01*
G75*
G02*
X146612500Y-119519000I287500J0D01*
G01*
X147187500Y-119519000D01*
G75*
G02*
X147475000Y-119806500I0J-287500D01*
G01*
X147475000Y-120731500D01*
G75*
G02*
X147187500Y-121019000I-287500J0D01*
G01*
X146612500Y-121019000D01*
G75*
G02*
X146325000Y-120731500I0J287500D01*
G01*
G37*
G36*
G01*
X144625000Y-120731500D02*
X144625000Y-119806500D01*
G75*
G02*
X144912500Y-119519000I287500J0D01*
G01*
X145487500Y-119519000D01*
G75*
G02*
X145775000Y-119806500I0J-287500D01*
G01*
X145775000Y-120731500D01*
G75*
G02*
X145487500Y-121019000I-287500J0D01*
G01*
X144912500Y-121019000D01*
G75*
G02*
X144625000Y-120731500I0J287500D01*
G01*
G37*
D18*
X92964000Y-90424000D03*
D17*
X95504000Y-90424000D03*
X145796000Y-90424000D03*
D18*
X92964000Y-115824000D03*
X148336000Y-115824000D03*
X148336000Y-90424000D03*
G36*
G01*
X145587500Y-95740000D02*
X146512500Y-95740000D01*
G75*
G02*
X146800000Y-96027500I0J-287500D01*
G01*
X146800000Y-96602500D01*
G75*
G02*
X146512500Y-96890000I-287500J0D01*
G01*
X145587500Y-96890000D01*
G75*
G02*
X145300000Y-96602500I0J287500D01*
G01*
X145300000Y-96027500D01*
G75*
G02*
X145587500Y-95740000I287500J0D01*
G01*
G37*
G36*
G01*
X145587500Y-94040000D02*
X146512500Y-94040000D01*
G75*
G02*
X146800000Y-94327500I0J-287500D01*
G01*
X146800000Y-94902500D01*
G75*
G02*
X146512500Y-95190000I-287500J0D01*
G01*
X145587500Y-95190000D01*
G75*
G02*
X145300000Y-94902500I0J287500D01*
G01*
X145300000Y-94327500D01*
G75*
G02*
X145587500Y-94040000I287500J0D01*
G01*
G37*
G36*
G01*
X115107500Y-95740000D02*
X116032500Y-95740000D01*
G75*
G02*
X116320000Y-96027500I0J-287500D01*
G01*
X116320000Y-96602500D01*
G75*
G02*
X116032500Y-96890000I-287500J0D01*
G01*
X115107500Y-96890000D01*
G75*
G02*
X114820000Y-96602500I0J287500D01*
G01*
X114820000Y-96027500D01*
G75*
G02*
X115107500Y-95740000I287500J0D01*
G01*
G37*
G36*
G01*
X115107500Y-94040000D02*
X116032500Y-94040000D01*
G75*
G02*
X116320000Y-94327500I0J-287500D01*
G01*
X116320000Y-94902500D01*
G75*
G02*
X116032500Y-95190000I-287500J0D01*
G01*
X115107500Y-95190000D01*
G75*
G02*
X114820000Y-94902500I0J287500D01*
G01*
X114820000Y-94327500D01*
G75*
G02*
X115107500Y-94040000I287500J0D01*
G01*
G37*
G36*
G01*
X145587500Y-108010000D02*
X146512500Y-108010000D01*
G75*
G02*
X146800000Y-108297500I0J-287500D01*
G01*
X146800000Y-108872500D01*
G75*
G02*
X146512500Y-109160000I-287500J0D01*
G01*
X145587500Y-109160000D01*
G75*
G02*
X145300000Y-108872500I0J287500D01*
G01*
X145300000Y-108297500D01*
G75*
G02*
X145587500Y-108010000I287500J0D01*
G01*
G37*
G36*
G01*
X145587500Y-109710000D02*
X146512500Y-109710000D01*
G75*
G02*
X146800000Y-109997500I0J-287500D01*
G01*
X146800000Y-110572500D01*
G75*
G02*
X146512500Y-110860000I-287500J0D01*
G01*
X145587500Y-110860000D01*
G75*
G02*
X145300000Y-110572500I0J287500D01*
G01*
X145300000Y-109997500D01*
G75*
G02*
X145587500Y-109710000I287500J0D01*
G01*
G37*
G36*
G01*
X97962500Y-110042000D02*
X98887500Y-110042000D01*
G75*
G02*
X99175000Y-110329500I0J-287500D01*
G01*
X99175000Y-110904500D01*
G75*
G02*
X98887500Y-111192000I-287500J0D01*
G01*
X97962500Y-111192000D01*
G75*
G02*
X97675000Y-110904500I0J287500D01*
G01*
X97675000Y-110329500D01*
G75*
G02*
X97962500Y-110042000I287500J0D01*
G01*
G37*
G36*
G01*
X97962500Y-111742000D02*
X98887500Y-111742000D01*
G75*
G02*
X99175000Y-112029500I0J-287500D01*
G01*
X99175000Y-112604500D01*
G75*
G02*
X98887500Y-112892000I-287500J0D01*
G01*
X97962500Y-112892000D01*
G75*
G02*
X97675000Y-112604500I0J287500D01*
G01*
X97675000Y-112029500D01*
G75*
G02*
X97962500Y-111742000I287500J0D01*
G01*
G37*
G36*
G01*
X100505000Y-111580000D02*
X100155000Y-111580000D01*
G75*
G02*
X99980000Y-111405000I0J175000D01*
G01*
X99980000Y-109705000D01*
G75*
G02*
X100155000Y-109530000I175000J0D01*
G01*
X100505000Y-109530000D01*
G75*
G02*
X100680000Y-109705000I0J-175000D01*
G01*
X100680000Y-111405000D01*
G75*
G02*
X100505000Y-111580000I-175000J0D01*
G01*
G37*
G36*
G01*
X108125000Y-116530000D02*
X107775000Y-116530000D01*
G75*
G02*
X107600000Y-116355000I0J175000D01*
G01*
X107600000Y-114655000D01*
G75*
G02*
X107775000Y-114480000I175000J0D01*
G01*
X108125000Y-114480000D01*
G75*
G02*
X108300000Y-114655000I0J-175000D01*
G01*
X108300000Y-116355000D01*
G75*
G02*
X108125000Y-116530000I-175000J0D01*
G01*
G37*
G36*
G01*
X103045000Y-111580000D02*
X102695000Y-111580000D01*
G75*
G02*
X102520000Y-111405000I0J175000D01*
G01*
X102520000Y-109705000D01*
G75*
G02*
X102695000Y-109530000I175000J0D01*
G01*
X103045000Y-109530000D01*
G75*
G02*
X103220000Y-109705000I0J-175000D01*
G01*
X103220000Y-111405000D01*
G75*
G02*
X103045000Y-111580000I-175000J0D01*
G01*
G37*
G36*
G01*
X108125000Y-111580000D02*
X107775000Y-111580000D01*
G75*
G02*
X107600000Y-111405000I0J175000D01*
G01*
X107600000Y-109705000D01*
G75*
G02*
X107775000Y-109530000I175000J0D01*
G01*
X108125000Y-109530000D01*
G75*
G02*
X108300000Y-109705000I0J-175000D01*
G01*
X108300000Y-111405000D01*
G75*
G02*
X108125000Y-111580000I-175000J0D01*
G01*
G37*
G36*
G01*
X101775000Y-111580000D02*
X101425000Y-111580000D01*
G75*
G02*
X101250000Y-111405000I0J175000D01*
G01*
X101250000Y-109705000D01*
G75*
G02*
X101425000Y-109530000I175000J0D01*
G01*
X101775000Y-109530000D01*
G75*
G02*
X101950000Y-109705000I0J-175000D01*
G01*
X101950000Y-111405000D01*
G75*
G02*
X101775000Y-111580000I-175000J0D01*
G01*
G37*
G36*
G01*
X106855000Y-116530000D02*
X106505000Y-116530000D01*
G75*
G02*
X106330000Y-116355000I0J175000D01*
G01*
X106330000Y-114655000D01*
G75*
G02*
X106505000Y-114480000I175000J0D01*
G01*
X106855000Y-114480000D01*
G75*
G02*
X107030000Y-114655000I0J-175000D01*
G01*
X107030000Y-116355000D01*
G75*
G02*
X106855000Y-116530000I-175000J0D01*
G01*
G37*
G36*
G01*
X106855000Y-111580000D02*
X106505000Y-111580000D01*
G75*
G02*
X106330000Y-111405000I0J175000D01*
G01*
X106330000Y-109705000D01*
G75*
G02*
X106505000Y-109530000I175000J0D01*
G01*
X106855000Y-109530000D01*
G75*
G02*
X107030000Y-109705000I0J-175000D01*
G01*
X107030000Y-111405000D01*
G75*
G02*
X106855000Y-111580000I-175000J0D01*
G01*
G37*
G36*
G01*
X105585000Y-111580000D02*
X105235000Y-111580000D01*
G75*
G02*
X105060000Y-111405000I0J175000D01*
G01*
X105060000Y-109705000D01*
G75*
G02*
X105235000Y-109530000I175000J0D01*
G01*
X105585000Y-109530000D01*
G75*
G02*
X105760000Y-109705000I0J-175000D01*
G01*
X105760000Y-111405000D01*
G75*
G02*
X105585000Y-111580000I-175000J0D01*
G01*
G37*
G36*
G01*
X104315000Y-111580000D02*
X103965000Y-111580000D01*
G75*
G02*
X103790000Y-111405000I0J175000D01*
G01*
X103790000Y-109705000D01*
G75*
G02*
X103965000Y-109530000I175000J0D01*
G01*
X104315000Y-109530000D01*
G75*
G02*
X104490000Y-109705000I0J-175000D01*
G01*
X104490000Y-111405000D01*
G75*
G02*
X104315000Y-111580000I-175000J0D01*
G01*
G37*
G36*
G01*
X101775000Y-116530000D02*
X101425000Y-116530000D01*
G75*
G02*
X101250000Y-116355000I0J175000D01*
G01*
X101250000Y-114655000D01*
G75*
G02*
X101425000Y-114480000I175000J0D01*
G01*
X101775000Y-114480000D01*
G75*
G02*
X101950000Y-114655000I0J-175000D01*
G01*
X101950000Y-116355000D01*
G75*
G02*
X101775000Y-116530000I-175000J0D01*
G01*
G37*
G36*
G01*
X100505000Y-116530000D02*
X100155000Y-116530000D01*
G75*
G02*
X99980000Y-116355000I0J175000D01*
G01*
X99980000Y-114655000D01*
G75*
G02*
X100155000Y-114480000I175000J0D01*
G01*
X100505000Y-114480000D01*
G75*
G02*
X100680000Y-114655000I0J-175000D01*
G01*
X100680000Y-116355000D01*
G75*
G02*
X100505000Y-116530000I-175000J0D01*
G01*
G37*
G36*
G01*
X104315000Y-116530000D02*
X103965000Y-116530000D01*
G75*
G02*
X103790000Y-116355000I0J175000D01*
G01*
X103790000Y-114655000D01*
G75*
G02*
X103965000Y-114480000I175000J0D01*
G01*
X104315000Y-114480000D01*
G75*
G02*
X104490000Y-114655000I0J-175000D01*
G01*
X104490000Y-116355000D01*
G75*
G02*
X104315000Y-116530000I-175000J0D01*
G01*
G37*
G36*
G01*
X103045000Y-116530000D02*
X102695000Y-116530000D01*
G75*
G02*
X102520000Y-116355000I0J175000D01*
G01*
X102520000Y-114655000D01*
G75*
G02*
X102695000Y-114480000I175000J0D01*
G01*
X103045000Y-114480000D01*
G75*
G02*
X103220000Y-114655000I0J-175000D01*
G01*
X103220000Y-116355000D01*
G75*
G02*
X103045000Y-116530000I-175000J0D01*
G01*
G37*
G36*
G01*
X105585000Y-116530000D02*
X105235000Y-116530000D01*
G75*
G02*
X105060000Y-116355000I0J175000D01*
G01*
X105060000Y-114655000D01*
G75*
G02*
X105235000Y-114480000I175000J0D01*
G01*
X105585000Y-114480000D01*
G75*
G02*
X105760000Y-114655000I0J-175000D01*
G01*
X105760000Y-116355000D01*
G75*
G02*
X105585000Y-116530000I-175000J0D01*
G01*
G37*
G36*
G01*
X96675000Y-119806500D02*
X96675000Y-120731500D01*
G75*
G02*
X96387500Y-121019000I-287500J0D01*
G01*
X95812500Y-121019000D01*
G75*
G02*
X95525000Y-120731500I0J287500D01*
G01*
X95525000Y-119806500D01*
G75*
G02*
X95812500Y-119519000I287500J0D01*
G01*
X96387500Y-119519000D01*
G75*
G02*
X96675000Y-119806500I0J-287500D01*
G01*
G37*
G36*
G01*
X94975000Y-119806500D02*
X94975000Y-120731500D01*
G75*
G02*
X94687500Y-121019000I-287500J0D01*
G01*
X94112500Y-121019000D01*
G75*
G02*
X93825000Y-120731500I0J287500D01*
G01*
X93825000Y-119806500D01*
G75*
G02*
X94112500Y-119519000I287500J0D01*
G01*
X94687500Y-119519000D01*
G75*
G02*
X94975000Y-119806500I0J-287500D01*
G01*
G37*
G36*
G01*
X125555000Y-101931000D02*
X125905000Y-101931000D01*
G75*
G02*
X126080000Y-102106000I0J-175000D01*
G01*
X126080000Y-104904000D01*
G75*
G02*
X125905000Y-105079000I-175000J0D01*
G01*
X125555000Y-105079000D01*
G75*
G02*
X125380000Y-104904000I0J175000D01*
G01*
X125380000Y-102106000D01*
G75*
G02*
X125555000Y-101931000I175000J0D01*
G01*
G37*
G36*
G01*
X124285000Y-101931000D02*
X124635000Y-101931000D01*
G75*
G02*
X124810000Y-102106000I0J-175000D01*
G01*
X124810000Y-104904000D01*
G75*
G02*
X124635000Y-105079000I-175000J0D01*
G01*
X124285000Y-105079000D01*
G75*
G02*
X124110000Y-104904000I0J175000D01*
G01*
X124110000Y-102106000D01*
G75*
G02*
X124285000Y-101931000I175000J0D01*
G01*
G37*
G36*
G01*
X126825000Y-93041000D02*
X127175000Y-93041000D01*
G75*
G02*
X127350000Y-93216000I0J-175000D01*
G01*
X127350000Y-96014000D01*
G75*
G02*
X127175000Y-96189000I-175000J0D01*
G01*
X126825000Y-96189000D01*
G75*
G02*
X126650000Y-96014000I0J175000D01*
G01*
X126650000Y-93216000D01*
G75*
G02*
X126825000Y-93041000I175000J0D01*
G01*
G37*
G36*
G01*
X134445000Y-93041000D02*
X134795000Y-93041000D01*
G75*
G02*
X134970000Y-93216000I0J-175000D01*
G01*
X134970000Y-96014000D01*
G75*
G02*
X134795000Y-96189000I-175000J0D01*
G01*
X134445000Y-96189000D01*
G75*
G02*
X134270000Y-96014000I0J175000D01*
G01*
X134270000Y-93216000D01*
G75*
G02*
X134445000Y-93041000I175000J0D01*
G01*
G37*
G36*
G01*
X136985000Y-93041000D02*
X137335000Y-93041000D01*
G75*
G02*
X137510000Y-93216000I0J-175000D01*
G01*
X137510000Y-96014000D01*
G75*
G02*
X137335000Y-96189000I-175000J0D01*
G01*
X136985000Y-96189000D01*
G75*
G02*
X136810000Y-96014000I0J175000D01*
G01*
X136810000Y-93216000D01*
G75*
G02*
X136985000Y-93041000I175000J0D01*
G01*
G37*
G36*
G01*
X143335000Y-93041000D02*
X143685000Y-93041000D01*
G75*
G02*
X143860000Y-93216000I0J-175000D01*
G01*
X143860000Y-96014000D01*
G75*
G02*
X143685000Y-96189000I-175000J0D01*
G01*
X143335000Y-96189000D01*
G75*
G02*
X143160000Y-96014000I0J175000D01*
G01*
X143160000Y-93216000D01*
G75*
G02*
X143335000Y-93041000I175000J0D01*
G01*
G37*
G36*
G01*
X142065000Y-93041000D02*
X142415000Y-93041000D01*
G75*
G02*
X142590000Y-93216000I0J-175000D01*
G01*
X142590000Y-96014000D01*
G75*
G02*
X142415000Y-96189000I-175000J0D01*
G01*
X142065000Y-96189000D01*
G75*
G02*
X141890000Y-96014000I0J175000D01*
G01*
X141890000Y-93216000D01*
G75*
G02*
X142065000Y-93041000I175000J0D01*
G01*
G37*
G36*
G01*
X140795000Y-93041000D02*
X141145000Y-93041000D01*
G75*
G02*
X141320000Y-93216000I0J-175000D01*
G01*
X141320000Y-96014000D01*
G75*
G02*
X141145000Y-96189000I-175000J0D01*
G01*
X140795000Y-96189000D01*
G75*
G02*
X140620000Y-96014000I0J175000D01*
G01*
X140620000Y-93216000D01*
G75*
G02*
X140795000Y-93041000I175000J0D01*
G01*
G37*
G36*
G01*
X139525000Y-93041000D02*
X139875000Y-93041000D01*
G75*
G02*
X140050000Y-93216000I0J-175000D01*
G01*
X140050000Y-96014000D01*
G75*
G02*
X139875000Y-96189000I-175000J0D01*
G01*
X139525000Y-96189000D01*
G75*
G02*
X139350000Y-96014000I0J175000D01*
G01*
X139350000Y-93216000D01*
G75*
G02*
X139525000Y-93041000I175000J0D01*
G01*
G37*
G36*
G01*
X138255000Y-93041000D02*
X138605000Y-93041000D01*
G75*
G02*
X138780000Y-93216000I0J-175000D01*
G01*
X138780000Y-96014000D01*
G75*
G02*
X138605000Y-96189000I-175000J0D01*
G01*
X138255000Y-96189000D01*
G75*
G02*
X138080000Y-96014000I0J175000D01*
G01*
X138080000Y-93216000D01*
G75*
G02*
X138255000Y-93041000I175000J0D01*
G01*
G37*
G36*
G01*
X133175000Y-93041000D02*
X133525000Y-93041000D01*
G75*
G02*
X133700000Y-93216000I0J-175000D01*
G01*
X133700000Y-96014000D01*
G75*
G02*
X133525000Y-96189000I-175000J0D01*
G01*
X133175000Y-96189000D01*
G75*
G02*
X133000000Y-96014000I0J175000D01*
G01*
X133000000Y-93216000D01*
G75*
G02*
X133175000Y-93041000I175000J0D01*
G01*
G37*
G36*
G01*
X131905000Y-93041000D02*
X132255000Y-93041000D01*
G75*
G02*
X132430000Y-93216000I0J-175000D01*
G01*
X132430000Y-96014000D01*
G75*
G02*
X132255000Y-96189000I-175000J0D01*
G01*
X131905000Y-96189000D01*
G75*
G02*
X131730000Y-96014000I0J175000D01*
G01*
X131730000Y-93216000D01*
G75*
G02*
X131905000Y-93041000I175000J0D01*
G01*
G37*
G36*
G01*
X130635000Y-93041000D02*
X130985000Y-93041000D01*
G75*
G02*
X131160000Y-93216000I0J-175000D01*
G01*
X131160000Y-96014000D01*
G75*
G02*
X130985000Y-96189000I-175000J0D01*
G01*
X130635000Y-96189000D01*
G75*
G02*
X130460000Y-96014000I0J175000D01*
G01*
X130460000Y-93216000D01*
G75*
G02*
X130635000Y-93041000I175000J0D01*
G01*
G37*
G36*
G01*
X129365000Y-93041000D02*
X129715000Y-93041000D01*
G75*
G02*
X129890000Y-93216000I0J-175000D01*
G01*
X129890000Y-96014000D01*
G75*
G02*
X129715000Y-96189000I-175000J0D01*
G01*
X129365000Y-96189000D01*
G75*
G02*
X129190000Y-96014000I0J175000D01*
G01*
X129190000Y-93216000D01*
G75*
G02*
X129365000Y-93041000I175000J0D01*
G01*
G37*
G36*
G01*
X128095000Y-93041000D02*
X128445000Y-93041000D01*
G75*
G02*
X128620000Y-93216000I0J-175000D01*
G01*
X128620000Y-96014000D01*
G75*
G02*
X128445000Y-96189000I-175000J0D01*
G01*
X128095000Y-96189000D01*
G75*
G02*
X127920000Y-96014000I0J175000D01*
G01*
X127920000Y-93216000D01*
G75*
G02*
X128095000Y-93041000I175000J0D01*
G01*
G37*
G36*
G01*
X117935000Y-101931000D02*
X118285000Y-101931000D01*
G75*
G02*
X118460000Y-102106000I0J-175000D01*
G01*
X118460000Y-104904000D01*
G75*
G02*
X118285000Y-105079000I-175000J0D01*
G01*
X117935000Y-105079000D01*
G75*
G02*
X117760000Y-104904000I0J175000D01*
G01*
X117760000Y-102106000D01*
G75*
G02*
X117935000Y-101931000I175000J0D01*
G01*
G37*
G36*
G01*
X119205000Y-101931000D02*
X119555000Y-101931000D01*
G75*
G02*
X119730000Y-102106000I0J-175000D01*
G01*
X119730000Y-104904000D01*
G75*
G02*
X119555000Y-105079000I-175000J0D01*
G01*
X119205000Y-105079000D01*
G75*
G02*
X119030000Y-104904000I0J175000D01*
G01*
X119030000Y-102106000D01*
G75*
G02*
X119205000Y-101931000I175000J0D01*
G01*
G37*
G36*
G01*
X120475000Y-101931000D02*
X120825000Y-101931000D01*
G75*
G02*
X121000000Y-102106000I0J-175000D01*
G01*
X121000000Y-104904000D01*
G75*
G02*
X120825000Y-105079000I-175000J0D01*
G01*
X120475000Y-105079000D01*
G75*
G02*
X120300000Y-104904000I0J175000D01*
G01*
X120300000Y-102106000D01*
G75*
G02*
X120475000Y-101931000I175000J0D01*
G01*
G37*
G36*
G01*
X121745000Y-101931000D02*
X122095000Y-101931000D01*
G75*
G02*
X122270000Y-102106000I0J-175000D01*
G01*
X122270000Y-104904000D01*
G75*
G02*
X122095000Y-105079000I-175000J0D01*
G01*
X121745000Y-105079000D01*
G75*
G02*
X121570000Y-104904000I0J175000D01*
G01*
X121570000Y-102106000D01*
G75*
G02*
X121745000Y-101931000I175000J0D01*
G01*
G37*
G36*
G01*
X123015000Y-101931000D02*
X123365000Y-101931000D01*
G75*
G02*
X123540000Y-102106000I0J-175000D01*
G01*
X123540000Y-104904000D01*
G75*
G02*
X123365000Y-105079000I-175000J0D01*
G01*
X123015000Y-105079000D01*
G75*
G02*
X122840000Y-104904000I0J175000D01*
G01*
X122840000Y-102106000D01*
G75*
G02*
X123015000Y-101931000I175000J0D01*
G01*
G37*
G36*
G01*
X135715000Y-93041000D02*
X136065000Y-93041000D01*
G75*
G02*
X136240000Y-93216000I0J-175000D01*
G01*
X136240000Y-96014000D01*
G75*
G02*
X136065000Y-96189000I-175000J0D01*
G01*
X135715000Y-96189000D01*
G75*
G02*
X135540000Y-96014000I0J175000D01*
G01*
X135540000Y-93216000D01*
G75*
G02*
X135715000Y-93041000I175000J0D01*
G01*
G37*
G36*
G01*
X125555000Y-93041000D02*
X125905000Y-93041000D01*
G75*
G02*
X126080000Y-93216000I0J-175000D01*
G01*
X126080000Y-96014000D01*
G75*
G02*
X125905000Y-96189000I-175000J0D01*
G01*
X125555000Y-96189000D01*
G75*
G02*
X125380000Y-96014000I0J175000D01*
G01*
X125380000Y-93216000D01*
G75*
G02*
X125555000Y-93041000I175000J0D01*
G01*
G37*
G36*
G01*
X124285000Y-93041000D02*
X124635000Y-93041000D01*
G75*
G02*
X124810000Y-93216000I0J-175000D01*
G01*
X124810000Y-96014000D01*
G75*
G02*
X124635000Y-96189000I-175000J0D01*
G01*
X124285000Y-96189000D01*
G75*
G02*
X124110000Y-96014000I0J175000D01*
G01*
X124110000Y-93216000D01*
G75*
G02*
X124285000Y-93041000I175000J0D01*
G01*
G37*
G36*
G01*
X123015000Y-93041000D02*
X123365000Y-93041000D01*
G75*
G02*
X123540000Y-93216000I0J-175000D01*
G01*
X123540000Y-96014000D01*
G75*
G02*
X123365000Y-96189000I-175000J0D01*
G01*
X123015000Y-96189000D01*
G75*
G02*
X122840000Y-96014000I0J175000D01*
G01*
X122840000Y-93216000D01*
G75*
G02*
X123015000Y-93041000I175000J0D01*
G01*
G37*
G36*
G01*
X121745000Y-93041000D02*
X122095000Y-93041000D01*
G75*
G02*
X122270000Y-93216000I0J-175000D01*
G01*
X122270000Y-96014000D01*
G75*
G02*
X122095000Y-96189000I-175000J0D01*
G01*
X121745000Y-96189000D01*
G75*
G02*
X121570000Y-96014000I0J175000D01*
G01*
X121570000Y-93216000D01*
G75*
G02*
X121745000Y-93041000I175000J0D01*
G01*
G37*
G36*
G01*
X120475000Y-93041000D02*
X120825000Y-93041000D01*
G75*
G02*
X121000000Y-93216000I0J-175000D01*
G01*
X121000000Y-96014000D01*
G75*
G02*
X120825000Y-96189000I-175000J0D01*
G01*
X120475000Y-96189000D01*
G75*
G02*
X120300000Y-96014000I0J175000D01*
G01*
X120300000Y-93216000D01*
G75*
G02*
X120475000Y-93041000I175000J0D01*
G01*
G37*
G36*
G01*
X135715000Y-101931000D02*
X136065000Y-101931000D01*
G75*
G02*
X136240000Y-102106000I0J-175000D01*
G01*
X136240000Y-104904000D01*
G75*
G02*
X136065000Y-105079000I-175000J0D01*
G01*
X135715000Y-105079000D01*
G75*
G02*
X135540000Y-104904000I0J175000D01*
G01*
X135540000Y-102106000D01*
G75*
G02*
X135715000Y-101931000I175000J0D01*
G01*
G37*
G36*
G01*
X134445000Y-101931000D02*
X134795000Y-101931000D01*
G75*
G02*
X134970000Y-102106000I0J-175000D01*
G01*
X134970000Y-104904000D01*
G75*
G02*
X134795000Y-105079000I-175000J0D01*
G01*
X134445000Y-105079000D01*
G75*
G02*
X134270000Y-104904000I0J175000D01*
G01*
X134270000Y-102106000D01*
G75*
G02*
X134445000Y-101931000I175000J0D01*
G01*
G37*
G36*
G01*
X126825000Y-101931000D02*
X127175000Y-101931000D01*
G75*
G02*
X127350000Y-102106000I0J-175000D01*
G01*
X127350000Y-104904000D01*
G75*
G02*
X127175000Y-105079000I-175000J0D01*
G01*
X126825000Y-105079000D01*
G75*
G02*
X126650000Y-104904000I0J175000D01*
G01*
X126650000Y-102106000D01*
G75*
G02*
X126825000Y-101931000I175000J0D01*
G01*
G37*
G36*
G01*
X128095000Y-101931000D02*
X128445000Y-101931000D01*
G75*
G02*
X128620000Y-102106000I0J-175000D01*
G01*
X128620000Y-104904000D01*
G75*
G02*
X128445000Y-105079000I-175000J0D01*
G01*
X128095000Y-105079000D01*
G75*
G02*
X127920000Y-104904000I0J175000D01*
G01*
X127920000Y-102106000D01*
G75*
G02*
X128095000Y-101931000I175000J0D01*
G01*
G37*
G36*
G01*
X129365000Y-101931000D02*
X129715000Y-101931000D01*
G75*
G02*
X129890000Y-102106000I0J-175000D01*
G01*
X129890000Y-104904000D01*
G75*
G02*
X129715000Y-105079000I-175000J0D01*
G01*
X129365000Y-105079000D01*
G75*
G02*
X129190000Y-104904000I0J175000D01*
G01*
X129190000Y-102106000D01*
G75*
G02*
X129365000Y-101931000I175000J0D01*
G01*
G37*
G36*
G01*
X130635000Y-101931000D02*
X130985000Y-101931000D01*
G75*
G02*
X131160000Y-102106000I0J-175000D01*
G01*
X131160000Y-104904000D01*
G75*
G02*
X130985000Y-105079000I-175000J0D01*
G01*
X130635000Y-105079000D01*
G75*
G02*
X130460000Y-104904000I0J175000D01*
G01*
X130460000Y-102106000D01*
G75*
G02*
X130635000Y-101931000I175000J0D01*
G01*
G37*
G36*
G01*
X131905000Y-101931000D02*
X132255000Y-101931000D01*
G75*
G02*
X132430000Y-102106000I0J-175000D01*
G01*
X132430000Y-104904000D01*
G75*
G02*
X132255000Y-105079000I-175000J0D01*
G01*
X131905000Y-105079000D01*
G75*
G02*
X131730000Y-104904000I0J175000D01*
G01*
X131730000Y-102106000D01*
G75*
G02*
X131905000Y-101931000I175000J0D01*
G01*
G37*
G36*
G01*
X133175000Y-101931000D02*
X133525000Y-101931000D01*
G75*
G02*
X133700000Y-102106000I0J-175000D01*
G01*
X133700000Y-104904000D01*
G75*
G02*
X133525000Y-105079000I-175000J0D01*
G01*
X133175000Y-105079000D01*
G75*
G02*
X133000000Y-104904000I0J175000D01*
G01*
X133000000Y-102106000D01*
G75*
G02*
X133175000Y-101931000I175000J0D01*
G01*
G37*
G36*
G01*
X136985000Y-101931000D02*
X137335000Y-101931000D01*
G75*
G02*
X137510000Y-102106000I0J-175000D01*
G01*
X137510000Y-104904000D01*
G75*
G02*
X137335000Y-105079000I-175000J0D01*
G01*
X136985000Y-105079000D01*
G75*
G02*
X136810000Y-104904000I0J175000D01*
G01*
X136810000Y-102106000D01*
G75*
G02*
X136985000Y-101931000I175000J0D01*
G01*
G37*
G36*
G01*
X138255000Y-101931000D02*
X138605000Y-101931000D01*
G75*
G02*
X138780000Y-102106000I0J-175000D01*
G01*
X138780000Y-104904000D01*
G75*
G02*
X138605000Y-105079000I-175000J0D01*
G01*
X138255000Y-105079000D01*
G75*
G02*
X138080000Y-104904000I0J175000D01*
G01*
X138080000Y-102106000D01*
G75*
G02*
X138255000Y-101931000I175000J0D01*
G01*
G37*
G36*
G01*
X140795000Y-101931000D02*
X141145000Y-101931000D01*
G75*
G02*
X141320000Y-102106000I0J-175000D01*
G01*
X141320000Y-104904000D01*
G75*
G02*
X141145000Y-105079000I-175000J0D01*
G01*
X140795000Y-105079000D01*
G75*
G02*
X140620000Y-104904000I0J175000D01*
G01*
X140620000Y-102106000D01*
G75*
G02*
X140795000Y-101931000I175000J0D01*
G01*
G37*
G36*
G01*
X139525000Y-101931000D02*
X139875000Y-101931000D01*
G75*
G02*
X140050000Y-102106000I0J-175000D01*
G01*
X140050000Y-104904000D01*
G75*
G02*
X139875000Y-105079000I-175000J0D01*
G01*
X139525000Y-105079000D01*
G75*
G02*
X139350000Y-104904000I0J175000D01*
G01*
X139350000Y-102106000D01*
G75*
G02*
X139525000Y-101931000I175000J0D01*
G01*
G37*
G36*
G01*
X117935000Y-93041000D02*
X118285000Y-93041000D01*
G75*
G02*
X118460000Y-93216000I0J-175000D01*
G01*
X118460000Y-96014000D01*
G75*
G02*
X118285000Y-96189000I-175000J0D01*
G01*
X117935000Y-96189000D01*
G75*
G02*
X117760000Y-96014000I0J175000D01*
G01*
X117760000Y-93216000D01*
G75*
G02*
X117935000Y-93041000I175000J0D01*
G01*
G37*
G36*
G01*
X119205000Y-93041000D02*
X119555000Y-93041000D01*
G75*
G02*
X119730000Y-93216000I0J-175000D01*
G01*
X119730000Y-96014000D01*
G75*
G02*
X119555000Y-96189000I-175000J0D01*
G01*
X119205000Y-96189000D01*
G75*
G02*
X119030000Y-96014000I0J175000D01*
G01*
X119030000Y-93216000D01*
G75*
G02*
X119205000Y-93041000I175000J0D01*
G01*
G37*
G36*
G01*
X143335000Y-101931000D02*
X143685000Y-101931000D01*
G75*
G02*
X143860000Y-102106000I0J-175000D01*
G01*
X143860000Y-104904000D01*
G75*
G02*
X143685000Y-105079000I-175000J0D01*
G01*
X143335000Y-105079000D01*
G75*
G02*
X143160000Y-104904000I0J175000D01*
G01*
X143160000Y-102106000D01*
G75*
G02*
X143335000Y-101931000I175000J0D01*
G01*
G37*
G36*
G01*
X142065000Y-101931000D02*
X142415000Y-101931000D01*
G75*
G02*
X142590000Y-102106000I0J-175000D01*
G01*
X142590000Y-104904000D01*
G75*
G02*
X142415000Y-105079000I-175000J0D01*
G01*
X142065000Y-105079000D01*
G75*
G02*
X141890000Y-104904000I0J175000D01*
G01*
X141890000Y-102106000D01*
G75*
G02*
X142065000Y-101931000I175000J0D01*
G01*
G37*
G36*
G01*
X142065000Y-115901000D02*
X142415000Y-115901000D01*
G75*
G02*
X142590000Y-116076000I0J-175000D01*
G01*
X142590000Y-118874000D01*
G75*
G02*
X142415000Y-119049000I-175000J0D01*
G01*
X142065000Y-119049000D01*
G75*
G02*
X141890000Y-118874000I0J175000D01*
G01*
X141890000Y-116076000D01*
G75*
G02*
X142065000Y-115901000I175000J0D01*
G01*
G37*
G36*
G01*
X143335000Y-115901000D02*
X143685000Y-115901000D01*
G75*
G02*
X143860000Y-116076000I0J-175000D01*
G01*
X143860000Y-118874000D01*
G75*
G02*
X143685000Y-119049000I-175000J0D01*
G01*
X143335000Y-119049000D01*
G75*
G02*
X143160000Y-118874000I0J175000D01*
G01*
X143160000Y-116076000D01*
G75*
G02*
X143335000Y-115901000I175000J0D01*
G01*
G37*
G36*
G01*
X119205000Y-107011000D02*
X119555000Y-107011000D01*
G75*
G02*
X119730000Y-107186000I0J-175000D01*
G01*
X119730000Y-109984000D01*
G75*
G02*
X119555000Y-110159000I-175000J0D01*
G01*
X119205000Y-110159000D01*
G75*
G02*
X119030000Y-109984000I0J175000D01*
G01*
X119030000Y-107186000D01*
G75*
G02*
X119205000Y-107011000I175000J0D01*
G01*
G37*
G36*
G01*
X117935000Y-107011000D02*
X118285000Y-107011000D01*
G75*
G02*
X118460000Y-107186000I0J-175000D01*
G01*
X118460000Y-109984000D01*
G75*
G02*
X118285000Y-110159000I-175000J0D01*
G01*
X117935000Y-110159000D01*
G75*
G02*
X117760000Y-109984000I0J175000D01*
G01*
X117760000Y-107186000D01*
G75*
G02*
X117935000Y-107011000I175000J0D01*
G01*
G37*
G36*
G01*
X139525000Y-115901000D02*
X139875000Y-115901000D01*
G75*
G02*
X140050000Y-116076000I0J-175000D01*
G01*
X140050000Y-118874000D01*
G75*
G02*
X139875000Y-119049000I-175000J0D01*
G01*
X139525000Y-119049000D01*
G75*
G02*
X139350000Y-118874000I0J175000D01*
G01*
X139350000Y-116076000D01*
G75*
G02*
X139525000Y-115901000I175000J0D01*
G01*
G37*
G36*
G01*
X140795000Y-115901000D02*
X141145000Y-115901000D01*
G75*
G02*
X141320000Y-116076000I0J-175000D01*
G01*
X141320000Y-118874000D01*
G75*
G02*
X141145000Y-119049000I-175000J0D01*
G01*
X140795000Y-119049000D01*
G75*
G02*
X140620000Y-118874000I0J175000D01*
G01*
X140620000Y-116076000D01*
G75*
G02*
X140795000Y-115901000I175000J0D01*
G01*
G37*
G36*
G01*
X138255000Y-115901000D02*
X138605000Y-115901000D01*
G75*
G02*
X138780000Y-116076000I0J-175000D01*
G01*
X138780000Y-118874000D01*
G75*
G02*
X138605000Y-119049000I-175000J0D01*
G01*
X138255000Y-119049000D01*
G75*
G02*
X138080000Y-118874000I0J175000D01*
G01*
X138080000Y-116076000D01*
G75*
G02*
X138255000Y-115901000I175000J0D01*
G01*
G37*
G36*
G01*
X136985000Y-115901000D02*
X137335000Y-115901000D01*
G75*
G02*
X137510000Y-116076000I0J-175000D01*
G01*
X137510000Y-118874000D01*
G75*
G02*
X137335000Y-119049000I-175000J0D01*
G01*
X136985000Y-119049000D01*
G75*
G02*
X136810000Y-118874000I0J175000D01*
G01*
X136810000Y-116076000D01*
G75*
G02*
X136985000Y-115901000I175000J0D01*
G01*
G37*
G36*
G01*
X133175000Y-115901000D02*
X133525000Y-115901000D01*
G75*
G02*
X133700000Y-116076000I0J-175000D01*
G01*
X133700000Y-118874000D01*
G75*
G02*
X133525000Y-119049000I-175000J0D01*
G01*
X133175000Y-119049000D01*
G75*
G02*
X133000000Y-118874000I0J175000D01*
G01*
X133000000Y-116076000D01*
G75*
G02*
X133175000Y-115901000I175000J0D01*
G01*
G37*
G36*
G01*
X131905000Y-115901000D02*
X132255000Y-115901000D01*
G75*
G02*
X132430000Y-116076000I0J-175000D01*
G01*
X132430000Y-118874000D01*
G75*
G02*
X132255000Y-119049000I-175000J0D01*
G01*
X131905000Y-119049000D01*
G75*
G02*
X131730000Y-118874000I0J175000D01*
G01*
X131730000Y-116076000D01*
G75*
G02*
X131905000Y-115901000I175000J0D01*
G01*
G37*
G36*
G01*
X130635000Y-115901000D02*
X130985000Y-115901000D01*
G75*
G02*
X131160000Y-116076000I0J-175000D01*
G01*
X131160000Y-118874000D01*
G75*
G02*
X130985000Y-119049000I-175000J0D01*
G01*
X130635000Y-119049000D01*
G75*
G02*
X130460000Y-118874000I0J175000D01*
G01*
X130460000Y-116076000D01*
G75*
G02*
X130635000Y-115901000I175000J0D01*
G01*
G37*
G36*
G01*
X129365000Y-115901000D02*
X129715000Y-115901000D01*
G75*
G02*
X129890000Y-116076000I0J-175000D01*
G01*
X129890000Y-118874000D01*
G75*
G02*
X129715000Y-119049000I-175000J0D01*
G01*
X129365000Y-119049000D01*
G75*
G02*
X129190000Y-118874000I0J175000D01*
G01*
X129190000Y-116076000D01*
G75*
G02*
X129365000Y-115901000I175000J0D01*
G01*
G37*
G36*
G01*
X128095000Y-115901000D02*
X128445000Y-115901000D01*
G75*
G02*
X128620000Y-116076000I0J-175000D01*
G01*
X128620000Y-118874000D01*
G75*
G02*
X128445000Y-119049000I-175000J0D01*
G01*
X128095000Y-119049000D01*
G75*
G02*
X127920000Y-118874000I0J175000D01*
G01*
X127920000Y-116076000D01*
G75*
G02*
X128095000Y-115901000I175000J0D01*
G01*
G37*
G36*
G01*
X126825000Y-115901000D02*
X127175000Y-115901000D01*
G75*
G02*
X127350000Y-116076000I0J-175000D01*
G01*
X127350000Y-118874000D01*
G75*
G02*
X127175000Y-119049000I-175000J0D01*
G01*
X126825000Y-119049000D01*
G75*
G02*
X126650000Y-118874000I0J175000D01*
G01*
X126650000Y-116076000D01*
G75*
G02*
X126825000Y-115901000I175000J0D01*
G01*
G37*
G36*
G01*
X134445000Y-115901000D02*
X134795000Y-115901000D01*
G75*
G02*
X134970000Y-116076000I0J-175000D01*
G01*
X134970000Y-118874000D01*
G75*
G02*
X134795000Y-119049000I-175000J0D01*
G01*
X134445000Y-119049000D01*
G75*
G02*
X134270000Y-118874000I0J175000D01*
G01*
X134270000Y-116076000D01*
G75*
G02*
X134445000Y-115901000I175000J0D01*
G01*
G37*
G36*
G01*
X135715000Y-115901000D02*
X136065000Y-115901000D01*
G75*
G02*
X136240000Y-116076000I0J-175000D01*
G01*
X136240000Y-118874000D01*
G75*
G02*
X136065000Y-119049000I-175000J0D01*
G01*
X135715000Y-119049000D01*
G75*
G02*
X135540000Y-118874000I0J175000D01*
G01*
X135540000Y-116076000D01*
G75*
G02*
X135715000Y-115901000I175000J0D01*
G01*
G37*
G36*
G01*
X120475000Y-107011000D02*
X120825000Y-107011000D01*
G75*
G02*
X121000000Y-107186000I0J-175000D01*
G01*
X121000000Y-109984000D01*
G75*
G02*
X120825000Y-110159000I-175000J0D01*
G01*
X120475000Y-110159000D01*
G75*
G02*
X120300000Y-109984000I0J175000D01*
G01*
X120300000Y-107186000D01*
G75*
G02*
X120475000Y-107011000I175000J0D01*
G01*
G37*
G36*
G01*
X121745000Y-107011000D02*
X122095000Y-107011000D01*
G75*
G02*
X122270000Y-107186000I0J-175000D01*
G01*
X122270000Y-109984000D01*
G75*
G02*
X122095000Y-110159000I-175000J0D01*
G01*
X121745000Y-110159000D01*
G75*
G02*
X121570000Y-109984000I0J175000D01*
G01*
X121570000Y-107186000D01*
G75*
G02*
X121745000Y-107011000I175000J0D01*
G01*
G37*
G36*
G01*
X123015000Y-107011000D02*
X123365000Y-107011000D01*
G75*
G02*
X123540000Y-107186000I0J-175000D01*
G01*
X123540000Y-109984000D01*
G75*
G02*
X123365000Y-110159000I-175000J0D01*
G01*
X123015000Y-110159000D01*
G75*
G02*
X122840000Y-109984000I0J175000D01*
G01*
X122840000Y-107186000D01*
G75*
G02*
X123015000Y-107011000I175000J0D01*
G01*
G37*
G36*
G01*
X124285000Y-107011000D02*
X124635000Y-107011000D01*
G75*
G02*
X124810000Y-107186000I0J-175000D01*
G01*
X124810000Y-109984000D01*
G75*
G02*
X124635000Y-110159000I-175000J0D01*
G01*
X124285000Y-110159000D01*
G75*
G02*
X124110000Y-109984000I0J175000D01*
G01*
X124110000Y-107186000D01*
G75*
G02*
X124285000Y-107011000I175000J0D01*
G01*
G37*
G36*
G01*
X125555000Y-107011000D02*
X125905000Y-107011000D01*
G75*
G02*
X126080000Y-107186000I0J-175000D01*
G01*
X126080000Y-109984000D01*
G75*
G02*
X125905000Y-110159000I-175000J0D01*
G01*
X125555000Y-110159000D01*
G75*
G02*
X125380000Y-109984000I0J175000D01*
G01*
X125380000Y-107186000D01*
G75*
G02*
X125555000Y-107011000I175000J0D01*
G01*
G37*
G36*
G01*
X135715000Y-107011000D02*
X136065000Y-107011000D01*
G75*
G02*
X136240000Y-107186000I0J-175000D01*
G01*
X136240000Y-109984000D01*
G75*
G02*
X136065000Y-110159000I-175000J0D01*
G01*
X135715000Y-110159000D01*
G75*
G02*
X135540000Y-109984000I0J175000D01*
G01*
X135540000Y-107186000D01*
G75*
G02*
X135715000Y-107011000I175000J0D01*
G01*
G37*
G36*
G01*
X123015000Y-115901000D02*
X123365000Y-115901000D01*
G75*
G02*
X123540000Y-116076000I0J-175000D01*
G01*
X123540000Y-118874000D01*
G75*
G02*
X123365000Y-119049000I-175000J0D01*
G01*
X123015000Y-119049000D01*
G75*
G02*
X122840000Y-118874000I0J175000D01*
G01*
X122840000Y-116076000D01*
G75*
G02*
X123015000Y-115901000I175000J0D01*
G01*
G37*
G36*
G01*
X121745000Y-115901000D02*
X122095000Y-115901000D01*
G75*
G02*
X122270000Y-116076000I0J-175000D01*
G01*
X122270000Y-118874000D01*
G75*
G02*
X122095000Y-119049000I-175000J0D01*
G01*
X121745000Y-119049000D01*
G75*
G02*
X121570000Y-118874000I0J175000D01*
G01*
X121570000Y-116076000D01*
G75*
G02*
X121745000Y-115901000I175000J0D01*
G01*
G37*
G36*
G01*
X120475000Y-115901000D02*
X120825000Y-115901000D01*
G75*
G02*
X121000000Y-116076000I0J-175000D01*
G01*
X121000000Y-118874000D01*
G75*
G02*
X120825000Y-119049000I-175000J0D01*
G01*
X120475000Y-119049000D01*
G75*
G02*
X120300000Y-118874000I0J175000D01*
G01*
X120300000Y-116076000D01*
G75*
G02*
X120475000Y-115901000I175000J0D01*
G01*
G37*
G36*
G01*
X119205000Y-115901000D02*
X119555000Y-115901000D01*
G75*
G02*
X119730000Y-116076000I0J-175000D01*
G01*
X119730000Y-118874000D01*
G75*
G02*
X119555000Y-119049000I-175000J0D01*
G01*
X119205000Y-119049000D01*
G75*
G02*
X119030000Y-118874000I0J175000D01*
G01*
X119030000Y-116076000D01*
G75*
G02*
X119205000Y-115901000I175000J0D01*
G01*
G37*
G36*
G01*
X117935000Y-115901000D02*
X118285000Y-115901000D01*
G75*
G02*
X118460000Y-116076000I0J-175000D01*
G01*
X118460000Y-118874000D01*
G75*
G02*
X118285000Y-119049000I-175000J0D01*
G01*
X117935000Y-119049000D01*
G75*
G02*
X117760000Y-118874000I0J175000D01*
G01*
X117760000Y-116076000D01*
G75*
G02*
X117935000Y-115901000I175000J0D01*
G01*
G37*
G36*
G01*
X128095000Y-107011000D02*
X128445000Y-107011000D01*
G75*
G02*
X128620000Y-107186000I0J-175000D01*
G01*
X128620000Y-109984000D01*
G75*
G02*
X128445000Y-110159000I-175000J0D01*
G01*
X128095000Y-110159000D01*
G75*
G02*
X127920000Y-109984000I0J175000D01*
G01*
X127920000Y-107186000D01*
G75*
G02*
X128095000Y-107011000I175000J0D01*
G01*
G37*
G36*
G01*
X129365000Y-107011000D02*
X129715000Y-107011000D01*
G75*
G02*
X129890000Y-107186000I0J-175000D01*
G01*
X129890000Y-109984000D01*
G75*
G02*
X129715000Y-110159000I-175000J0D01*
G01*
X129365000Y-110159000D01*
G75*
G02*
X129190000Y-109984000I0J175000D01*
G01*
X129190000Y-107186000D01*
G75*
G02*
X129365000Y-107011000I175000J0D01*
G01*
G37*
G36*
G01*
X130635000Y-107011000D02*
X130985000Y-107011000D01*
G75*
G02*
X131160000Y-107186000I0J-175000D01*
G01*
X131160000Y-109984000D01*
G75*
G02*
X130985000Y-110159000I-175000J0D01*
G01*
X130635000Y-110159000D01*
G75*
G02*
X130460000Y-109984000I0J175000D01*
G01*
X130460000Y-107186000D01*
G75*
G02*
X130635000Y-107011000I175000J0D01*
G01*
G37*
G36*
G01*
X131905000Y-107011000D02*
X132255000Y-107011000D01*
G75*
G02*
X132430000Y-107186000I0J-175000D01*
G01*
X132430000Y-109984000D01*
G75*
G02*
X132255000Y-110159000I-175000J0D01*
G01*
X131905000Y-110159000D01*
G75*
G02*
X131730000Y-109984000I0J175000D01*
G01*
X131730000Y-107186000D01*
G75*
G02*
X131905000Y-107011000I175000J0D01*
G01*
G37*
G36*
G01*
X133175000Y-107011000D02*
X133525000Y-107011000D01*
G75*
G02*
X133700000Y-107186000I0J-175000D01*
G01*
X133700000Y-109984000D01*
G75*
G02*
X133525000Y-110159000I-175000J0D01*
G01*
X133175000Y-110159000D01*
G75*
G02*
X133000000Y-109984000I0J175000D01*
G01*
X133000000Y-107186000D01*
G75*
G02*
X133175000Y-107011000I175000J0D01*
G01*
G37*
G36*
G01*
X138255000Y-107011000D02*
X138605000Y-107011000D01*
G75*
G02*
X138780000Y-107186000I0J-175000D01*
G01*
X138780000Y-109984000D01*
G75*
G02*
X138605000Y-110159000I-175000J0D01*
G01*
X138255000Y-110159000D01*
G75*
G02*
X138080000Y-109984000I0J175000D01*
G01*
X138080000Y-107186000D01*
G75*
G02*
X138255000Y-107011000I175000J0D01*
G01*
G37*
G36*
G01*
X139525000Y-107011000D02*
X139875000Y-107011000D01*
G75*
G02*
X140050000Y-107186000I0J-175000D01*
G01*
X140050000Y-109984000D01*
G75*
G02*
X139875000Y-110159000I-175000J0D01*
G01*
X139525000Y-110159000D01*
G75*
G02*
X139350000Y-109984000I0J175000D01*
G01*
X139350000Y-107186000D01*
G75*
G02*
X139525000Y-107011000I175000J0D01*
G01*
G37*
G36*
G01*
X140795000Y-107011000D02*
X141145000Y-107011000D01*
G75*
G02*
X141320000Y-107186000I0J-175000D01*
G01*
X141320000Y-109984000D01*
G75*
G02*
X141145000Y-110159000I-175000J0D01*
G01*
X140795000Y-110159000D01*
G75*
G02*
X140620000Y-109984000I0J175000D01*
G01*
X140620000Y-107186000D01*
G75*
G02*
X140795000Y-107011000I175000J0D01*
G01*
G37*
G36*
G01*
X142065000Y-107011000D02*
X142415000Y-107011000D01*
G75*
G02*
X142590000Y-107186000I0J-175000D01*
G01*
X142590000Y-109984000D01*
G75*
G02*
X142415000Y-110159000I-175000J0D01*
G01*
X142065000Y-110159000D01*
G75*
G02*
X141890000Y-109984000I0J175000D01*
G01*
X141890000Y-107186000D01*
G75*
G02*
X142065000Y-107011000I175000J0D01*
G01*
G37*
G36*
G01*
X143335000Y-107011000D02*
X143685000Y-107011000D01*
G75*
G02*
X143860000Y-107186000I0J-175000D01*
G01*
X143860000Y-109984000D01*
G75*
G02*
X143685000Y-110159000I-175000J0D01*
G01*
X143335000Y-110159000D01*
G75*
G02*
X143160000Y-109984000I0J175000D01*
G01*
X143160000Y-107186000D01*
G75*
G02*
X143335000Y-107011000I175000J0D01*
G01*
G37*
G36*
G01*
X136985000Y-107011000D02*
X137335000Y-107011000D01*
G75*
G02*
X137510000Y-107186000I0J-175000D01*
G01*
X137510000Y-109984000D01*
G75*
G02*
X137335000Y-110159000I-175000J0D01*
G01*
X136985000Y-110159000D01*
G75*
G02*
X136810000Y-109984000I0J175000D01*
G01*
X136810000Y-107186000D01*
G75*
G02*
X136985000Y-107011000I175000J0D01*
G01*
G37*
G36*
G01*
X134445000Y-107011000D02*
X134795000Y-107011000D01*
G75*
G02*
X134970000Y-107186000I0J-175000D01*
G01*
X134970000Y-109984000D01*
G75*
G02*
X134795000Y-110159000I-175000J0D01*
G01*
X134445000Y-110159000D01*
G75*
G02*
X134270000Y-109984000I0J175000D01*
G01*
X134270000Y-107186000D01*
G75*
G02*
X134445000Y-107011000I175000J0D01*
G01*
G37*
G36*
G01*
X126825000Y-107011000D02*
X127175000Y-107011000D01*
G75*
G02*
X127350000Y-107186000I0J-175000D01*
G01*
X127350000Y-109984000D01*
G75*
G02*
X127175000Y-110159000I-175000J0D01*
G01*
X126825000Y-110159000D01*
G75*
G02*
X126650000Y-109984000I0J175000D01*
G01*
X126650000Y-107186000D01*
G75*
G02*
X126825000Y-107011000I175000J0D01*
G01*
G37*
G36*
G01*
X124285000Y-115901000D02*
X124635000Y-115901000D01*
G75*
G02*
X124810000Y-116076000I0J-175000D01*
G01*
X124810000Y-118874000D01*
G75*
G02*
X124635000Y-119049000I-175000J0D01*
G01*
X124285000Y-119049000D01*
G75*
G02*
X124110000Y-118874000I0J175000D01*
G01*
X124110000Y-116076000D01*
G75*
G02*
X124285000Y-115901000I175000J0D01*
G01*
G37*
G36*
G01*
X125555000Y-115901000D02*
X125905000Y-115901000D01*
G75*
G02*
X126080000Y-116076000I0J-175000D01*
G01*
X126080000Y-118874000D01*
G75*
G02*
X125905000Y-119049000I-175000J0D01*
G01*
X125555000Y-119049000D01*
G75*
G02*
X125380000Y-118874000I0J175000D01*
G01*
X125380000Y-116076000D01*
G75*
G02*
X125555000Y-115901000I175000J0D01*
G01*
G37*
M02*
