G04 #@! TF.GenerationSoftware,KiCad,Pcbnew,(6.0.2-0)*
G04 #@! TF.CreationDate,2022-08-10T03:19:08-04:00*
G04 #@! TF.ProjectId,MacClassicRAMCard,4d616343-6c61-4737-9369-6352414d4361,rev?*
G04 #@! TF.SameCoordinates,Original*
G04 #@! TF.FileFunction,Legend,Top*
G04 #@! TF.FilePolarity,Positive*
%FSLAX46Y46*%
G04 Gerber Fmt 4.6, Leading zero omitted, Abs format (unit mm)*
G04 Created by KiCad (PCBNEW (6.0.2-0)) date 2022-08-10 03:19:08*
%MOMM*%
%LPD*%
G01*
G04 APERTURE LIST*
G04 Aperture macros list*
%AMRoundRect*
0 Rectangle with rounded corners*
0 $1 Rounding radius*
0 $2 $3 $4 $5 $6 $7 $8 $9 X,Y pos of 4 corners*
0 Add a 4 corners polygon primitive as box body*
4,1,4,$2,$3,$4,$5,$6,$7,$8,$9,$2,$3,0*
0 Add four circle primitives for the rounded corners*
1,1,$1+$1,$2,$3*
1,1,$1+$1,$4,$5*
1,1,$1+$1,$6,$7*
1,1,$1+$1,$8,$9*
0 Add four rect primitives between the rounded corners*
20,1,$1+$1,$2,$3,$4,$5,0*
20,1,$1+$1,$4,$5,$6,$7,0*
20,1,$1+$1,$6,$7,$8,$9,0*
20,1,$1+$1,$8,$9,$2,$3,0*%
G04 Aperture macros list end*
%ADD10C,0.203200*%
%ADD11C,0.152400*%
%ADD12C,0.120000*%
%ADD13C,0.200000*%
%ADD14C,1.448000*%
%ADD15C,2.000000*%
%ADD16RoundRect,0.312500X-0.437500X0.262500X-0.437500X-0.262500X0.437500X-0.262500X0.437500X0.262500X0*%
%ADD17RoundRect,0.312500X0.262500X0.437500X-0.262500X0.437500X-0.262500X-0.437500X0.262500X-0.437500X0*%
%ADD18C,2.150000*%
%ADD19RoundRect,0.075000X0.850000X-0.850000X0.850000X0.850000X-0.850000X0.850000X-0.850000X-0.850000X0*%
%ADD20O,1.850000X1.850000*%
%ADD21RoundRect,0.200000X-0.150000X1.374000X-0.150000X-1.374000X0.150000X-1.374000X0.150000X1.374000X0*%
%ADD22RoundRect,0.200000X0.150000X-0.825000X0.150000X0.825000X-0.150000X0.825000X-0.150000X-0.825000X0*%
%ADD23RoundRect,0.312500X-0.262500X-0.437500X0.262500X-0.437500X0.262500X0.437500X-0.262500X0.437500X0*%
%ADD24C,3.296000*%
G04 APERTURE END LIST*
D10*
X116895638Y-129475895D02*
X116895638Y-130056466D01*
X116856933Y-130172580D01*
X116779523Y-130249990D01*
X116663409Y-130288695D01*
X116586000Y-130288695D01*
X117669733Y-130288695D02*
X117282685Y-130288695D01*
X117282685Y-129475895D01*
X118405123Y-130211285D02*
X118366419Y-130249990D01*
X118250304Y-130288695D01*
X118172895Y-130288695D01*
X118056780Y-130249990D01*
X117979371Y-130172580D01*
X117940666Y-130095171D01*
X117901961Y-129940352D01*
X117901961Y-129824238D01*
X117940666Y-129669419D01*
X117979371Y-129592009D01*
X118056780Y-129514600D01*
X118172895Y-129475895D01*
X118250304Y-129475895D01*
X118366419Y-129514600D01*
X118405123Y-129553304D01*
X118985695Y-129475895D02*
X118985695Y-130056466D01*
X118946990Y-130172580D01*
X118869580Y-130249990D01*
X118753466Y-130288695D01*
X118676057Y-130288695D01*
X119759790Y-130288695D02*
X119372742Y-130288695D01*
X119372742Y-129475895D01*
X120495180Y-130211285D02*
X120456476Y-130249990D01*
X120340361Y-130288695D01*
X120262952Y-130288695D01*
X120146838Y-130249990D01*
X120069428Y-130172580D01*
X120030723Y-130095171D01*
X119992019Y-129940352D01*
X119992019Y-129824238D01*
X120030723Y-129669419D01*
X120069428Y-129592009D01*
X120146838Y-129514600D01*
X120262952Y-129475895D01*
X120340361Y-129475895D01*
X120456476Y-129514600D01*
X120495180Y-129553304D01*
X121075752Y-129475895D02*
X121075752Y-130056466D01*
X121037047Y-130172580D01*
X120959638Y-130249990D01*
X120843523Y-130288695D01*
X120766114Y-130288695D01*
X121849847Y-130288695D02*
X121462800Y-130288695D01*
X121462800Y-129475895D01*
X122585238Y-130211285D02*
X122546533Y-130249990D01*
X122430419Y-130288695D01*
X122353009Y-130288695D01*
X122236895Y-130249990D01*
X122159485Y-130172580D01*
X122120780Y-130095171D01*
X122082076Y-129940352D01*
X122082076Y-129824238D01*
X122120780Y-129669419D01*
X122159485Y-129592009D01*
X122236895Y-129514600D01*
X122353009Y-129475895D01*
X122430419Y-129475895D01*
X122546533Y-129514600D01*
X122585238Y-129553304D01*
X123165809Y-129475895D02*
X123165809Y-130056466D01*
X123127104Y-130172580D01*
X123049695Y-130249990D01*
X122933580Y-130288695D01*
X122856171Y-130288695D01*
X123939904Y-130288695D02*
X123552857Y-130288695D01*
X123552857Y-129475895D01*
X124675295Y-130211285D02*
X124636590Y-130249990D01*
X124520476Y-130288695D01*
X124443066Y-130288695D01*
X124326952Y-130249990D01*
X124249542Y-130172580D01*
X124210838Y-130095171D01*
X124172133Y-129940352D01*
X124172133Y-129824238D01*
X124210838Y-129669419D01*
X124249542Y-129592009D01*
X124326952Y-129514600D01*
X124443066Y-129475895D01*
X124520476Y-129475895D01*
X124636590Y-129514600D01*
X124675295Y-129553304D01*
X130190723Y-98614895D02*
X130190723Y-99272876D01*
X130229428Y-99350285D01*
X130268133Y-99388990D01*
X130345542Y-99427695D01*
X130500361Y-99427695D01*
X130577771Y-99388990D01*
X130616476Y-99350285D01*
X130655180Y-99272876D01*
X130655180Y-98614895D01*
X131467980Y-99427695D02*
X131003523Y-99427695D01*
X131235752Y-99427695D02*
X131235752Y-98614895D01*
X131158342Y-98731009D01*
X131080933Y-98808419D01*
X131003523Y-98847123D01*
X103520723Y-112584895D02*
X103520723Y-113242876D01*
X103559428Y-113320285D01*
X103598133Y-113358990D01*
X103675542Y-113397695D01*
X103830361Y-113397695D01*
X103907771Y-113358990D01*
X103946476Y-113320285D01*
X103985180Y-113242876D01*
X103985180Y-112584895D01*
X104294819Y-112584895D02*
X104797980Y-112584895D01*
X104527047Y-112894533D01*
X104643161Y-112894533D01*
X104720571Y-112933238D01*
X104759276Y-112971942D01*
X104797980Y-113049352D01*
X104797980Y-113242876D01*
X104759276Y-113320285D01*
X104720571Y-113358990D01*
X104643161Y-113397695D01*
X104410933Y-113397695D01*
X104333523Y-113358990D01*
X104294819Y-113320285D01*
X130190723Y-112584895D02*
X130190723Y-113242876D01*
X130229428Y-113320285D01*
X130268133Y-113358990D01*
X130345542Y-113397695D01*
X130500361Y-113397695D01*
X130577771Y-113358990D01*
X130616476Y-113320285D01*
X130655180Y-113242876D01*
X130655180Y-112584895D01*
X131003523Y-112662304D02*
X131042228Y-112623600D01*
X131119638Y-112584895D01*
X131313161Y-112584895D01*
X131390571Y-112623600D01*
X131429276Y-112662304D01*
X131467980Y-112739714D01*
X131467980Y-112817123D01*
X131429276Y-112933238D01*
X130964819Y-113397695D01*
X131467980Y-113397695D01*
D11*
X114770000Y-109028600D02*
X114770000Y-109841400D01*
X116370000Y-109028600D02*
X116370000Y-109841400D01*
X95656400Y-119469000D02*
X94843600Y-119469000D01*
X95656400Y-121069000D02*
X94843600Y-121069000D01*
X146850000Y-109028600D02*
X146850000Y-109841400D01*
X145250000Y-109028600D02*
X145250000Y-109841400D01*
D12*
X101240000Y-127190000D02*
X101240000Y-126780000D01*
X111400000Y-124680000D02*
X111400000Y-124240000D01*
X134260000Y-127190000D02*
X134260000Y-126780000D01*
X142600000Y-127190000D02*
X142600000Y-126780000D01*
X104500000Y-127190000D02*
X104500000Y-126780000D01*
X96160000Y-124680000D02*
X96160000Y-124240000D01*
X146960000Y-127190000D02*
X146960000Y-126780000D01*
X114660000Y-127190000D02*
X114660000Y-126780000D01*
X129180000Y-127190000D02*
X129180000Y-126780000D01*
X98700000Y-127190000D02*
X98700000Y-126780000D01*
X147680000Y-124680000D02*
X147680000Y-124240000D01*
X119740000Y-124680000D02*
X119740000Y-124240000D01*
X108860000Y-124680000D02*
X108860000Y-124240000D01*
X122280000Y-124680000D02*
X122280000Y-124240000D01*
X132440000Y-124680000D02*
X132440000Y-124240000D01*
X126640000Y-127190000D02*
X126640000Y-126780000D01*
X94340000Y-124680000D02*
X94340000Y-124300000D01*
X96160000Y-127190000D02*
X96160000Y-126780000D01*
X104500000Y-124680000D02*
X104500000Y-124240000D01*
X103780000Y-127190000D02*
X103780000Y-126780000D01*
X140060000Y-124680000D02*
X140060000Y-124240000D01*
X137520000Y-124680000D02*
X137520000Y-124240000D01*
X141880000Y-127190000D02*
X141880000Y-126780000D01*
X145140000Y-124680000D02*
X145140000Y-124240000D01*
X101960000Y-124680000D02*
X101960000Y-124240000D01*
X144420000Y-124680000D02*
X144420000Y-124240000D01*
X144420000Y-127190000D02*
X144420000Y-126780000D01*
X142600000Y-124680000D02*
X142600000Y-124240000D01*
X129900000Y-127190000D02*
X129900000Y-126780000D01*
X106320000Y-124680000D02*
X106320000Y-124240000D01*
X92650000Y-127190000D02*
X148650000Y-127190000D01*
X96880000Y-127190000D02*
X96880000Y-126780000D01*
X119020000Y-127190000D02*
X119020000Y-126780000D01*
X146960000Y-124680000D02*
X146960000Y-124240000D01*
X103780000Y-124680000D02*
X103780000Y-124240000D01*
X99420000Y-127190000D02*
X99420000Y-126780000D01*
X107040000Y-127190000D02*
X107040000Y-126780000D01*
X116480000Y-124680000D02*
X116480000Y-124240000D01*
X134980000Y-124680000D02*
X134980000Y-124240000D01*
X121560000Y-127190000D02*
X121560000Y-126780000D01*
X113940000Y-127190000D02*
X113940000Y-126780000D01*
X101240000Y-124680000D02*
X101240000Y-124240000D01*
X134980000Y-127190000D02*
X134980000Y-126780000D01*
X134260000Y-124680000D02*
X134260000Y-124240000D01*
X124100000Y-124680000D02*
X124100000Y-124240000D01*
X92650000Y-122080000D02*
X93980000Y-122080000D01*
X106320000Y-127190000D02*
X106320000Y-126780000D01*
X113940000Y-124680000D02*
X113940000Y-124240000D01*
X112120000Y-127190000D02*
X112120000Y-126780000D01*
X122280000Y-127190000D02*
X122280000Y-126780000D01*
X121560000Y-124680000D02*
X121560000Y-124240000D01*
X112120000Y-124680000D02*
X112120000Y-124240000D01*
X117200000Y-124680000D02*
X117200000Y-124240000D01*
X109580000Y-124680000D02*
X109580000Y-124240000D01*
X117200000Y-127190000D02*
X117200000Y-126780000D01*
X111400000Y-127190000D02*
X111400000Y-126780000D01*
X124100000Y-127190000D02*
X124100000Y-126780000D01*
X132440000Y-127190000D02*
X132440000Y-126780000D01*
X107040000Y-124680000D02*
X107040000Y-124240000D01*
X96880000Y-124680000D02*
X96880000Y-124240000D01*
X93620000Y-124680000D02*
X93620000Y-124300000D01*
X119740000Y-127190000D02*
X119740000Y-126780000D01*
X126640000Y-124680000D02*
X126640000Y-124240000D01*
X136800000Y-124680000D02*
X136800000Y-124240000D01*
X136800000Y-127190000D02*
X136800000Y-126780000D01*
X140060000Y-127190000D02*
X140060000Y-126780000D01*
X131720000Y-127190000D02*
X131720000Y-126780000D01*
X131720000Y-124680000D02*
X131720000Y-124240000D01*
X124820000Y-124680000D02*
X124820000Y-124240000D01*
X101960000Y-127190000D02*
X101960000Y-126780000D01*
X119020000Y-124680000D02*
X119020000Y-124240000D01*
X94340000Y-127190000D02*
X94340000Y-126780000D01*
X98700000Y-124680000D02*
X98700000Y-124240000D01*
X129900000Y-124680000D02*
X129900000Y-124240000D01*
X137520000Y-127190000D02*
X137520000Y-126780000D01*
X127360000Y-127190000D02*
X127360000Y-126780000D01*
X139340000Y-127190000D02*
X139340000Y-126780000D01*
X114660000Y-124680000D02*
X114660000Y-124240000D01*
X145140000Y-127190000D02*
X145140000Y-126780000D01*
X141880000Y-124680000D02*
X141880000Y-124240000D01*
X109580000Y-127190000D02*
X109580000Y-126780000D01*
X93620000Y-127190000D02*
X93620000Y-126780000D01*
X99420000Y-124680000D02*
X99420000Y-124240000D01*
X139340000Y-124680000D02*
X139340000Y-124240000D01*
X124820000Y-127190000D02*
X124820000Y-126780000D01*
X108860000Y-127190000D02*
X108860000Y-126780000D01*
X147680000Y-127190000D02*
X147680000Y-126780000D01*
X127360000Y-124680000D02*
X127360000Y-124240000D01*
X92650000Y-123190000D02*
X92650000Y-122080000D01*
X129180000Y-124680000D02*
X129180000Y-124240000D01*
X116480000Y-127190000D02*
X116480000Y-126780000D01*
D13*
X116840000Y-93915000D02*
X117585000Y-93915000D01*
X144780000Y-104205000D02*
X144035000Y-104205000D01*
X144130000Y-93915000D02*
X144130000Y-93091000D01*
X144780000Y-93915000D02*
X144780000Y-104205000D01*
X116840000Y-93980000D02*
X116840000Y-104205000D01*
X144780000Y-93915000D02*
X144130000Y-93915000D01*
X116840000Y-104205000D02*
X117585000Y-104205000D01*
D12*
X99715000Y-113030000D02*
X99715000Y-116480000D01*
X99715000Y-113030000D02*
X99715000Y-111080000D01*
X108565000Y-113030000D02*
X108565000Y-114980000D01*
X108565000Y-113030000D02*
X108565000Y-111080000D01*
D13*
X144780000Y-107885000D02*
X144130000Y-107885000D01*
X144130000Y-107885000D02*
X144130000Y-107061000D01*
X116840000Y-118175000D02*
X117585000Y-118175000D01*
X144780000Y-107885000D02*
X144780000Y-118175000D01*
X144780000Y-118175000D02*
X144035000Y-118175000D01*
X116840000Y-107950000D02*
X116840000Y-118175000D01*
X116840000Y-107885000D02*
X117585000Y-107885000D01*
D11*
X145643600Y-119469000D02*
X146456400Y-119469000D01*
X145643600Y-121069000D02*
X146456400Y-121069000D01*
X99225000Y-111060600D02*
X99225000Y-111873400D01*
X97625000Y-111060600D02*
X97625000Y-111873400D01*
X145250000Y-95058600D02*
X145250000Y-95871400D01*
X146850000Y-95058600D02*
X146850000Y-95871400D01*
X116370000Y-95058600D02*
X116370000Y-95871400D01*
X114770000Y-95058600D02*
X114770000Y-95871400D01*
G36*
X106448787Y-93947019D02*
G01*
X106488103Y-93947346D01*
X106517634Y-93948722D01*
X106539038Y-93951737D01*
X106553975Y-93956981D01*
X106564101Y-93965044D01*
X106571076Y-93976517D01*
X106576556Y-93991991D01*
X106576731Y-93992577D01*
X106582759Y-94015646D01*
X106587819Y-94039629D01*
X106589043Y-94046935D01*
X106591826Y-94062354D01*
X106594421Y-94071701D01*
X106595361Y-94072988D01*
X106600468Y-94069517D01*
X106612235Y-94060184D01*
X106628653Y-94046607D01*
X106639777Y-94037202D01*
X106686258Y-94000503D01*
X106729884Y-93972806D01*
X106773256Y-93953046D01*
X106818975Y-93940156D01*
X106869641Y-93933071D01*
X106897985Y-93931358D01*
X106955963Y-93931887D01*
X107006255Y-93938948D01*
X107051125Y-93953400D01*
X107092834Y-93976101D01*
X107133644Y-94007909D01*
X107156306Y-94029376D01*
X107179933Y-94054032D01*
X107197549Y-94075463D01*
X107212031Y-94097664D01*
X107226257Y-94124627D01*
X107228989Y-94130247D01*
X107253331Y-94188269D01*
X107271151Y-94248623D01*
X107282786Y-94313241D01*
X107288575Y-94384051D01*
X107288854Y-94462983D01*
X107288608Y-94470937D01*
X107284686Y-94534614D01*
X107277132Y-94590186D01*
X107265324Y-94640598D01*
X107248636Y-94688796D01*
X107236465Y-94716916D01*
X107202223Y-94778789D01*
X107160374Y-94833445D01*
X107111847Y-94880072D01*
X107057571Y-94917857D01*
X106998474Y-94945988D01*
X106960969Y-94957925D01*
X106932942Y-94962962D01*
X106897521Y-94965987D01*
X106858413Y-94967002D01*
X106819329Y-94966008D01*
X106783978Y-94963009D01*
X106756068Y-94958006D01*
X106755304Y-94957804D01*
X106714932Y-94943456D01*
X106674288Y-94922942D01*
X106638652Y-94899011D01*
X106631993Y-94893548D01*
X106608828Y-94873719D01*
X106608828Y-95281149D01*
X106362615Y-95281149D01*
X106362615Y-94693346D01*
X106608828Y-94693346D01*
X106634549Y-94717992D01*
X106653028Y-94733865D01*
X106672865Y-94748168D01*
X106684014Y-94754751D01*
X106727489Y-94771099D01*
X106775651Y-94779240D01*
X106825015Y-94778986D01*
X106872098Y-94770154D01*
X106886112Y-94765485D01*
X106925430Y-94744724D01*
X106959600Y-94713962D01*
X106988331Y-94673569D01*
X107011332Y-94623915D01*
X107021090Y-94594003D01*
X107028426Y-94559765D01*
X107033698Y-94517562D01*
X107036788Y-94470715D01*
X107037582Y-94422543D01*
X107035963Y-94376366D01*
X107031815Y-94335504D01*
X107030410Y-94326738D01*
X107017899Y-94270929D01*
X107001315Y-94225209D01*
X106980041Y-94188746D01*
X106953460Y-94160711D01*
X106920955Y-94140275D01*
X106881909Y-94126607D01*
X106881536Y-94126515D01*
X106858290Y-94121526D01*
X106838899Y-94119769D01*
X106817821Y-94121053D01*
X106799001Y-94123674D01*
X106759346Y-94132140D01*
X106725258Y-94145151D01*
X106693358Y-94164444D01*
X106660269Y-94191758D01*
X106652449Y-94199059D01*
X106608828Y-94240495D01*
X106608828Y-94693346D01*
X106362615Y-94693346D01*
X106362615Y-93947019D01*
X106448787Y-93947019D01*
G37*
G36*
X96789909Y-93458052D02*
G01*
X96796496Y-93466077D01*
X96805623Y-93482347D01*
X96816103Y-93504283D01*
X96826746Y-93529302D01*
X96836362Y-93554824D01*
X96841148Y-93569313D01*
X96851128Y-93615836D01*
X96854892Y-93667705D01*
X96852488Y-93720680D01*
X96843968Y-93770523D01*
X96838560Y-93789557D01*
X96815589Y-93844513D01*
X96782906Y-93899531D01*
X96742000Y-93952293D01*
X96716558Y-93979489D01*
X96697549Y-93998144D01*
X96681359Y-94013373D01*
X96669737Y-94023575D01*
X96664489Y-94027150D01*
X96657805Y-94024376D01*
X96644090Y-94017064D01*
X96626066Y-94006678D01*
X96622333Y-94004451D01*
X96603059Y-93992309D01*
X96587118Y-93981222D01*
X96577611Y-93973362D01*
X96577003Y-93972684D01*
X96570062Y-93958341D01*
X96571436Y-93940942D01*
X96581464Y-93919226D01*
X96597758Y-93895486D01*
X96629249Y-93846958D01*
X96649435Y-93798899D01*
X96658396Y-93750567D01*
X96656216Y-93701221D01*
X96642975Y-93650117D01*
X96628569Y-93615800D01*
X96614981Y-93584912D01*
X96607814Y-93561722D01*
X96606849Y-93544600D01*
X96611868Y-93531914D01*
X96616625Y-93526659D01*
X96625711Y-93521036D01*
X96642544Y-93512843D01*
X96664887Y-93502966D01*
X96690505Y-93492289D01*
X96717163Y-93481698D01*
X96742623Y-93472079D01*
X96764651Y-93464315D01*
X96781011Y-93459293D01*
X96789467Y-93457898D01*
X96789909Y-93458052D01*
G37*
G36*
X105058617Y-97246476D02*
G01*
X105101865Y-97136334D01*
X105656138Y-95724905D01*
X106198530Y-95724905D01*
X106752846Y-97136334D01*
X106800740Y-97258299D01*
X106847531Y-97377489D01*
X106893047Y-97493463D01*
X106937116Y-97605781D01*
X106979565Y-97714003D01*
X107020223Y-97817688D01*
X107058916Y-97916395D01*
X107095472Y-98009686D01*
X107129719Y-98097118D01*
X107161484Y-98178253D01*
X107190596Y-98252649D01*
X107216881Y-98319867D01*
X107240167Y-98379465D01*
X107260282Y-98431005D01*
X107277053Y-98474044D01*
X107290308Y-98508144D01*
X107299875Y-98532863D01*
X107305582Y-98547761D01*
X107307274Y-98552410D01*
X107301774Y-98553378D01*
X107286031Y-98554191D01*
X107261253Y-98554833D01*
X107228645Y-98555291D01*
X107189416Y-98555549D01*
X107144773Y-98555592D01*
X107095924Y-98555405D01*
X107076918Y-98555273D01*
X107019351Y-98554807D01*
X106972067Y-98554342D01*
X106933896Y-98553813D01*
X106903669Y-98553157D01*
X106880219Y-98552309D01*
X106862375Y-98551203D01*
X106848969Y-98549777D01*
X106838831Y-98547964D01*
X106830793Y-98545701D01*
X106823686Y-98542922D01*
X106819561Y-98541064D01*
X106790305Y-98522955D01*
X106762479Y-98497681D01*
X106739906Y-98469036D01*
X106731145Y-98453286D01*
X106726866Y-98442947D01*
X106719091Y-98422979D01*
X106708245Y-98394511D01*
X106694750Y-98358674D01*
X106679031Y-98316599D01*
X106661510Y-98269417D01*
X106642612Y-98218258D01*
X106622760Y-98164253D01*
X106617495Y-98149888D01*
X106597791Y-98096095D01*
X106579239Y-98045461D01*
X106562220Y-97999022D01*
X106547114Y-97957816D01*
X106534301Y-97922879D01*
X106524161Y-97895248D01*
X106517074Y-97875961D01*
X106513422Y-97866053D01*
X106513037Y-97865025D01*
X106510507Y-97863810D01*
X106503528Y-97862730D01*
X106491537Y-97861779D01*
X106473971Y-97860949D01*
X106450267Y-97860234D01*
X106419863Y-97859626D01*
X106382195Y-97859119D01*
X106336701Y-97858705D01*
X106282818Y-97858378D01*
X106219984Y-97858131D01*
X106147635Y-97857957D01*
X106065208Y-97857849D01*
X105972140Y-97857799D01*
X105927530Y-97857795D01*
X105344798Y-97857795D01*
X105338515Y-97873541D01*
X105335350Y-97881900D01*
X105328648Y-97899920D01*
X105318811Y-97926509D01*
X105306242Y-97960577D01*
X105291342Y-98001031D01*
X105274515Y-98046780D01*
X105256162Y-98096733D01*
X105236686Y-98149796D01*
X105232479Y-98161266D01*
X105212815Y-98214859D01*
X105194190Y-98265580D01*
X105177005Y-98312338D01*
X105161664Y-98354038D01*
X105148568Y-98389588D01*
X105138121Y-98417894D01*
X105130725Y-98437864D01*
X105126782Y-98448403D01*
X105126431Y-98449314D01*
X105115619Y-98467751D01*
X105097776Y-98488934D01*
X105075857Y-98510008D01*
X105052820Y-98528119D01*
X105032503Y-98540019D01*
X105024796Y-98543396D01*
X105017262Y-98546165D01*
X105008712Y-98548396D01*
X104997958Y-98550161D01*
X104983811Y-98551528D01*
X104965083Y-98552569D01*
X104940586Y-98553353D01*
X104909130Y-98553951D01*
X104869528Y-98554433D01*
X104820591Y-98554869D01*
X104775115Y-98555223D01*
X104725328Y-98555491D01*
X104679303Y-98555523D01*
X104638255Y-98555336D01*
X104603401Y-98554943D01*
X104575955Y-98554361D01*
X104557132Y-98553605D01*
X104548150Y-98552690D01*
X104547552Y-98552360D01*
X104549621Y-98546703D01*
X104555706Y-98530828D01*
X104565635Y-98505175D01*
X104579235Y-98470185D01*
X104596335Y-98426298D01*
X104616761Y-98373954D01*
X104640341Y-98313594D01*
X104666904Y-98245658D01*
X104696276Y-98170586D01*
X104728285Y-98088818D01*
X104762759Y-98000795D01*
X104799526Y-97906957D01*
X104838413Y-97807745D01*
X104879248Y-97703598D01*
X104921858Y-97594958D01*
X104966071Y-97482264D01*
X104967733Y-97478030D01*
X105482514Y-97478030D01*
X105483624Y-97479454D01*
X105488567Y-97480695D01*
X105498014Y-97481766D01*
X105512636Y-97482677D01*
X105533104Y-97483441D01*
X105560090Y-97484068D01*
X105594263Y-97484571D01*
X105636296Y-97484960D01*
X105686858Y-97485247D01*
X105746622Y-97485443D01*
X105816258Y-97485560D01*
X105896437Y-97485609D01*
X105927448Y-97485612D01*
X106009668Y-97485602D01*
X106081174Y-97485560D01*
X106142701Y-97485470D01*
X106194987Y-97485314D01*
X106238769Y-97485077D01*
X106274782Y-97484741D01*
X106303765Y-97484291D01*
X106326454Y-97483709D01*
X106343586Y-97482979D01*
X106355897Y-97482084D01*
X106364124Y-97481008D01*
X106369005Y-97479734D01*
X106371276Y-97478245D01*
X106371673Y-97476524D01*
X106371407Y-97475592D01*
X106368914Y-97468861D01*
X106362769Y-97452142D01*
X106353255Y-97426204D01*
X106340652Y-97391816D01*
X106325243Y-97349745D01*
X106307307Y-97300760D01*
X106287127Y-97245629D01*
X106264984Y-97185120D01*
X106241159Y-97120002D01*
X106215933Y-97051043D01*
X106189588Y-96979010D01*
X106185349Y-96967420D01*
X106144941Y-96856729D01*
X106108477Y-96756419D01*
X106075842Y-96666163D01*
X106046921Y-96585632D01*
X106021599Y-96514499D01*
X105999763Y-96452437D01*
X105981296Y-96399118D01*
X105966085Y-96354215D01*
X105954014Y-96317399D01*
X105944969Y-96288344D01*
X105938836Y-96266722D01*
X105936259Y-96256046D01*
X105932380Y-96242594D01*
X105928341Y-96235086D01*
X105928093Y-96234907D01*
X105925191Y-96239206D01*
X105919890Y-96252764D01*
X105912806Y-96273789D01*
X105904556Y-96300491D01*
X105899072Y-96319298D01*
X105888097Y-96356647D01*
X105875674Y-96397148D01*
X105863199Y-96436342D01*
X105852070Y-96469772D01*
X105850262Y-96474995D01*
X105845915Y-96487169D01*
X105837977Y-96509105D01*
X105826811Y-96539817D01*
X105812778Y-96578320D01*
X105796238Y-96623626D01*
X105777555Y-96674750D01*
X105757089Y-96730706D01*
X105735201Y-96790507D01*
X105712254Y-96853168D01*
X105688609Y-96917703D01*
X105664628Y-96983125D01*
X105640671Y-97048449D01*
X105617101Y-97112687D01*
X105594279Y-97174855D01*
X105572566Y-97233966D01*
X105552325Y-97289034D01*
X105533916Y-97339073D01*
X105517701Y-97383097D01*
X105504042Y-97420119D01*
X105493300Y-97449155D01*
X105485838Y-97469216D01*
X105482514Y-97478030D01*
X104967733Y-97478030D01*
X105011715Y-97365956D01*
X105058617Y-97246476D01*
G37*
G36*
X93997261Y-94320711D02*
G01*
X94017976Y-94247545D01*
X94047701Y-94180805D01*
X94085889Y-94121041D01*
X94131994Y-94068804D01*
X94185469Y-94024644D01*
X94245768Y-93989111D01*
X94312344Y-93962755D01*
X94365970Y-93949361D01*
X94404301Y-93944254D01*
X94449093Y-93941831D01*
X94495928Y-93942072D01*
X94540385Y-93944957D01*
X94577565Y-93950364D01*
X94643939Y-93969396D01*
X94703787Y-93997537D01*
X94756680Y-94034202D01*
X94802191Y-94078807D01*
X94839889Y-94130767D01*
X94869346Y-94189495D01*
X94890132Y-94254408D01*
X94901818Y-94324920D01*
X94904128Y-94395588D01*
X94903179Y-94424670D01*
X94901927Y-94444556D01*
X94899932Y-94457499D01*
X94896754Y-94465753D01*
X94891952Y-94471573D01*
X94888750Y-94474318D01*
X94885451Y-94476655D01*
X94881185Y-94478633D01*
X94875037Y-94480282D01*
X94866091Y-94481632D01*
X94853428Y-94482714D01*
X94836134Y-94483556D01*
X94813290Y-94484188D01*
X94783982Y-94484641D01*
X94747291Y-94484944D01*
X94702301Y-94485126D01*
X94648097Y-94485218D01*
X94583761Y-94485250D01*
X94552004Y-94485252D01*
X94228775Y-94485252D01*
X94232530Y-94512450D01*
X94244297Y-94575196D01*
X94261093Y-94628304D01*
X94283255Y-94672584D01*
X94311117Y-94708843D01*
X94316314Y-94714139D01*
X94350671Y-94742689D01*
X94388251Y-94763076D01*
X94430975Y-94775990D01*
X94480763Y-94782121D01*
X94507411Y-94782858D01*
X94543546Y-94781683D01*
X94576125Y-94777400D01*
X94608161Y-94769181D01*
X94642668Y-94756201D01*
X94682660Y-94737634D01*
X94695056Y-94731420D01*
X94729501Y-94714563D01*
X94755990Y-94703482D01*
X94776350Y-94698000D01*
X94792407Y-94697941D01*
X94805990Y-94703130D01*
X94818925Y-94713392D01*
X94824423Y-94718979D01*
X94838657Y-94734937D01*
X94855966Y-94755514D01*
X94872129Y-94775655D01*
X94899248Y-94810460D01*
X94862332Y-94844993D01*
X94810900Y-94885546D01*
X94751354Y-94918980D01*
X94684994Y-94944698D01*
X94613124Y-94962099D01*
X94605315Y-94963419D01*
X94557868Y-94968914D01*
X94505375Y-94971298D01*
X94451874Y-94970621D01*
X94401403Y-94966933D01*
X94358309Y-94960349D01*
X94300885Y-94943503D01*
X94248808Y-94920803D01*
X94187865Y-94884373D01*
X94134344Y-94839379D01*
X94088532Y-94786216D01*
X94050718Y-94725277D01*
X94021190Y-94656959D01*
X94000235Y-94581655D01*
X93999832Y-94579729D01*
X93994465Y-94545034D01*
X93990871Y-94503367D01*
X93989084Y-94458078D01*
X93989138Y-94412515D01*
X93991066Y-94370029D01*
X93994404Y-94338637D01*
X94235203Y-94338637D01*
X94240725Y-94339398D01*
X94256480Y-94340101D01*
X94281247Y-94340728D01*
X94313806Y-94341260D01*
X94352938Y-94341677D01*
X94397423Y-94341963D01*
X94446042Y-94342097D01*
X94461375Y-94342105D01*
X94518300Y-94342078D01*
X94564817Y-94341968D01*
X94601969Y-94341728D01*
X94630799Y-94341312D01*
X94652350Y-94340673D01*
X94667666Y-94339766D01*
X94677789Y-94338544D01*
X94683764Y-94336960D01*
X94686633Y-94334970D01*
X94687440Y-94332525D01*
X94687448Y-94332084D01*
X94685458Y-94313887D01*
X94680492Y-94289284D01*
X94673653Y-94262569D01*
X94666044Y-94238038D01*
X94658769Y-94219985D01*
X94658541Y-94219535D01*
X94633269Y-94182390D01*
X94600211Y-94152721D01*
X94560762Y-94131159D01*
X94516316Y-94118335D01*
X94468270Y-94114882D01*
X94434608Y-94118151D01*
X94383722Y-94131100D01*
X94340847Y-94152063D01*
X94305487Y-94181384D01*
X94277144Y-94219412D01*
X94269447Y-94233533D01*
X94261344Y-94251793D01*
X94252752Y-94274609D01*
X94244810Y-94298486D01*
X94238657Y-94319931D01*
X94235431Y-94335449D01*
X94235203Y-94338637D01*
X93994404Y-94338637D01*
X93994901Y-94333967D01*
X93997261Y-94320711D01*
G37*
G36*
X91388555Y-94646064D02*
G01*
X91392354Y-94630015D01*
X91407911Y-94593272D01*
X91431791Y-94556431D01*
X91461453Y-94523016D01*
X91482787Y-94504682D01*
X91540158Y-94467959D01*
X91606748Y-94437674D01*
X91682244Y-94413915D01*
X91766334Y-94396774D01*
X91858703Y-94386341D01*
X91900476Y-94383956D01*
X91984932Y-94380447D01*
X91984819Y-94348393D01*
X91983856Y-94324906D01*
X91981479Y-94297113D01*
X91979001Y-94276875D01*
X91968613Y-94229782D01*
X91952129Y-94192228D01*
X91929015Y-94163739D01*
X91898733Y-94143842D01*
X91860748Y-94132064D01*
X91814524Y-94127932D01*
X91810293Y-94127918D01*
X91781899Y-94128803D01*
X91756526Y-94131812D01*
X91731685Y-94137709D01*
X91704887Y-94147257D01*
X91673644Y-94161217D01*
X91635467Y-94180353D01*
X91630081Y-94183149D01*
X91602123Y-94197443D01*
X91581837Y-94206964D01*
X91566890Y-94212515D01*
X91554952Y-94214902D01*
X91543694Y-94214929D01*
X91539244Y-94214503D01*
X91519436Y-94210419D01*
X91502673Y-94202004D01*
X91487032Y-94187582D01*
X91470588Y-94165478D01*
X91456146Y-94142128D01*
X91428374Y-94094989D01*
X91441831Y-94080589D01*
X91456663Y-94067413D01*
X91478978Y-94050847D01*
X91506036Y-94032663D01*
X91535095Y-94014632D01*
X91563415Y-93998523D01*
X91587553Y-93986426D01*
X91639625Y-93966619D01*
X91696741Y-93951536D01*
X91756602Y-93941325D01*
X91816910Y-93936134D01*
X91875368Y-93936111D01*
X91929676Y-93941403D01*
X91977537Y-93952158D01*
X91999092Y-93959950D01*
X92056161Y-93989201D01*
X92104369Y-94025300D01*
X92144327Y-94068908D01*
X92176643Y-94120685D01*
X92201120Y-94178917D01*
X92216794Y-94224724D01*
X92218480Y-94592612D01*
X92220167Y-94960500D01*
X92164103Y-94960250D01*
X92122390Y-94959120D01*
X92090596Y-94955974D01*
X92067324Y-94950550D01*
X92051174Y-94942587D01*
X92045869Y-94938117D01*
X92038071Y-94926770D01*
X92028896Y-94908214D01*
X92020187Y-94886231D01*
X92019288Y-94883621D01*
X92004973Y-94841369D01*
X91957221Y-94877369D01*
X91906100Y-94911668D01*
X91853634Y-94938977D01*
X91802513Y-94957981D01*
X91781206Y-94963358D01*
X91755497Y-94967179D01*
X91722679Y-94969736D01*
X91686411Y-94970976D01*
X91650356Y-94970845D01*
X91618173Y-94969291D01*
X91593525Y-94966260D01*
X91592710Y-94966100D01*
X91539786Y-94950264D01*
X91493013Y-94925653D01*
X91453328Y-94893076D01*
X91421673Y-94853344D01*
X91398985Y-94807267D01*
X91395038Y-94795546D01*
X91387698Y-94761600D01*
X91384123Y-94722340D01*
X91384322Y-94691849D01*
X91616967Y-94691849D01*
X91621560Y-94727680D01*
X91634857Y-94756376D01*
X91657213Y-94778357D01*
X91688988Y-94794044D01*
X91708570Y-94799671D01*
X91732089Y-94803942D01*
X91755386Y-94804944D01*
X91782837Y-94802694D01*
X91801704Y-94800011D01*
X91843550Y-94789094D01*
X91886974Y-94770023D01*
X91928103Y-94744716D01*
X91952008Y-94725619D01*
X91984932Y-94696193D01*
X91984932Y-94616309D01*
X91984736Y-94583652D01*
X91984027Y-94560741D01*
X91982631Y-94545874D01*
X91980369Y-94537350D01*
X91977066Y-94533468D01*
X91976280Y-94533105D01*
X91965824Y-94531962D01*
X91946453Y-94532359D01*
X91920562Y-94534050D01*
X91890546Y-94536791D01*
X91858801Y-94540336D01*
X91827724Y-94544439D01*
X91799709Y-94548855D01*
X91777153Y-94553338D01*
X91775912Y-94553631D01*
X91732169Y-94565707D01*
X91697713Y-94579085D01*
X91670384Y-94594706D01*
X91656244Y-94605781D01*
X91633992Y-94629632D01*
X91621444Y-94654976D01*
X91617020Y-94685269D01*
X91616967Y-94691849D01*
X91384322Y-94691849D01*
X91384384Y-94682313D01*
X91388555Y-94646064D01*
G37*
G36*
X90796213Y-93533772D02*
G01*
X90858099Y-93542125D01*
X90916246Y-93555617D01*
X90973007Y-93574690D01*
X91030735Y-93599787D01*
X91037975Y-93603291D01*
X91065035Y-93617397D01*
X91093638Y-93633795D01*
X91122035Y-93651306D01*
X91148479Y-93668750D01*
X91171222Y-93684948D01*
X91188515Y-93698723D01*
X91198610Y-93708894D01*
X91200487Y-93712888D01*
X91197381Y-93720674D01*
X91189024Y-93735572D01*
X91176853Y-93755401D01*
X91162308Y-93777979D01*
X91146828Y-93801125D01*
X91131852Y-93822657D01*
X91118819Y-93840394D01*
X91109168Y-93852153D01*
X91107508Y-93853850D01*
X91092270Y-93865198D01*
X91075578Y-93870220D01*
X91055761Y-93868684D01*
X91031148Y-93860360D01*
X91000070Y-93845018D01*
X90985766Y-93837042D01*
X90927266Y-93806498D01*
X90871709Y-93783978D01*
X90815236Y-93768290D01*
X90753990Y-93758246D01*
X90719513Y-93754900D01*
X90658089Y-93754256D01*
X90594933Y-93761239D01*
X90533192Y-93775171D01*
X90476011Y-93795377D01*
X90434830Y-93816095D01*
X90408770Y-93834288D01*
X90379632Y-93859106D01*
X90350318Y-93887652D01*
X90323729Y-93917033D01*
X90302767Y-93944350D01*
X90296630Y-93954012D01*
X90266642Y-94014303D01*
X90242073Y-94083828D01*
X90237420Y-94100231D01*
X90231309Y-94131075D01*
X90226997Y-94170199D01*
X90224511Y-94214569D01*
X90223877Y-94261152D01*
X90225123Y-94306915D01*
X90228275Y-94348823D01*
X90233360Y-94383844D01*
X90234845Y-94390775D01*
X90257199Y-94466341D01*
X90287241Y-94533480D01*
X90324919Y-94592135D01*
X90370179Y-94642251D01*
X90422969Y-94683774D01*
X90483237Y-94716647D01*
X90550929Y-94740816D01*
X90573503Y-94746553D01*
X90601837Y-94751905D01*
X90632860Y-94755118D01*
X90669902Y-94756463D01*
X90696609Y-94756482D01*
X90753786Y-94754317D01*
X90804317Y-94748407D01*
X90852617Y-94737987D01*
X90903099Y-94722291D01*
X90912124Y-94719076D01*
X90960000Y-94701752D01*
X90960000Y-94445171D01*
X90859537Y-94445171D01*
X90823373Y-94445122D01*
X90796857Y-94444828D01*
X90778184Y-94444068D01*
X90765550Y-94442620D01*
X90757151Y-94440263D01*
X90751182Y-94436775D01*
X90745840Y-94431935D01*
X90745019Y-94431116D01*
X90739539Y-94425161D01*
X90735706Y-94418743D01*
X90733228Y-94409823D01*
X90731809Y-94396360D01*
X90731155Y-94376315D01*
X90730972Y-94347649D01*
X90730965Y-94333776D01*
X90730965Y-94250491D01*
X91206213Y-94250491D01*
X91206213Y-94820388D01*
X91157704Y-94850940D01*
X91088044Y-94889730D01*
X91014014Y-94920754D01*
X90933560Y-94944779D01*
X90871249Y-94958041D01*
X90841748Y-94962126D01*
X90804093Y-94965406D01*
X90760794Y-94967843D01*
X90714362Y-94969398D01*
X90667307Y-94970031D01*
X90622139Y-94969703D01*
X90581370Y-94968376D01*
X90547510Y-94966010D01*
X90527336Y-94963388D01*
X90439161Y-94942360D01*
X90356551Y-94911570D01*
X90280014Y-94871529D01*
X90210060Y-94822750D01*
X90147197Y-94765747D01*
X90091933Y-94701030D01*
X90044777Y-94629112D01*
X90006237Y-94550505D01*
X89976822Y-94465723D01*
X89959795Y-94391552D01*
X89954756Y-94353081D01*
X89951645Y-94306848D01*
X89950457Y-94256378D01*
X89951183Y-94205194D01*
X89953818Y-94156823D01*
X89958354Y-94114788D01*
X89960346Y-94102468D01*
X89981482Y-94014349D01*
X90011977Y-93931783D01*
X90051397Y-93855365D01*
X90099311Y-93785691D01*
X90155285Y-93723357D01*
X90218888Y-93668961D01*
X90289687Y-93623097D01*
X90319426Y-93607518D01*
X90374150Y-93582654D01*
X90426538Y-93563456D01*
X90479424Y-93549270D01*
X90535639Y-93539440D01*
X90598015Y-93533314D01*
X90651812Y-93530715D01*
X90728235Y-93530116D01*
X90796213Y-93533772D01*
G37*
G36*
X104382837Y-93775265D02*
G01*
X104384324Y-94050130D01*
X104424405Y-94020046D01*
X104476447Y-93985263D01*
X104527657Y-93960420D01*
X104580796Y-93944586D01*
X104638627Y-93936830D01*
X104674630Y-93935667D01*
X104718298Y-93936908D01*
X104754787Y-93941361D01*
X104788120Y-93949854D01*
X104822320Y-93963219D01*
X104833805Y-93968518D01*
X104880667Y-93997023D01*
X104921732Y-94034976D01*
X104956429Y-94081637D01*
X104984187Y-94136262D01*
X105001177Y-94185786D01*
X105003705Y-94195173D01*
X105005873Y-94204455D01*
X105007715Y-94214572D01*
X105009264Y-94226460D01*
X105010553Y-94241059D01*
X105011616Y-94259305D01*
X105012487Y-94282138D01*
X105013198Y-94310494D01*
X105013784Y-94345313D01*
X105014278Y-94387532D01*
X105014712Y-94438089D01*
X105015122Y-94497922D01*
X105015539Y-94567970D01*
X105015679Y-94592612D01*
X105017728Y-94954774D01*
X104771237Y-94954774D01*
X104769395Y-94604064D01*
X104769003Y-94529795D01*
X104768615Y-94466056D01*
X104768154Y-94411922D01*
X104767546Y-94366471D01*
X104766714Y-94328780D01*
X104765583Y-94297927D01*
X104764076Y-94272987D01*
X104762119Y-94253040D01*
X104759635Y-94237161D01*
X104756548Y-94224429D01*
X104752782Y-94213919D01*
X104748263Y-94204710D01*
X104742913Y-94195878D01*
X104736658Y-94186500D01*
X104734880Y-94183868D01*
X104713379Y-94158679D01*
X104687162Y-94141135D01*
X104654407Y-94130378D01*
X104613290Y-94125550D01*
X104610599Y-94125434D01*
X104565062Y-94126987D01*
X104522989Y-94136034D01*
X104482230Y-94153411D01*
X104440631Y-94179960D01*
X104411522Y-94203039D01*
X104381461Y-94228473D01*
X104381461Y-94954774D01*
X104135248Y-94954774D01*
X104135248Y-93500401D01*
X104381351Y-93500401D01*
X104382837Y-93775265D01*
G37*
G36*
X105187043Y-94405933D02*
G01*
X105190409Y-94359974D01*
X105196077Y-94321238D01*
X105196496Y-94319201D01*
X105215957Y-94250488D01*
X105244318Y-94185682D01*
X105280530Y-94126812D01*
X105320505Y-94078996D01*
X105372204Y-94033126D01*
X105428992Y-93996694D01*
X105491452Y-93969478D01*
X105560167Y-93951257D01*
X105635717Y-93941809D01*
X105684098Y-93940259D01*
X105762432Y-93944287D01*
X105833533Y-93956775D01*
X105898233Y-93978048D01*
X105957360Y-94008433D01*
X106011747Y-94048256D01*
X106049339Y-94083900D01*
X106073453Y-94110704D01*
X106092480Y-94136153D01*
X106109601Y-94164839D01*
X106121667Y-94188313D01*
X106141699Y-94232013D01*
X106156439Y-94272296D01*
X106166712Y-94312602D01*
X106173341Y-94356372D01*
X106177148Y-94407047D01*
X106177824Y-94423030D01*
X106178597Y-94481745D01*
X106175971Y-94532821D01*
X106169541Y-94579669D01*
X106158903Y-94625704D01*
X106150391Y-94654165D01*
X106122898Y-94722429D01*
X106086750Y-94783256D01*
X106042222Y-94836380D01*
X105989587Y-94881534D01*
X105929117Y-94918454D01*
X105861087Y-94946873D01*
X105843320Y-94952502D01*
X105821715Y-94958517D01*
X105801801Y-94962823D01*
X105780697Y-94965761D01*
X105755520Y-94967677D01*
X105723389Y-94968912D01*
X105701276Y-94969436D01*
X105667415Y-94969763D01*
X105635181Y-94969407D01*
X105607393Y-94968445D01*
X105586871Y-94966957D01*
X105580418Y-94966076D01*
X105507162Y-94947530D01*
X105440137Y-94919546D01*
X105379804Y-94882579D01*
X105326626Y-94837082D01*
X105281064Y-94783512D01*
X105243580Y-94722321D01*
X105214634Y-94653965D01*
X105196589Y-94588228D01*
X105190754Y-94550262D01*
X105187217Y-94504765D01*
X105186010Y-94456622D01*
X105438872Y-94456622D01*
X105441955Y-94528505D01*
X105451308Y-94591004D01*
X105467083Y-94644420D01*
X105489437Y-94689052D01*
X105518521Y-94725199D01*
X105554491Y-94753160D01*
X105597501Y-94773235D01*
X105602711Y-94774989D01*
X105626517Y-94779726D01*
X105657793Y-94781792D01*
X105692911Y-94781350D01*
X105728245Y-94778567D01*
X105760169Y-94773607D01*
X105784885Y-94766703D01*
X105817174Y-94749090D01*
X105847850Y-94723317D01*
X105873527Y-94692535D01*
X105884809Y-94673604D01*
X105899168Y-94642214D01*
X105909827Y-94610972D01*
X105917233Y-94577431D01*
X105921835Y-94539143D01*
X105924080Y-94493660D01*
X105924489Y-94456622D01*
X105924309Y-94418177D01*
X105923619Y-94388700D01*
X105922200Y-94365715D01*
X105919830Y-94346742D01*
X105916288Y-94329303D01*
X105911557Y-94311625D01*
X105894615Y-94262006D01*
X105874903Y-94222287D01*
X105851419Y-94191050D01*
X105823162Y-94166880D01*
X105799389Y-94153104D01*
X105754031Y-94136056D01*
X105706347Y-94127580D01*
X105658376Y-94127410D01*
X105612155Y-94135283D01*
X105569720Y-94150932D01*
X105533110Y-94174092D01*
X105516156Y-94189978D01*
X105488323Y-94226602D01*
X105466953Y-94269492D01*
X105451779Y-94319577D01*
X105442531Y-94377786D01*
X105438939Y-94445046D01*
X105438872Y-94456622D01*
X105186010Y-94456622D01*
X105185980Y-94455426D01*
X105187043Y-94405933D01*
G37*
G36*
X100124351Y-93540201D02*
G01*
X100151912Y-93541136D01*
X100174116Y-93542623D01*
X100189017Y-93544669D01*
X100194666Y-93547280D01*
X100194627Y-93547639D01*
X100192658Y-93553898D01*
X100187500Y-93570439D01*
X100179357Y-93596605D01*
X100168432Y-93631740D01*
X100154929Y-93675190D01*
X100139053Y-93726297D01*
X100121006Y-93784405D01*
X100100992Y-93848859D01*
X100079216Y-93919003D01*
X100055880Y-93994180D01*
X100031190Y-94073735D01*
X100005347Y-94157011D01*
X99978557Y-94243352D01*
X99975010Y-94254785D01*
X99757833Y-94954774D01*
X99514954Y-94954774D01*
X99482873Y-94856002D01*
X99477061Y-94838098D01*
X99468303Y-94811096D01*
X99456933Y-94776031D01*
X99443286Y-94733940D01*
X99427699Y-94685856D01*
X99410505Y-94632814D01*
X99392042Y-94575849D01*
X99372644Y-94515997D01*
X99352646Y-94454292D01*
X99332384Y-94391769D01*
X99312194Y-94329463D01*
X99292410Y-94268409D01*
X99273368Y-94209642D01*
X99255404Y-94154196D01*
X99238852Y-94103107D01*
X99224048Y-94057409D01*
X99211328Y-94018137D01*
X99201026Y-93986327D01*
X99193479Y-93963013D01*
X99189022Y-93949230D01*
X99188308Y-93947019D01*
X99184304Y-93938224D01*
X99181139Y-93940299D01*
X99180772Y-93941293D01*
X99178420Y-93948429D01*
X99172909Y-93965274D01*
X99164623Y-93990647D01*
X99153948Y-94023366D01*
X99141268Y-94062252D01*
X99126969Y-94106123D01*
X99111436Y-94153799D01*
X99103254Y-94178917D01*
X99085044Y-94234780D01*
X99064096Y-94298951D01*
X99041253Y-94368859D01*
X99017355Y-94441932D01*
X98993243Y-94515601D01*
X98969758Y-94587293D01*
X98947741Y-94654439D01*
X98938906Y-94681363D01*
X98849150Y-94954774D01*
X98606376Y-94954774D01*
X98389672Y-94257648D01*
X98362767Y-94171084D01*
X98336781Y-94087461D01*
X98311921Y-94007439D01*
X98288391Y-93931680D01*
X98266396Y-93860844D01*
X98246141Y-93795592D01*
X98227832Y-93736584D01*
X98211673Y-93684482D01*
X98197869Y-93639946D01*
X98186626Y-93603637D01*
X98178148Y-93576216D01*
X98172640Y-93558343D01*
X98170308Y-93550680D01*
X98170257Y-93550502D01*
X98170069Y-93547254D01*
X98172395Y-93544794D01*
X98178587Y-93543012D01*
X98189998Y-93541801D01*
X98207980Y-93541053D01*
X98233886Y-93540661D01*
X98269067Y-93540516D01*
X98295615Y-93540503D01*
X98337640Y-93540584D01*
X98369822Y-93540894D01*
X98393771Y-93541556D01*
X98411094Y-93542691D01*
X98423402Y-93544424D01*
X98432303Y-93546877D01*
X98439405Y-93550173D01*
X98441981Y-93551682D01*
X98456894Y-93562946D01*
X98468373Y-93575222D01*
X98468942Y-93576059D01*
X98471988Y-93583805D01*
X98477799Y-93601590D01*
X98486093Y-93628415D01*
X98496586Y-93663280D01*
X98508994Y-93705186D01*
X98523033Y-93753135D01*
X98538420Y-93806126D01*
X98554871Y-93863161D01*
X98572102Y-93923240D01*
X98589830Y-93985365D01*
X98607772Y-94048535D01*
X98625642Y-94111751D01*
X98643159Y-94174016D01*
X98660038Y-94234328D01*
X98675996Y-94291689D01*
X98690748Y-94345100D01*
X98704012Y-94393561D01*
X98715503Y-94436073D01*
X98724938Y-94471637D01*
X98732034Y-94499254D01*
X98736507Y-94517925D01*
X98737143Y-94520891D01*
X98749833Y-94582296D01*
X98762098Y-94532342D01*
X98766111Y-94517810D01*
X98773243Y-94493967D01*
X98783172Y-94461802D01*
X98795574Y-94422303D01*
X98810127Y-94376458D01*
X98826505Y-94325256D01*
X98844387Y-94269684D01*
X98863448Y-94210731D01*
X98883365Y-94149384D01*
X98903815Y-94086633D01*
X98924474Y-94023465D01*
X98945019Y-93960868D01*
X98965126Y-93899830D01*
X98984472Y-93841341D01*
X99002734Y-93786387D01*
X99019587Y-93735956D01*
X99034709Y-93691039D01*
X99047777Y-93652621D01*
X99058466Y-93621692D01*
X99066453Y-93599239D01*
X99071415Y-93586251D01*
X99072589Y-93583735D01*
X99084482Y-93568592D01*
X99100049Y-93554697D01*
X99101925Y-93553384D01*
X99111265Y-93547818D01*
X99121314Y-93544118D01*
X99134595Y-93541911D01*
X99153634Y-93540827D01*
X99180956Y-93540492D01*
X99189501Y-93540482D01*
X99227310Y-93541291D01*
X99255686Y-93544117D01*
X99276561Y-93549554D01*
X99291866Y-93558196D01*
X99303532Y-93570639D01*
X99307651Y-93576878D01*
X99310939Y-93584795D01*
X99317393Y-93602645D01*
X99326696Y-93629449D01*
X99338529Y-93664232D01*
X99352575Y-93706017D01*
X99368516Y-93753828D01*
X99386032Y-93806686D01*
X99404806Y-93863617D01*
X99424521Y-93923643D01*
X99444857Y-93985787D01*
X99465496Y-94049074D01*
X99486122Y-94112525D01*
X99506414Y-94175165D01*
X99526055Y-94236017D01*
X99544728Y-94294104D01*
X99562113Y-94348449D01*
X99577893Y-94398077D01*
X99591749Y-94442009D01*
X99603364Y-94479270D01*
X99612418Y-94508883D01*
X99618595Y-94529871D01*
X99621050Y-94538963D01*
X99630748Y-94578360D01*
X99643836Y-94516060D01*
X99647491Y-94500601D01*
X99654023Y-94475128D01*
X99663158Y-94440636D01*
X99674623Y-94398120D01*
X99688146Y-94348577D01*
X99703452Y-94293002D01*
X99720268Y-94232389D01*
X99738322Y-94167736D01*
X99757340Y-94100037D01*
X99777049Y-94030288D01*
X99780211Y-94019135D01*
X99803187Y-93938158D01*
X99823289Y-93867466D01*
X99840775Y-93806326D01*
X99855901Y-93754006D01*
X99868922Y-93709774D01*
X99880096Y-93672898D01*
X99889679Y-93642646D01*
X99897927Y-93618287D01*
X99905096Y-93599088D01*
X99911444Y-93584318D01*
X99917225Y-93573245D01*
X99922697Y-93565136D01*
X99928116Y-93559260D01*
X99933739Y-93554884D01*
X99939821Y-93551278D01*
X99945051Y-93548526D01*
X99955573Y-93545792D01*
X99974371Y-93543562D01*
X99999499Y-93541842D01*
X100029008Y-93540638D01*
X100060952Y-93539959D01*
X100093382Y-93539811D01*
X100124351Y-93540201D01*
G37*
G36*
X95403282Y-93964197D02*
G01*
X95666673Y-93964197D01*
X95666673Y-94135973D01*
X95402786Y-94135973D01*
X95404466Y-94423699D01*
X95404861Y-94488615D01*
X95405252Y-94543076D01*
X95405683Y-94588081D01*
X95406195Y-94624626D01*
X95406831Y-94653709D01*
X95407634Y-94676326D01*
X95408646Y-94693476D01*
X95409910Y-94706156D01*
X95411469Y-94715362D01*
X95413366Y-94722092D01*
X95415642Y-94727344D01*
X95417597Y-94730866D01*
X95437854Y-94755609D01*
X95463203Y-94770289D01*
X95493057Y-94774786D01*
X95526827Y-94768981D01*
X95553023Y-94758458D01*
X95571454Y-94749758D01*
X95586023Y-94744671D01*
X95598178Y-94744119D01*
X95609369Y-94749025D01*
X95621045Y-94760312D01*
X95634655Y-94778900D01*
X95651648Y-94805713D01*
X95667025Y-94831014D01*
X95697804Y-94881894D01*
X95679076Y-94897529D01*
X95657425Y-94912542D01*
X95628507Y-94928400D01*
X95596177Y-94943231D01*
X95564292Y-94955164D01*
X95553525Y-94958430D01*
X95528322Y-94963519D01*
X95495947Y-94967223D01*
X95459591Y-94969467D01*
X95422451Y-94970176D01*
X95387721Y-94969274D01*
X95358594Y-94966686D01*
X95341733Y-94963424D01*
X95300362Y-94948591D01*
X95265591Y-94928207D01*
X95234449Y-94901183D01*
X95204784Y-94864408D01*
X95181689Y-94821339D01*
X95168868Y-94782357D01*
X95167579Y-94770906D01*
X95166420Y-94748756D01*
X95165404Y-94716664D01*
X95164544Y-94675382D01*
X95163853Y-94625664D01*
X95163346Y-94568264D01*
X95163035Y-94503937D01*
X95162935Y-94446602D01*
X95162795Y-94135973D01*
X95099811Y-94135973D01*
X95071345Y-94135729D01*
X95051971Y-94134762D01*
X95039335Y-94132718D01*
X95031081Y-94129242D01*
X95025693Y-94124841D01*
X95016749Y-94111864D01*
X95011267Y-94093260D01*
X95008914Y-94067158D01*
X95009304Y-94032934D01*
X95011059Y-93990017D01*
X95051141Y-93983225D01*
X95079500Y-93978484D01*
X95111016Y-93973310D01*
X95131783Y-93969958D01*
X95172344Y-93963483D01*
X95196573Y-93827850D01*
X95203657Y-93788943D01*
X95210449Y-93753034D01*
X95216589Y-93721918D01*
X95221716Y-93697386D01*
X95225474Y-93681231D01*
X95226960Y-93676201D01*
X95233816Y-93663624D01*
X95244354Y-93654607D01*
X95260293Y-93648630D01*
X95283352Y-93645168D01*
X95315250Y-93643699D01*
X95334287Y-93643548D01*
X95403282Y-93643548D01*
X95403282Y-93964197D01*
G37*
G36*
X102457565Y-94337947D02*
G01*
X102495519Y-94334900D01*
X102506443Y-94334052D01*
X102515835Y-94332905D01*
X102524497Y-94330677D01*
X102533234Y-94326583D01*
X102542848Y-94319842D01*
X102554142Y-94309670D01*
X102567921Y-94295283D01*
X102584986Y-94275900D01*
X102606141Y-94250736D01*
X102632189Y-94219008D01*
X102663934Y-94179935D01*
X102699542Y-94135986D01*
X102729931Y-94098791D01*
X102758835Y-94063993D01*
X102785282Y-94032718D01*
X102808301Y-94006091D01*
X102826920Y-93985240D01*
X102840167Y-93971292D01*
X102846340Y-93965794D01*
X102853070Y-93961574D01*
X102860082Y-93958377D01*
X102868990Y-93956062D01*
X102881408Y-93954487D01*
X102898951Y-93953510D01*
X102923232Y-93952988D01*
X102955866Y-93952781D01*
X102994669Y-93952745D01*
X103036188Y-93952789D01*
X103067541Y-93952990D01*
X103090017Y-93953458D01*
X103104902Y-93954299D01*
X103113482Y-93955619D01*
X103117045Y-93957527D01*
X103116878Y-93960130D01*
X103114939Y-93962765D01*
X103109534Y-93969190D01*
X103097606Y-93983452D01*
X103079959Y-94004588D01*
X103057397Y-94031633D01*
X103030724Y-94063625D01*
X103000744Y-94099599D01*
X102968260Y-94138592D01*
X102948982Y-94161740D01*
X102914771Y-94202649D01*
X102881967Y-94241551D01*
X102851474Y-94277395D01*
X102824198Y-94309132D01*
X102801043Y-94335711D01*
X102782914Y-94356084D01*
X102770716Y-94369201D01*
X102767118Y-94372716D01*
X102742609Y-94394737D01*
X102762906Y-94415660D01*
X102769971Y-94424280D01*
X102782841Y-94441391D01*
X102800837Y-94466042D01*
X102823283Y-94497282D01*
X102849502Y-94534161D01*
X102878816Y-94575729D01*
X102910548Y-94621036D01*
X102944020Y-94669129D01*
X102961420Y-94694246D01*
X103139637Y-94951911D01*
X103012746Y-94953453D01*
X102971130Y-94953896D01*
X102939342Y-94954007D01*
X102915757Y-94953676D01*
X102898754Y-94952791D01*
X102886711Y-94951242D01*
X102878003Y-94948920D01*
X102871008Y-94945712D01*
X102867333Y-94943549D01*
X102859353Y-94936187D01*
X102846514Y-94920853D01*
X102828600Y-94897252D01*
X102805400Y-94865089D01*
X102776699Y-94824069D01*
X102742284Y-94773898D01*
X102709341Y-94725262D01*
X102679632Y-94681469D01*
X102651432Y-94640408D01*
X102625471Y-94603107D01*
X102602481Y-94570594D01*
X102583193Y-94543897D01*
X102568338Y-94524044D01*
X102558647Y-94512064D01*
X102555568Y-94509050D01*
X102539971Y-94503007D01*
X102515793Y-94498857D01*
X102499415Y-94497565D01*
X102457565Y-94495452D01*
X102457565Y-94954774D01*
X102211352Y-94954774D01*
X102211352Y-93500401D01*
X102457565Y-93500401D01*
X102457565Y-94337947D01*
G37*
G36*
X101953200Y-93931804D02*
G01*
X101993804Y-93939199D01*
X102025579Y-93953263D01*
X102035333Y-93960404D01*
X102050060Y-93972786D01*
X102034265Y-94058674D01*
X102028447Y-94089676D01*
X102023004Y-94117530D01*
X102018411Y-94139886D01*
X102015142Y-94154394D01*
X102014219Y-94157773D01*
X102007642Y-94169349D01*
X101995955Y-94176046D01*
X101977603Y-94178128D01*
X101951034Y-94175861D01*
X101929099Y-94172267D01*
X101900661Y-94167613D01*
X101878774Y-94165712D01*
X101858907Y-94166421D01*
X101837701Y-94169397D01*
X101790807Y-94182395D01*
X101749265Y-94204668D01*
X101712338Y-94236764D01*
X101679286Y-94279231D01*
X101670599Y-94293098D01*
X101650216Y-94327116D01*
X101650216Y-94954774D01*
X101404004Y-94954774D01*
X101404004Y-93952745D01*
X101493131Y-93952745D01*
X101525728Y-93953117D01*
X101554228Y-93954148D01*
X101576493Y-93955712D01*
X101590382Y-93957684D01*
X101593275Y-93958641D01*
X101604235Y-93967761D01*
X101612897Y-93982986D01*
X101619796Y-94005842D01*
X101625466Y-94037855D01*
X101628002Y-94057728D01*
X101631172Y-94082556D01*
X101634261Y-94102524D01*
X101636874Y-94115302D01*
X101638364Y-94118785D01*
X101642932Y-94114335D01*
X101651305Y-94102859D01*
X101658662Y-94091587D01*
X101682499Y-94059293D01*
X101713078Y-94026309D01*
X101747238Y-93995548D01*
X101781814Y-93969921D01*
X101806209Y-93955776D01*
X101829328Y-93944952D01*
X101848301Y-93938128D01*
X101867724Y-93934148D01*
X101892197Y-93931859D01*
X101904179Y-93931170D01*
X101953200Y-93931804D01*
G37*
G36*
X102443078Y-97499472D02*
G01*
X102455201Y-97402681D01*
X102476010Y-97307743D01*
X102505985Y-97212644D01*
X102545603Y-97115368D01*
X102563865Y-97076212D01*
X102575324Y-97052611D01*
X102586355Y-97030410D01*
X102597363Y-97009019D01*
X102608754Y-96987850D01*
X102620935Y-96966316D01*
X102634311Y-96943827D01*
X102649288Y-96919795D01*
X102666271Y-96893631D01*
X102685668Y-96864748D01*
X102707883Y-96832556D01*
X102733323Y-96796468D01*
X102762393Y-96755895D01*
X102795499Y-96710248D01*
X102833048Y-96658940D01*
X102875444Y-96601381D01*
X102923094Y-96536983D01*
X102976404Y-96465159D01*
X103035780Y-96385318D01*
X103098864Y-96300584D01*
X103157222Y-96222253D01*
X103209181Y-96152587D01*
X103255159Y-96091051D01*
X103295572Y-96037108D01*
X103330837Y-95990222D01*
X103361370Y-95949856D01*
X103387590Y-95915474D01*
X103409912Y-95886539D01*
X103428754Y-95862514D01*
X103444532Y-95842863D01*
X103457664Y-95827049D01*
X103468565Y-95814536D01*
X103477654Y-95804788D01*
X103485347Y-95797267D01*
X103492060Y-95791438D01*
X103497914Y-95786975D01*
X103518850Y-95772579D01*
X103538910Y-95760433D01*
X103559261Y-95750360D01*
X103581068Y-95742180D01*
X103605495Y-95735715D01*
X103633709Y-95730787D01*
X103666874Y-95727218D01*
X103706157Y-95724828D01*
X103752721Y-95723439D01*
X103807734Y-95722873D01*
X103872360Y-95722951D01*
X103914145Y-95723216D01*
X104136798Y-95724905D01*
X103691307Y-96271726D01*
X103634772Y-96341114D01*
X103580008Y-96408312D01*
X103527477Y-96472757D01*
X103477641Y-96533883D01*
X103430960Y-96591124D01*
X103387895Y-96643915D01*
X103348909Y-96691690D01*
X103314463Y-96733885D01*
X103285017Y-96769934D01*
X103261033Y-96799272D01*
X103242972Y-96821333D01*
X103231297Y-96835552D01*
X103226771Y-96841009D01*
X103216368Y-96854024D01*
X103210338Y-96863045D01*
X103209673Y-96865418D01*
X103215496Y-96864341D01*
X103228618Y-96859561D01*
X103242562Y-96853694D01*
X103318485Y-96824715D01*
X103396382Y-96804347D01*
X103478232Y-96792237D01*
X103566009Y-96788028D01*
X103605470Y-96788542D01*
X103676767Y-96792390D01*
X103740533Y-96799857D01*
X103800286Y-96811547D01*
X103859543Y-96828061D01*
X103884829Y-96836478D01*
X103973278Y-96872789D01*
X104054170Y-96917699D01*
X104127546Y-96971241D01*
X104193444Y-97033451D01*
X104251904Y-97104363D01*
X104302964Y-97184013D01*
X104327454Y-97230631D01*
X104355832Y-97293947D01*
X104377802Y-97355700D01*
X104394055Y-97418762D01*
X104405284Y-97486003D01*
X104412181Y-97560298D01*
X104413708Y-97588678D01*
X104413557Y-97692484D01*
X104403305Y-97791728D01*
X104382680Y-97887727D01*
X104351408Y-97981799D01*
X104315461Y-98062830D01*
X104279565Y-98129547D01*
X104240962Y-98188908D01*
X104196981Y-98244632D01*
X104144948Y-98300437D01*
X104143837Y-98301550D01*
X104091150Y-98351036D01*
X104038771Y-98393134D01*
X103983030Y-98430495D01*
X103920258Y-98465768D01*
X103907166Y-98472487D01*
X103831253Y-98507950D01*
X103758207Y-98535452D01*
X103684062Y-98556221D01*
X103604850Y-98571486D01*
X103572387Y-98576126D01*
X103535218Y-98579787D01*
X103489974Y-98582360D01*
X103439985Y-98583816D01*
X103388578Y-98584129D01*
X103339082Y-98583272D01*
X103294825Y-98581217D01*
X103264914Y-98578635D01*
X103163895Y-98561958D01*
X103066613Y-98535469D01*
X102973877Y-98499640D01*
X102886496Y-98454943D01*
X102805278Y-98401851D01*
X102731031Y-98340834D01*
X102664566Y-98272365D01*
X102606688Y-98196916D01*
X102603894Y-98192759D01*
X102552361Y-98105690D01*
X102510564Y-98013363D01*
X102478427Y-97915505D01*
X102455875Y-97811844D01*
X102442832Y-97702106D01*
X102441694Y-97670489D01*
X102905341Y-97670489D01*
X102905980Y-97697470D01*
X102913964Y-97780883D01*
X102930712Y-97857289D01*
X102956014Y-97926447D01*
X102989663Y-97988114D01*
X103031448Y-98042050D01*
X103081161Y-98088013D01*
X103138592Y-98125760D01*
X103203532Y-98155051D01*
X103275773Y-98175644D01*
X103327359Y-98184354D01*
X103364393Y-98187019D01*
X103408139Y-98186998D01*
X103454236Y-98184535D01*
X103498326Y-98179870D01*
X103536049Y-98173249D01*
X103538941Y-98172575D01*
X103610127Y-98150648D01*
X103674249Y-98120236D01*
X103732763Y-98080507D01*
X103787123Y-98030628D01*
X103787127Y-98030624D01*
X103835593Y-97971892D01*
X103873981Y-97907821D01*
X103902192Y-97838680D01*
X103920131Y-97764743D01*
X103927700Y-97686282D01*
X103927234Y-97637348D01*
X103918577Y-97555937D01*
X103900760Y-97480904D01*
X103874060Y-97412588D01*
X103838755Y-97351332D01*
X103795123Y-97297477D01*
X103743440Y-97251363D01*
X103683983Y-97213331D01*
X103617032Y-97183723D01*
X103542862Y-97162879D01*
X103540892Y-97162468D01*
X103462009Y-97151446D01*
X103383326Y-97150735D01*
X103306317Y-97160127D01*
X103232455Y-97179417D01*
X103163214Y-97208395D01*
X103144872Y-97218208D01*
X103110863Y-97240790D01*
X103074669Y-97270654D01*
X103039285Y-97304870D01*
X103007704Y-97340506D01*
X102982920Y-97374630D01*
X102979632Y-97380013D01*
X102946407Y-97446181D01*
X102923099Y-97516009D01*
X102909484Y-97590458D01*
X102905341Y-97670489D01*
X102441694Y-97670489D01*
X102439160Y-97600130D01*
X102443078Y-97499472D01*
G37*
G36*
X91119231Y-95683462D02*
G01*
X91169969Y-95685025D01*
X91217985Y-95687456D01*
X91260635Y-95690692D01*
X91295273Y-95694667D01*
X91303553Y-95695968D01*
X91412041Y-95719643D01*
X91514399Y-95752736D01*
X91611443Y-95795559D01*
X91703992Y-95848429D01*
X91709892Y-95852234D01*
X91737371Y-95870801D01*
X91764225Y-95890225D01*
X91788869Y-95909215D01*
X91809720Y-95926479D01*
X91825192Y-95940726D01*
X91833702Y-95950664D01*
X91834801Y-95954045D01*
X91830135Y-95964089D01*
X91819988Y-95981510D01*
X91805629Y-96004436D01*
X91788330Y-96030996D01*
X91769361Y-96059318D01*
X91749992Y-96087529D01*
X91731495Y-96113759D01*
X91715141Y-96136134D01*
X91702200Y-96152785D01*
X91693942Y-96161838D01*
X91693477Y-96162212D01*
X91680300Y-96170794D01*
X91666598Y-96175372D01*
X91647983Y-96177097D01*
X91636099Y-96177249D01*
X91621205Y-96177017D01*
X91608824Y-96175737D01*
X91596713Y-96172533D01*
X91582626Y-96166528D01*
X91564318Y-96156847D01*
X91539546Y-96142614D01*
X91523999Y-96133495D01*
X91452059Y-96094137D01*
X91383905Y-96063434D01*
X91316792Y-96040635D01*
X91247973Y-96024989D01*
X91174703Y-96015744D01*
X91094238Y-96012150D01*
X91080243Y-96012048D01*
X91019985Y-96013100D01*
X90967838Y-96016911D01*
X90920697Y-96023940D01*
X90875453Y-96034646D01*
X90830631Y-96048911D01*
X90763510Y-96076176D01*
X90704590Y-96108288D01*
X90651031Y-96147060D01*
X90599992Y-96194306D01*
X90595243Y-96199225D01*
X90543821Y-96259763D01*
X90500794Y-96325489D01*
X90465558Y-96397599D01*
X90437507Y-96477287D01*
X90420610Y-96543705D01*
X90415335Y-96575273D01*
X90411060Y-96615453D01*
X90407874Y-96661441D01*
X90405866Y-96710435D01*
X90405127Y-96759629D01*
X90405745Y-96806221D01*
X90407810Y-96847408D01*
X90410136Y-96871285D01*
X90427098Y-96967123D01*
X90452884Y-97055875D01*
X90487133Y-97137249D01*
X90529484Y-97210951D01*
X90579576Y-97276688D01*
X90637047Y-97334169D01*
X90701536Y-97383101D01*
X90772681Y-97423190D01*
X90850122Y-97454144D01*
X90933497Y-97475671D01*
X91022445Y-97487478D01*
X91116605Y-97489272D01*
X91168994Y-97486018D01*
X91236926Y-97478051D01*
X91299410Y-97466343D01*
X91360885Y-97449839D01*
X91425792Y-97427485D01*
X91442405Y-97421120D01*
X91486781Y-97403832D01*
X91486781Y-97027542D01*
X91343086Y-97027542D01*
X91290838Y-97027583D01*
X91248903Y-97027042D01*
X91216150Y-97024919D01*
X91191446Y-97020218D01*
X91173661Y-97011939D01*
X91161664Y-96999087D01*
X91154322Y-96980661D01*
X91150504Y-96955666D01*
X91149079Y-96923101D01*
X91148916Y-96881971D01*
X91148954Y-96856314D01*
X91148954Y-96735522D01*
X91836059Y-96735522D01*
X91836059Y-97581272D01*
X91795080Y-97608522D01*
X91709552Y-97659902D01*
X91619946Y-97702744D01*
X91524910Y-97737550D01*
X91423091Y-97764821D01*
X91322504Y-97783648D01*
X91290185Y-97787625D01*
X91249633Y-97791102D01*
X91203099Y-97794020D01*
X91152833Y-97796319D01*
X91101083Y-97797941D01*
X91050099Y-97798827D01*
X91002132Y-97798916D01*
X90959431Y-97798151D01*
X90924245Y-97796471D01*
X90904603Y-97794635D01*
X90797681Y-97775811D01*
X90694832Y-97746914D01*
X90596729Y-97708349D01*
X90504045Y-97660519D01*
X90417451Y-97603828D01*
X90337622Y-97538680D01*
X90265228Y-97465479D01*
X90200943Y-97384629D01*
X90186052Y-97363021D01*
X90130364Y-97269502D01*
X90084676Y-97170425D01*
X90049014Y-97065857D01*
X90023404Y-96955867D01*
X90017217Y-96918750D01*
X90012159Y-96874487D01*
X90008814Y-96822191D01*
X90007179Y-96765133D01*
X90007256Y-96706586D01*
X90009043Y-96649824D01*
X90012541Y-96598117D01*
X90017241Y-96558020D01*
X90039427Y-96446037D01*
X90070934Y-96340556D01*
X90111477Y-96241847D01*
X90160770Y-96150178D01*
X90218529Y-96065817D01*
X90284469Y-95989033D01*
X90358303Y-95920095D01*
X90439747Y-95859271D01*
X90528515Y-95806829D01*
X90624324Y-95763039D01*
X90726886Y-95728169D01*
X90835917Y-95702487D01*
X90941938Y-95687181D01*
X90977124Y-95684628D01*
X91020164Y-95683199D01*
X91068415Y-95682832D01*
X91119231Y-95683462D01*
G37*
G36*
X103654571Y-93938998D02*
G01*
X103692827Y-93941571D01*
X103724707Y-93945671D01*
X103740162Y-93949030D01*
X103771999Y-93959556D01*
X103806105Y-93973882D01*
X103840230Y-93990743D01*
X103872124Y-94008875D01*
X103899538Y-94027012D01*
X103920223Y-94043889D01*
X103930773Y-94056202D01*
X103932002Y-94063860D01*
X103927886Y-94076199D01*
X103917716Y-94095026D01*
X103911738Y-94104872D01*
X103893444Y-94133419D01*
X103878834Y-94153304D01*
X103866280Y-94166006D01*
X103854152Y-94173006D01*
X103840819Y-94175785D01*
X103833378Y-94176054D01*
X103806995Y-94171986D01*
X103778622Y-94160914D01*
X103721019Y-94135986D01*
X103665789Y-94120589D01*
X103613888Y-94114892D01*
X103566269Y-94119068D01*
X103556909Y-94121213D01*
X103518588Y-94134321D01*
X103490455Y-94151708D01*
X103471846Y-94173994D01*
X103462097Y-94201802D01*
X103460811Y-94211214D01*
X103460261Y-94232962D01*
X103463735Y-94251887D01*
X103472177Y-94268701D01*
X103486530Y-94284115D01*
X103507736Y-94298839D01*
X103536738Y-94313584D01*
X103574479Y-94329059D01*
X103621902Y-94345977D01*
X103653630Y-94356539D01*
X103716788Y-94378403D01*
X103769697Y-94399584D01*
X103813476Y-94420798D01*
X103849243Y-94442760D01*
X103878115Y-94466185D01*
X103901211Y-94491789D01*
X103919648Y-94520288D01*
X103924684Y-94530007D01*
X103932229Y-94545760D01*
X103937409Y-94558737D01*
X103940660Y-94571658D01*
X103942414Y-94587240D01*
X103943108Y-94608202D01*
X103943175Y-94637262D01*
X103943147Y-94645507D01*
X103942769Y-94678820D01*
X103941695Y-94703454D01*
X103939592Y-94722173D01*
X103936127Y-94737745D01*
X103930968Y-94752936D01*
X103929884Y-94755717D01*
X103902672Y-94809879D01*
X103866986Y-94856522D01*
X103823135Y-94895472D01*
X103771431Y-94926554D01*
X103712184Y-94949595D01*
X103645705Y-94964419D01*
X103572305Y-94970854D01*
X103545482Y-94971097D01*
X103516670Y-94970628D01*
X103490910Y-94969871D01*
X103470987Y-94968929D01*
X103459687Y-94967906D01*
X103459594Y-94967890D01*
X103415044Y-94957902D01*
X103368352Y-94943576D01*
X103322270Y-94926051D01*
X103279548Y-94906469D01*
X103242936Y-94885970D01*
X103217108Y-94867360D01*
X103195069Y-94848596D01*
X103228162Y-94793517D01*
X103243246Y-94769895D01*
X103257883Y-94749557D01*
X103270218Y-94734951D01*
X103276852Y-94729226D01*
X103298655Y-94720816D01*
X103322884Y-94720689D01*
X103351106Y-94729087D01*
X103383858Y-94745652D01*
X103422570Y-94766672D01*
X103456155Y-94781230D01*
X103488128Y-94790378D01*
X103522008Y-94795162D01*
X103554647Y-94796578D01*
X103581548Y-94796699D01*
X103600638Y-94795768D01*
X103615552Y-94793060D01*
X103629925Y-94787850D01*
X103647394Y-94779416D01*
X103651593Y-94777272D01*
X103682314Y-94758041D01*
X103702640Y-94736392D01*
X103713604Y-94710646D01*
X103716238Y-94679123D01*
X103715908Y-94672711D01*
X103712977Y-94652690D01*
X103706422Y-94635251D01*
X103695184Y-94619671D01*
X103678206Y-94605227D01*
X103654428Y-94591193D01*
X103622793Y-94576848D01*
X103582242Y-94561467D01*
X103531717Y-94544326D01*
X103524924Y-94542113D01*
X103489950Y-94530313D01*
X103454622Y-94517610D01*
X103422209Y-94505234D01*
X103395978Y-94494409D01*
X103386900Y-94490295D01*
X103335875Y-94460655D01*
X103294076Y-94424713D01*
X103261819Y-94382939D01*
X103239416Y-94335806D01*
X103227184Y-94283786D01*
X103224833Y-94246707D01*
X103230131Y-94188317D01*
X103245725Y-94134431D01*
X103271166Y-94085590D01*
X103306004Y-94042339D01*
X103349792Y-94005220D01*
X103402078Y-93974776D01*
X103462415Y-93951550D01*
X103471046Y-93949027D01*
X103496869Y-93943969D01*
X103531088Y-93940437D01*
X103570747Y-93938431D01*
X103612893Y-93937951D01*
X103654571Y-93938998D01*
G37*
G36*
X97424815Y-93938998D02*
G01*
X97463071Y-93941571D01*
X97494950Y-93945671D01*
X97510406Y-93949030D01*
X97542243Y-93959556D01*
X97576348Y-93973882D01*
X97610473Y-93990743D01*
X97642367Y-94008875D01*
X97669782Y-94027012D01*
X97690466Y-94043889D01*
X97701016Y-94056202D01*
X97702246Y-94063860D01*
X97698129Y-94076199D01*
X97687960Y-94095026D01*
X97681982Y-94104872D01*
X97663687Y-94133419D01*
X97649078Y-94153304D01*
X97636524Y-94166006D01*
X97624395Y-94173006D01*
X97611062Y-94175785D01*
X97603621Y-94176054D01*
X97577238Y-94171986D01*
X97548865Y-94160914D01*
X97491262Y-94135986D01*
X97436033Y-94120589D01*
X97384131Y-94114892D01*
X97336513Y-94119068D01*
X97327153Y-94121213D01*
X97288831Y-94134321D01*
X97260698Y-94151708D01*
X97242089Y-94173994D01*
X97232341Y-94201802D01*
X97231054Y-94211214D01*
X97230504Y-94232962D01*
X97233979Y-94251887D01*
X97242421Y-94268701D01*
X97256773Y-94284115D01*
X97277979Y-94298839D01*
X97306981Y-94313584D01*
X97344722Y-94329059D01*
X97392146Y-94345977D01*
X97423873Y-94356539D01*
X97487031Y-94378403D01*
X97539941Y-94399584D01*
X97583720Y-94420798D01*
X97619487Y-94442760D01*
X97648359Y-94466185D01*
X97671455Y-94491789D01*
X97689892Y-94520288D01*
X97694927Y-94530007D01*
X97702472Y-94545760D01*
X97707653Y-94558737D01*
X97710903Y-94571658D01*
X97712658Y-94587240D01*
X97713352Y-94608202D01*
X97713419Y-94637262D01*
X97713391Y-94645507D01*
X97713013Y-94678820D01*
X97711938Y-94703454D01*
X97709835Y-94722173D01*
X97706371Y-94737745D01*
X97701211Y-94752936D01*
X97700127Y-94755717D01*
X97672916Y-94809879D01*
X97637229Y-94856522D01*
X97593378Y-94895472D01*
X97541674Y-94926554D01*
X97482427Y-94949595D01*
X97415948Y-94964419D01*
X97342548Y-94970854D01*
X97315726Y-94971097D01*
X97286914Y-94970628D01*
X97261154Y-94969871D01*
X97241231Y-94968929D01*
X97229931Y-94967906D01*
X97229838Y-94967890D01*
X97185287Y-94957902D01*
X97138596Y-94943576D01*
X97092514Y-94926051D01*
X97049791Y-94906469D01*
X97013180Y-94885970D01*
X96987352Y-94867360D01*
X96965312Y-94848596D01*
X96998406Y-94793517D01*
X97013490Y-94769895D01*
X97028126Y-94749557D01*
X97040461Y-94734951D01*
X97047095Y-94729226D01*
X97068899Y-94720816D01*
X97093128Y-94720689D01*
X97121349Y-94729087D01*
X97154101Y-94745652D01*
X97192814Y-94766672D01*
X97226398Y-94781230D01*
X97258372Y-94790378D01*
X97292252Y-94795162D01*
X97324891Y-94796578D01*
X97351792Y-94796699D01*
X97370881Y-94795768D01*
X97385795Y-94793060D01*
X97400169Y-94787850D01*
X97417638Y-94779416D01*
X97421836Y-94777272D01*
X97452557Y-94758041D01*
X97472883Y-94736392D01*
X97483847Y-94710646D01*
X97486482Y-94679123D01*
X97486152Y-94672711D01*
X97483221Y-94652690D01*
X97476665Y-94635251D01*
X97465428Y-94619671D01*
X97448449Y-94605227D01*
X97424671Y-94591193D01*
X97393036Y-94576848D01*
X97352485Y-94561467D01*
X97301960Y-94544326D01*
X97295167Y-94542113D01*
X97260194Y-94530313D01*
X97224866Y-94517610D01*
X97192452Y-94505234D01*
X97166221Y-94494409D01*
X97157143Y-94490295D01*
X97106118Y-94460655D01*
X97064320Y-94424713D01*
X97032062Y-94382939D01*
X97009660Y-94335806D01*
X96997427Y-94283786D01*
X96995077Y-94246707D01*
X97000374Y-94188317D01*
X97015968Y-94134431D01*
X97041409Y-94085590D01*
X97076248Y-94042339D01*
X97120035Y-94005220D01*
X97172322Y-93974776D01*
X97232659Y-93951550D01*
X97241289Y-93949027D01*
X97267113Y-93943969D01*
X97301331Y-93940437D01*
X97340991Y-93938431D01*
X97383137Y-93937951D01*
X97424815Y-93938998D01*
G37*
G36*
X92234332Y-95704946D02*
G01*
X92276435Y-95705229D01*
X92309608Y-95705769D01*
X92335112Y-95706621D01*
X92354207Y-95707840D01*
X92368154Y-95709482D01*
X92378213Y-95711601D01*
X92384496Y-95713757D01*
X92411052Y-95729317D01*
X92434021Y-95750907D01*
X92446206Y-95768666D01*
X92449328Y-95777188D01*
X92455257Y-95795921D01*
X92463760Y-95824032D01*
X92474602Y-95860692D01*
X92487552Y-95905068D01*
X92502376Y-95956331D01*
X92518841Y-96013648D01*
X92536713Y-96076190D01*
X92555759Y-96143125D01*
X92575747Y-96213623D01*
X92596443Y-96286851D01*
X92617613Y-96361980D01*
X92639025Y-96438179D01*
X92660445Y-96514616D01*
X92681641Y-96590460D01*
X92702378Y-96664881D01*
X92722425Y-96737047D01*
X92741546Y-96806128D01*
X92759511Y-96871293D01*
X92776084Y-96931710D01*
X92791033Y-96986549D01*
X92804126Y-97034979D01*
X92815127Y-97076168D01*
X92823805Y-97109287D01*
X92829927Y-97133503D01*
X92833168Y-97147540D01*
X92839175Y-97176722D01*
X92844430Y-97201589D01*
X92848500Y-97220139D01*
X92850950Y-97230370D01*
X92851411Y-97231727D01*
X92853153Y-97227052D01*
X92856894Y-97213270D01*
X92862104Y-97192444D01*
X92868250Y-97166635D01*
X92868954Y-97163611D01*
X92873281Y-97147187D01*
X92880788Y-97121289D01*
X92891210Y-97086726D01*
X92904283Y-97044309D01*
X92919740Y-96994846D01*
X92937319Y-96939148D01*
X92956754Y-96878024D01*
X92977780Y-96812284D01*
X93000134Y-96742737D01*
X93023550Y-96670194D01*
X93047763Y-96595463D01*
X93072510Y-96519354D01*
X93097524Y-96442678D01*
X93122543Y-96366243D01*
X93147301Y-96290859D01*
X93171533Y-96217337D01*
X93194974Y-96146485D01*
X93217361Y-96079113D01*
X93238428Y-96016031D01*
X93257912Y-95958049D01*
X93275546Y-95905976D01*
X93291066Y-95860622D01*
X93304209Y-95822797D01*
X93314709Y-95793309D01*
X93322301Y-95772970D01*
X93326721Y-95762588D01*
X93327150Y-95761853D01*
X93341681Y-95744337D01*
X93359984Y-95727789D01*
X93365906Y-95723522D01*
X93375003Y-95717751D01*
X93383547Y-95713551D01*
X93393548Y-95710629D01*
X93407017Y-95708694D01*
X93425965Y-95707452D01*
X93452401Y-95706613D01*
X93487118Y-95705906D01*
X93530385Y-95705497D01*
X93564099Y-95706397D01*
X93590125Y-95709068D01*
X93610331Y-95713970D01*
X93626582Y-95721563D01*
X93640744Y-95732308D01*
X93654685Y-95746666D01*
X93655359Y-95747429D01*
X93658690Y-95751488D01*
X93662094Y-95756417D01*
X93665769Y-95762797D01*
X93669915Y-95771214D01*
X93674734Y-95782250D01*
X93680424Y-95796489D01*
X93687185Y-95814514D01*
X93695218Y-95836909D01*
X93704722Y-95864257D01*
X93715897Y-95897142D01*
X93728942Y-95936147D01*
X93744059Y-95981855D01*
X93761446Y-96034851D01*
X93781304Y-96095717D01*
X93803833Y-96165036D01*
X93829231Y-96243394D01*
X93857700Y-96331371D01*
X93889439Y-96429554D01*
X93895997Y-96449848D01*
X93923757Y-96535863D01*
X93950677Y-96619485D01*
X93976530Y-96699997D01*
X94001088Y-96776682D01*
X94024125Y-96848825D01*
X94045413Y-96915708D01*
X94064724Y-96976615D01*
X94081832Y-97030830D01*
X94096509Y-97077635D01*
X94108528Y-97116314D01*
X94117661Y-97146151D01*
X94123683Y-97166428D01*
X94126199Y-97175680D01*
X94131493Y-97197611D01*
X94136021Y-97214857D01*
X94139054Y-97224698D01*
X94139668Y-97225936D01*
X94141707Y-97222279D01*
X94144291Y-97210370D01*
X94145632Y-97201684D01*
X94147659Y-97188465D01*
X94150462Y-97173111D01*
X94154198Y-97155029D01*
X94159029Y-97133624D01*
X94165112Y-97108302D01*
X94172608Y-97078467D01*
X94181676Y-97043526D01*
X94192475Y-97002885D01*
X94205164Y-96955947D01*
X94219902Y-96902120D01*
X94236850Y-96840809D01*
X94256166Y-96771419D01*
X94278010Y-96693356D01*
X94302541Y-96606026D01*
X94329919Y-96508833D01*
X94358051Y-96409152D01*
X94386481Y-96308586D01*
X94412010Y-96218504D01*
X94434801Y-96138357D01*
X94455018Y-96067597D01*
X94472824Y-96005673D01*
X94488381Y-95952036D01*
X94501855Y-95906137D01*
X94513408Y-95867426D01*
X94523202Y-95835355D01*
X94531403Y-95809372D01*
X94538173Y-95788931D01*
X94543675Y-95773479D01*
X94548073Y-95762470D01*
X94551530Y-95755352D01*
X94553262Y-95752667D01*
X94567919Y-95738140D01*
X94587651Y-95724222D01*
X94598126Y-95718618D01*
X94606873Y-95714692D01*
X94615274Y-95711602D01*
X94624772Y-95709246D01*
X94636810Y-95707525D01*
X94652831Y-95706338D01*
X94674278Y-95705585D01*
X94702593Y-95705165D01*
X94739219Y-95704978D01*
X94785599Y-95704923D01*
X94794907Y-95704920D01*
X94837390Y-95705047D01*
X94875925Y-95705432D01*
X94909091Y-95706040D01*
X94935468Y-95706835D01*
X94953636Y-95707781D01*
X94962174Y-95708842D01*
X94962646Y-95709158D01*
X94961005Y-95714983D01*
X94956140Y-95731209D01*
X94948215Y-95757303D01*
X94937396Y-95792726D01*
X94923847Y-95836945D01*
X94907735Y-95889422D01*
X94889223Y-95949622D01*
X94868477Y-96017008D01*
X94845662Y-96091045D01*
X94820943Y-96171197D01*
X94794486Y-96256927D01*
X94766455Y-96347700D01*
X94737015Y-96442979D01*
X94706332Y-96542229D01*
X94674570Y-96644914D01*
X94643428Y-96745545D01*
X94323954Y-97777637D01*
X93969888Y-97774769D01*
X93733273Y-97045015D01*
X93704565Y-96956420D01*
X93676803Y-96870626D01*
X93650195Y-96788287D01*
X93624951Y-96710053D01*
X93601278Y-96636577D01*
X93579387Y-96568509D01*
X93559486Y-96506502D01*
X93541785Y-96451207D01*
X93526492Y-96403277D01*
X93513817Y-96363362D01*
X93503969Y-96332115D01*
X93497156Y-96310187D01*
X93493588Y-96298230D01*
X93493111Y-96296356D01*
X93488865Y-96281736D01*
X93484140Y-96278493D01*
X93479525Y-96286639D01*
X93477230Y-96296061D01*
X93475041Y-96303680D01*
X93469498Y-96321532D01*
X93460811Y-96348967D01*
X93449189Y-96385335D01*
X93434843Y-96429986D01*
X93417983Y-96482271D01*
X93398819Y-96541540D01*
X93377562Y-96607143D01*
X93354422Y-96678429D01*
X93329609Y-96754751D01*
X93303332Y-96835456D01*
X93275804Y-96919896D01*
X93247232Y-97007421D01*
X93234596Y-97046098D01*
X92995550Y-97777526D01*
X92819299Y-97777579D01*
X92767053Y-97777489D01*
X92725301Y-97777160D01*
X92693086Y-97776553D01*
X92669453Y-97775630D01*
X92653445Y-97774354D01*
X92644107Y-97772686D01*
X92640483Y-97770588D01*
X92640436Y-97770475D01*
X92638370Y-97764002D01*
X92633121Y-97747248D01*
X92624893Y-97720870D01*
X92613891Y-97685527D01*
X92600317Y-97641876D01*
X92584376Y-97590577D01*
X92566272Y-97532285D01*
X92546208Y-97467660D01*
X92524390Y-97397360D01*
X92501019Y-97322042D01*
X92476302Y-97242365D01*
X92450441Y-97158987D01*
X92423640Y-97072565D01*
X92396104Y-96983758D01*
X92368036Y-96893224D01*
X92339640Y-96801620D01*
X92311120Y-96709605D01*
X92282681Y-96617836D01*
X92254526Y-96526972D01*
X92226859Y-96437671D01*
X92199883Y-96350591D01*
X92173804Y-96266389D01*
X92148824Y-96185724D01*
X92125149Y-96109254D01*
X92102981Y-96037636D01*
X92082525Y-95971529D01*
X92063984Y-95911591D01*
X92047563Y-95858480D01*
X92033465Y-95812853D01*
X92021895Y-95775369D01*
X92013057Y-95746686D01*
X92007153Y-95727462D01*
X92004389Y-95718355D01*
X92004216Y-95717747D01*
X92000868Y-95704864D01*
X92182038Y-95704864D01*
X92234332Y-95704946D01*
G37*
G36*
X96159098Y-93964197D02*
G01*
X96422489Y-93964197D01*
X96422489Y-94135973D01*
X96158602Y-94135973D01*
X96160282Y-94423699D01*
X96160677Y-94488615D01*
X96161068Y-94543076D01*
X96161499Y-94588081D01*
X96162011Y-94624626D01*
X96162647Y-94653709D01*
X96163450Y-94676326D01*
X96164462Y-94693476D01*
X96165726Y-94706156D01*
X96167286Y-94715362D01*
X96169182Y-94722092D01*
X96171458Y-94727344D01*
X96173413Y-94730866D01*
X96193670Y-94755609D01*
X96219019Y-94770289D01*
X96248873Y-94774786D01*
X96282643Y-94768981D01*
X96308839Y-94758458D01*
X96327270Y-94749758D01*
X96341839Y-94744671D01*
X96353994Y-94744119D01*
X96365185Y-94749025D01*
X96376861Y-94760312D01*
X96390471Y-94778900D01*
X96407465Y-94805713D01*
X96422841Y-94831014D01*
X96453620Y-94881894D01*
X96434892Y-94897529D01*
X96413241Y-94912542D01*
X96384323Y-94928400D01*
X96351993Y-94943231D01*
X96320108Y-94955164D01*
X96309341Y-94958430D01*
X96284139Y-94963519D01*
X96251763Y-94967223D01*
X96215407Y-94969467D01*
X96178267Y-94970176D01*
X96143537Y-94969274D01*
X96114410Y-94966686D01*
X96097549Y-94963424D01*
X96056178Y-94948591D01*
X96021407Y-94928207D01*
X95990265Y-94901183D01*
X95960600Y-94864408D01*
X95937505Y-94821339D01*
X95924684Y-94782357D01*
X95923395Y-94770906D01*
X95922236Y-94748756D01*
X95921220Y-94716664D01*
X95920360Y-94675382D01*
X95919669Y-94625664D01*
X95919162Y-94568264D01*
X95918851Y-94503937D01*
X95918751Y-94446602D01*
X95918611Y-94135973D01*
X95855627Y-94135973D01*
X95827161Y-94135729D01*
X95807787Y-94134762D01*
X95795151Y-94132718D01*
X95786897Y-94129242D01*
X95781510Y-94124841D01*
X95772565Y-94111864D01*
X95767083Y-94093260D01*
X95764730Y-94067158D01*
X95765121Y-94032934D01*
X95766875Y-93990017D01*
X95806957Y-93983225D01*
X95835316Y-93978484D01*
X95866832Y-93973310D01*
X95887599Y-93969958D01*
X95928160Y-93963483D01*
X95952389Y-93827850D01*
X95959474Y-93788943D01*
X95966265Y-93753034D01*
X95972405Y-93721918D01*
X95977533Y-93697386D01*
X95981290Y-93681231D01*
X95982776Y-93676201D01*
X95989632Y-93663624D01*
X96000170Y-93654607D01*
X96016109Y-93648630D01*
X96039168Y-93645168D01*
X96071066Y-93643699D01*
X96090103Y-93643548D01*
X96159098Y-93643548D01*
X96159098Y-93964197D01*
G37*
G36*
X91606476Y-98184949D02*
G01*
X91782044Y-98184992D01*
X91968416Y-98185064D01*
X92165779Y-98185164D01*
X92374320Y-98185291D01*
X92478296Y-98185362D01*
X94858337Y-98187033D01*
X94883165Y-98204465D01*
X94901229Y-98220354D01*
X94917511Y-98239860D01*
X94922308Y-98247409D01*
X94927027Y-98256175D01*
X94930575Y-98264524D01*
X94933120Y-98274187D01*
X94934827Y-98286895D01*
X94935865Y-98304380D01*
X94936398Y-98328373D01*
X94936596Y-98360605D01*
X94936623Y-98396027D01*
X94936424Y-98433389D01*
X94935867Y-98467684D01*
X94935014Y-98496967D01*
X94933926Y-98519294D01*
X94932664Y-98532720D01*
X94932246Y-98534775D01*
X94922689Y-98554089D01*
X94905998Y-98574632D01*
X94885440Y-98592845D01*
X94870114Y-98602496D01*
X94868175Y-98603413D01*
X94865838Y-98604279D01*
X94862776Y-98605094D01*
X94858663Y-98605860D01*
X94853171Y-98606578D01*
X94845974Y-98607251D01*
X94836745Y-98607880D01*
X94825157Y-98608465D01*
X94810882Y-98609010D01*
X94793594Y-98609514D01*
X94772967Y-98609980D01*
X94748672Y-98610410D01*
X94720384Y-98610804D01*
X94687774Y-98611165D01*
X94650517Y-98611493D01*
X94608285Y-98611790D01*
X94560752Y-98612059D01*
X94507590Y-98612299D01*
X94448473Y-98612513D01*
X94383073Y-98612703D01*
X94311064Y-98612869D01*
X94232119Y-98613014D01*
X94145910Y-98613139D01*
X94052112Y-98613245D01*
X93950396Y-98613334D01*
X93840436Y-98613407D01*
X93721906Y-98613466D01*
X93594477Y-98613512D01*
X93457824Y-98613547D01*
X93311619Y-98613573D01*
X93155536Y-98613591D01*
X92989247Y-98613602D01*
X92812425Y-98613608D01*
X92624744Y-98613610D01*
X92464172Y-98613611D01*
X90080016Y-98613611D01*
X90054780Y-98600283D01*
X90028317Y-98580003D01*
X90012367Y-98559241D01*
X89995189Y-98531528D01*
X89993433Y-98408196D01*
X89992960Y-98365473D01*
X89992970Y-98332507D01*
X89993549Y-98307614D01*
X89994782Y-98289106D01*
X89996756Y-98275297D01*
X89999555Y-98264500D01*
X90000925Y-98260648D01*
X90015181Y-98235853D01*
X90036610Y-98213168D01*
X90061482Y-98196082D01*
X90076427Y-98189993D01*
X90082016Y-98189429D01*
X90094879Y-98188900D01*
X90115201Y-98188407D01*
X90143168Y-98187947D01*
X90178965Y-98187522D01*
X90222780Y-98187130D01*
X90274797Y-98186772D01*
X90335203Y-98186447D01*
X90404184Y-98186155D01*
X90481924Y-98185895D01*
X90568611Y-98185666D01*
X90664430Y-98185470D01*
X90769567Y-98185305D01*
X90884208Y-98185170D01*
X91008539Y-98185066D01*
X91142745Y-98184993D01*
X91287013Y-98184949D01*
X91441528Y-98184934D01*
X91606476Y-98184949D01*
G37*
G36*
X93799549Y-93931804D02*
G01*
X93840152Y-93939199D01*
X93871927Y-93953263D01*
X93881681Y-93960404D01*
X93896408Y-93972786D01*
X93880613Y-94058674D01*
X93874795Y-94089676D01*
X93869352Y-94117530D01*
X93864759Y-94139886D01*
X93861490Y-94154394D01*
X93860567Y-94157773D01*
X93853990Y-94169349D01*
X93842303Y-94176046D01*
X93823951Y-94178128D01*
X93797382Y-94175861D01*
X93775447Y-94172267D01*
X93747009Y-94167613D01*
X93725122Y-94165712D01*
X93705255Y-94166421D01*
X93684049Y-94169397D01*
X93637155Y-94182395D01*
X93595614Y-94204668D01*
X93558686Y-94236764D01*
X93525634Y-94279231D01*
X93516947Y-94293098D01*
X93496564Y-94327116D01*
X93496564Y-94954774D01*
X93250352Y-94954774D01*
X93250352Y-93952745D01*
X93339479Y-93952745D01*
X93372076Y-93953117D01*
X93400576Y-93954148D01*
X93422841Y-93955712D01*
X93436731Y-93957684D01*
X93439623Y-93958641D01*
X93450583Y-93967761D01*
X93459245Y-93982986D01*
X93466144Y-94005842D01*
X93471814Y-94037855D01*
X93474350Y-94057728D01*
X93477520Y-94082556D01*
X93480609Y-94102524D01*
X93483222Y-94115302D01*
X93484712Y-94118785D01*
X93489280Y-94114335D01*
X93497653Y-94102859D01*
X93505010Y-94091587D01*
X93528847Y-94059293D01*
X93559426Y-94026309D01*
X93593586Y-93995548D01*
X93628162Y-93969921D01*
X93652557Y-93955776D01*
X93675676Y-93944952D01*
X93694649Y-93938128D01*
X93714072Y-93934148D01*
X93738545Y-93931859D01*
X93750527Y-93931170D01*
X93799549Y-93931804D01*
G37*
G36*
X95559553Y-97442204D02*
G01*
X95587274Y-97404456D01*
X95620207Y-97359777D01*
X95658022Y-97308614D01*
X95700385Y-97251414D01*
X95746968Y-97188622D01*
X95797437Y-97120687D01*
X95851463Y-97048054D01*
X95908715Y-96971169D01*
X95968860Y-96890481D01*
X96031568Y-96806435D01*
X96096508Y-96719478D01*
X96163348Y-96630056D01*
X96175847Y-96613345D01*
X96842482Y-95722042D01*
X97304274Y-95722042D01*
X97304274Y-97485612D01*
X97659789Y-97485612D01*
X97658102Y-97645530D01*
X97657566Y-97692668D01*
X97656995Y-97729737D01*
X97656284Y-97758121D01*
X97655323Y-97779202D01*
X97654007Y-97794362D01*
X97652227Y-97804986D01*
X97649877Y-97812455D01*
X97646848Y-97818153D01*
X97644437Y-97821600D01*
X97631227Y-97836028D01*
X97615065Y-97849568D01*
X97613530Y-97850637D01*
X97607334Y-97854589D01*
X97600807Y-97857637D01*
X97592457Y-97859899D01*
X97580793Y-97861492D01*
X97564325Y-97862534D01*
X97541561Y-97863140D01*
X97511010Y-97863428D01*
X97471181Y-97863515D01*
X97449437Y-97863520D01*
X97304274Y-97863520D01*
X97304274Y-98556352D01*
X96880559Y-98556352D01*
X96880559Y-97863520D01*
X96266458Y-97863395D01*
X96169152Y-97863368D01*
X96082635Y-97863322D01*
X96006248Y-97863247D01*
X95939326Y-97863130D01*
X95881210Y-97862961D01*
X95831237Y-97862729D01*
X95788746Y-97862421D01*
X95753076Y-97862028D01*
X95723563Y-97861538D01*
X95699547Y-97860940D01*
X95680367Y-97860223D01*
X95665360Y-97859375D01*
X95653864Y-97858385D01*
X95645219Y-97857243D01*
X95638762Y-97855936D01*
X95633832Y-97854454D01*
X95629767Y-97852786D01*
X95629454Y-97852642D01*
X95602380Y-97835274D01*
X95578651Y-97811294D01*
X95562169Y-97784688D01*
X95561605Y-97783358D01*
X95557856Y-97771437D01*
X95552649Y-97750935D01*
X95546394Y-97723877D01*
X95539499Y-97692287D01*
X95532373Y-97658190D01*
X95525425Y-97623610D01*
X95519063Y-97590572D01*
X95513696Y-97561101D01*
X95509733Y-97537221D01*
X95507583Y-97520957D01*
X95507409Y-97514955D01*
X95510972Y-97509397D01*
X95521070Y-97495121D01*
X95527947Y-97485612D01*
X96022320Y-97485612D01*
X96880559Y-97485612D01*
X96880559Y-96970595D01*
X96880634Y-96874058D01*
X96880854Y-96784414D01*
X96881215Y-96702190D01*
X96881710Y-96627917D01*
X96882334Y-96562121D01*
X96883081Y-96505330D01*
X96883947Y-96458074D01*
X96884925Y-96420880D01*
X96886009Y-96394277D01*
X96886744Y-96383198D01*
X96888936Y-96355798D01*
X96890482Y-96332904D01*
X96891256Y-96316719D01*
X96891128Y-96309448D01*
X96891039Y-96309273D01*
X96887478Y-96313602D01*
X96877540Y-96326615D01*
X96861629Y-96347766D01*
X96840149Y-96376512D01*
X96813503Y-96412306D01*
X96782095Y-96454603D01*
X96746329Y-96502860D01*
X96706609Y-96556532D01*
X96663339Y-96615072D01*
X96616922Y-96677937D01*
X96567762Y-96744582D01*
X96516263Y-96814461D01*
X96462829Y-96887029D01*
X96455734Y-96896670D01*
X96022320Y-97485612D01*
X95527947Y-97485612D01*
X95537375Y-97472575D01*
X95559553Y-97442204D01*
G37*
G36*
X97827001Y-97442204D02*
G01*
X97854722Y-97404456D01*
X97887656Y-97359777D01*
X97925470Y-97308614D01*
X97967833Y-97251414D01*
X98014416Y-97188622D01*
X98064886Y-97120687D01*
X98118912Y-97048054D01*
X98176163Y-96971169D01*
X98236308Y-96890481D01*
X98299016Y-96806435D01*
X98363956Y-96719478D01*
X98430796Y-96630056D01*
X98443295Y-96613345D01*
X99109930Y-95722042D01*
X99571722Y-95722042D01*
X99571722Y-97485612D01*
X99927237Y-97485612D01*
X99925550Y-97645530D01*
X99925014Y-97692668D01*
X99924444Y-97729737D01*
X99923732Y-97758121D01*
X99922771Y-97779202D01*
X99921455Y-97794362D01*
X99919675Y-97804986D01*
X99917325Y-97812455D01*
X99914297Y-97818153D01*
X99911886Y-97821600D01*
X99898675Y-97836028D01*
X99882513Y-97849568D01*
X99880978Y-97850637D01*
X99874782Y-97854589D01*
X99868255Y-97857637D01*
X99859905Y-97859899D01*
X99848241Y-97861492D01*
X99831773Y-97862534D01*
X99809009Y-97863140D01*
X99778458Y-97863428D01*
X99738629Y-97863515D01*
X99716885Y-97863520D01*
X99571722Y-97863520D01*
X99571722Y-98556352D01*
X99148007Y-98556352D01*
X99148007Y-97863520D01*
X98533907Y-97863395D01*
X98436600Y-97863368D01*
X98350084Y-97863322D01*
X98273696Y-97863247D01*
X98206774Y-97863130D01*
X98148658Y-97862961D01*
X98098686Y-97862729D01*
X98056195Y-97862421D01*
X98020524Y-97862028D01*
X97991011Y-97861538D01*
X97966996Y-97860940D01*
X97947815Y-97860223D01*
X97932808Y-97859375D01*
X97921313Y-97858385D01*
X97912667Y-97857243D01*
X97906211Y-97855936D01*
X97901280Y-97854454D01*
X97897215Y-97852786D01*
X97896903Y-97852642D01*
X97869828Y-97835274D01*
X97846099Y-97811294D01*
X97829617Y-97784688D01*
X97829053Y-97783358D01*
X97825304Y-97771437D01*
X97820098Y-97750935D01*
X97813843Y-97723877D01*
X97806948Y-97692287D01*
X97799821Y-97658190D01*
X97792873Y-97623610D01*
X97786511Y-97590572D01*
X97781144Y-97561101D01*
X97777181Y-97537221D01*
X97775031Y-97520957D01*
X97774858Y-97514955D01*
X97778420Y-97509397D01*
X97788519Y-97495121D01*
X97795395Y-97485612D01*
X98289768Y-97485612D01*
X99148007Y-97485612D01*
X99148007Y-96970595D01*
X99148082Y-96874058D01*
X99148302Y-96784414D01*
X99148663Y-96702190D01*
X99149158Y-96627917D01*
X99149782Y-96562121D01*
X99150530Y-96505330D01*
X99151395Y-96458074D01*
X99152373Y-96420880D01*
X99153457Y-96394277D01*
X99154193Y-96383198D01*
X99156384Y-96355798D01*
X99157930Y-96332904D01*
X99158704Y-96316719D01*
X99158576Y-96309448D01*
X99158487Y-96309273D01*
X99154926Y-96313602D01*
X99144988Y-96326615D01*
X99129078Y-96347766D01*
X99107597Y-96376512D01*
X99080951Y-96412306D01*
X99049543Y-96454603D01*
X99013777Y-96502860D01*
X98974057Y-96556532D01*
X98930787Y-96615072D01*
X98884370Y-96677937D01*
X98835210Y-96744582D01*
X98783711Y-96814461D01*
X98730277Y-96887029D01*
X98723182Y-96896670D01*
X98289768Y-97485612D01*
X97795395Y-97485612D01*
X97804823Y-97472575D01*
X97827001Y-97442204D01*
G37*
G36*
X100100259Y-97079075D02*
G01*
X100103722Y-96968990D01*
X100109963Y-96868263D01*
X100119244Y-96775080D01*
X100131828Y-96687627D01*
X100147978Y-96604091D01*
X100167958Y-96522656D01*
X100192030Y-96441510D01*
X100193232Y-96437780D01*
X100235013Y-96323305D01*
X100283300Y-96218233D01*
X100338085Y-96122571D01*
X100399359Y-96036329D01*
X100467116Y-95959512D01*
X100541348Y-95892129D01*
X100622046Y-95834186D01*
X100709203Y-95785693D01*
X100802813Y-95746655D01*
X100902866Y-95717082D01*
X100931618Y-95710586D01*
X100968511Y-95704477D01*
X101013663Y-95699650D01*
X101063941Y-95696220D01*
X101116210Y-95694303D01*
X101167339Y-95694014D01*
X101214193Y-95695470D01*
X101253015Y-95698709D01*
X101357700Y-95716789D01*
X101456701Y-95744775D01*
X101549898Y-95782566D01*
X101637171Y-95830059D01*
X101718402Y-95887152D01*
X101793470Y-95953744D01*
X101862256Y-96029732D01*
X101924641Y-96115013D01*
X101980506Y-96209487D01*
X102029730Y-96313051D01*
X102058916Y-96387416D01*
X102086748Y-96470903D01*
X102110311Y-96556480D01*
X102130149Y-96646560D01*
X102146806Y-96743551D01*
X102158133Y-96827136D01*
X102161555Y-96863227D01*
X102164338Y-96908743D01*
X102166483Y-96961752D01*
X102167990Y-97020322D01*
X102168859Y-97082520D01*
X102169092Y-97146415D01*
X102168689Y-97210072D01*
X102167650Y-97271561D01*
X102165976Y-97328949D01*
X102163668Y-97380302D01*
X102160726Y-97423689D01*
X102157938Y-97451200D01*
X102140107Y-97573741D01*
X102118089Y-97686748D01*
X102091506Y-97791487D01*
X102059977Y-97889223D01*
X102023125Y-97981224D01*
X101980568Y-98068754D01*
X101963735Y-98099492D01*
X101906150Y-98190877D01*
X101841705Y-98273233D01*
X101770635Y-98346394D01*
X101693179Y-98410196D01*
X101609572Y-98464475D01*
X101520052Y-98509066D01*
X101424855Y-98543805D01*
X101324219Y-98568527D01*
X101276738Y-98576409D01*
X101244279Y-98579815D01*
X101203805Y-98582236D01*
X101158587Y-98583644D01*
X101111895Y-98584010D01*
X101067001Y-98583307D01*
X101027177Y-98581506D01*
X100997466Y-98578810D01*
X100895948Y-98560474D01*
X100799519Y-98531951D01*
X100708389Y-98493419D01*
X100622767Y-98445050D01*
X100542864Y-98387021D01*
X100468889Y-98319506D01*
X100401053Y-98242680D01*
X100339565Y-98156718D01*
X100284636Y-98061796D01*
X100236475Y-97958087D01*
X100228326Y-97937957D01*
X100192456Y-97838195D01*
X100162681Y-97735030D01*
X100138842Y-97627381D01*
X100120776Y-97514170D01*
X100108323Y-97394317D01*
X100101322Y-97266743D01*
X100099705Y-97137724D01*
X100599705Y-97137724D01*
X100600178Y-97205191D01*
X100601924Y-97267370D01*
X100602207Y-97273995D01*
X100606756Y-97359549D01*
X100612509Y-97435694D01*
X100619736Y-97504438D01*
X100628709Y-97567787D01*
X100639698Y-97627747D01*
X100652973Y-97686324D01*
X100663103Y-97725144D01*
X100691333Y-97815415D01*
X100723825Y-97895208D01*
X100760742Y-97964741D01*
X100802248Y-98024229D01*
X100848509Y-98073889D01*
X100899686Y-98113936D01*
X100955946Y-98144588D01*
X100991629Y-98158366D01*
X101051270Y-98174650D01*
X101107594Y-98182124D01*
X101164148Y-98181144D01*
X101189283Y-98178232D01*
X101258798Y-98163072D01*
X101322567Y-98138166D01*
X101380716Y-98103417D01*
X101433371Y-98058727D01*
X101480657Y-98004001D01*
X101522702Y-97939140D01*
X101538590Y-97909328D01*
X101553131Y-97877128D01*
X101568893Y-97836551D01*
X101584943Y-97790466D01*
X101600351Y-97741745D01*
X101614188Y-97693259D01*
X101625522Y-97647877D01*
X101629847Y-97627805D01*
X101645675Y-97535515D01*
X101657882Y-97434567D01*
X101666329Y-97327212D01*
X101670877Y-97215701D01*
X101671388Y-97102286D01*
X101668382Y-97002565D01*
X101663205Y-96911916D01*
X101656503Y-96830761D01*
X101647976Y-96757208D01*
X101637324Y-96689367D01*
X101624247Y-96625343D01*
X101608443Y-96563247D01*
X101589611Y-96501186D01*
X101587907Y-96495990D01*
X101564763Y-96430814D01*
X101541093Y-96375040D01*
X101515737Y-96326634D01*
X101487537Y-96283563D01*
X101455333Y-96243795D01*
X101427403Y-96214466D01*
X101376512Y-96171996D01*
X101319735Y-96138712D01*
X101258379Y-96114888D01*
X101193749Y-96100798D01*
X101127151Y-96096715D01*
X101059891Y-96102915D01*
X100993275Y-96119670D01*
X100986556Y-96121987D01*
X100935886Y-96143077D01*
X100892347Y-96168735D01*
X100851784Y-96201591D01*
X100834702Y-96218104D01*
X100790315Y-96270241D01*
X100750156Y-96332682D01*
X100714371Y-96405029D01*
X100683106Y-96486885D01*
X100656507Y-96577854D01*
X100634719Y-96677540D01*
X100617888Y-96785546D01*
X100613935Y-96818548D01*
X100609115Y-96870680D01*
X100605211Y-96931449D01*
X100602293Y-96998068D01*
X100600434Y-97067755D01*
X100599705Y-97137724D01*
X100099705Y-97137724D01*
X100099613Y-97130369D01*
X100100259Y-97079075D01*
G37*
G36*
X100228432Y-94405933D02*
G01*
X100231797Y-94359974D01*
X100237466Y-94321238D01*
X100237884Y-94319201D01*
X100257346Y-94250488D01*
X100285707Y-94185682D01*
X100321919Y-94126812D01*
X100361894Y-94078996D01*
X100413592Y-94033126D01*
X100470381Y-93996694D01*
X100532841Y-93969478D01*
X100601555Y-93951257D01*
X100677105Y-93941809D01*
X100725487Y-93940259D01*
X100803821Y-93944287D01*
X100874922Y-93956775D01*
X100939621Y-93978048D01*
X100998749Y-94008433D01*
X101053136Y-94048256D01*
X101090727Y-94083900D01*
X101114842Y-94110704D01*
X101133868Y-94136153D01*
X101150989Y-94164839D01*
X101163055Y-94188313D01*
X101183087Y-94232013D01*
X101197828Y-94272296D01*
X101208101Y-94312602D01*
X101214729Y-94356372D01*
X101218537Y-94407047D01*
X101219212Y-94423030D01*
X101219986Y-94481745D01*
X101217360Y-94532821D01*
X101210930Y-94579669D01*
X101200291Y-94625704D01*
X101191779Y-94654165D01*
X101164286Y-94722429D01*
X101128139Y-94783256D01*
X101083611Y-94836380D01*
X101030975Y-94881534D01*
X100970506Y-94918454D01*
X100902476Y-94946873D01*
X100884709Y-94952502D01*
X100863103Y-94958517D01*
X100843190Y-94962823D01*
X100822085Y-94965761D01*
X100796909Y-94967677D01*
X100764778Y-94968912D01*
X100742664Y-94969436D01*
X100708804Y-94969763D01*
X100676569Y-94969407D01*
X100648781Y-94968445D01*
X100628260Y-94966957D01*
X100621806Y-94966076D01*
X100548550Y-94947530D01*
X100481525Y-94919546D01*
X100421193Y-94882579D01*
X100368015Y-94837082D01*
X100322453Y-94783512D01*
X100284968Y-94722321D01*
X100256023Y-94653965D01*
X100237978Y-94588228D01*
X100232143Y-94550262D01*
X100228606Y-94504765D01*
X100227398Y-94456622D01*
X100480260Y-94456622D01*
X100483344Y-94528505D01*
X100492696Y-94591004D01*
X100508472Y-94644420D01*
X100530825Y-94689052D01*
X100559910Y-94725199D01*
X100595880Y-94753160D01*
X100638889Y-94773235D01*
X100644099Y-94774989D01*
X100667906Y-94779726D01*
X100699182Y-94781792D01*
X100734299Y-94781350D01*
X100769634Y-94778567D01*
X100801558Y-94773607D01*
X100826273Y-94766703D01*
X100858563Y-94749090D01*
X100889238Y-94723317D01*
X100914915Y-94692535D01*
X100926197Y-94673604D01*
X100940556Y-94642214D01*
X100951215Y-94610972D01*
X100958622Y-94577431D01*
X100963224Y-94539143D01*
X100965469Y-94493660D01*
X100965878Y-94456622D01*
X100965697Y-94418177D01*
X100965008Y-94388700D01*
X100963589Y-94365715D01*
X100961218Y-94346742D01*
X100957676Y-94329303D01*
X100952945Y-94311625D01*
X100936003Y-94262006D01*
X100916292Y-94222287D01*
X100892808Y-94191050D01*
X100864551Y-94166880D01*
X100840777Y-94153104D01*
X100795419Y-94136056D01*
X100747736Y-94127580D01*
X100699765Y-94127410D01*
X100653543Y-94135283D01*
X100611109Y-94150932D01*
X100574498Y-94174092D01*
X100557545Y-94189978D01*
X100529711Y-94226602D01*
X100508342Y-94269492D01*
X100493167Y-94319577D01*
X100483919Y-94377786D01*
X100480328Y-94445046D01*
X100480260Y-94456622D01*
X100227398Y-94456622D01*
X100227368Y-94455426D01*
X100228432Y-94405933D01*
G37*
G36*
X93003651Y-93931804D02*
G01*
X93044255Y-93939199D01*
X93076030Y-93953263D01*
X93085784Y-93960404D01*
X93100511Y-93972786D01*
X93084716Y-94058674D01*
X93078898Y-94089676D01*
X93073455Y-94117530D01*
X93068861Y-94139886D01*
X93065593Y-94154394D01*
X93064670Y-94157773D01*
X93058093Y-94169349D01*
X93046406Y-94176046D01*
X93028054Y-94178128D01*
X93001485Y-94175861D01*
X92979549Y-94172267D01*
X92951112Y-94167613D01*
X92929225Y-94165712D01*
X92909358Y-94166421D01*
X92888152Y-94169397D01*
X92841257Y-94182395D01*
X92799716Y-94204668D01*
X92762789Y-94236764D01*
X92729737Y-94279231D01*
X92721050Y-94293098D01*
X92700667Y-94327116D01*
X92700667Y-94954774D01*
X92454454Y-94954774D01*
X92454454Y-93952745D01*
X92543582Y-93952745D01*
X92576178Y-93953117D01*
X92604679Y-93954148D01*
X92626944Y-93955712D01*
X92640833Y-93957684D01*
X92643726Y-93958641D01*
X92654686Y-93967761D01*
X92663348Y-93982986D01*
X92670246Y-94005842D01*
X92675916Y-94037855D01*
X92678453Y-94057728D01*
X92681622Y-94082556D01*
X92684712Y-94102524D01*
X92687325Y-94115302D01*
X92688815Y-94118785D01*
X92693382Y-94114335D01*
X92701756Y-94102859D01*
X92709113Y-94091587D01*
X92732950Y-94059293D01*
X92763529Y-94026309D01*
X92797689Y-93995548D01*
X92832264Y-93969921D01*
X92856659Y-93955776D01*
X92879779Y-93944952D01*
X92898752Y-93938128D01*
X92918175Y-93934148D01*
X92942648Y-93931859D01*
X92954630Y-93931170D01*
X93003651Y-93931804D01*
G37*
G36*
X96006408Y-102519379D02*
G01*
X95610212Y-102519379D01*
X95610360Y-101718533D01*
X95610403Y-101630262D01*
X95610496Y-101543990D01*
X95610636Y-101460270D01*
X95610822Y-101379656D01*
X95611049Y-101302703D01*
X95611314Y-101229965D01*
X95611616Y-101161995D01*
X95611950Y-101099348D01*
X95612315Y-101042578D01*
X95612706Y-100992239D01*
X95613122Y-100948885D01*
X95613559Y-100913071D01*
X95614015Y-100885350D01*
X95614486Y-100866276D01*
X95614888Y-100857389D01*
X95616441Y-100834396D01*
X95617516Y-100815204D01*
X95618023Y-100801694D01*
X95617873Y-100795749D01*
X95617818Y-100795643D01*
X95615426Y-100799670D01*
X95608737Y-100811777D01*
X95597993Y-100831513D01*
X95583436Y-100858425D01*
X95565307Y-100892063D01*
X95543849Y-100931976D01*
X95519304Y-100977712D01*
X95491913Y-101028821D01*
X95461919Y-101084849D01*
X95429563Y-101145348D01*
X95395087Y-101209864D01*
X95358734Y-101277947D01*
X95320744Y-101349146D01*
X95281361Y-101423008D01*
X95254540Y-101473338D01*
X95198639Y-101578171D01*
X95147193Y-101674459D01*
X95100189Y-101762223D01*
X95057614Y-101841489D01*
X95019457Y-101912278D01*
X94985703Y-101974614D01*
X94956342Y-102028520D01*
X94931359Y-102074020D01*
X94910744Y-102111135D01*
X94894482Y-102139890D01*
X94882562Y-102160308D01*
X94874970Y-102172411D01*
X94872744Y-102175410D01*
X94856740Y-102191028D01*
X94837636Y-102205908D01*
X94826843Y-102212701D01*
X94800910Y-102227064D01*
X94626971Y-102227064D01*
X94601129Y-102212751D01*
X94582703Y-102200493D01*
X94564064Y-102184927D01*
X94555229Y-102176005D01*
X94550265Y-102168999D01*
X94541585Y-102154896D01*
X94529123Y-102133578D01*
X94512816Y-102104926D01*
X94492597Y-102068822D01*
X94468402Y-102025149D01*
X94440166Y-101973787D01*
X94407824Y-101914618D01*
X94371310Y-101847525D01*
X94330561Y-101772388D01*
X94285511Y-101689091D01*
X94236094Y-101597513D01*
X94182247Y-101497537D01*
X94168321Y-101471656D01*
X94127714Y-101396194D01*
X94088353Y-101323086D01*
X94050480Y-101252782D01*
X94014338Y-101185730D01*
X93980171Y-101122381D01*
X93948220Y-101063182D01*
X93918729Y-101008584D01*
X93891940Y-100959035D01*
X93868096Y-100914984D01*
X93847440Y-100876881D01*
X93830216Y-100845175D01*
X93816664Y-100820314D01*
X93807029Y-100802748D01*
X93801553Y-100792927D01*
X93800323Y-100790901D01*
X93800225Y-100795882D01*
X93800856Y-100808444D01*
X93802097Y-100826540D01*
X93803379Y-100842796D01*
X93803838Y-100853130D01*
X93804285Y-100872587D01*
X93804718Y-100900625D01*
X93805134Y-100936704D01*
X93805530Y-100980281D01*
X93805904Y-101030817D01*
X93806252Y-101087769D01*
X93806573Y-101150598D01*
X93806862Y-101218762D01*
X93807118Y-101291720D01*
X93807337Y-101368931D01*
X93807518Y-101449853D01*
X93807656Y-101533947D01*
X93807749Y-101620670D01*
X93807795Y-101706454D01*
X93808006Y-102519379D01*
X93416642Y-102519379D01*
X93416642Y-100132543D01*
X93612600Y-100132543D01*
X93671451Y-100132680D01*
X93720863Y-100133097D01*
X93761057Y-100133799D01*
X93792253Y-100134791D01*
X93814672Y-100136080D01*
X93828534Y-100137671D01*
X93830961Y-100138184D01*
X93854588Y-100148482D01*
X93872961Y-100163641D01*
X93876730Y-100168363D01*
X93882488Y-100177013D01*
X93890407Y-100189901D01*
X93900655Y-100207338D01*
X93913403Y-100229634D01*
X93928821Y-100257100D01*
X93947077Y-100290044D01*
X93968343Y-100328779D01*
X93992787Y-100373613D01*
X94020580Y-100424857D01*
X94051891Y-100482822D01*
X94086890Y-100547818D01*
X94125747Y-100620154D01*
X94168631Y-100700142D01*
X94215713Y-100788090D01*
X94260516Y-100871877D01*
X94309468Y-100963456D01*
X94354088Y-101046926D01*
X94394592Y-101122703D01*
X94431200Y-101191204D01*
X94464126Y-101252846D01*
X94493590Y-101308044D01*
X94519807Y-101357215D01*
X94542996Y-101400775D01*
X94563372Y-101439141D01*
X94581154Y-101472730D01*
X94596559Y-101501958D01*
X94609803Y-101527240D01*
X94621104Y-101548995D01*
X94630679Y-101567637D01*
X94638746Y-101583584D01*
X94645520Y-101597252D01*
X94651221Y-101609057D01*
X94656064Y-101619416D01*
X94660266Y-101628745D01*
X94664046Y-101637461D01*
X94667620Y-101645980D01*
X94671206Y-101654719D01*
X94675020Y-101664094D01*
X94679279Y-101674521D01*
X94679992Y-101676256D01*
X94689909Y-101700078D01*
X94698717Y-101720718D01*
X94705691Y-101736520D01*
X94710111Y-101745830D01*
X94711123Y-101747520D01*
X94714082Y-101744781D01*
X94719680Y-101734635D01*
X94727108Y-101718700D01*
X94735310Y-101699204D01*
X94746678Y-101671864D01*
X94760256Y-101640587D01*
X94773972Y-101610098D01*
X94781420Y-101594118D01*
X94786789Y-101583316D01*
X94796261Y-101564846D01*
X94809545Y-101539261D01*
X94826345Y-101507110D01*
X94846370Y-101468947D01*
X94869325Y-101425322D01*
X94894917Y-101376787D01*
X94922853Y-101323893D01*
X94952840Y-101267193D01*
X94984583Y-101207237D01*
X95017791Y-101144576D01*
X95052169Y-101079764D01*
X95087424Y-101013350D01*
X95123263Y-100945887D01*
X95159392Y-100877927D01*
X95195519Y-100810019D01*
X95231349Y-100742717D01*
X95266590Y-100676572D01*
X95300947Y-100612135D01*
X95334129Y-100549957D01*
X95365841Y-100490591D01*
X95395789Y-100434588D01*
X95423682Y-100382498D01*
X95449225Y-100334875D01*
X95472124Y-100292269D01*
X95492088Y-100255232D01*
X95508821Y-100224315D01*
X95522032Y-100200070D01*
X95531426Y-100183049D01*
X95536711Y-100173802D01*
X95537596Y-100172420D01*
X95548650Y-100160906D01*
X95563408Y-100149546D01*
X95568364Y-100146478D01*
X95588470Y-100134958D01*
X95797439Y-100133557D01*
X96006408Y-100132155D01*
X96006408Y-102519379D01*
G37*
G36*
X99828496Y-103517595D02*
G01*
X99860778Y-103519766D01*
X99887678Y-103523225D01*
X99900720Y-103526060D01*
X99927585Y-103534942D01*
X99956364Y-103547031D01*
X99985160Y-103561259D01*
X100012073Y-103576558D01*
X100035206Y-103591863D01*
X100052660Y-103606104D01*
X100061562Y-103616494D01*
X100062600Y-103622957D01*
X100059126Y-103633368D01*
X100050545Y-103649256D01*
X100045501Y-103657563D01*
X100030063Y-103681652D01*
X100017735Y-103698431D01*
X100007142Y-103709150D01*
X99996908Y-103715057D01*
X99985657Y-103717402D01*
X99979378Y-103717629D01*
X99957115Y-103714196D01*
X99933173Y-103704854D01*
X99884566Y-103683819D01*
X99837962Y-103670826D01*
X99794166Y-103666019D01*
X99753984Y-103669542D01*
X99746086Y-103671352D01*
X99713749Y-103682414D01*
X99690010Y-103697085D01*
X99674307Y-103715890D01*
X99666081Y-103739356D01*
X99664996Y-103747298D01*
X99664531Y-103765649D01*
X99667463Y-103781619D01*
X99674587Y-103795807D01*
X99686698Y-103808814D01*
X99704592Y-103821238D01*
X99729065Y-103833680D01*
X99760912Y-103846739D01*
X99800929Y-103861015D01*
X99827702Y-103869927D01*
X99880996Y-103888377D01*
X99925642Y-103906250D01*
X99962584Y-103924150D01*
X99992765Y-103942682D01*
X100017129Y-103962449D01*
X100036618Y-103984055D01*
X100052175Y-104008103D01*
X100056424Y-104016304D01*
X100062791Y-104029597D01*
X100067163Y-104040547D01*
X100069905Y-104051450D01*
X100071386Y-104064599D01*
X100071971Y-104082287D01*
X100072028Y-104106809D01*
X100072004Y-104113766D01*
X100071685Y-104141877D01*
X100070779Y-104162663D01*
X100069004Y-104178459D01*
X100066081Y-104191599D01*
X100061727Y-104204418D01*
X100060812Y-104206764D01*
X100037851Y-104252468D01*
X100007737Y-104291826D01*
X99970735Y-104324693D01*
X99927105Y-104350921D01*
X99877111Y-104370363D01*
X99821014Y-104382873D01*
X99759077Y-104388303D01*
X99736444Y-104388507D01*
X99712131Y-104388112D01*
X99690394Y-104387473D01*
X99673583Y-104386678D01*
X99664048Y-104385815D01*
X99663969Y-104385802D01*
X99626376Y-104377374D01*
X99586977Y-104365284D01*
X99548091Y-104350497D01*
X99512041Y-104333973D01*
X99481147Y-104316675D01*
X99459353Y-104300972D01*
X99440755Y-104285138D01*
X99468680Y-104238661D01*
X99481409Y-104218728D01*
X99493759Y-104201566D01*
X99504168Y-104189241D01*
X99509766Y-104184410D01*
X99528164Y-104177313D01*
X99548609Y-104177207D01*
X99572424Y-104184294D01*
X99600061Y-104198271D01*
X99632727Y-104216008D01*
X99661067Y-104228293D01*
X99688047Y-104236012D01*
X99716636Y-104240049D01*
X99744178Y-104241244D01*
X99766877Y-104241346D01*
X99782986Y-104240560D01*
X99795570Y-104238275D01*
X99807699Y-104233879D01*
X99822440Y-104226762D01*
X99825983Y-104224953D01*
X99851906Y-104208725D01*
X99869058Y-104190458D01*
X99878309Y-104168732D01*
X99880532Y-104142133D01*
X99880254Y-104136721D01*
X99877781Y-104119827D01*
X99872249Y-104105112D01*
X99862766Y-104091965D01*
X99848439Y-104079776D01*
X99828375Y-104067935D01*
X99801680Y-104055830D01*
X99767462Y-104042851D01*
X99724828Y-104028387D01*
X99719096Y-104026520D01*
X99689584Y-104016562D01*
X99659774Y-104005843D01*
X99632422Y-103995400D01*
X99610288Y-103986266D01*
X99602627Y-103982794D01*
X99559571Y-103957783D01*
X99524300Y-103927454D01*
X99497081Y-103892204D01*
X99478177Y-103852432D01*
X99467855Y-103808536D01*
X99465871Y-103777247D01*
X99470342Y-103727977D01*
X99483500Y-103682506D01*
X99504968Y-103641293D01*
X99534366Y-103604796D01*
X99571315Y-103573474D01*
X99615436Y-103547785D01*
X99666349Y-103528186D01*
X99673632Y-103526058D01*
X99695423Y-103521789D01*
X99724297Y-103518809D01*
X99757763Y-103517116D01*
X99793327Y-103516711D01*
X99828496Y-103517595D01*
G37*
G36*
X98195146Y-103538858D02*
G01*
X98417402Y-103538858D01*
X98417402Y-103683808D01*
X98194728Y-103683808D01*
X98196145Y-103926598D01*
X98196479Y-103981376D01*
X98196809Y-104027332D01*
X98197172Y-104065309D01*
X98197604Y-104096146D01*
X98198141Y-104120687D01*
X98198818Y-104139772D01*
X98199673Y-104154244D01*
X98200740Y-104164943D01*
X98202055Y-104172712D01*
X98203655Y-104178391D01*
X98205576Y-104182823D01*
X98207226Y-104185794D01*
X98224319Y-104206673D01*
X98245710Y-104219061D01*
X98270901Y-104222856D01*
X98299397Y-104217957D01*
X98321502Y-104209077D01*
X98337055Y-104201736D01*
X98349348Y-104197443D01*
X98359605Y-104196978D01*
X98369048Y-104201118D01*
X98378901Y-104210641D01*
X98390385Y-104226327D01*
X98404725Y-104248953D01*
X98417700Y-104270302D01*
X98443672Y-104313236D01*
X98427869Y-104326429D01*
X98409599Y-104339098D01*
X98385197Y-104352479D01*
X98357916Y-104364993D01*
X98331011Y-104375063D01*
X98321925Y-104377819D01*
X98300659Y-104382113D01*
X98273339Y-104385239D01*
X98242662Y-104387133D01*
X98211322Y-104387731D01*
X98182015Y-104386970D01*
X98157437Y-104384786D01*
X98143209Y-104382033D01*
X98108299Y-104369517D01*
X98078959Y-104352316D01*
X98052680Y-104329512D01*
X98027648Y-104298481D01*
X98008160Y-104262138D01*
X97997341Y-104229244D01*
X97996254Y-104219581D01*
X97995276Y-104200891D01*
X97994418Y-104173810D01*
X97993693Y-104138975D01*
X97993110Y-104097022D01*
X97992682Y-104048587D01*
X97992419Y-103994305D01*
X97992335Y-103945925D01*
X97992217Y-103683808D01*
X97939069Y-103683808D01*
X97915049Y-103683602D01*
X97898701Y-103682785D01*
X97888038Y-103681060D01*
X97881073Y-103678128D01*
X97876527Y-103674414D01*
X97868979Y-103663463D01*
X97864353Y-103647765D01*
X97862368Y-103625740D01*
X97862697Y-103596861D01*
X97864178Y-103560646D01*
X97898000Y-103554915D01*
X97921930Y-103550914D01*
X97948524Y-103546548D01*
X97966048Y-103543719D01*
X98000274Y-103538256D01*
X98020719Y-103423805D01*
X98026698Y-103390974D01*
X98032429Y-103360673D01*
X98037609Y-103334417D01*
X98041936Y-103313716D01*
X98045107Y-103300084D01*
X98046361Y-103295840D01*
X98052147Y-103285226D01*
X98061039Y-103277618D01*
X98074488Y-103272574D01*
X98093946Y-103269653D01*
X98120862Y-103268413D01*
X98136927Y-103268285D01*
X98195146Y-103268285D01*
X98195146Y-103538858D01*
G37*
G36*
X102130290Y-103174683D02*
G01*
X102176773Y-103180610D01*
X102220326Y-103190507D01*
X102263054Y-103204773D01*
X102307067Y-103223805D01*
X102318962Y-103229574D01*
X102343997Y-103242838D01*
X102369333Y-103257812D01*
X102393651Y-103273536D01*
X102415632Y-103289051D01*
X102433958Y-103303397D01*
X102447311Y-103315615D01*
X102454370Y-103324745D01*
X102454969Y-103328546D01*
X102450760Y-103335871D01*
X102441983Y-103348957D01*
X102430007Y-103365942D01*
X102416203Y-103384965D01*
X102401941Y-103404164D01*
X102388592Y-103421677D01*
X102377525Y-103435643D01*
X102370112Y-103444200D01*
X102369142Y-103445141D01*
X102354424Y-103453533D01*
X102336375Y-103454555D01*
X102314260Y-103448075D01*
X102287341Y-103433965D01*
X102280106Y-103429443D01*
X102258945Y-103416592D01*
X102236712Y-103404252D01*
X102217322Y-103394568D01*
X102212502Y-103392440D01*
X102157847Y-103374110D01*
X102101418Y-103363875D01*
X102044403Y-103361482D01*
X101987991Y-103366676D01*
X101933370Y-103379200D01*
X101881730Y-103398800D01*
X101834259Y-103425222D01*
X101792145Y-103458209D01*
X101763381Y-103488822D01*
X101728773Y-103538920D01*
X101702072Y-103594436D01*
X101683345Y-103655142D01*
X101672658Y-103720811D01*
X101670077Y-103791213D01*
X101670701Y-103809430D01*
X101677812Y-103877352D01*
X101692248Y-103939811D01*
X101713779Y-103996480D01*
X101742173Y-104047035D01*
X101777202Y-104091149D01*
X101818633Y-104128497D01*
X101866238Y-104158751D01*
X101919786Y-104181587D01*
X101937535Y-104187102D01*
X101955519Y-104191770D01*
X101972456Y-104194881D01*
X101991023Y-104196695D01*
X102013900Y-104197476D01*
X102043558Y-104197487D01*
X102095139Y-104195260D01*
X102139763Y-104189058D01*
X102179560Y-104178202D01*
X102216656Y-104162010D01*
X102253181Y-104139804D01*
X102275641Y-104123362D01*
X102298489Y-104106620D01*
X102316418Y-104096662D01*
X102331505Y-104093607D01*
X102345828Y-104097573D01*
X102361465Y-104108682D01*
X102380495Y-104127051D01*
X102382892Y-104129528D01*
X102399725Y-104147162D01*
X102416231Y-104164751D01*
X102429796Y-104179498D01*
X102434294Y-104184519D01*
X102451923Y-104204481D01*
X102429876Y-104229002D01*
X102385439Y-104271521D01*
X102333858Y-104308664D01*
X102276485Y-104339661D01*
X102214669Y-104363746D01*
X102172535Y-104375379D01*
X102146861Y-104379871D01*
X102113979Y-104383419D01*
X102076306Y-104385961D01*
X102036256Y-104387440D01*
X101996245Y-104387795D01*
X101958689Y-104386968D01*
X101926002Y-104384899D01*
X101903137Y-104381995D01*
X101830492Y-104364672D01*
X101763028Y-104339327D01*
X101701038Y-104306271D01*
X101644814Y-104265819D01*
X101594650Y-104218283D01*
X101550840Y-104163977D01*
X101513676Y-104103213D01*
X101483451Y-104036306D01*
X101460459Y-103963568D01*
X101446287Y-103893984D01*
X101442876Y-103862829D01*
X101440947Y-103825111D01*
X101440464Y-103783812D01*
X101441394Y-103741915D01*
X101443701Y-103702401D01*
X101447351Y-103668250D01*
X101449045Y-103657507D01*
X101466820Y-103582630D01*
X101492711Y-103512590D01*
X101526429Y-103447780D01*
X101567685Y-103388596D01*
X101616189Y-103335433D01*
X101671650Y-103288686D01*
X101733780Y-103248749D01*
X101758491Y-103235733D01*
X101808198Y-103213311D01*
X101856924Y-103196443D01*
X101907227Y-103184519D01*
X101961663Y-103176927D01*
X102020094Y-103173148D01*
X102078766Y-103172328D01*
X102130290Y-103174683D01*
G37*
G36*
X91376193Y-103911607D02*
G01*
X91379033Y-103872826D01*
X91383817Y-103840139D01*
X91384170Y-103838420D01*
X91400592Y-103780438D01*
X91424523Y-103725753D01*
X91455081Y-103676077D01*
X91488812Y-103635729D01*
X91532437Y-103597022D01*
X91580357Y-103566280D01*
X91633062Y-103543315D01*
X91691045Y-103527939D01*
X91754796Y-103519966D01*
X91795622Y-103518658D01*
X91861722Y-103522058D01*
X91921720Y-103532595D01*
X91976315Y-103550546D01*
X92026208Y-103576186D01*
X92072101Y-103609790D01*
X92103822Y-103639867D01*
X92124170Y-103662485D01*
X92140226Y-103683959D01*
X92154673Y-103708165D01*
X92164854Y-103727973D01*
X92181758Y-103764849D01*
X92194196Y-103798840D01*
X92202865Y-103832851D01*
X92208458Y-103869786D01*
X92211671Y-103912547D01*
X92212241Y-103926034D01*
X92212894Y-103975580D01*
X92210678Y-104018679D01*
X92205252Y-104058211D01*
X92196275Y-104097056D01*
X92189092Y-104121072D01*
X92165893Y-104178675D01*
X92135391Y-104230003D01*
X92097817Y-104274830D01*
X92053402Y-104312932D01*
X92002376Y-104344086D01*
X91944970Y-104368067D01*
X91929978Y-104372817D01*
X91911747Y-104377893D01*
X91894943Y-104381526D01*
X91877134Y-104384005D01*
X91855890Y-104385622D01*
X91828777Y-104386664D01*
X91810117Y-104387106D01*
X91781545Y-104387382D01*
X91754344Y-104387082D01*
X91730896Y-104386270D01*
X91713579Y-104385014D01*
X91708134Y-104384271D01*
X91646318Y-104368621D01*
X91589761Y-104345008D01*
X91538850Y-104313814D01*
X91493977Y-104275422D01*
X91455531Y-104230218D01*
X91423900Y-104178584D01*
X91399476Y-104120903D01*
X91384249Y-104065432D01*
X91379325Y-104033395D01*
X91376340Y-103995004D01*
X91375321Y-103954380D01*
X91588693Y-103954380D01*
X91591295Y-104015037D01*
X91599187Y-104067775D01*
X91612499Y-104112849D01*
X91631361Y-104150511D01*
X91655904Y-104181012D01*
X91686256Y-104204607D01*
X91722549Y-104221546D01*
X91726945Y-104223026D01*
X91747034Y-104227024D01*
X91773425Y-104228767D01*
X91803058Y-104228394D01*
X91832874Y-104226046D01*
X91859813Y-104221861D01*
X91880668Y-104216035D01*
X91907915Y-104201172D01*
X91933800Y-104179424D01*
X91955467Y-104153450D01*
X91964987Y-104137475D01*
X91977103Y-104110987D01*
X91986098Y-104084624D01*
X91992348Y-104056322D01*
X91996231Y-104024013D01*
X91998125Y-103985634D01*
X91998471Y-103954380D01*
X91998318Y-103921938D01*
X91997736Y-103897066D01*
X91996539Y-103877670D01*
X91994539Y-103861660D01*
X91991550Y-103846945D01*
X91987558Y-103832027D01*
X91973262Y-103790158D01*
X91956628Y-103756641D01*
X91936812Y-103730283D01*
X91912968Y-103709888D01*
X91892907Y-103698263D01*
X91854633Y-103683877D01*
X91814397Y-103676725D01*
X91773917Y-103676582D01*
X91734914Y-103683225D01*
X91699106Y-103696430D01*
X91668214Y-103715974D01*
X91653908Y-103729378D01*
X91630421Y-103760283D01*
X91612389Y-103796474D01*
X91599584Y-103838738D01*
X91591781Y-103887856D01*
X91588750Y-103944612D01*
X91588693Y-103954380D01*
X91375321Y-103954380D01*
X91375296Y-103953370D01*
X91376193Y-103911607D01*
G37*
G36*
X91247025Y-103158801D02*
G01*
X91275922Y-103161262D01*
X91290714Y-103163663D01*
X91317288Y-103169236D01*
X91318648Y-103222879D01*
X91318814Y-103253226D01*
X91317325Y-103275369D01*
X91313853Y-103290679D01*
X91308069Y-103300525D01*
X91299645Y-103306276D01*
X91298552Y-103306714D01*
X91288902Y-103309029D01*
X91272291Y-103311696D01*
X91251392Y-103314323D01*
X91236862Y-103315813D01*
X91202692Y-103320047D01*
X91176274Y-103326011D01*
X91155749Y-103334406D01*
X91139260Y-103345938D01*
X91128635Y-103356821D01*
X91115782Y-103374985D01*
X91106318Y-103396278D01*
X91099744Y-103422472D01*
X91095558Y-103455337D01*
X91093951Y-103479670D01*
X91091269Y-103534026D01*
X91314873Y-103534026D01*
X91314873Y-103678976D01*
X91102344Y-103678976D01*
X91099864Y-104372318D01*
X90997191Y-104373622D01*
X90894519Y-104374926D01*
X90894519Y-103690195D01*
X90852242Y-103683986D01*
X90821968Y-103678842D01*
X90800024Y-103672649D01*
X90785088Y-103663890D01*
X90775836Y-103651051D01*
X90770947Y-103632617D01*
X90769097Y-103607073D01*
X90768896Y-103588515D01*
X90768896Y-103534026D01*
X90894519Y-103534026D01*
X90894603Y-103477254D01*
X90896191Y-103431867D01*
X90901209Y-103392804D01*
X90910253Y-103357151D01*
X90923918Y-103321993D01*
X90928315Y-103312546D01*
X90953713Y-103270514D01*
X90986531Y-103234099D01*
X91025892Y-103203964D01*
X91070919Y-103180774D01*
X91120732Y-103165193D01*
X91124022Y-103164478D01*
X91149224Y-103160763D01*
X91180346Y-103158568D01*
X91214056Y-103157908D01*
X91247025Y-103158801D01*
G37*
G36*
X103011557Y-104114236D02*
G01*
X103014763Y-104100693D01*
X103027890Y-104069689D01*
X103048041Y-104038602D01*
X103073070Y-104010405D01*
X103091072Y-103994934D01*
X103139484Y-103963947D01*
X103195674Y-103938391D01*
X103259380Y-103918342D01*
X103330337Y-103903878D01*
X103408280Y-103895074D01*
X103443530Y-103893063D01*
X103514796Y-103890102D01*
X103514701Y-103863053D01*
X103513888Y-103843234D01*
X103511883Y-103819782D01*
X103509792Y-103802704D01*
X103501026Y-103762966D01*
X103487116Y-103731277D01*
X103467612Y-103707237D01*
X103442059Y-103690447D01*
X103410007Y-103680509D01*
X103371002Y-103677022D01*
X103367431Y-103677010D01*
X103343472Y-103677757D01*
X103322061Y-103680296D01*
X103301099Y-103685273D01*
X103278486Y-103693329D01*
X103252123Y-103705109D01*
X103219908Y-103721257D01*
X103215363Y-103723615D01*
X103191772Y-103735678D01*
X103174653Y-103743711D01*
X103162041Y-103748396D01*
X103151968Y-103750410D01*
X103142467Y-103750432D01*
X103138713Y-103750073D01*
X103121998Y-103746627D01*
X103107853Y-103739526D01*
X103094654Y-103727357D01*
X103080779Y-103708705D01*
X103068592Y-103689001D01*
X103045157Y-103649224D01*
X103056513Y-103637072D01*
X103069029Y-103625954D01*
X103087859Y-103611976D01*
X103110690Y-103596632D01*
X103135211Y-103581416D01*
X103159109Y-103567823D01*
X103179477Y-103557616D01*
X103223417Y-103540902D01*
X103271613Y-103528175D01*
X103322125Y-103519558D01*
X103373015Y-103515178D01*
X103422343Y-103515158D01*
X103468170Y-103519624D01*
X103508556Y-103528699D01*
X103526745Y-103535274D01*
X103574901Y-103559957D01*
X103615581Y-103590418D01*
X103649298Y-103627216D01*
X103676567Y-103670907D01*
X103697222Y-103720045D01*
X103710447Y-103758698D01*
X103711871Y-104069132D01*
X103713294Y-104379566D01*
X103665986Y-104379355D01*
X103630787Y-104378401D01*
X103603959Y-104375746D01*
X103584320Y-104371170D01*
X103570693Y-104364451D01*
X103566217Y-104360678D01*
X103559637Y-104351103D01*
X103551894Y-104335446D01*
X103544545Y-104316896D01*
X103543786Y-104314693D01*
X103531707Y-104279039D01*
X103491413Y-104309417D01*
X103448275Y-104338360D01*
X103404003Y-104361404D01*
X103360866Y-104377440D01*
X103342887Y-104381978D01*
X103321193Y-104385202D01*
X103293500Y-104387359D01*
X103262896Y-104388405D01*
X103232472Y-104388295D01*
X103205315Y-104386984D01*
X103184517Y-104384426D01*
X103183828Y-104384291D01*
X103139170Y-104370929D01*
X103099701Y-104350161D01*
X103066215Y-104322671D01*
X103039503Y-104289144D01*
X103020358Y-104250263D01*
X103017027Y-104240373D01*
X103010834Y-104211729D01*
X103007817Y-104178600D01*
X103007985Y-104152871D01*
X103204297Y-104152871D01*
X103208173Y-104183106D01*
X103219393Y-104207320D01*
X103238258Y-104225869D01*
X103265070Y-104239106D01*
X103281594Y-104243854D01*
X103301440Y-104247458D01*
X103321099Y-104248304D01*
X103344263Y-104246405D01*
X103360184Y-104244141D01*
X103395494Y-104234929D01*
X103432137Y-104218836D01*
X103466842Y-104197482D01*
X103487014Y-104181367D01*
X103514796Y-104156537D01*
X103514796Y-104089128D01*
X103514630Y-104061571D01*
X103514033Y-104042238D01*
X103512855Y-104029693D01*
X103510946Y-104022500D01*
X103508158Y-104019225D01*
X103507495Y-104018918D01*
X103498673Y-104017954D01*
X103482327Y-104018289D01*
X103460479Y-104019716D01*
X103435151Y-104022029D01*
X103408364Y-104025020D01*
X103382140Y-104028482D01*
X103358500Y-104032208D01*
X103339466Y-104035992D01*
X103338420Y-104036239D01*
X103301508Y-104046428D01*
X103272433Y-104057717D01*
X103249372Y-104070899D01*
X103237440Y-104080244D01*
X103218664Y-104100371D01*
X103208075Y-104121756D01*
X103204342Y-104147319D01*
X103204297Y-104152871D01*
X103007985Y-104152871D01*
X103008037Y-104144824D01*
X103011557Y-104114236D01*
G37*
G36*
X92836432Y-103511524D02*
G01*
X92870695Y-103517764D01*
X92897507Y-103529632D01*
X92905738Y-103535658D01*
X92918164Y-103546105D01*
X92904837Y-103618580D01*
X92899927Y-103644741D01*
X92895334Y-103668245D01*
X92891458Y-103687109D01*
X92888700Y-103699352D01*
X92887921Y-103702203D01*
X92882371Y-103711971D01*
X92872509Y-103717622D01*
X92857024Y-103719379D01*
X92834604Y-103717466D01*
X92816094Y-103714433D01*
X92792098Y-103710506D01*
X92773629Y-103708902D01*
X92756865Y-103709500D01*
X92738971Y-103712011D01*
X92699400Y-103722979D01*
X92664346Y-103741774D01*
X92633186Y-103768858D01*
X92605295Y-103804692D01*
X92597965Y-103816394D01*
X92580766Y-103845099D01*
X92580766Y-104374734D01*
X92373005Y-104374734D01*
X92373005Y-103529195D01*
X92448213Y-103529195D01*
X92475719Y-103529508D01*
X92499768Y-103530378D01*
X92518556Y-103531698D01*
X92530276Y-103533362D01*
X92532717Y-103534170D01*
X92541965Y-103541865D01*
X92549274Y-103554713D01*
X92555096Y-103573999D01*
X92559880Y-103601013D01*
X92562020Y-103617783D01*
X92564695Y-103638733D01*
X92567302Y-103655582D01*
X92569507Y-103666365D01*
X92570764Y-103669304D01*
X92574619Y-103665549D01*
X92581684Y-103655865D01*
X92587892Y-103646354D01*
X92608006Y-103619103D01*
X92633810Y-103591270D01*
X92662635Y-103565313D01*
X92691811Y-103543688D01*
X92712396Y-103531752D01*
X92731905Y-103522619D01*
X92747915Y-103516860D01*
X92764305Y-103513502D01*
X92784956Y-103511570D01*
X92795066Y-103510989D01*
X92836432Y-103511524D01*
G37*
G36*
X93604511Y-103194603D02*
G01*
X93608886Y-103200821D01*
X93617350Y-103214825D01*
X93629490Y-103235851D01*
X93644897Y-103263132D01*
X93663156Y-103295905D01*
X93683858Y-103333405D01*
X93706591Y-103374865D01*
X93730942Y-103419521D01*
X93756500Y-103466608D01*
X93782854Y-103515361D01*
X93809592Y-103565014D01*
X93836303Y-103614803D01*
X93862574Y-103663963D01*
X93887994Y-103711728D01*
X93912151Y-103757334D01*
X93934635Y-103800015D01*
X93955032Y-103839007D01*
X93972933Y-103873543D01*
X93987924Y-103902860D01*
X93999594Y-103926192D01*
X94007532Y-103942774D01*
X94009816Y-103947923D01*
X94018081Y-103967027D01*
X94023628Y-103978300D01*
X94027305Y-103982895D01*
X94029960Y-103981963D01*
X94031942Y-103977951D01*
X94038052Y-103963968D01*
X94048057Y-103942875D01*
X94061556Y-103915429D01*
X94078149Y-103882385D01*
X94097435Y-103844500D01*
X94119013Y-103802528D01*
X94142483Y-103757225D01*
X94167443Y-103709348D01*
X94193494Y-103659651D01*
X94220235Y-103608891D01*
X94247264Y-103557823D01*
X94274181Y-103507203D01*
X94300586Y-103457786D01*
X94326077Y-103410329D01*
X94350254Y-103365587D01*
X94372717Y-103324315D01*
X94393065Y-103287270D01*
X94410896Y-103255207D01*
X94425811Y-103228881D01*
X94437408Y-103209049D01*
X94445287Y-103196467D01*
X94448576Y-103192187D01*
X94452915Y-103188636D01*
X94457752Y-103185956D01*
X94464419Y-103184025D01*
X94474249Y-103182721D01*
X94488578Y-103181920D01*
X94508737Y-103181501D01*
X94536060Y-103181340D01*
X94566844Y-103181316D01*
X94672871Y-103181316D01*
X94672871Y-104374734D01*
X94474290Y-104374734D01*
X94475740Y-103947372D01*
X94475922Y-103884122D01*
X94476035Y-103823773D01*
X94476080Y-103767005D01*
X94476060Y-103714498D01*
X94475976Y-103666934D01*
X94475832Y-103624993D01*
X94475629Y-103589355D01*
X94475369Y-103560700D01*
X94475056Y-103539710D01*
X94474691Y-103527065D01*
X94474304Y-103523394D01*
X94471631Y-103528104D01*
X94464788Y-103540688D01*
X94454128Y-103560486D01*
X94440006Y-103586833D01*
X94422776Y-103619066D01*
X94402791Y-103656523D01*
X94380405Y-103698540D01*
X94355973Y-103744454D01*
X94329849Y-103793603D01*
X94302387Y-103845323D01*
X94298358Y-103852915D01*
X94270490Y-103905353D01*
X94243705Y-103955599D01*
X94218379Y-104002955D01*
X94194890Y-104046724D01*
X94173616Y-104086206D01*
X94154933Y-104120703D01*
X94139219Y-104149516D01*
X94126851Y-104171948D01*
X94118207Y-104187300D01*
X94113664Y-104194874D01*
X94113457Y-104195166D01*
X94100164Y-104210682D01*
X94085847Y-104220924D01*
X94068136Y-104226850D01*
X94044660Y-104229419D01*
X94027846Y-104229748D01*
X94000081Y-104228668D01*
X93979412Y-104224783D01*
X93963447Y-104217130D01*
X93949796Y-104204744D01*
X93942111Y-104195166D01*
X93937957Y-104188410D01*
X93929623Y-104173823D01*
X93917485Y-104152094D01*
X93901921Y-104123914D01*
X93883308Y-104089972D01*
X93862023Y-104050958D01*
X93838443Y-104007563D01*
X93812945Y-103960475D01*
X93785907Y-103910385D01*
X93757704Y-103857983D01*
X93752386Y-103848084D01*
X93724310Y-103795812D01*
X93697587Y-103746060D01*
X93672565Y-103699477D01*
X93649592Y-103656711D01*
X93629017Y-103618411D01*
X93611188Y-103585225D01*
X93596454Y-103557802D01*
X93585162Y-103536789D01*
X93577661Y-103522835D01*
X93574299Y-103516588D01*
X93574147Y-103516308D01*
X93574092Y-103520904D01*
X93574070Y-103534479D01*
X93574080Y-103556348D01*
X93574119Y-103585829D01*
X93574187Y-103622235D01*
X93574282Y-103664883D01*
X93574402Y-103713089D01*
X93574546Y-103766168D01*
X93574712Y-103823436D01*
X93574899Y-103884209D01*
X93575097Y-103945117D01*
X93576523Y-104374734D01*
X93377988Y-104374734D01*
X93377988Y-103181316D01*
X93590429Y-103181316D01*
X93604511Y-103194603D01*
G37*
G36*
X97488890Y-103515831D02*
G01*
X97519680Y-103519588D01*
X97547808Y-103526755D01*
X97576667Y-103538033D01*
X97586358Y-103542504D01*
X97625901Y-103566557D01*
X97660553Y-103598584D01*
X97689832Y-103637957D01*
X97713255Y-103684051D01*
X97727591Y-103725841D01*
X97729724Y-103733762D01*
X97731554Y-103741595D01*
X97733108Y-103750131D01*
X97734415Y-103760163D01*
X97735503Y-103772482D01*
X97736400Y-103787878D01*
X97737135Y-103807145D01*
X97737735Y-103831073D01*
X97738229Y-103860454D01*
X97738646Y-103896080D01*
X97739013Y-103938741D01*
X97739358Y-103989230D01*
X97739710Y-104048339D01*
X97739828Y-104069132D01*
X97741558Y-104374734D01*
X97533562Y-104374734D01*
X97532007Y-104078795D01*
X97531676Y-104016125D01*
X97531349Y-103962340D01*
X97530960Y-103916661D01*
X97530447Y-103878308D01*
X97529745Y-103846503D01*
X97528790Y-103820468D01*
X97527519Y-103799424D01*
X97525867Y-103782592D01*
X97523771Y-103769193D01*
X97521166Y-103758449D01*
X97517989Y-103749580D01*
X97514175Y-103741809D01*
X97509661Y-103734357D01*
X97504383Y-103726444D01*
X97502882Y-103724222D01*
X97484739Y-103702967D01*
X97462617Y-103688163D01*
X97434977Y-103679086D01*
X97400281Y-103675013D01*
X97398011Y-103674914D01*
X97359585Y-103676225D01*
X97324083Y-103683859D01*
X97289689Y-103698522D01*
X97254587Y-103720924D01*
X97230024Y-103740399D01*
X97204658Y-103761861D01*
X97204658Y-104374734D01*
X96996897Y-104374734D01*
X96996897Y-103529195D01*
X97069144Y-103529195D01*
X97098719Y-103529568D01*
X97123557Y-103530622D01*
X97142070Y-103532253D01*
X97152674Y-103534360D01*
X97153243Y-103534595D01*
X97166423Y-103545734D01*
X97177008Y-103566009D01*
X97185050Y-103595517D01*
X97185479Y-103597723D01*
X97190714Y-103625183D01*
X97228840Y-103594402D01*
X97274413Y-103561996D01*
X97320442Y-103538527D01*
X97368705Y-103523362D01*
X97420982Y-103515867D01*
X97452042Y-103514784D01*
X97488890Y-103515831D01*
G37*
G36*
X96719756Y-103160376D02*
G01*
X96749332Y-103176460D01*
X96751465Y-103178052D01*
X96776784Y-103202659D01*
X96793455Y-103231471D01*
X96801769Y-103265027D01*
X96802443Y-103272202D01*
X96803104Y-103293844D01*
X96801047Y-103310286D01*
X96795721Y-103325743D01*
X96795322Y-103326650D01*
X96776795Y-103358627D01*
X96753147Y-103382432D01*
X96724125Y-103398237D01*
X96689479Y-103406215D01*
X96678572Y-103407078D01*
X96657512Y-103407575D01*
X96642132Y-103406140D01*
X96628540Y-103402148D01*
X96617612Y-103397311D01*
X96588417Y-103378847D01*
X96564984Y-103354944D01*
X96551901Y-103333513D01*
X96545146Y-103310803D01*
X96542628Y-103283647D01*
X96544329Y-103256093D01*
X96550233Y-103232191D01*
X96552359Y-103227270D01*
X96571137Y-103198627D01*
X96595677Y-103176460D01*
X96624393Y-103161160D01*
X96655702Y-103153118D01*
X96688017Y-103152726D01*
X96719756Y-103160376D01*
G37*
G36*
X104945217Y-103517595D02*
G01*
X104977498Y-103519766D01*
X105004399Y-103523225D01*
X105017441Y-103526060D01*
X105044306Y-103534942D01*
X105073085Y-103547031D01*
X105101880Y-103561259D01*
X105128793Y-103576558D01*
X105151926Y-103591863D01*
X105169381Y-103606104D01*
X105178283Y-103616494D01*
X105179320Y-103622957D01*
X105175847Y-103633368D01*
X105167266Y-103649256D01*
X105162221Y-103657563D01*
X105146784Y-103681652D01*
X105134456Y-103698431D01*
X105123863Y-103709150D01*
X105113628Y-103715057D01*
X105102377Y-103717402D01*
X105096098Y-103717629D01*
X105073835Y-103714196D01*
X105049894Y-103704854D01*
X105001287Y-103683819D01*
X104954683Y-103670826D01*
X104910887Y-103666019D01*
X104870705Y-103669542D01*
X104862807Y-103671352D01*
X104830470Y-103682414D01*
X104806730Y-103697085D01*
X104791028Y-103715890D01*
X104782802Y-103739356D01*
X104781716Y-103747298D01*
X104781252Y-103765649D01*
X104784184Y-103781619D01*
X104791308Y-103795807D01*
X104803419Y-103808814D01*
X104821313Y-103821238D01*
X104845785Y-103833680D01*
X104877633Y-103846739D01*
X104917650Y-103861015D01*
X104944422Y-103869927D01*
X104997716Y-103888377D01*
X105042363Y-103906250D01*
X105079305Y-103924150D01*
X105109486Y-103942682D01*
X105133849Y-103962449D01*
X105153338Y-103984055D01*
X105168896Y-104008103D01*
X105173145Y-104016304D01*
X105179512Y-104029597D01*
X105183883Y-104040547D01*
X105186626Y-104051450D01*
X105188107Y-104064599D01*
X105188692Y-104082287D01*
X105188749Y-104106809D01*
X105188725Y-104113766D01*
X105188406Y-104141877D01*
X105187499Y-104162663D01*
X105185725Y-104178459D01*
X105182801Y-104191599D01*
X105178448Y-104204418D01*
X105177533Y-104206764D01*
X105154571Y-104252468D01*
X105124458Y-104291826D01*
X105087455Y-104324693D01*
X105043826Y-104350921D01*
X104993831Y-104370363D01*
X104937735Y-104382873D01*
X104875798Y-104388303D01*
X104853164Y-104388507D01*
X104828852Y-104388112D01*
X104807115Y-104387473D01*
X104790303Y-104386678D01*
X104780768Y-104385815D01*
X104780690Y-104385802D01*
X104743097Y-104377374D01*
X104703697Y-104365284D01*
X104664812Y-104350497D01*
X104628762Y-104333973D01*
X104597868Y-104316675D01*
X104576073Y-104300972D01*
X104557476Y-104285138D01*
X104585401Y-104238661D01*
X104598129Y-104218728D01*
X104610480Y-104201566D01*
X104620889Y-104189241D01*
X104626487Y-104184410D01*
X104644885Y-104177313D01*
X104665330Y-104177207D01*
X104689144Y-104184294D01*
X104716781Y-104198271D01*
X104749448Y-104216008D01*
X104777787Y-104228293D01*
X104804767Y-104236012D01*
X104833356Y-104240049D01*
X104860898Y-104241244D01*
X104883598Y-104241346D01*
X104899706Y-104240560D01*
X104912291Y-104238275D01*
X104924420Y-104233879D01*
X104939160Y-104226762D01*
X104942703Y-104224953D01*
X104968627Y-104208725D01*
X104985778Y-104190458D01*
X104995030Y-104168732D01*
X104997253Y-104142133D01*
X104996974Y-104136721D01*
X104994501Y-104119827D01*
X104988970Y-104105112D01*
X104979487Y-104091965D01*
X104965160Y-104079776D01*
X104945096Y-104067935D01*
X104918401Y-104055830D01*
X104884183Y-104042851D01*
X104841548Y-104028387D01*
X104835816Y-104026520D01*
X104806305Y-104016562D01*
X104776494Y-104005843D01*
X104749143Y-103995400D01*
X104727008Y-103986266D01*
X104719348Y-103982794D01*
X104676292Y-103957783D01*
X104641021Y-103927454D01*
X104613801Y-103892204D01*
X104594898Y-103852432D01*
X104584575Y-103808536D01*
X104582592Y-103777247D01*
X104587062Y-103727977D01*
X104600221Y-103682506D01*
X104621689Y-103641293D01*
X104651086Y-103604796D01*
X104688035Y-103573474D01*
X104732156Y-103547785D01*
X104783070Y-103528186D01*
X104790353Y-103526058D01*
X104812143Y-103521789D01*
X104841018Y-103518809D01*
X104874484Y-103517116D01*
X104910048Y-103516711D01*
X104945217Y-103517595D01*
G37*
G36*
X102823870Y-104374734D02*
G01*
X102616109Y-104374734D01*
X102616109Y-103147494D01*
X102823870Y-103147494D01*
X102823870Y-104374734D01*
G37*
G36*
X100443027Y-103379432D02*
G01*
X100444281Y-103611370D01*
X100478103Y-103585985D01*
X100522018Y-103556634D01*
X100565230Y-103535671D01*
X100610070Y-103522310D01*
X100658869Y-103515765D01*
X100689250Y-103514784D01*
X100726098Y-103515831D01*
X100756888Y-103519588D01*
X100785015Y-103526755D01*
X100813874Y-103538033D01*
X100823566Y-103542504D01*
X100863109Y-103566557D01*
X100897761Y-103598584D01*
X100927039Y-103637957D01*
X100950462Y-103684051D01*
X100964799Y-103725841D01*
X100966932Y-103733762D01*
X100968761Y-103741595D01*
X100970315Y-103750131D01*
X100971622Y-103760163D01*
X100972710Y-103772482D01*
X100973608Y-103787878D01*
X100974342Y-103807145D01*
X100974943Y-103831073D01*
X100975437Y-103860454D01*
X100975853Y-103896080D01*
X100976220Y-103938741D01*
X100976566Y-103989230D01*
X100976918Y-104048339D01*
X100977036Y-104069132D01*
X100978765Y-104374734D01*
X100770769Y-104374734D01*
X100769215Y-104078795D01*
X100768884Y-104016125D01*
X100768556Y-103962340D01*
X100768168Y-103916661D01*
X100767654Y-103878308D01*
X100766952Y-103846503D01*
X100765998Y-103820468D01*
X100764727Y-103799424D01*
X100763075Y-103782592D01*
X100760979Y-103769193D01*
X100758374Y-103758449D01*
X100755196Y-103749580D01*
X100751383Y-103741809D01*
X100746869Y-103734357D01*
X100741590Y-103726444D01*
X100740090Y-103724222D01*
X100721947Y-103702967D01*
X100699824Y-103688163D01*
X100672185Y-103679086D01*
X100637489Y-103675013D01*
X100635219Y-103674914D01*
X100596793Y-103676225D01*
X100561291Y-103683859D01*
X100526897Y-103698522D01*
X100491794Y-103720924D01*
X100467231Y-103740399D01*
X100441865Y-103761861D01*
X100441865Y-104374734D01*
X100234104Y-104374734D01*
X100234104Y-103147494D01*
X100441772Y-103147494D01*
X100443027Y-103379432D01*
G37*
G36*
X98522208Y-103911607D02*
G01*
X98525048Y-103872826D01*
X98529832Y-103840139D01*
X98530184Y-103838420D01*
X98546607Y-103780438D01*
X98570538Y-103725753D01*
X98601095Y-103676077D01*
X98634827Y-103635729D01*
X98678452Y-103597022D01*
X98726371Y-103566280D01*
X98779077Y-103543315D01*
X98837060Y-103527939D01*
X98900811Y-103519966D01*
X98941637Y-103518658D01*
X99007737Y-103522058D01*
X99067734Y-103532595D01*
X99122329Y-103550546D01*
X99172223Y-103576186D01*
X99218116Y-103609790D01*
X99249837Y-103639867D01*
X99270185Y-103662485D01*
X99286240Y-103683959D01*
X99300688Y-103708165D01*
X99310869Y-103727973D01*
X99327772Y-103764849D01*
X99340211Y-103798840D01*
X99348880Y-103832851D01*
X99354473Y-103869786D01*
X99357686Y-103912547D01*
X99358256Y-103926034D01*
X99358908Y-103975580D01*
X99356693Y-104018679D01*
X99351267Y-104058211D01*
X99342290Y-104097056D01*
X99335107Y-104121072D01*
X99311908Y-104178675D01*
X99281406Y-104230003D01*
X99243832Y-104274830D01*
X99199416Y-104312932D01*
X99148390Y-104344086D01*
X99090985Y-104368067D01*
X99075993Y-104372817D01*
X99057762Y-104377893D01*
X99040958Y-104381526D01*
X99023149Y-104384005D01*
X99001904Y-104385622D01*
X98974791Y-104386664D01*
X98956132Y-104387106D01*
X98927559Y-104387382D01*
X98900359Y-104387082D01*
X98876911Y-104386270D01*
X98859594Y-104385014D01*
X98854148Y-104384271D01*
X98792333Y-104368621D01*
X98735775Y-104345008D01*
X98684865Y-104313814D01*
X98639992Y-104275422D01*
X98601546Y-104230218D01*
X98569915Y-104178584D01*
X98545491Y-104120903D01*
X98530264Y-104065432D01*
X98525340Y-104033395D01*
X98522355Y-103995004D01*
X98521336Y-103954380D01*
X98734708Y-103954380D01*
X98737310Y-104015037D01*
X98745202Y-104067775D01*
X98758514Y-104112849D01*
X98777376Y-104150511D01*
X98801918Y-104181012D01*
X98832271Y-104204607D01*
X98868564Y-104221546D01*
X98872960Y-104223026D01*
X98893049Y-104227024D01*
X98919440Y-104228767D01*
X98949073Y-104228394D01*
X98978889Y-104226046D01*
X99005828Y-104221861D01*
X99026683Y-104216035D01*
X99053930Y-104201172D01*
X99079815Y-104179424D01*
X99101482Y-104153450D01*
X99111002Y-104137475D01*
X99123118Y-104110987D01*
X99132113Y-104084624D01*
X99138362Y-104056322D01*
X99142246Y-104024013D01*
X99144140Y-103985634D01*
X99144485Y-103954380D01*
X99144333Y-103921938D01*
X99143751Y-103897066D01*
X99142554Y-103877670D01*
X99140554Y-103861660D01*
X99137565Y-103846945D01*
X99133572Y-103832027D01*
X99119276Y-103790158D01*
X99102643Y-103756641D01*
X99082827Y-103730283D01*
X99058983Y-103709888D01*
X99038922Y-103698263D01*
X99000648Y-103683877D01*
X98960411Y-103676725D01*
X98919932Y-103676582D01*
X98880929Y-103683225D01*
X98845121Y-103696430D01*
X98814229Y-103715974D01*
X98799923Y-103729378D01*
X98776436Y-103760283D01*
X98758404Y-103796474D01*
X98745599Y-103838738D01*
X98737795Y-103887856D01*
X98734765Y-103944612D01*
X98734708Y-103954380D01*
X98521336Y-103954380D01*
X98521311Y-103953370D01*
X98522208Y-103911607D01*
G37*
G36*
X105577912Y-104374734D02*
G01*
X105370151Y-104374734D01*
X105370151Y-103529195D01*
X105577912Y-103529195D01*
X105577912Y-104374734D01*
G37*
G36*
X96175122Y-103516497D02*
G01*
X96204505Y-103519845D01*
X96256913Y-103532623D01*
X96308090Y-103553290D01*
X96355500Y-103580628D01*
X96393595Y-103610611D01*
X96418988Y-103633959D01*
X96393254Y-103669754D01*
X96375904Y-103693501D01*
X96362627Y-103710370D01*
X96352123Y-103721513D01*
X96343088Y-103728084D01*
X96334220Y-103731234D01*
X96324219Y-103732116D01*
X96322802Y-103732124D01*
X96308732Y-103730402D01*
X96292310Y-103724660D01*
X96271226Y-103714030D01*
X96264518Y-103710257D01*
X96233433Y-103693869D01*
X96206164Y-103683045D01*
X96179384Y-103676846D01*
X96149766Y-103674330D01*
X96136862Y-103674144D01*
X96090325Y-103677889D01*
X96049561Y-103689184D01*
X96014488Y-103708116D01*
X95985019Y-103734775D01*
X95961072Y-103769248D01*
X95942562Y-103811624D01*
X95929405Y-103861991D01*
X95923870Y-103897505D01*
X95920395Y-103953066D01*
X95923436Y-104006570D01*
X95932664Y-104056811D01*
X95947751Y-104102581D01*
X95968371Y-104142674D01*
X95994194Y-104175883D01*
X96001354Y-104182903D01*
X96026841Y-104203425D01*
X96052968Y-104217494D01*
X96081981Y-104225838D01*
X96116123Y-104229185D01*
X96143318Y-104228982D01*
X96167651Y-104227697D01*
X96185606Y-104225558D01*
X96200466Y-104221878D01*
X96215515Y-104215968D01*
X96223832Y-104212108D01*
X96244890Y-104200881D01*
X96267043Y-104187281D01*
X96281477Y-104177205D01*
X96306346Y-104162251D01*
X96329441Y-104156597D01*
X96351200Y-104160136D01*
X96351308Y-104160178D01*
X96357162Y-104164960D01*
X96367378Y-104175761D01*
X96380455Y-104190919D01*
X96393229Y-104206656D01*
X96427676Y-104250266D01*
X96404269Y-104274296D01*
X96362152Y-104310837D01*
X96313291Y-104341320D01*
X96259021Y-104364987D01*
X96226248Y-104375121D01*
X96200979Y-104380217D01*
X96169552Y-104384113D01*
X96134545Y-104386725D01*
X96098536Y-104387966D01*
X96064103Y-104387753D01*
X96033825Y-104385999D01*
X96010280Y-104382621D01*
X96008823Y-104382292D01*
X95951374Y-104364167D01*
X95899197Y-104338043D01*
X95852545Y-104304179D01*
X95811670Y-104262831D01*
X95776824Y-104214259D01*
X95748260Y-104158719D01*
X95726230Y-104096470D01*
X95724999Y-104092082D01*
X95719999Y-104067555D01*
X95716174Y-104035894D01*
X95713588Y-103999566D01*
X95712304Y-103961037D01*
X95712389Y-103922773D01*
X95713904Y-103887240D01*
X95716915Y-103856905D01*
X95718604Y-103846507D01*
X95734476Y-103783354D01*
X95757457Y-103726097D01*
X95788102Y-103673531D01*
X95814054Y-103639307D01*
X95845148Y-103608252D01*
X95883586Y-103579873D01*
X95927152Y-103555425D01*
X95973633Y-103536161D01*
X96017827Y-103523937D01*
X96052706Y-103518658D01*
X96093119Y-103515603D01*
X96135210Y-103514854D01*
X96175122Y-103516497D01*
G37*
G36*
X99737652Y-100133705D02*
G01*
X99815227Y-100134007D01*
X99883794Y-100134314D01*
X99944008Y-100134637D01*
X99996524Y-100134991D01*
X100041996Y-100135388D01*
X100081080Y-100135842D01*
X100114432Y-100136366D01*
X100142705Y-100136972D01*
X100166555Y-100137675D01*
X100186637Y-100138487D01*
X100203607Y-100139420D01*
X100218118Y-100140489D01*
X100230826Y-100141707D01*
X100242387Y-100143086D01*
X100248599Y-100143933D01*
X100346145Y-100160833D01*
X100435609Y-100182773D01*
X100517209Y-100209842D01*
X100591163Y-100242132D01*
X100657690Y-100279734D01*
X100717007Y-100322739D01*
X100752080Y-100353902D01*
X100795990Y-100399882D01*
X100832403Y-100446586D01*
X100862281Y-100495787D01*
X100886588Y-100549256D01*
X100906287Y-100608768D01*
X100919310Y-100661609D01*
X100923702Y-100682825D01*
X100926937Y-100701435D01*
X100929186Y-100719587D01*
X100930619Y-100739431D01*
X100931406Y-100763114D01*
X100931716Y-100792786D01*
X100931741Y-100818637D01*
X100931542Y-100855143D01*
X100930937Y-100884047D01*
X100929779Y-100907408D01*
X100927919Y-100927284D01*
X100925209Y-100945734D01*
X100921500Y-100964815D01*
X100921052Y-100966913D01*
X100899141Y-101047438D01*
X100869201Y-101122605D01*
X100831297Y-101192328D01*
X100785496Y-101256526D01*
X100731863Y-101315113D01*
X100670465Y-101368007D01*
X100601368Y-101415124D01*
X100538821Y-101449484D01*
X100513953Y-101461341D01*
X100487669Y-101473049D01*
X100463695Y-101482985D01*
X100450684Y-101487877D01*
X100413601Y-101500896D01*
X100451900Y-101529754D01*
X100472457Y-101546484D01*
X100493562Y-101565686D01*
X100511527Y-101583950D01*
X100515966Y-101588987D01*
X100522205Y-101597145D01*
X100533449Y-101612740D01*
X100549301Y-101635197D01*
X100569367Y-101663938D01*
X100593248Y-101698390D01*
X100620550Y-101737975D01*
X100650874Y-101782119D01*
X100683826Y-101830245D01*
X100719009Y-101881779D01*
X100756025Y-101936143D01*
X100794480Y-101992764D01*
X100825928Y-102039172D01*
X100865182Y-102097147D01*
X100903237Y-102153329D01*
X100939702Y-102207142D01*
X100974187Y-102258012D01*
X101006301Y-102305363D01*
X101035656Y-102348622D01*
X101061860Y-102387213D01*
X101084524Y-102420562D01*
X101103257Y-102448093D01*
X101117669Y-102469233D01*
X101127371Y-102483405D01*
X101131491Y-102489360D01*
X101152861Y-102519736D01*
X100921778Y-102518350D01*
X100690695Y-102516963D01*
X100663070Y-102503398D01*
X100643819Y-102492169D01*
X100624462Y-102478114D01*
X100614734Y-102469576D01*
X100608968Y-102462487D01*
X100598292Y-102447819D01*
X100583061Y-102426096D01*
X100563628Y-102397844D01*
X100540347Y-102363588D01*
X100513572Y-102323852D01*
X100483656Y-102279162D01*
X100450952Y-102230042D01*
X100415815Y-102177018D01*
X100378598Y-102120615D01*
X100339655Y-102061358D01*
X100335841Y-102055540D01*
X100298973Y-101999356D01*
X100263355Y-101945166D01*
X100229375Y-101893555D01*
X100197421Y-101845110D01*
X100167882Y-101800415D01*
X100141145Y-101760058D01*
X100117600Y-101724624D01*
X100097634Y-101694699D01*
X100081636Y-101670868D01*
X100069994Y-101653717D01*
X100063096Y-101643833D01*
X100061749Y-101642040D01*
X100037640Y-101619556D01*
X100006784Y-101602734D01*
X99970836Y-101592459D01*
X99968217Y-101592015D01*
X99953752Y-101590465D01*
X99931657Y-101589102D01*
X99903965Y-101588005D01*
X99872711Y-101587250D01*
X99839926Y-101586916D01*
X99834285Y-101586907D01*
X99731612Y-101586870D01*
X99731612Y-102519379D01*
X99287100Y-102519379D01*
X99287100Y-101267981D01*
X99731612Y-101267981D01*
X99882970Y-101267981D01*
X99923322Y-101267805D01*
X99963240Y-101267308D01*
X100000965Y-101266535D01*
X100034737Y-101265532D01*
X100062797Y-101264345D01*
X100083387Y-101263020D01*
X100087107Y-101262677D01*
X100160246Y-101251654D01*
X100226708Y-101233982D01*
X100286363Y-101209716D01*
X100339081Y-101178913D01*
X100384732Y-101141627D01*
X100393549Y-101132833D01*
X100426958Y-101093258D01*
X100452919Y-101050583D01*
X100473004Y-101002162D01*
X100475366Y-100994993D01*
X100490572Y-100933692D01*
X100497421Y-100871769D01*
X100495968Y-100810607D01*
X100486267Y-100751588D01*
X100468374Y-100696094D01*
X100463021Y-100683791D01*
X100436916Y-100638255D01*
X100402905Y-100597692D01*
X100361672Y-100562650D01*
X100313901Y-100533673D01*
X100260275Y-100511310D01*
X100238936Y-100504778D01*
X100216324Y-100498716D01*
X100195245Y-100493671D01*
X100174481Y-100489536D01*
X100152818Y-100486203D01*
X100129040Y-100483566D01*
X100101932Y-100481516D01*
X100070278Y-100479945D01*
X100032863Y-100478747D01*
X99988472Y-100477813D01*
X99935888Y-100477037D01*
X99923670Y-100476884D01*
X99731612Y-100474526D01*
X99731612Y-101267981D01*
X99287100Y-101267981D01*
X99287100Y-100132040D01*
X99737652Y-100133705D01*
G37*
G36*
X105523028Y-103160376D02*
G01*
X105552604Y-103176460D01*
X105554736Y-103178052D01*
X105580056Y-103202659D01*
X105596727Y-103231471D01*
X105605041Y-103265027D01*
X105605715Y-103272202D01*
X105606376Y-103293844D01*
X105604319Y-103310286D01*
X105598993Y-103325743D01*
X105598593Y-103326650D01*
X105580067Y-103358627D01*
X105556419Y-103382432D01*
X105527397Y-103398237D01*
X105492750Y-103406215D01*
X105481844Y-103407078D01*
X105460784Y-103407575D01*
X105445404Y-103406140D01*
X105431812Y-103402148D01*
X105420884Y-103397311D01*
X105391689Y-103378847D01*
X105368256Y-103354944D01*
X105355173Y-103333513D01*
X105348418Y-103310803D01*
X105345900Y-103283647D01*
X105347601Y-103256093D01*
X105353505Y-103232191D01*
X105355630Y-103227270D01*
X105374409Y-103198627D01*
X105398949Y-103176460D01*
X105427665Y-103161160D01*
X105458973Y-103153118D01*
X105491289Y-103152726D01*
X105523028Y-103160376D01*
G37*
G36*
X106370303Y-102519379D02*
G01*
X105974108Y-102519379D01*
X105974256Y-101718533D01*
X105974298Y-101630262D01*
X105974392Y-101543990D01*
X105974532Y-101460270D01*
X105974717Y-101379656D01*
X105974944Y-101302703D01*
X105975210Y-101229965D01*
X105975511Y-101161995D01*
X105975846Y-101099348D01*
X105976211Y-101042578D01*
X105976602Y-100992239D01*
X105977018Y-100948885D01*
X105977455Y-100913071D01*
X105977911Y-100885350D01*
X105978382Y-100866276D01*
X105978784Y-100857389D01*
X105980337Y-100834396D01*
X105981412Y-100815204D01*
X105981919Y-100801694D01*
X105981769Y-100795749D01*
X105981714Y-100795643D01*
X105979322Y-100799670D01*
X105972633Y-100811777D01*
X105961889Y-100831513D01*
X105947331Y-100858425D01*
X105929203Y-100892063D01*
X105907745Y-100931976D01*
X105883200Y-100977712D01*
X105855809Y-101028821D01*
X105825814Y-101084849D01*
X105793459Y-101145348D01*
X105758983Y-101209864D01*
X105722629Y-101277947D01*
X105684640Y-101349146D01*
X105645256Y-101423008D01*
X105618436Y-101473338D01*
X105562535Y-101578171D01*
X105511089Y-101674459D01*
X105464085Y-101762223D01*
X105421510Y-101841489D01*
X105383352Y-101912278D01*
X105349599Y-101974614D01*
X105320237Y-102028520D01*
X105295255Y-102074020D01*
X105274639Y-102111135D01*
X105258378Y-102139890D01*
X105246457Y-102160308D01*
X105238866Y-102172411D01*
X105236640Y-102175410D01*
X105220636Y-102191028D01*
X105201532Y-102205908D01*
X105190739Y-102212701D01*
X105164806Y-102227064D01*
X104990866Y-102227064D01*
X104965025Y-102212751D01*
X104946599Y-102200493D01*
X104927960Y-102184927D01*
X104919124Y-102176005D01*
X104914161Y-102168999D01*
X104905481Y-102154896D01*
X104893019Y-102133578D01*
X104876712Y-102104926D01*
X104856493Y-102068822D01*
X104832298Y-102025149D01*
X104804062Y-101973787D01*
X104771720Y-101914618D01*
X104735206Y-101847525D01*
X104694457Y-101772388D01*
X104649406Y-101689091D01*
X104599990Y-101597513D01*
X104546143Y-101497537D01*
X104532217Y-101471656D01*
X104491610Y-101396194D01*
X104452248Y-101323086D01*
X104414376Y-101252782D01*
X104378234Y-101185730D01*
X104344066Y-101122381D01*
X104312116Y-101063182D01*
X104282624Y-101008584D01*
X104255836Y-100959035D01*
X104231992Y-100914984D01*
X104211336Y-100876881D01*
X104194111Y-100845175D01*
X104180560Y-100820314D01*
X104170925Y-100802748D01*
X104165449Y-100792927D01*
X104164219Y-100790901D01*
X104164120Y-100795882D01*
X104164752Y-100808444D01*
X104165993Y-100826540D01*
X104167275Y-100842796D01*
X104167734Y-100853130D01*
X104168181Y-100872587D01*
X104168614Y-100900625D01*
X104169030Y-100936704D01*
X104169426Y-100980281D01*
X104169800Y-101030817D01*
X104170148Y-101087769D01*
X104170468Y-101150598D01*
X104170758Y-101218762D01*
X104171014Y-101291720D01*
X104171233Y-101368931D01*
X104171413Y-101449853D01*
X104171552Y-101533947D01*
X104171645Y-101620670D01*
X104171691Y-101706454D01*
X104171901Y-102519379D01*
X103780537Y-102519379D01*
X103780537Y-100132543D01*
X103976496Y-100132543D01*
X104035347Y-100132680D01*
X104084759Y-100133097D01*
X104124953Y-100133799D01*
X104156149Y-100134791D01*
X104178568Y-100136080D01*
X104192430Y-100137671D01*
X104194857Y-100138184D01*
X104218484Y-100148482D01*
X104236857Y-100163641D01*
X104240625Y-100168363D01*
X104246384Y-100177013D01*
X104254302Y-100189901D01*
X104264551Y-100207338D01*
X104277299Y-100229634D01*
X104292716Y-100257100D01*
X104310973Y-100290044D01*
X104332239Y-100328779D01*
X104356683Y-100373613D01*
X104384476Y-100424857D01*
X104415787Y-100482822D01*
X104450786Y-100547818D01*
X104489643Y-100620154D01*
X104532527Y-100700142D01*
X104579609Y-100788090D01*
X104624412Y-100871877D01*
X104673364Y-100963456D01*
X104717983Y-101046926D01*
X104758488Y-101122703D01*
X104795095Y-101191204D01*
X104828022Y-101252846D01*
X104857486Y-101308044D01*
X104883703Y-101357215D01*
X104906892Y-101400775D01*
X104927268Y-101439141D01*
X104945050Y-101472730D01*
X104960455Y-101501958D01*
X104973699Y-101527240D01*
X104985000Y-101548995D01*
X104994575Y-101567637D01*
X105002641Y-101583584D01*
X105009416Y-101597252D01*
X105015116Y-101609057D01*
X105019959Y-101619416D01*
X105024162Y-101628745D01*
X105027942Y-101637461D01*
X105031516Y-101645980D01*
X105035101Y-101654719D01*
X105038915Y-101664094D01*
X105043175Y-101674521D01*
X105043888Y-101676256D01*
X105053805Y-101700078D01*
X105062612Y-101720718D01*
X105069587Y-101736520D01*
X105074006Y-101745830D01*
X105075019Y-101747520D01*
X105077978Y-101744781D01*
X105083576Y-101734635D01*
X105091003Y-101718700D01*
X105099206Y-101699204D01*
X105110574Y-101671864D01*
X105124152Y-101640587D01*
X105137868Y-101610098D01*
X105145316Y-101594118D01*
X105150684Y-101583316D01*
X105160157Y-101564846D01*
X105173441Y-101539261D01*
X105190241Y-101507110D01*
X105210266Y-101468947D01*
X105233221Y-101425322D01*
X105258813Y-101376787D01*
X105286749Y-101323893D01*
X105316735Y-101267193D01*
X105348479Y-101207237D01*
X105381687Y-101144576D01*
X105416065Y-101079764D01*
X105451320Y-101013350D01*
X105487159Y-100945887D01*
X105523288Y-100877927D01*
X105559415Y-100810019D01*
X105595245Y-100742717D01*
X105630485Y-100676572D01*
X105664843Y-100612135D01*
X105698025Y-100549957D01*
X105729736Y-100490591D01*
X105759685Y-100434588D01*
X105787578Y-100382498D01*
X105813120Y-100334875D01*
X105836020Y-100292269D01*
X105855983Y-100255232D01*
X105872717Y-100224315D01*
X105885928Y-100200070D01*
X105895322Y-100183049D01*
X105900607Y-100173802D01*
X105901492Y-100172420D01*
X105912546Y-100160906D01*
X105927303Y-100149546D01*
X105932260Y-100146478D01*
X105952365Y-100134958D01*
X106161334Y-100133557D01*
X106370303Y-100132155D01*
X106370303Y-102519379D01*
G37*
G36*
X96986025Y-100133902D02*
G01*
X97068573Y-100134224D01*
X97142055Y-100134549D01*
X97207068Y-100134888D01*
X97264208Y-100135252D01*
X97314073Y-100135651D01*
X97357260Y-100136096D01*
X97394366Y-100136598D01*
X97425988Y-100137165D01*
X97452722Y-100137810D01*
X97475167Y-100138543D01*
X97493918Y-100139374D01*
X97509574Y-100140313D01*
X97522730Y-100141372D01*
X97533984Y-100142560D01*
X97542498Y-100143679D01*
X97637967Y-100160277D01*
X97725119Y-100181518D01*
X97804167Y-100207501D01*
X97875324Y-100238327D01*
X97938802Y-100274093D01*
X97994813Y-100314901D01*
X98043569Y-100360849D01*
X98068965Y-100390342D01*
X98105991Y-100443485D01*
X98135606Y-100500790D01*
X98158048Y-100562963D01*
X98173553Y-100630715D01*
X98182358Y-100704754D01*
X98183990Y-100734525D01*
X98184791Y-100784512D01*
X98182792Y-100827832D01*
X98177700Y-100867151D01*
X98169220Y-100905134D01*
X98162749Y-100927235D01*
X98138265Y-100988971D01*
X98105086Y-101046913D01*
X98063531Y-101100741D01*
X98013923Y-101150135D01*
X97956584Y-101194773D01*
X97891834Y-101234335D01*
X97821053Y-101268059D01*
X97769505Y-101289617D01*
X97795099Y-101295911D01*
X97875711Y-101319532D01*
X97948966Y-101348877D01*
X98014734Y-101383830D01*
X98072884Y-101424278D01*
X98123288Y-101470104D01*
X98165813Y-101521193D01*
X98200331Y-101577432D01*
X98226711Y-101638704D01*
X98241749Y-101690751D01*
X98246597Y-101719569D01*
X98249809Y-101755454D01*
X98251406Y-101795951D01*
X98251409Y-101838606D01*
X98249836Y-101880964D01*
X98246710Y-101920571D01*
X98242050Y-101954974D01*
X98239441Y-101968178D01*
X98226742Y-102018217D01*
X98211894Y-102062814D01*
X98193397Y-102106167D01*
X98181631Y-102130018D01*
X98143220Y-102194383D01*
X98096840Y-102253698D01*
X98042904Y-102307720D01*
X97981826Y-102356208D01*
X97914020Y-102398918D01*
X97839899Y-102435608D01*
X97759877Y-102466036D01*
X97674366Y-102489959D01*
X97583781Y-102507136D01*
X97526331Y-102514185D01*
X97511459Y-102515134D01*
X97487177Y-102515993D01*
X97453739Y-102516761D01*
X97411398Y-102517436D01*
X97360408Y-102518014D01*
X97301022Y-102518494D01*
X97233494Y-102518873D01*
X97158077Y-102519148D01*
X97075024Y-102519318D01*
X96984589Y-102519379D01*
X96484741Y-102519379D01*
X96484741Y-102172326D01*
X96929253Y-102172326D01*
X97201034Y-102170202D01*
X97259552Y-102169728D01*
X97309290Y-102169274D01*
X97351131Y-102168802D01*
X97385957Y-102168279D01*
X97414650Y-102167670D01*
X97438095Y-102166939D01*
X97457174Y-102166052D01*
X97472770Y-102164973D01*
X97485764Y-102163668D01*
X97497042Y-102162102D01*
X97507484Y-102160239D01*
X97517974Y-102158045D01*
X97520178Y-102157558D01*
X97582806Y-102140035D01*
X97637602Y-102116946D01*
X97684743Y-102088133D01*
X97724403Y-102053440D01*
X97756759Y-102012709D01*
X97781986Y-101965784D01*
X97800259Y-101912507D01*
X97801974Y-101905759D01*
X97807118Y-101876638D01*
X97810124Y-101842018D01*
X97810985Y-101805047D01*
X97809694Y-101768877D01*
X97806247Y-101736658D01*
X97802333Y-101717325D01*
X97791039Y-101683478D01*
X97775509Y-101649162D01*
X97757509Y-101617881D01*
X97740993Y-101595606D01*
X97711044Y-101567381D01*
X97672928Y-101541916D01*
X97627898Y-101519821D01*
X97577208Y-101501704D01*
X97522111Y-101488177D01*
X97518715Y-101487528D01*
X97507573Y-101485626D01*
X97495383Y-101483998D01*
X97481274Y-101482615D01*
X97464379Y-101481448D01*
X97443826Y-101480469D01*
X97418747Y-101479647D01*
X97388271Y-101478955D01*
X97351530Y-101478362D01*
X97307654Y-101477841D01*
X97255773Y-101477363D01*
X97201034Y-101476940D01*
X96929253Y-101474974D01*
X96929253Y-102172326D01*
X96484741Y-102172326D01*
X96484741Y-101166516D01*
X96929253Y-101166516D01*
X97121312Y-101166500D01*
X97166135Y-101166363D01*
X97210190Y-101165982D01*
X97252014Y-101165386D01*
X97290147Y-101164606D01*
X97323128Y-101163672D01*
X97349493Y-101162614D01*
X97367784Y-101161463D01*
X97368934Y-101161361D01*
X97440600Y-101151914D01*
X97504131Y-101137456D01*
X97559737Y-101117852D01*
X97607630Y-101092962D01*
X97648018Y-101062650D01*
X97681112Y-101026776D01*
X97707123Y-100985205D01*
X97726261Y-100937798D01*
X97730019Y-100924934D01*
X97734958Y-100898991D01*
X97738024Y-100866307D01*
X97739247Y-100829612D01*
X97738663Y-100791640D01*
X97736302Y-100755120D01*
X97732200Y-100722785D01*
X97727310Y-100700431D01*
X97711020Y-100654608D01*
X97689903Y-100615124D01*
X97663287Y-100581450D01*
X97630497Y-100553057D01*
X97590859Y-100529416D01*
X97543700Y-100509999D01*
X97488345Y-100494275D01*
X97455904Y-100487346D01*
X97444577Y-100485447D01*
X97431133Y-100483821D01*
X97414684Y-100482433D01*
X97394347Y-100481253D01*
X97369234Y-100480248D01*
X97338462Y-100479386D01*
X97301144Y-100478634D01*
X97256396Y-100477960D01*
X97203332Y-100477333D01*
X97172044Y-100477013D01*
X96929253Y-100474631D01*
X96929253Y-101166516D01*
X96484741Y-101166516D01*
X96484741Y-100132047D01*
X96986025Y-100133902D01*
G37*
G36*
X106210466Y-103516497D02*
G01*
X106239849Y-103519845D01*
X106292256Y-103532623D01*
X106343433Y-103553290D01*
X106390844Y-103580628D01*
X106428939Y-103610611D01*
X106454331Y-103633959D01*
X106428597Y-103669754D01*
X106411247Y-103693501D01*
X106397971Y-103710370D01*
X106387466Y-103721513D01*
X106378431Y-103728084D01*
X106369564Y-103731234D01*
X106359563Y-103732116D01*
X106358145Y-103732124D01*
X106344075Y-103730402D01*
X106327653Y-103724660D01*
X106306569Y-103714030D01*
X106299861Y-103710257D01*
X106268776Y-103693869D01*
X106241508Y-103683045D01*
X106214728Y-103676846D01*
X106185109Y-103674330D01*
X106172206Y-103674144D01*
X106125668Y-103677889D01*
X106084905Y-103689184D01*
X106049831Y-103708116D01*
X106020363Y-103734775D01*
X105996416Y-103769248D01*
X105977906Y-103811624D01*
X105964748Y-103861991D01*
X105959213Y-103897505D01*
X105955739Y-103953066D01*
X105958779Y-104006570D01*
X105968007Y-104056811D01*
X105983094Y-104102581D01*
X106003714Y-104142674D01*
X106029538Y-104175883D01*
X106036697Y-104182903D01*
X106062184Y-104203425D01*
X106088311Y-104217494D01*
X106117324Y-104225838D01*
X106151466Y-104229185D01*
X106178662Y-104228982D01*
X106202995Y-104227697D01*
X106220949Y-104225558D01*
X106235809Y-104221878D01*
X106250858Y-104215968D01*
X106259175Y-104212108D01*
X106280233Y-104200881D01*
X106302386Y-104187281D01*
X106316820Y-104177205D01*
X106341689Y-104162251D01*
X106364784Y-104156597D01*
X106386543Y-104160136D01*
X106386651Y-104160178D01*
X106392505Y-104164960D01*
X106402721Y-104175761D01*
X106415798Y-104190919D01*
X106428573Y-104206656D01*
X106463020Y-104250266D01*
X106439612Y-104274296D01*
X106397495Y-104310837D01*
X106348634Y-104341320D01*
X106294365Y-104364987D01*
X106261591Y-104375121D01*
X106236323Y-104380217D01*
X106204896Y-104384113D01*
X106169888Y-104386725D01*
X106133879Y-104387966D01*
X106099446Y-104387753D01*
X106069168Y-104385999D01*
X106045624Y-104382621D01*
X106044167Y-104382292D01*
X105986717Y-104364167D01*
X105934540Y-104338043D01*
X105887888Y-104304179D01*
X105847013Y-104262831D01*
X105812168Y-104214259D01*
X105783604Y-104158719D01*
X105761574Y-104096470D01*
X105760342Y-104092082D01*
X105755342Y-104067555D01*
X105751517Y-104035894D01*
X105748931Y-103999566D01*
X105747648Y-103961037D01*
X105747732Y-103922773D01*
X105749247Y-103887240D01*
X105752259Y-103856905D01*
X105753947Y-103846507D01*
X105769819Y-103783354D01*
X105792800Y-103726097D01*
X105823445Y-103673531D01*
X105849397Y-103639307D01*
X105880492Y-103608252D01*
X105918929Y-103579873D01*
X105962496Y-103555425D01*
X106008976Y-103536161D01*
X106053171Y-103523937D01*
X106088049Y-103518658D01*
X106128463Y-103515603D01*
X106170554Y-103514854D01*
X106210466Y-103516497D01*
G37*
G36*
X104225300Y-103517595D02*
G01*
X104257582Y-103519766D01*
X104284483Y-103523225D01*
X104297524Y-103526060D01*
X104324389Y-103534942D01*
X104353169Y-103547031D01*
X104381964Y-103561259D01*
X104408877Y-103576558D01*
X104432010Y-103591863D01*
X104449464Y-103606104D01*
X104458367Y-103616494D01*
X104459404Y-103622957D01*
X104455931Y-103633368D01*
X104447349Y-103649256D01*
X104442305Y-103657563D01*
X104426867Y-103681652D01*
X104414540Y-103698431D01*
X104403946Y-103709150D01*
X104393712Y-103715057D01*
X104382461Y-103717402D01*
X104376182Y-103717629D01*
X104353919Y-103714196D01*
X104329977Y-103704854D01*
X104281370Y-103683819D01*
X104234766Y-103670826D01*
X104190971Y-103666019D01*
X104150789Y-103669542D01*
X104142891Y-103671352D01*
X104110554Y-103682414D01*
X104086814Y-103697085D01*
X104071111Y-103715890D01*
X104062885Y-103739356D01*
X104061800Y-103747298D01*
X104061336Y-103765649D01*
X104064268Y-103781619D01*
X104071391Y-103795807D01*
X104083502Y-103808814D01*
X104101396Y-103821238D01*
X104125869Y-103833680D01*
X104157716Y-103846739D01*
X104197733Y-103861015D01*
X104224506Y-103869927D01*
X104277800Y-103888377D01*
X104322447Y-103906250D01*
X104359389Y-103924150D01*
X104389570Y-103942682D01*
X104413933Y-103962449D01*
X104433422Y-103984055D01*
X104448980Y-104008103D01*
X104453229Y-104016304D01*
X104459595Y-104029597D01*
X104463967Y-104040547D01*
X104466710Y-104051450D01*
X104468190Y-104064599D01*
X104468776Y-104082287D01*
X104468832Y-104106809D01*
X104468809Y-104113766D01*
X104468489Y-104141877D01*
X104467583Y-104162663D01*
X104465808Y-104178459D01*
X104462885Y-104191599D01*
X104458531Y-104204418D01*
X104457616Y-104206764D01*
X104434655Y-104252468D01*
X104404541Y-104291826D01*
X104367539Y-104324693D01*
X104323909Y-104350921D01*
X104273915Y-104370363D01*
X104217818Y-104382873D01*
X104155882Y-104388303D01*
X104133248Y-104388507D01*
X104108936Y-104388112D01*
X104087199Y-104387473D01*
X104070387Y-104386678D01*
X104060852Y-104385815D01*
X104060773Y-104385802D01*
X104023181Y-104377374D01*
X103983781Y-104365284D01*
X103944895Y-104350497D01*
X103908845Y-104333973D01*
X103877952Y-104316675D01*
X103856157Y-104300972D01*
X103837559Y-104285138D01*
X103865485Y-104238661D01*
X103878213Y-104218728D01*
X103890563Y-104201566D01*
X103900972Y-104189241D01*
X103906570Y-104184410D01*
X103924969Y-104177313D01*
X103945414Y-104177207D01*
X103969228Y-104184294D01*
X103996865Y-104198271D01*
X104029532Y-104216008D01*
X104057871Y-104228293D01*
X104084851Y-104236012D01*
X104113440Y-104240049D01*
X104140982Y-104241244D01*
X104163682Y-104241346D01*
X104179790Y-104240560D01*
X104192374Y-104238275D01*
X104204503Y-104233879D01*
X104219244Y-104226762D01*
X104222787Y-104224953D01*
X104248710Y-104208725D01*
X104265862Y-104190458D01*
X104275113Y-104168732D01*
X104277337Y-104142133D01*
X104277058Y-104136721D01*
X104274585Y-104119827D01*
X104269053Y-104105112D01*
X104259571Y-104091965D01*
X104245244Y-104079776D01*
X104225179Y-104067935D01*
X104198485Y-104055830D01*
X104164267Y-104042851D01*
X104121632Y-104028387D01*
X104115900Y-104026520D01*
X104086389Y-104016562D01*
X104056578Y-104005843D01*
X104029226Y-103995400D01*
X104007092Y-103986266D01*
X103999432Y-103982794D01*
X103956375Y-103957783D01*
X103921105Y-103927454D01*
X103893885Y-103892204D01*
X103874981Y-103852432D01*
X103864659Y-103808536D01*
X103862675Y-103777247D01*
X103867146Y-103727977D01*
X103880305Y-103682506D01*
X103901772Y-103641293D01*
X103931170Y-103604796D01*
X103968119Y-103573474D01*
X104012240Y-103547785D01*
X104063154Y-103528186D01*
X104070437Y-103526058D01*
X104092227Y-103521789D01*
X104121102Y-103518809D01*
X104154567Y-103517116D01*
X104190131Y-103516711D01*
X104225300Y-103517595D01*
G37*
G36*
X91683906Y-100104941D02*
G01*
X91724384Y-100106355D01*
X91762233Y-100108537D01*
X91795144Y-100111431D01*
X91820812Y-100114979D01*
X91821671Y-100115136D01*
X91906128Y-100134709D01*
X91983682Y-100160838D01*
X92054685Y-100193692D01*
X92119485Y-100233440D01*
X92178433Y-100280251D01*
X92194875Y-100295549D01*
X92228101Y-100329163D01*
X92255217Y-100360611D01*
X92278352Y-100392776D01*
X92299635Y-100428544D01*
X92315271Y-100458679D01*
X92342833Y-100523682D01*
X92361947Y-100590866D01*
X92372784Y-100661194D01*
X92375516Y-100735632D01*
X92373246Y-100783877D01*
X92367511Y-100840000D01*
X92359120Y-100889040D01*
X92347459Y-100933362D01*
X92331915Y-100975328D01*
X92313519Y-101014157D01*
X92280237Y-101068394D01*
X92239571Y-101116961D01*
X92191284Y-101160063D01*
X92135140Y-101197904D01*
X92070902Y-101230689D01*
X92055437Y-101237336D01*
X92036667Y-101245379D01*
X92021773Y-101252189D01*
X92012663Y-101256869D01*
X92010744Y-101258361D01*
X92014879Y-101261054D01*
X92025882Y-101265861D01*
X92041469Y-101271791D01*
X92043244Y-101272426D01*
X92061724Y-101279712D01*
X92085154Y-101289958D01*
X92109961Y-101301567D01*
X92124741Y-101308887D01*
X92189229Y-101345962D01*
X92245311Y-101387523D01*
X92293374Y-101434046D01*
X92333802Y-101486008D01*
X92366983Y-101543884D01*
X92393302Y-101608150D01*
X92408142Y-101658343D01*
X92411636Y-101672981D01*
X92414284Y-101686914D01*
X92416203Y-101701801D01*
X92417506Y-101719305D01*
X92418308Y-101741088D01*
X92418723Y-101768809D01*
X92418867Y-101804132D01*
X92418874Y-101813958D01*
X92418794Y-101851575D01*
X92418451Y-101881306D01*
X92417723Y-101904929D01*
X92416487Y-101924219D01*
X92414622Y-101940954D01*
X92412007Y-101956911D01*
X92408518Y-101973865D01*
X92407636Y-101977842D01*
X92385271Y-102056645D01*
X92354727Y-102130608D01*
X92316342Y-102199453D01*
X92270454Y-102262902D01*
X92217403Y-102320679D01*
X92157527Y-102372506D01*
X92091163Y-102418105D01*
X92018652Y-102457199D01*
X91940330Y-102489511D01*
X91856538Y-102514764D01*
X91767613Y-102532680D01*
X91723147Y-102538599D01*
X91694807Y-102540846D01*
X91659322Y-102542251D01*
X91619175Y-102542838D01*
X91576845Y-102542632D01*
X91534814Y-102541657D01*
X91495563Y-102539937D01*
X91461571Y-102537495D01*
X91446547Y-102535918D01*
X91358436Y-102521181D01*
X91276377Y-102498980D01*
X91200191Y-102469186D01*
X91129696Y-102431672D01*
X91064712Y-102386308D01*
X91005057Y-102332967D01*
X90950550Y-102271519D01*
X90901011Y-102201837D01*
X90856259Y-102123793D01*
X90850884Y-102113228D01*
X90841478Y-102093591D01*
X90830505Y-102069261D01*
X90818716Y-102042066D01*
X90806863Y-102013835D01*
X90795696Y-101986395D01*
X90785968Y-101961575D01*
X90778430Y-101941203D01*
X90773833Y-101927107D01*
X90773008Y-101923749D01*
X90773935Y-101920161D01*
X90778676Y-101915693D01*
X90788201Y-101909825D01*
X90803482Y-101902035D01*
X90825489Y-101891803D01*
X90855192Y-101878607D01*
X90865529Y-101874089D01*
X90903861Y-101857495D01*
X90934815Y-101844495D01*
X90959807Y-101834686D01*
X90980254Y-101827662D01*
X90997576Y-101823020D01*
X91013188Y-101820354D01*
X91028510Y-101819260D01*
X91044958Y-101819333D01*
X91055869Y-101819765D01*
X91085490Y-101822476D01*
X91109837Y-101828274D01*
X91130445Y-101838276D01*
X91148848Y-101853597D01*
X91166582Y-101875355D01*
X91185182Y-101904664D01*
X91194043Y-101920254D01*
X91224381Y-101972615D01*
X91253014Y-102016811D01*
X91280977Y-102053945D01*
X91309305Y-102085118D01*
X91339032Y-102111432D01*
X91371192Y-102133991D01*
X91406820Y-102153896D01*
X91418753Y-102159710D01*
X91454665Y-102175112D01*
X91488830Y-102186013D01*
X91524058Y-102192975D01*
X91563157Y-102196558D01*
X91607188Y-102197338D01*
X91638405Y-102196765D01*
X91663061Y-102195354D01*
X91684245Y-102192762D01*
X91705046Y-102188645D01*
X91721108Y-102184652D01*
X91780937Y-102164476D01*
X91834609Y-102136961D01*
X91882505Y-102101883D01*
X91914436Y-102070944D01*
X91951473Y-102024422D01*
X91979706Y-101974605D01*
X91999255Y-101921116D01*
X92010240Y-101863576D01*
X92012778Y-101801608D01*
X92010650Y-101765856D01*
X92003790Y-101712028D01*
X91993572Y-101666274D01*
X91979466Y-101627428D01*
X91960939Y-101594323D01*
X91937462Y-101565793D01*
X91908503Y-101540670D01*
X91907878Y-101540204D01*
X91872453Y-101517074D01*
X91832897Y-101497527D01*
X91788297Y-101481317D01*
X91737739Y-101468197D01*
X91680309Y-101457922D01*
X91615093Y-101450245D01*
X91557663Y-101445867D01*
X91464654Y-101440176D01*
X91464654Y-101153089D01*
X91523842Y-101149788D01*
X91603117Y-101142999D01*
X91673956Y-101131903D01*
X91736612Y-101116417D01*
X91791338Y-101096461D01*
X91838389Y-101071951D01*
X91878018Y-101042807D01*
X91889691Y-101031981D01*
X91918850Y-100998515D01*
X91941407Y-100961526D01*
X91957734Y-100919950D01*
X91968198Y-100872721D01*
X91973170Y-100818774D01*
X91973713Y-100789647D01*
X91970395Y-100727334D01*
X91960553Y-100671908D01*
X91944004Y-100622960D01*
X91920561Y-100580084D01*
X91890039Y-100542871D01*
X91852254Y-100510913D01*
X91844850Y-100505810D01*
X91800812Y-100481700D01*
X91750856Y-100463772D01*
X91696800Y-100452411D01*
X91640461Y-100448005D01*
X91585932Y-100450674D01*
X91527267Y-100460826D01*
X91474881Y-100477512D01*
X91427440Y-100501312D01*
X91383611Y-100532809D01*
X91369902Y-100544817D01*
X91345192Y-100569639D01*
X91323294Y-100596746D01*
X91303306Y-100627658D01*
X91284326Y-100663897D01*
X91265449Y-100706980D01*
X91250273Y-100746162D01*
X91233575Y-100779379D01*
X91210875Y-100806227D01*
X91183211Y-100825493D01*
X91181842Y-100826175D01*
X91166516Y-100832525D01*
X91149787Y-100836865D01*
X91130509Y-100839159D01*
X91107535Y-100839371D01*
X91079718Y-100837462D01*
X91045912Y-100833396D01*
X91004970Y-100827136D01*
X90957417Y-100818944D01*
X90925553Y-100813186D01*
X90896978Y-100807896D01*
X90873030Y-100803330D01*
X90855042Y-100799747D01*
X90844353Y-100797405D01*
X90841943Y-100796662D01*
X90841535Y-100790699D01*
X90843235Y-100777183D01*
X90846658Y-100757896D01*
X90851414Y-100734621D01*
X90857116Y-100709138D01*
X90863378Y-100683230D01*
X90869810Y-100658680D01*
X90876026Y-100637269D01*
X90877873Y-100631472D01*
X90908423Y-100551424D01*
X90945616Y-100477998D01*
X90989967Y-100410345D01*
X91041990Y-100347618D01*
X91063296Y-100325478D01*
X91122797Y-100271799D01*
X91186372Y-100225901D01*
X91254608Y-100187518D01*
X91328092Y-100156384D01*
X91407411Y-100132232D01*
X91493151Y-100114796D01*
X91541833Y-100108136D01*
X91569761Y-100105895D01*
X91604287Y-100104654D01*
X91643105Y-100104355D01*
X91683906Y-100104941D01*
G37*
G36*
X101636551Y-101414070D02*
G01*
X101673045Y-101321129D01*
X102140756Y-100130127D01*
X102598441Y-100130127D01*
X103066188Y-101321129D01*
X103106602Y-101424047D01*
X103146085Y-101524622D01*
X103184493Y-101622485D01*
X103221680Y-101717262D01*
X103257500Y-101808582D01*
X103291808Y-101896074D01*
X103324458Y-101979366D01*
X103355305Y-102058087D01*
X103384204Y-102131865D01*
X103411008Y-102200329D01*
X103435573Y-102263107D01*
X103457753Y-102319827D01*
X103477403Y-102370118D01*
X103494376Y-102413608D01*
X103508528Y-102449926D01*
X103519713Y-102478700D01*
X103527786Y-102499558D01*
X103532601Y-102512130D01*
X103534029Y-102516053D01*
X103529389Y-102516870D01*
X103516104Y-102517556D01*
X103495195Y-102518098D01*
X103467680Y-102518484D01*
X103434578Y-102518702D01*
X103396907Y-102518738D01*
X103355686Y-102518580D01*
X103339649Y-102518469D01*
X103291072Y-102518075D01*
X103251172Y-102517683D01*
X103218963Y-102517237D01*
X103193457Y-102516684D01*
X103173669Y-102515968D01*
X103158611Y-102515035D01*
X103147299Y-102513831D01*
X103138745Y-102512301D01*
X103131962Y-102510391D01*
X103125965Y-102508047D01*
X103122484Y-102506478D01*
X103097797Y-102491198D01*
X103074316Y-102469871D01*
X103055269Y-102445700D01*
X103047876Y-102432409D01*
X103044265Y-102423685D01*
X103037705Y-102406835D01*
X103028552Y-102382813D01*
X103017165Y-102352573D01*
X103003901Y-102317069D01*
X102989117Y-102277256D01*
X102973170Y-102234087D01*
X102956418Y-102188515D01*
X102951975Y-102176394D01*
X102935348Y-102131002D01*
X102919694Y-102088275D01*
X102905333Y-102049089D01*
X102892586Y-102014318D01*
X102881774Y-101984838D01*
X102873217Y-101961522D01*
X102867237Y-101945246D01*
X102864155Y-101936886D01*
X102863831Y-101936019D01*
X102861696Y-101934994D01*
X102855807Y-101934082D01*
X102845688Y-101933280D01*
X102830865Y-101932579D01*
X102810863Y-101931976D01*
X102785207Y-101931463D01*
X102753423Y-101931035D01*
X102715034Y-101930686D01*
X102669566Y-101930410D01*
X102616544Y-101930202D01*
X102555494Y-101930055D01*
X102485940Y-101929963D01*
X102407407Y-101929922D01*
X102369764Y-101929917D01*
X101878038Y-101929917D01*
X101872737Y-101943205D01*
X101870066Y-101950258D01*
X101864411Y-101965464D01*
X101856110Y-101987901D01*
X101845504Y-102016648D01*
X101832931Y-102050785D01*
X101818732Y-102089389D01*
X101803245Y-102131540D01*
X101786811Y-102176316D01*
X101783261Y-102185995D01*
X101766668Y-102231218D01*
X101750951Y-102274018D01*
X101736450Y-102313473D01*
X101723505Y-102348661D01*
X101712455Y-102378659D01*
X101703639Y-102402545D01*
X101697398Y-102419395D01*
X101694071Y-102428289D01*
X101693775Y-102429058D01*
X101684651Y-102444615D01*
X101669594Y-102462490D01*
X101651099Y-102480273D01*
X101631660Y-102495556D01*
X101614516Y-102505597D01*
X101608013Y-102508446D01*
X101601655Y-102510783D01*
X101594440Y-102512666D01*
X101585365Y-102514155D01*
X101573428Y-102515309D01*
X101557625Y-102516187D01*
X101536953Y-102516849D01*
X101510410Y-102517354D01*
X101476993Y-102517760D01*
X101435699Y-102518128D01*
X101397325Y-102518427D01*
X101355313Y-102518653D01*
X101316476Y-102518680D01*
X101281839Y-102518522D01*
X101252427Y-102518191D01*
X101229268Y-102517699D01*
X101213385Y-102517061D01*
X101205805Y-102516289D01*
X101205300Y-102516011D01*
X101207046Y-102511237D01*
X101212181Y-102497841D01*
X101220559Y-102476195D01*
X101232036Y-102446669D01*
X101246465Y-102409636D01*
X101263701Y-102365467D01*
X101283599Y-102314534D01*
X101306013Y-102257207D01*
X101330798Y-102193859D01*
X101357808Y-102124861D01*
X101386899Y-102050585D01*
X101417923Y-101971402D01*
X101450737Y-101887684D01*
X101485195Y-101799803D01*
X101521150Y-101708129D01*
X101558459Y-101613034D01*
X101559861Y-101609462D01*
X101994247Y-101609462D01*
X101995184Y-101610663D01*
X101999355Y-101611711D01*
X102007327Y-101612614D01*
X102019665Y-101613383D01*
X102036937Y-101614028D01*
X102059708Y-101614557D01*
X102088544Y-101614981D01*
X102124012Y-101615309D01*
X102166678Y-101615551D01*
X102217109Y-101615717D01*
X102275870Y-101615816D01*
X102343527Y-101615857D01*
X102369695Y-101615860D01*
X102439074Y-101615851D01*
X102499413Y-101615816D01*
X102551331Y-101615739D01*
X102595451Y-101615608D01*
X102632395Y-101615408D01*
X102662785Y-101615125D01*
X102687241Y-101614745D01*
X102706387Y-101614254D01*
X102720843Y-101613638D01*
X102731231Y-101612883D01*
X102738174Y-101611975D01*
X102742292Y-101610899D01*
X102744209Y-101609643D01*
X102744544Y-101608191D01*
X102744320Y-101607405D01*
X102742216Y-101601724D01*
X102737031Y-101587617D01*
X102729002Y-101565730D01*
X102718368Y-101536712D01*
X102705365Y-101501211D01*
X102690230Y-101459876D01*
X102673202Y-101413355D01*
X102654517Y-101362296D01*
X102634412Y-101307348D01*
X102613126Y-101249158D01*
X102590895Y-101188375D01*
X102587319Y-101178595D01*
X102553221Y-101085191D01*
X102522452Y-101000547D01*
X102494913Y-100924386D01*
X102470509Y-100856432D01*
X102449142Y-100796408D01*
X102430716Y-100744039D01*
X102415133Y-100699047D01*
X102402297Y-100661156D01*
X102392112Y-100630090D01*
X102384480Y-100605572D01*
X102379304Y-100587327D01*
X102377130Y-100578318D01*
X102373856Y-100566967D01*
X102370448Y-100560632D01*
X102370239Y-100560480D01*
X102367790Y-100564109D01*
X102363317Y-100575549D01*
X102357340Y-100593290D01*
X102350378Y-100615823D01*
X102345750Y-100631692D01*
X102336489Y-100663208D01*
X102326006Y-100697384D01*
X102315480Y-100730457D01*
X102306089Y-100758666D01*
X102304563Y-100763073D01*
X102300895Y-100773346D01*
X102294197Y-100791856D01*
X102284774Y-100817772D01*
X102272933Y-100850262D01*
X102258976Y-100888492D01*
X102243211Y-100931632D01*
X102225941Y-100978849D01*
X102207472Y-101029311D01*
X102188108Y-101082187D01*
X102168156Y-101136643D01*
X102147920Y-101191848D01*
X102127704Y-101246969D01*
X102107815Y-101301176D01*
X102088557Y-101353635D01*
X102070236Y-101403514D01*
X102053155Y-101449982D01*
X102037621Y-101492206D01*
X102023939Y-101529355D01*
X102012413Y-101560595D01*
X102003349Y-101585096D01*
X101997052Y-101602025D01*
X101994247Y-101609462D01*
X101559861Y-101609462D01*
X101596974Y-101514891D01*
X101636551Y-101414070D01*
G37*
G36*
X96774640Y-104374734D02*
G01*
X96566879Y-104374734D01*
X96566879Y-103529195D01*
X96774640Y-103529195D01*
X96774640Y-104374734D01*
G37*
G36*
X94865390Y-104114236D02*
G01*
X94868596Y-104100693D01*
X94881723Y-104069689D01*
X94901874Y-104038602D01*
X94926903Y-104010405D01*
X94944905Y-103994934D01*
X94993317Y-103963947D01*
X95049507Y-103938391D01*
X95113213Y-103918342D01*
X95184170Y-103903878D01*
X95262113Y-103895074D01*
X95297363Y-103893063D01*
X95368629Y-103890102D01*
X95368534Y-103863053D01*
X95367721Y-103843234D01*
X95365716Y-103819782D01*
X95363625Y-103802704D01*
X95354859Y-103762966D01*
X95340949Y-103731277D01*
X95321445Y-103707237D01*
X95295892Y-103690447D01*
X95263840Y-103680509D01*
X95224835Y-103677022D01*
X95221264Y-103677010D01*
X95197305Y-103677757D01*
X95175894Y-103680296D01*
X95154932Y-103685273D01*
X95132319Y-103693329D01*
X95105956Y-103705109D01*
X95073741Y-103721257D01*
X95069196Y-103723615D01*
X95045605Y-103735678D01*
X95028486Y-103743711D01*
X95015874Y-103748396D01*
X95005801Y-103750410D01*
X94996300Y-103750432D01*
X94992546Y-103750073D01*
X94975831Y-103746627D01*
X94961686Y-103739526D01*
X94948487Y-103727357D01*
X94934612Y-103708705D01*
X94922425Y-103689001D01*
X94898990Y-103649224D01*
X94910346Y-103637072D01*
X94922862Y-103625954D01*
X94941692Y-103611976D01*
X94964523Y-103596632D01*
X94989044Y-103581416D01*
X95012942Y-103567823D01*
X95033310Y-103557616D01*
X95077250Y-103540902D01*
X95125446Y-103528175D01*
X95175958Y-103519558D01*
X95226848Y-103515178D01*
X95276176Y-103515158D01*
X95322003Y-103519624D01*
X95362389Y-103528699D01*
X95380578Y-103535274D01*
X95428734Y-103559957D01*
X95469414Y-103590418D01*
X95503131Y-103627216D01*
X95530400Y-103670907D01*
X95551055Y-103720045D01*
X95564280Y-103758698D01*
X95565704Y-104069132D01*
X95567127Y-104379566D01*
X95519819Y-104379355D01*
X95484620Y-104378401D01*
X95457792Y-104375746D01*
X95438153Y-104371170D01*
X95424526Y-104364451D01*
X95420050Y-104360678D01*
X95413469Y-104351103D01*
X95405727Y-104335446D01*
X95398378Y-104316896D01*
X95397619Y-104314693D01*
X95385540Y-104279039D01*
X95345246Y-104309417D01*
X95302108Y-104338360D01*
X95257836Y-104361404D01*
X95214699Y-104377440D01*
X95196720Y-104381978D01*
X95175026Y-104385202D01*
X95147333Y-104387359D01*
X95116729Y-104388405D01*
X95086305Y-104388295D01*
X95059148Y-104386984D01*
X95038350Y-104384426D01*
X95037661Y-104384291D01*
X94993003Y-104370929D01*
X94953534Y-104350161D01*
X94920048Y-104322671D01*
X94893336Y-104289144D01*
X94874191Y-104250263D01*
X94870860Y-104240373D01*
X94864667Y-104211729D01*
X94861650Y-104178600D01*
X94861818Y-104152871D01*
X95058130Y-104152871D01*
X95062006Y-104183106D01*
X95073226Y-104207320D01*
X95092091Y-104225869D01*
X95118903Y-104239106D01*
X95135427Y-104243854D01*
X95155273Y-104247458D01*
X95174932Y-104248304D01*
X95198096Y-104246405D01*
X95214017Y-104244141D01*
X95249327Y-104234929D01*
X95285970Y-104218836D01*
X95320675Y-104197482D01*
X95340847Y-104181367D01*
X95368629Y-104156537D01*
X95368629Y-104089128D01*
X95368463Y-104061571D01*
X95367866Y-104042238D01*
X95366688Y-104029693D01*
X95364779Y-104022500D01*
X95361991Y-104019225D01*
X95361328Y-104018918D01*
X95352506Y-104017954D01*
X95336160Y-104018289D01*
X95314312Y-104019716D01*
X95288984Y-104022029D01*
X95262197Y-104025020D01*
X95235973Y-104028482D01*
X95212333Y-104032208D01*
X95193299Y-104035992D01*
X95192253Y-104036239D01*
X95155341Y-104046428D01*
X95126266Y-104057717D01*
X95103205Y-104070899D01*
X95091273Y-104080244D01*
X95072497Y-104100371D01*
X95061908Y-104121756D01*
X95058175Y-104147319D01*
X95058130Y-104152871D01*
X94861818Y-104152871D01*
X94861870Y-104144824D01*
X94865390Y-104114236D01*
G37*
%LPC*%
D14*
X87884000Y-92964000D03*
X87884000Y-133350000D03*
X153416000Y-133350000D03*
D15*
X90424000Y-90424000D03*
D16*
X115570000Y-108585000D03*
X115570000Y-110285000D03*
D17*
X96100000Y-120269000D03*
X94400000Y-120269000D03*
D16*
X146050000Y-108585000D03*
X146050000Y-110285000D03*
D15*
X150876000Y-90424000D03*
D18*
X87884000Y-90424000D03*
X153416000Y-90424000D03*
D19*
X93980000Y-123190000D03*
D20*
X93980000Y-125730000D03*
X96520000Y-123190000D03*
X96520000Y-125730000D03*
X99060000Y-123190000D03*
X99060000Y-125730000D03*
X101600000Y-123190000D03*
X101600000Y-125730000D03*
X104140000Y-123190000D03*
X104140000Y-125730000D03*
X106680000Y-123190000D03*
X106680000Y-125730000D03*
X109220000Y-123190000D03*
X109220000Y-125730000D03*
X111760000Y-123190000D03*
X111760000Y-125730000D03*
X114300000Y-123190000D03*
X114300000Y-125730000D03*
X116840000Y-123190000D03*
X116840000Y-125730000D03*
X119380000Y-123190000D03*
X119380000Y-125730000D03*
X121920000Y-123190000D03*
X121920000Y-125730000D03*
X124460000Y-123190000D03*
X124460000Y-125730000D03*
X127000000Y-123190000D03*
X127000000Y-125730000D03*
X129540000Y-123190000D03*
X129540000Y-125730000D03*
X132080000Y-123190000D03*
X132080000Y-125730000D03*
X134620000Y-123190000D03*
X134620000Y-125730000D03*
X137160000Y-123190000D03*
X137160000Y-125730000D03*
X139700000Y-123190000D03*
X139700000Y-125730000D03*
X142240000Y-123190000D03*
X142240000Y-125730000D03*
X144780000Y-123190000D03*
X144780000Y-125730000D03*
X147320000Y-123190000D03*
X147320000Y-125730000D03*
D18*
X147066000Y-133350000D03*
D15*
X94234000Y-130810000D03*
X147066000Y-130810000D03*
D21*
X143510000Y-94615000D03*
X142240000Y-94615000D03*
X140970000Y-94615000D03*
X139700000Y-94615000D03*
X138430000Y-94615000D03*
X137160000Y-94615000D03*
X135890000Y-94615000D03*
X134620000Y-94615000D03*
X133350000Y-94615000D03*
X132080000Y-94615000D03*
X130810000Y-94615000D03*
X129540000Y-94615000D03*
X128270000Y-94615000D03*
X127000000Y-94615000D03*
X125730000Y-94615000D03*
X124460000Y-94615000D03*
X123190000Y-94615000D03*
X121920000Y-94615000D03*
X120650000Y-94615000D03*
X119380000Y-94615000D03*
X118110000Y-94615000D03*
X118110000Y-103505000D03*
X119380000Y-103505000D03*
X120650000Y-103505000D03*
X121920000Y-103505000D03*
X123190000Y-103505000D03*
X124460000Y-103505000D03*
X125730000Y-103505000D03*
X127000000Y-103505000D03*
X128270000Y-103505000D03*
X129540000Y-103505000D03*
X130810000Y-103505000D03*
X132080000Y-103505000D03*
X133350000Y-103505000D03*
X134620000Y-103505000D03*
X135890000Y-103505000D03*
X137160000Y-103505000D03*
X138430000Y-103505000D03*
X139700000Y-103505000D03*
X140970000Y-103505000D03*
X142240000Y-103505000D03*
X143510000Y-103505000D03*
D22*
X100330000Y-115505000D03*
X101600000Y-115505000D03*
X102870000Y-115505000D03*
X104140000Y-115505000D03*
X105410000Y-115505000D03*
X106680000Y-115505000D03*
X107950000Y-115505000D03*
X107950000Y-110555000D03*
X106680000Y-110555000D03*
X105410000Y-110555000D03*
X104140000Y-110555000D03*
X102870000Y-110555000D03*
X101600000Y-110555000D03*
X100330000Y-110555000D03*
D21*
X143510000Y-108585000D03*
X142240000Y-108585000D03*
X140970000Y-108585000D03*
X139700000Y-108585000D03*
X138430000Y-108585000D03*
X137160000Y-108585000D03*
X135890000Y-108585000D03*
X134620000Y-108585000D03*
X133350000Y-108585000D03*
X132080000Y-108585000D03*
X130810000Y-108585000D03*
X129540000Y-108585000D03*
X128270000Y-108585000D03*
X127000000Y-108585000D03*
X125730000Y-108585000D03*
X124460000Y-108585000D03*
X123190000Y-108585000D03*
X121920000Y-108585000D03*
X120650000Y-108585000D03*
X119380000Y-108585000D03*
X118110000Y-108585000D03*
X118110000Y-117475000D03*
X119380000Y-117475000D03*
X120650000Y-117475000D03*
X121920000Y-117475000D03*
X123190000Y-117475000D03*
X124460000Y-117475000D03*
X125730000Y-117475000D03*
X127000000Y-117475000D03*
X128270000Y-117475000D03*
X129540000Y-117475000D03*
X130810000Y-117475000D03*
X132080000Y-117475000D03*
X133350000Y-117475000D03*
X134620000Y-117475000D03*
X135890000Y-117475000D03*
X137160000Y-117475000D03*
X138430000Y-117475000D03*
X139700000Y-117475000D03*
X140970000Y-117475000D03*
X142240000Y-117475000D03*
X143510000Y-117475000D03*
D23*
X145200000Y-120269000D03*
X146900000Y-120269000D03*
D16*
X98425000Y-110617000D03*
X98425000Y-112317000D03*
X146050000Y-94615000D03*
X146050000Y-96315000D03*
X115570000Y-94615000D03*
X115570000Y-96315000D03*
D18*
X94234000Y-133350000D03*
D24*
X93472000Y-91313000D03*
X147828000Y-91313000D03*
M02*
