M48
; DRILL file {KiCad (6.0.2-0)} date Wednesday, August 10, 2022 at 03:19:09 AM
; FORMAT={-:-/ absolute / inch / decimal}
; #@! TF.CreationDate,2022-08-10T03:19:09-04:00
; #@! TF.GenerationSoftware,Kicad,Pcbnew,(6.0.2-0)
; #@! TF.FileFunction,MixedPlating,1,2
FMAT,2
INCH
; #@! TA.AperFunction,Plated,PTH,ViaDrill
T1C0.0079
; #@! TA.AperFunction,Plated,PTH,ViaDrill
T2C0.0118
; #@! TA.AperFunction,Plated,PTH,ComponentDrill
T3C0.0394
; #@! TA.AperFunction,Plated,PTH,ComponentDrill
T4C0.0433
; #@! TA.AperFunction,NonPlated,NPTH,ComponentDrill
T5C0.0454
; #@! TA.AperFunction,NonPlated,NPTH,ComponentDrill
T6C0.1181
%
G90
G05
T1
X3.43Y-3.88
X3.43Y-4.08
X3.43Y-4.28
X3.43Y-4.48
X3.43Y-4.68
X3.43Y-4.88
X3.43Y-5.08
X3.43Y-5.28
X3.51Y-3.78
X3.53Y-3.98
X3.53Y-4.18
X3.53Y-4.38
X3.53Y-4.58
X3.53Y-4.78
X3.53Y-4.98
X3.53Y-5.18
X3.62Y-3.53
X3.63Y-4.28
X3.63Y-4.48
X3.63Y-4.68
X3.63Y-4.88
X3.63Y-5.08
X3.63Y-5.28
X3.73Y-4.18
X3.73Y-4.38
X3.73Y-4.58
X3.74Y-3.53
X3.75Y-4.995
X3.78Y-3.61
X3.815Y-4.2175
X3.815Y-4.675
X3.83Y-5.08
X3.83Y-5.28
X3.85Y-3.53
X3.85Y-4.995
X3.8575Y-4.26
X3.875Y-4.78
X3.915Y-4.2075
X3.92Y-4.6575
X3.925Y-4.78
X3.93Y-5.18
X3.95Y-3.61
X3.95Y-4.995
X3.955Y-4.6225
X3.975Y-4.78
X3.9825Y-4.2775
X3.9925Y-4.68
X3.995Y-4.6275
X4.005Y-4.46
X4.0225Y-4.71
X4.025Y-4.29
X4.025Y-4.78
X4.03Y-5.08
X4.03Y-5.28
X4.045Y-4.4225
X4.0475Y-4.625
X4.05Y-3.53
X4.05Y-4.6825
X4.05Y-4.995
X4.075Y-4.72
X4.075Y-4.78
X4.0775Y-4.655
X4.1Y-4.6
X4.115Y-4.21
X4.125Y-4.64
X4.125Y-4.78
X4.13Y-4.425
X4.13Y-5.18
X4.15Y-3.61
X4.15Y-4.3
X4.15Y-4.48
X4.15Y-4.995
X4.205Y-4.21
X4.225Y-4.4225
X4.23Y-5.08
X4.23Y-5.28
X4.2425Y-3.685
X4.25Y-3.53
X4.25Y-4.995
X4.29Y-4.2875
X4.315Y-3.8075
X4.315Y-4.0075
X4.33Y-5.18
X4.35Y-4.995
X4.3825Y-4.0325
X4.3825Y-3.685
X4.4225Y-3.61
X4.43Y-5.08
X4.43Y-5.28
X4.4325Y-4.09
X4.445Y-4.1325
X4.45Y-3.53
X4.45Y-4.995
X4.52Y-4.7
X4.5225Y-4.78
X4.53Y-5.18
X4.55Y-4.995
X4.63Y-5.08
X4.63Y-5.28
X4.65Y-3.53
X4.65Y-3.65
X4.65Y-4.995
X4.68Y-4.3725
X4.68Y-4.47
X4.6875Y-3.6325
X4.7Y-3.99
X4.725Y-3.8
X4.725Y-4.7825
X4.75Y-3.99
X4.75Y-4.995
X4.75Y-5.18
X4.775Y-3.8
X4.8Y-3.99
X4.825Y-3.8
X4.83Y-3.6325
X4.85Y-3.53
X4.85Y-4.995
X4.855Y-3.83
X4.87Y-5.08
X4.87Y-5.28
X4.8725Y-3.62
X4.875Y-3.99
X4.875Y-4.545
X4.88Y-4.175
X4.9Y-4.355
X4.925Y-3.805
X4.925Y-4.165
X4.925Y-4.545
X4.9275Y-3.6125
X4.95Y-3.99
X4.95Y-4.355
X4.95Y-4.995
X4.9575Y-3.585
X4.97Y-5.18
X4.975Y-3.805
X4.98Y-3.6175
X4.995Y-4.165
X5.0Y-3.84
X5.0Y-3.94
X5.03Y-3.57
X5.035Y-3.6325
X5.05Y-3.53
X5.05Y-4.995
X5.055Y-4.175
X5.07Y-3.9275
X5.07Y-5.08
X5.07Y-5.28
X5.075Y-3.84
X5.075Y-4.545
X5.0925Y-3.6325
X5.1Y-4.175
X5.1Y-4.405
X5.1Y-4.7175
X5.105Y-3.81
X5.12Y-3.99
X5.125Y-4.545
X5.145Y-3.81
X5.15Y-3.63
X5.15Y-4.405
X5.15Y-4.995
X5.16Y-3.975
X5.17Y-5.18
X5.175Y-3.5975
X5.175Y-3.84
X5.175Y-4.545
X5.2Y-3.63
X5.2Y-3.99
X5.2Y-4.3475
X5.2Y-4.405
X5.2Y-4.7
X5.225Y-3.5825
X5.225Y-4.545
X5.25Y-3.53
X5.25Y-3.63
X5.25Y-3.975
X5.25Y-4.3475
X5.25Y-4.405
X5.25Y-4.7
X5.25Y-4.995
X5.27Y-5.08
X5.27Y-5.28
X5.275Y-3.805
X5.275Y-4.545
X5.3Y-3.99
X5.3Y-4.3475
X5.3Y-4.405
X5.3Y-4.7
X5.3225Y-4.755
X5.325Y-3.63
X5.325Y-3.805
X5.325Y-4.545
X5.35Y-3.99
X5.35Y-4.375
X5.35Y-4.415
X5.35Y-4.7
X5.35Y-4.9
X5.35Y-4.995
X5.37Y-3.825
X5.37Y-5.18
X5.4Y-4.405
X5.425Y-3.61
X5.43Y-3.825
X5.45Y-3.53
X5.45Y-4.375
X5.45Y-4.415
X5.45Y-4.995
X5.47Y-4.7725
X5.47Y-5.08
X5.47Y-5.28
X5.475Y-3.61
X5.475Y-3.805
X5.475Y-4.545
X5.5Y-3.99
X5.5Y-4.3475
X5.5Y-4.405
X5.52Y-4.7725
X5.525Y-3.61
X5.525Y-3.805
X5.525Y-4.545
X5.55Y-3.99
X5.55Y-4.3475
X5.55Y-4.405
X5.55Y-4.995
X5.57Y-4.7725
X5.57Y-5.18
X5.575Y-3.61
X5.575Y-3.805
X5.575Y-4.545
X5.6Y-3.99
X5.6Y-4.3475
X5.6Y-4.405
X5.62Y-3.825
X5.62Y-4.7725
X5.625Y-3.61
X5.65Y-3.53
X5.65Y-4.995
X5.67Y-5.08
X5.67Y-5.28
X5.75Y-4.995
X5.76Y-3.53
X5.76Y-4.4775
X5.77Y-4.58
X5.7975Y-4.0525
X5.87Y-3.68
X5.87Y-4.48
X5.87Y-4.6775
X5.87Y-4.88
X5.87Y-5.08
X5.87Y-5.28
X5.8725Y-3.8775
X5.8725Y-4.08
X5.8725Y-4.2775
X5.88Y-3.53
X5.97Y-3.78
X5.97Y-3.9775
X5.97Y-4.18
X5.97Y-4.3775
X5.97Y-4.58
X5.97Y-4.7775
X5.97Y-4.98
X5.97Y-5.18
X6.07Y-3.68
X6.07Y-3.8775
X6.07Y-4.08
X6.07Y-4.2775
X6.07Y-4.48
X6.07Y-4.6775
X6.07Y-4.88
X6.07Y-5.08
X6.07Y-5.28
T2
X3.68Y-4.735
X3.7225Y-4.69
X3.7775Y-4.69
X3.82Y-4.735
X3.83Y-4.3625
X3.83Y-4.415
X3.875Y-4.3175
X3.875Y-4.46
X3.92Y-4.355
X3.92Y-4.4325
X3.95Y-4.2975
X3.95Y-4.4075
X4.25Y-4.4925
X4.25Y-4.6025
X4.28Y-4.545
X4.505Y-3.7325
X4.505Y-3.785
X4.505Y-4.2825
X4.505Y-4.335
X4.55Y-3.6875
X4.55Y-3.83
X4.55Y-4.2375
X4.55Y-4.38
X4.595Y-3.785
X4.595Y-4.335
X4.62Y-3.725
X4.62Y-4.075
X4.62Y-4.275
X4.62Y-4.625
X4.6475Y-4.1975
X4.65Y-3.8
X4.65Y-4.0
X4.65Y-4.1525
X4.65Y-4.35
X4.65Y-4.55
X4.65Y-4.7025
X5.4Y-3.6475
X5.4Y-3.8
X5.4Y-4.0
X5.4Y-4.1525
X5.4Y-4.1975
X5.4Y-4.35
X5.4Y-4.55
X5.4Y-4.7025
X5.65Y-3.6475
X5.65Y-3.8
X5.65Y-4.0
X5.65Y-4.1525
X5.65Y-4.35
X5.65Y-4.55
X5.65Y-4.7025
X5.6525Y-4.1975
X5.68Y-3.725
X5.68Y-4.075
X5.68Y-4.275
X5.68Y-4.625
X5.68Y-4.735
X5.705Y-3.785
X5.705Y-4.335
X5.7225Y-4.69
X5.75Y-3.6875
X5.75Y-3.83
X5.75Y-4.2375
X5.75Y-4.38
X5.7775Y-4.69
X5.795Y-3.7325
X5.795Y-3.785
X5.795Y-4.2825
X5.795Y-4.335
X5.82Y-4.735
T3
X3.7Y-4.85
X3.7Y-4.95
X3.8Y-4.85
X3.8Y-4.95
X3.9Y-4.85
X3.9Y-4.95
X4.0Y-4.85
X4.0Y-4.95
X4.1Y-4.85
X4.1Y-4.95
X4.2Y-4.85
X4.2Y-4.95
X4.3Y-4.85
X4.3Y-4.95
X4.4Y-4.85
X4.4Y-4.95
X4.5Y-4.85
X4.5Y-4.95
X4.6Y-4.85
X4.6Y-4.95
X4.7Y-4.85
X4.7Y-4.95
X4.8Y-4.85
X4.8Y-4.95
X4.9Y-4.85
X4.9Y-4.95
X5.0Y-4.85
X5.0Y-4.95
X5.1Y-4.85
X5.1Y-4.95
X5.2Y-4.85
X5.2Y-4.95
X5.3Y-4.85
X5.3Y-4.95
X5.4Y-4.85
X5.4Y-4.95
X5.5Y-4.85
X5.5Y-4.95
X5.6Y-4.85
X5.6Y-4.95
X5.7Y-4.85
X5.7Y-4.95
X5.8Y-4.85
X5.8Y-4.95
T4
X3.46Y-3.56
X3.71Y-5.25
X5.79Y-5.25
X6.04Y-3.56
T5
X3.46Y-3.66
X3.46Y-5.25
X6.04Y-5.25
T6
X3.68Y-3.595
X5.82Y-3.595
T0
M30
