G04 #@! TF.GenerationSoftware,KiCad,Pcbnew,(5.1.10-1-10_14)*
G04 #@! TF.CreationDate,2021-11-16T23:45:20-05:00*
G04 #@! TF.ProjectId,MacClassicRAMCard,4d616343-6c61-4737-9369-6352414d4361,rev?*
G04 #@! TF.SameCoordinates,Original*
G04 #@! TF.FileFunction,Other,Fab,Top*
%FSLAX46Y46*%
G04 Gerber Fmt 4.6, Leading zero omitted, Abs format (unit mm)*
G04 Created by KiCad (PCBNEW (5.1.10-1-10_14)) date 2021-11-16 23:45:20*
%MOMM*%
%LPD*%
G01*
G04 APERTURE LIST*
%ADD10C,0.100000*%
%ADD11C,0.150000*%
%ADD12C,0.063500*%
%ADD13C,0.203200*%
%ADD14C,0.127000*%
G04 APERTURE END LIST*
D10*
X92710000Y-128220000D02*
X92710000Y-135760000D01*
X147620000Y-123190000D02*
X147020000Y-123190000D01*
X147620000Y-127250000D02*
X147620000Y-123190000D01*
X147020000Y-123190000D02*
X147020000Y-127250000D01*
X145080000Y-123190000D02*
X144480000Y-123190000D01*
X145080000Y-127250000D02*
X145080000Y-123190000D01*
X144480000Y-123190000D02*
X144480000Y-127250000D01*
X142540000Y-123190000D02*
X141940000Y-123190000D01*
X142540000Y-127250000D02*
X142540000Y-123190000D01*
X141940000Y-123190000D02*
X141940000Y-127250000D01*
X140000000Y-123190000D02*
X139400000Y-123190000D01*
X140000000Y-127250000D02*
X140000000Y-123190000D01*
X139400000Y-123190000D02*
X139400000Y-127250000D01*
X137460000Y-123190000D02*
X136860000Y-123190000D01*
X137460000Y-127250000D02*
X137460000Y-123190000D01*
X136860000Y-123190000D02*
X136860000Y-127250000D01*
X134920000Y-123190000D02*
X134320000Y-123190000D01*
X134920000Y-127250000D02*
X134920000Y-123190000D01*
X134320000Y-123190000D02*
X134320000Y-127250000D01*
X132380000Y-123190000D02*
X131780000Y-123190000D01*
X132380000Y-127250000D02*
X132380000Y-123190000D01*
X131780000Y-123190000D02*
X131780000Y-127250000D01*
X129840000Y-123190000D02*
X129240000Y-123190000D01*
X129840000Y-127250000D02*
X129840000Y-123190000D01*
X129240000Y-123190000D02*
X129240000Y-127250000D01*
X127300000Y-123190000D02*
X126700000Y-123190000D01*
X127300000Y-127250000D02*
X127300000Y-123190000D01*
X126700000Y-123190000D02*
X126700000Y-127250000D01*
X124760000Y-123190000D02*
X124160000Y-123190000D01*
X124760000Y-127250000D02*
X124760000Y-123190000D01*
X124160000Y-123190000D02*
X124160000Y-127250000D01*
X122220000Y-123190000D02*
X121620000Y-123190000D01*
X122220000Y-127250000D02*
X122220000Y-123190000D01*
X121620000Y-123190000D02*
X121620000Y-127250000D01*
X119680000Y-123190000D02*
X119080000Y-123190000D01*
X119680000Y-127250000D02*
X119680000Y-123190000D01*
X119080000Y-123190000D02*
X119080000Y-127250000D01*
X117140000Y-123190000D02*
X116540000Y-123190000D01*
X117140000Y-127250000D02*
X117140000Y-123190000D01*
X116540000Y-123190000D02*
X116540000Y-127250000D01*
X114600000Y-123190000D02*
X114000000Y-123190000D01*
X114600000Y-127250000D02*
X114600000Y-123190000D01*
X114000000Y-123190000D02*
X114000000Y-127250000D01*
X112060000Y-123190000D02*
X111460000Y-123190000D01*
X112060000Y-127250000D02*
X112060000Y-123190000D01*
X111460000Y-123190000D02*
X111460000Y-127250000D01*
X109520000Y-123190000D02*
X108920000Y-123190000D01*
X109520000Y-127250000D02*
X109520000Y-123190000D01*
X108920000Y-123190000D02*
X108920000Y-127250000D01*
X106980000Y-123190000D02*
X106380000Y-123190000D01*
X106980000Y-127250000D02*
X106980000Y-123190000D01*
X106380000Y-123190000D02*
X106380000Y-127250000D01*
X104440000Y-123190000D02*
X103840000Y-123190000D01*
X104440000Y-127250000D02*
X104440000Y-123190000D01*
X103840000Y-123190000D02*
X103840000Y-127250000D01*
X101900000Y-123190000D02*
X101300000Y-123190000D01*
X101900000Y-127250000D02*
X101900000Y-123190000D01*
X101300000Y-123190000D02*
X101300000Y-127250000D01*
X99360000Y-123190000D02*
X98760000Y-123190000D01*
X99360000Y-127250000D02*
X99360000Y-123190000D01*
X98760000Y-123190000D02*
X98760000Y-127250000D01*
X96820000Y-123190000D02*
X96220000Y-123190000D01*
X96820000Y-127250000D02*
X96820000Y-123190000D01*
X96220000Y-123190000D02*
X96220000Y-127250000D01*
X94280000Y-123190000D02*
X93680000Y-123190000D01*
X94280000Y-127250000D02*
X94280000Y-123190000D01*
X93680000Y-123190000D02*
X93680000Y-127250000D01*
X148590000Y-135760000D02*
X92710000Y-135760000D01*
X148590000Y-127250000D02*
X148590000Y-135760000D01*
X93680000Y-127250000D02*
X148590000Y-127250000D01*
X92710000Y-128220000D02*
X93680000Y-127250000D01*
X149336000Y-118364000D02*
G75*
G03*
X149336000Y-118364000I-1000000J0D01*
G01*
X93964000Y-118364000D02*
G75*
G03*
X93964000Y-118364000I-1000000J0D01*
G01*
X145526000Y-133350000D02*
G75*
G03*
X145526000Y-133350000I-1000000J0D01*
G01*
X95234000Y-133350000D02*
G75*
G03*
X95234000Y-133350000I-1000000J0D01*
G01*
X148066000Y-133350000D02*
G75*
G03*
X148066000Y-133350000I-1000000J0D01*
G01*
X97774000Y-133350000D02*
G75*
G03*
X97774000Y-133350000I-1000000J0D01*
G01*
D11*
X114945000Y-108435000D02*
X116195000Y-108435000D01*
X116195000Y-108435000D02*
X116195000Y-110435000D01*
X116195000Y-110435000D02*
X114945000Y-110435000D01*
X114945000Y-110435000D02*
X114945000Y-108435000D01*
X145050000Y-120894000D02*
X145050000Y-119644000D01*
X145050000Y-119644000D02*
X147050000Y-119644000D01*
X147050000Y-119644000D02*
X147050000Y-120894000D01*
X147050000Y-120894000D02*
X145050000Y-120894000D01*
D10*
X93964000Y-90424000D02*
G75*
G03*
X93964000Y-90424000I-1000000J0D01*
G01*
X96504000Y-90424000D02*
G75*
G03*
X96504000Y-90424000I-1000000J0D01*
G01*
X146796000Y-90424000D02*
G75*
G03*
X146796000Y-90424000I-1000000J0D01*
G01*
X93964000Y-115824000D02*
G75*
G03*
X93964000Y-115824000I-1000000J0D01*
G01*
X149336000Y-115824000D02*
G75*
G03*
X149336000Y-115824000I-1000000J0D01*
G01*
X149336000Y-90424000D02*
G75*
G03*
X149336000Y-90424000I-1000000J0D01*
G01*
D11*
X145425000Y-94465000D02*
X146675000Y-94465000D01*
X146675000Y-94465000D02*
X146675000Y-96465000D01*
X146675000Y-96465000D02*
X145425000Y-96465000D01*
X145425000Y-96465000D02*
X145425000Y-94465000D01*
X114945000Y-94465000D02*
X116195000Y-94465000D01*
X116195000Y-94465000D02*
X116195000Y-96465000D01*
X116195000Y-96465000D02*
X114945000Y-96465000D01*
X114945000Y-96465000D02*
X114945000Y-94465000D01*
X145425000Y-110435000D02*
X145425000Y-108435000D01*
X146675000Y-110435000D02*
X145425000Y-110435000D01*
X146675000Y-108435000D02*
X146675000Y-110435000D01*
X145425000Y-108435000D02*
X146675000Y-108435000D01*
X97800000Y-112467000D02*
X97800000Y-110467000D01*
X99050000Y-112467000D02*
X97800000Y-112467000D01*
X99050000Y-110467000D02*
X99050000Y-112467000D01*
X97800000Y-110467000D02*
X99050000Y-110467000D01*
D10*
X100800000Y-114980000D02*
X99825000Y-114005000D01*
X108455000Y-114980000D02*
X100800000Y-114980000D01*
X108455000Y-111080000D02*
X108455000Y-114980000D01*
X99825000Y-111080000D02*
X108455000Y-111080000D01*
X99825000Y-114005000D02*
X99825000Y-111080000D01*
D11*
X94250000Y-119644000D02*
X96250000Y-119644000D01*
X94250000Y-120894000D02*
X94250000Y-119644000D01*
X96250000Y-120894000D02*
X94250000Y-120894000D01*
X96250000Y-119644000D02*
X96250000Y-120894000D01*
X143605000Y-94040000D02*
X144605000Y-95040000D01*
X143605000Y-94040000D02*
X117015000Y-94040000D01*
X117015000Y-104080000D02*
X117015000Y-94040000D01*
X144605000Y-104080000D02*
X117015000Y-104080000D01*
X144605000Y-95040000D02*
X144605000Y-104080000D01*
X144605000Y-109010000D02*
X144605000Y-118050000D01*
X144605000Y-118050000D02*
X117015000Y-118050000D01*
X117015000Y-118050000D02*
X117015000Y-108010000D01*
X143605000Y-108010000D02*
X117015000Y-108010000D01*
X143605000Y-108010000D02*
X144605000Y-109010000D01*
X120316666Y-130957380D02*
X120316666Y-131671666D01*
X120269047Y-131814523D01*
X120173809Y-131909761D01*
X120030952Y-131957380D01*
X119935714Y-131957380D01*
X121316666Y-131957380D02*
X120745238Y-131957380D01*
X121030952Y-131957380D02*
X121030952Y-130957380D01*
X120935714Y-131100238D01*
X120840476Y-131195476D01*
X120745238Y-131243095D01*
D10*
X147907428Y-118335428D02*
X147774095Y-118335428D01*
X147774095Y-118544952D02*
X147774095Y-118144952D01*
X147964571Y-118144952D01*
X148116952Y-118544952D02*
X148116952Y-118144952D01*
X148307428Y-118544952D02*
X148307428Y-118144952D01*
X148402666Y-118144952D01*
X148459809Y-118164000D01*
X148497904Y-118202095D01*
X148516952Y-118240190D01*
X148536000Y-118316380D01*
X148536000Y-118373523D01*
X148516952Y-118449714D01*
X148497904Y-118487809D01*
X148459809Y-118525904D01*
X148402666Y-118544952D01*
X148307428Y-118544952D01*
X148688380Y-118183047D02*
X148707428Y-118164000D01*
X148745523Y-118144952D01*
X148840761Y-118144952D01*
X148878857Y-118164000D01*
X148897904Y-118183047D01*
X148916952Y-118221142D01*
X148916952Y-118259238D01*
X148897904Y-118316380D01*
X148669333Y-118544952D01*
X148916952Y-118544952D01*
X92535428Y-118335428D02*
X92402095Y-118335428D01*
X92402095Y-118544952D02*
X92402095Y-118144952D01*
X92592571Y-118144952D01*
X92744952Y-118544952D02*
X92744952Y-118144952D01*
X92935428Y-118544952D02*
X92935428Y-118144952D01*
X93030666Y-118144952D01*
X93087809Y-118164000D01*
X93125904Y-118202095D01*
X93144952Y-118240190D01*
X93164000Y-118316380D01*
X93164000Y-118373523D01*
X93144952Y-118449714D01*
X93125904Y-118487809D01*
X93087809Y-118525904D01*
X93030666Y-118544952D01*
X92935428Y-118544952D01*
X93544952Y-118544952D02*
X93316380Y-118544952D01*
X93430666Y-118544952D02*
X93430666Y-118144952D01*
X93392571Y-118202095D01*
X93354476Y-118240190D01*
X93316380Y-118259238D01*
X144097428Y-133321428D02*
X143964095Y-133321428D01*
X143964095Y-133530952D02*
X143964095Y-133130952D01*
X144154571Y-133130952D01*
X144306952Y-133530952D02*
X144306952Y-133130952D01*
X144497428Y-133530952D02*
X144497428Y-133130952D01*
X144592666Y-133130952D01*
X144649809Y-133150000D01*
X144687904Y-133188095D01*
X144706952Y-133226190D01*
X144726000Y-133302380D01*
X144726000Y-133359523D01*
X144706952Y-133435714D01*
X144687904Y-133473809D01*
X144649809Y-133511904D01*
X144592666Y-133530952D01*
X144497428Y-133530952D01*
X145068857Y-133130952D02*
X144992666Y-133130952D01*
X144954571Y-133150000D01*
X144935523Y-133169047D01*
X144897428Y-133226190D01*
X144878380Y-133302380D01*
X144878380Y-133454761D01*
X144897428Y-133492857D01*
X144916476Y-133511904D01*
X144954571Y-133530952D01*
X145030761Y-133530952D01*
X145068857Y-133511904D01*
X145087904Y-133492857D01*
X145106952Y-133454761D01*
X145106952Y-133359523D01*
X145087904Y-133321428D01*
X145068857Y-133302380D01*
X145030761Y-133283333D01*
X144954571Y-133283333D01*
X144916476Y-133302380D01*
X144897428Y-133321428D01*
X144878380Y-133359523D01*
X93929238Y-133530952D02*
X93929238Y-133130952D01*
X93929238Y-133321428D02*
X94157809Y-133321428D01*
X94157809Y-133530952D02*
X94157809Y-133130952D01*
X94538761Y-133130952D02*
X94348285Y-133130952D01*
X94329238Y-133321428D01*
X94348285Y-133302380D01*
X94386380Y-133283333D01*
X94481619Y-133283333D01*
X94519714Y-133302380D01*
X94538761Y-133321428D01*
X94557809Y-133359523D01*
X94557809Y-133454761D01*
X94538761Y-133492857D01*
X94519714Y-133511904D01*
X94481619Y-133530952D01*
X94386380Y-133530952D01*
X94348285Y-133511904D01*
X94329238Y-133492857D01*
X146761238Y-133530952D02*
X146761238Y-133130952D01*
X146761238Y-133321428D02*
X146989809Y-133321428D01*
X146989809Y-133530952D02*
X146989809Y-133130952D01*
X147351714Y-133130952D02*
X147275523Y-133130952D01*
X147237428Y-133150000D01*
X147218380Y-133169047D01*
X147180285Y-133226190D01*
X147161238Y-133302380D01*
X147161238Y-133454761D01*
X147180285Y-133492857D01*
X147199333Y-133511904D01*
X147237428Y-133530952D01*
X147313619Y-133530952D01*
X147351714Y-133511904D01*
X147370761Y-133492857D01*
X147389809Y-133454761D01*
X147389809Y-133359523D01*
X147370761Y-133321428D01*
X147351714Y-133302380D01*
X147313619Y-133283333D01*
X147237428Y-133283333D01*
X147199333Y-133302380D01*
X147180285Y-133321428D01*
X147161238Y-133359523D01*
X96345428Y-133321428D02*
X96212095Y-133321428D01*
X96212095Y-133530952D02*
X96212095Y-133130952D01*
X96402571Y-133130952D01*
X96554952Y-133530952D02*
X96554952Y-133130952D01*
X96745428Y-133530952D02*
X96745428Y-133130952D01*
X96840666Y-133130952D01*
X96897809Y-133150000D01*
X96935904Y-133188095D01*
X96954952Y-133226190D01*
X96974000Y-133302380D01*
X96974000Y-133359523D01*
X96954952Y-133435714D01*
X96935904Y-133473809D01*
X96897809Y-133511904D01*
X96840666Y-133530952D01*
X96745428Y-133530952D01*
X97335904Y-133130952D02*
X97145428Y-133130952D01*
X97126380Y-133321428D01*
X97145428Y-133302380D01*
X97183523Y-133283333D01*
X97278761Y-133283333D01*
X97316857Y-133302380D01*
X97335904Y-133321428D01*
X97354952Y-133359523D01*
X97354952Y-133454761D01*
X97335904Y-133492857D01*
X97316857Y-133511904D01*
X97278761Y-133530952D01*
X97183523Y-133530952D01*
X97145428Y-133511904D01*
X97126380Y-133492857D01*
D12*
X115660714Y-109477333D02*
X115672809Y-109489428D01*
X115684904Y-109525714D01*
X115684904Y-109549904D01*
X115672809Y-109586190D01*
X115648619Y-109610380D01*
X115624428Y-109622476D01*
X115576047Y-109634571D01*
X115539761Y-109634571D01*
X115491380Y-109622476D01*
X115467190Y-109610380D01*
X115443000Y-109586190D01*
X115430904Y-109549904D01*
X115430904Y-109525714D01*
X115443000Y-109489428D01*
X115455095Y-109477333D01*
X115515571Y-109259619D02*
X115684904Y-109259619D01*
X115418809Y-109320095D02*
X115600238Y-109380571D01*
X115600238Y-109223333D01*
X115105095Y-109743428D02*
X115093000Y-109731333D01*
X115080904Y-109707142D01*
X115080904Y-109646666D01*
X115093000Y-109622476D01*
X115105095Y-109610380D01*
X115129285Y-109598285D01*
X115153476Y-109598285D01*
X115189761Y-109610380D01*
X115334904Y-109755523D01*
X115334904Y-109598285D01*
X115165571Y-109380571D02*
X115334904Y-109380571D01*
X115165571Y-109489428D02*
X115298619Y-109489428D01*
X115322809Y-109477333D01*
X115334904Y-109453142D01*
X115334904Y-109416857D01*
X115322809Y-109392666D01*
X115310714Y-109380571D01*
X115105095Y-109271714D02*
X115093000Y-109259619D01*
X115080904Y-109235428D01*
X115080904Y-109174952D01*
X115093000Y-109150761D01*
X115105095Y-109138666D01*
X115129285Y-109126571D01*
X115153476Y-109126571D01*
X115189761Y-109138666D01*
X115334904Y-109283809D01*
X115334904Y-109126571D01*
X146007666Y-120359714D02*
X145995571Y-120371809D01*
X145959285Y-120383904D01*
X145935095Y-120383904D01*
X145898809Y-120371809D01*
X145874619Y-120347619D01*
X145862523Y-120323428D01*
X145850428Y-120275047D01*
X145850428Y-120238761D01*
X145862523Y-120190380D01*
X145874619Y-120166190D01*
X145898809Y-120142000D01*
X145935095Y-120129904D01*
X145959285Y-120129904D01*
X145995571Y-120142000D01*
X146007666Y-120154095D01*
X146104428Y-120154095D02*
X146116523Y-120142000D01*
X146140714Y-120129904D01*
X146201190Y-120129904D01*
X146225380Y-120142000D01*
X146237476Y-120154095D01*
X146249571Y-120178285D01*
X146249571Y-120202476D01*
X146237476Y-120238761D01*
X146092333Y-120383904D01*
X146249571Y-120383904D01*
X145741571Y-120504095D02*
X145753666Y-120492000D01*
X145777857Y-120479904D01*
X145838333Y-120479904D01*
X145862523Y-120492000D01*
X145874619Y-120504095D01*
X145886714Y-120528285D01*
X145886714Y-120552476D01*
X145874619Y-120588761D01*
X145729476Y-120733904D01*
X145886714Y-120733904D01*
X146104428Y-120564571D02*
X146104428Y-120733904D01*
X145995571Y-120564571D02*
X145995571Y-120697619D01*
X146007666Y-120721809D01*
X146031857Y-120733904D01*
X146068142Y-120733904D01*
X146092333Y-120721809D01*
X146104428Y-120709714D01*
X146213285Y-120504095D02*
X146225380Y-120492000D01*
X146249571Y-120479904D01*
X146310047Y-120479904D01*
X146334238Y-120492000D01*
X146346333Y-120504095D01*
X146358428Y-120528285D01*
X146358428Y-120552476D01*
X146346333Y-120588761D01*
X146201190Y-120733904D01*
X146358428Y-120733904D01*
D10*
X92659238Y-90604952D02*
X92659238Y-90204952D01*
X92659238Y-90395428D02*
X92887809Y-90395428D01*
X92887809Y-90604952D02*
X92887809Y-90204952D01*
X93287809Y-90604952D02*
X93059238Y-90604952D01*
X93173523Y-90604952D02*
X93173523Y-90204952D01*
X93135428Y-90262095D01*
X93097333Y-90300190D01*
X93059238Y-90319238D01*
X95075428Y-90395428D02*
X94942095Y-90395428D01*
X94942095Y-90604952D02*
X94942095Y-90204952D01*
X95132571Y-90204952D01*
X95284952Y-90604952D02*
X95284952Y-90204952D01*
X95475428Y-90604952D02*
X95475428Y-90204952D01*
X95570666Y-90204952D01*
X95627809Y-90224000D01*
X95665904Y-90262095D01*
X95684952Y-90300190D01*
X95704000Y-90376380D01*
X95704000Y-90433523D01*
X95684952Y-90509714D01*
X95665904Y-90547809D01*
X95627809Y-90585904D01*
X95570666Y-90604952D01*
X95475428Y-90604952D01*
X95837333Y-90204952D02*
X96084952Y-90204952D01*
X95951619Y-90357333D01*
X96008761Y-90357333D01*
X96046857Y-90376380D01*
X96065904Y-90395428D01*
X96084952Y-90433523D01*
X96084952Y-90528761D01*
X96065904Y-90566857D01*
X96046857Y-90585904D01*
X96008761Y-90604952D01*
X95894476Y-90604952D01*
X95856380Y-90585904D01*
X95837333Y-90566857D01*
X145367428Y-90395428D02*
X145234095Y-90395428D01*
X145234095Y-90604952D02*
X145234095Y-90204952D01*
X145424571Y-90204952D01*
X145576952Y-90604952D02*
X145576952Y-90204952D01*
X145767428Y-90604952D02*
X145767428Y-90204952D01*
X145862666Y-90204952D01*
X145919809Y-90224000D01*
X145957904Y-90262095D01*
X145976952Y-90300190D01*
X145996000Y-90376380D01*
X145996000Y-90433523D01*
X145976952Y-90509714D01*
X145957904Y-90547809D01*
X145919809Y-90585904D01*
X145862666Y-90604952D01*
X145767428Y-90604952D01*
X146338857Y-90338285D02*
X146338857Y-90604952D01*
X146243619Y-90185904D02*
X146148380Y-90471619D01*
X146396000Y-90471619D01*
X92659238Y-116004952D02*
X92659238Y-115604952D01*
X92659238Y-115795428D02*
X92887809Y-115795428D01*
X92887809Y-116004952D02*
X92887809Y-115604952D01*
X93059238Y-115643047D02*
X93078285Y-115624000D01*
X93116380Y-115604952D01*
X93211619Y-115604952D01*
X93249714Y-115624000D01*
X93268761Y-115643047D01*
X93287809Y-115681142D01*
X93287809Y-115719238D01*
X93268761Y-115776380D01*
X93040190Y-116004952D01*
X93287809Y-116004952D01*
X148031238Y-116004952D02*
X148031238Y-115604952D01*
X148031238Y-115795428D02*
X148259809Y-115795428D01*
X148259809Y-116004952D02*
X148259809Y-115604952D01*
X148412190Y-115604952D02*
X148659809Y-115604952D01*
X148526476Y-115757333D01*
X148583619Y-115757333D01*
X148621714Y-115776380D01*
X148640761Y-115795428D01*
X148659809Y-115833523D01*
X148659809Y-115928761D01*
X148640761Y-115966857D01*
X148621714Y-115985904D01*
X148583619Y-116004952D01*
X148469333Y-116004952D01*
X148431238Y-115985904D01*
X148412190Y-115966857D01*
X148031238Y-90604952D02*
X148031238Y-90204952D01*
X148031238Y-90395428D02*
X148259809Y-90395428D01*
X148259809Y-90604952D02*
X148259809Y-90204952D01*
X148621714Y-90338285D02*
X148621714Y-90604952D01*
X148526476Y-90185904D02*
X148431238Y-90471619D01*
X148678857Y-90471619D01*
D12*
X146140714Y-95507333D02*
X146152809Y-95519428D01*
X146164904Y-95555714D01*
X146164904Y-95579904D01*
X146152809Y-95616190D01*
X146128619Y-95640380D01*
X146104428Y-95652476D01*
X146056047Y-95664571D01*
X146019761Y-95664571D01*
X145971380Y-95652476D01*
X145947190Y-95640380D01*
X145923000Y-95616190D01*
X145910904Y-95579904D01*
X145910904Y-95555714D01*
X145923000Y-95519428D01*
X145935095Y-95507333D01*
X145910904Y-95422666D02*
X145910904Y-95253333D01*
X146164904Y-95362190D01*
X145585095Y-95773428D02*
X145573000Y-95761333D01*
X145560904Y-95737142D01*
X145560904Y-95676666D01*
X145573000Y-95652476D01*
X145585095Y-95640380D01*
X145609285Y-95628285D01*
X145633476Y-95628285D01*
X145669761Y-95640380D01*
X145814904Y-95785523D01*
X145814904Y-95628285D01*
X145645571Y-95410571D02*
X145814904Y-95410571D01*
X145645571Y-95519428D02*
X145778619Y-95519428D01*
X145802809Y-95507333D01*
X145814904Y-95483142D01*
X145814904Y-95446857D01*
X145802809Y-95422666D01*
X145790714Y-95410571D01*
X145585095Y-95301714D02*
X145573000Y-95289619D01*
X145560904Y-95265428D01*
X145560904Y-95204952D01*
X145573000Y-95180761D01*
X145585095Y-95168666D01*
X145609285Y-95156571D01*
X145633476Y-95156571D01*
X145669761Y-95168666D01*
X145814904Y-95313809D01*
X145814904Y-95156571D01*
X115660714Y-95507333D02*
X115672809Y-95519428D01*
X115684904Y-95555714D01*
X115684904Y-95579904D01*
X115672809Y-95616190D01*
X115648619Y-95640380D01*
X115624428Y-95652476D01*
X115576047Y-95664571D01*
X115539761Y-95664571D01*
X115491380Y-95652476D01*
X115467190Y-95640380D01*
X115443000Y-95616190D01*
X115430904Y-95579904D01*
X115430904Y-95555714D01*
X115443000Y-95519428D01*
X115455095Y-95507333D01*
X115430904Y-95289619D02*
X115430904Y-95338000D01*
X115443000Y-95362190D01*
X115455095Y-95374285D01*
X115491380Y-95398476D01*
X115539761Y-95410571D01*
X115636523Y-95410571D01*
X115660714Y-95398476D01*
X115672809Y-95386380D01*
X115684904Y-95362190D01*
X115684904Y-95313809D01*
X115672809Y-95289619D01*
X115660714Y-95277523D01*
X115636523Y-95265428D01*
X115576047Y-95265428D01*
X115551857Y-95277523D01*
X115539761Y-95289619D01*
X115527666Y-95313809D01*
X115527666Y-95362190D01*
X115539761Y-95386380D01*
X115551857Y-95398476D01*
X115576047Y-95410571D01*
X115105095Y-95773428D02*
X115093000Y-95761333D01*
X115080904Y-95737142D01*
X115080904Y-95676666D01*
X115093000Y-95652476D01*
X115105095Y-95640380D01*
X115129285Y-95628285D01*
X115153476Y-95628285D01*
X115189761Y-95640380D01*
X115334904Y-95785523D01*
X115334904Y-95628285D01*
X115165571Y-95410571D02*
X115334904Y-95410571D01*
X115165571Y-95519428D02*
X115298619Y-95519428D01*
X115322809Y-95507333D01*
X115334904Y-95483142D01*
X115334904Y-95446857D01*
X115322809Y-95422666D01*
X115310714Y-95410571D01*
X115105095Y-95301714D02*
X115093000Y-95289619D01*
X115080904Y-95265428D01*
X115080904Y-95204952D01*
X115093000Y-95180761D01*
X115105095Y-95168666D01*
X115129285Y-95156571D01*
X115153476Y-95156571D01*
X115189761Y-95168666D01*
X115334904Y-95313809D01*
X115334904Y-95156571D01*
X146140714Y-109477333D02*
X146152809Y-109489428D01*
X146164904Y-109525714D01*
X146164904Y-109549904D01*
X146152809Y-109586190D01*
X146128619Y-109610380D01*
X146104428Y-109622476D01*
X146056047Y-109634571D01*
X146019761Y-109634571D01*
X145971380Y-109622476D01*
X145947190Y-109610380D01*
X145923000Y-109586190D01*
X145910904Y-109549904D01*
X145910904Y-109525714D01*
X145923000Y-109489428D01*
X145935095Y-109477333D01*
X145910904Y-109247523D02*
X145910904Y-109368476D01*
X146031857Y-109380571D01*
X146019761Y-109368476D01*
X146007666Y-109344285D01*
X146007666Y-109283809D01*
X146019761Y-109259619D01*
X146031857Y-109247523D01*
X146056047Y-109235428D01*
X146116523Y-109235428D01*
X146140714Y-109247523D01*
X146152809Y-109259619D01*
X146164904Y-109283809D01*
X146164904Y-109344285D01*
X146152809Y-109368476D01*
X146140714Y-109380571D01*
X145585095Y-109743428D02*
X145573000Y-109731333D01*
X145560904Y-109707142D01*
X145560904Y-109646666D01*
X145573000Y-109622476D01*
X145585095Y-109610380D01*
X145609285Y-109598285D01*
X145633476Y-109598285D01*
X145669761Y-109610380D01*
X145814904Y-109755523D01*
X145814904Y-109598285D01*
X145645571Y-109380571D02*
X145814904Y-109380571D01*
X145645571Y-109489428D02*
X145778619Y-109489428D01*
X145802809Y-109477333D01*
X145814904Y-109453142D01*
X145814904Y-109416857D01*
X145802809Y-109392666D01*
X145790714Y-109380571D01*
X145585095Y-109271714D02*
X145573000Y-109259619D01*
X145560904Y-109235428D01*
X145560904Y-109174952D01*
X145573000Y-109150761D01*
X145585095Y-109138666D01*
X145609285Y-109126571D01*
X145633476Y-109126571D01*
X145669761Y-109138666D01*
X145814904Y-109283809D01*
X145814904Y-109126571D01*
X98515714Y-111509333D02*
X98527809Y-111521428D01*
X98539904Y-111557714D01*
X98539904Y-111581904D01*
X98527809Y-111618190D01*
X98503619Y-111642380D01*
X98479428Y-111654476D01*
X98431047Y-111666571D01*
X98394761Y-111666571D01*
X98346380Y-111654476D01*
X98322190Y-111642380D01*
X98298000Y-111618190D01*
X98285904Y-111581904D01*
X98285904Y-111557714D01*
X98298000Y-111521428D01*
X98310095Y-111509333D01*
X98285904Y-111424666D02*
X98285904Y-111267428D01*
X98382666Y-111352095D01*
X98382666Y-111315809D01*
X98394761Y-111291619D01*
X98406857Y-111279523D01*
X98431047Y-111267428D01*
X98491523Y-111267428D01*
X98515714Y-111279523D01*
X98527809Y-111291619D01*
X98539904Y-111315809D01*
X98539904Y-111388380D01*
X98527809Y-111412571D01*
X98515714Y-111424666D01*
X97960095Y-111775428D02*
X97948000Y-111763333D01*
X97935904Y-111739142D01*
X97935904Y-111678666D01*
X97948000Y-111654476D01*
X97960095Y-111642380D01*
X97984285Y-111630285D01*
X98008476Y-111630285D01*
X98044761Y-111642380D01*
X98189904Y-111787523D01*
X98189904Y-111630285D01*
X98020571Y-111412571D02*
X98189904Y-111412571D01*
X98020571Y-111521428D02*
X98153619Y-111521428D01*
X98177809Y-111509333D01*
X98189904Y-111485142D01*
X98189904Y-111448857D01*
X98177809Y-111424666D01*
X98165714Y-111412571D01*
X97960095Y-111303714D02*
X97948000Y-111291619D01*
X97935904Y-111267428D01*
X97935904Y-111206952D01*
X97948000Y-111182761D01*
X97960095Y-111170666D01*
X97984285Y-111158571D01*
X98008476Y-111158571D01*
X98044761Y-111170666D01*
X98189904Y-111315809D01*
X98189904Y-111158571D01*
D13*
X103520723Y-112584895D02*
X103520723Y-113242876D01*
X103559428Y-113320285D01*
X103598133Y-113358990D01*
X103675542Y-113397695D01*
X103830361Y-113397695D01*
X103907771Y-113358990D01*
X103946476Y-113320285D01*
X103985180Y-113242876D01*
X103985180Y-112584895D01*
X104294819Y-112584895D02*
X104797980Y-112584895D01*
X104527047Y-112894533D01*
X104643161Y-112894533D01*
X104720571Y-112933238D01*
X104759276Y-112971942D01*
X104797980Y-113049352D01*
X104797980Y-113242876D01*
X104759276Y-113320285D01*
X104720571Y-113358990D01*
X104643161Y-113397695D01*
X104410933Y-113397695D01*
X104333523Y-113358990D01*
X104294819Y-113320285D01*
D14*
X102277333Y-113767809D02*
X102616000Y-113767809D01*
X102398285Y-114275809D01*
X103027238Y-113937142D02*
X103027238Y-114275809D01*
X102906285Y-113743619D02*
X102785333Y-114106476D01*
X103099809Y-114106476D01*
X103293333Y-114275809D02*
X103293333Y-113767809D01*
X103293333Y-114009714D02*
X103583619Y-114009714D01*
X103583619Y-114275809D02*
X103583619Y-113767809D01*
X104115809Y-114227428D02*
X104091619Y-114251619D01*
X104019047Y-114275809D01*
X103970666Y-114275809D01*
X103898095Y-114251619D01*
X103849714Y-114203238D01*
X103825523Y-114154857D01*
X103801333Y-114058095D01*
X103801333Y-113985523D01*
X103825523Y-113888761D01*
X103849714Y-113840380D01*
X103898095Y-113792000D01*
X103970666Y-113767809D01*
X104019047Y-113767809D01*
X104091619Y-113792000D01*
X104115809Y-113816190D01*
X104260952Y-113767809D02*
X104551238Y-113767809D01*
X104406095Y-114275809D02*
X104406095Y-113767809D01*
X104817333Y-113767809D02*
X104865714Y-113767809D01*
X104914095Y-113792000D01*
X104938285Y-113816190D01*
X104962476Y-113864571D01*
X104986666Y-113961333D01*
X104986666Y-114082285D01*
X104962476Y-114179047D01*
X104938285Y-114227428D01*
X104914095Y-114251619D01*
X104865714Y-114275809D01*
X104817333Y-114275809D01*
X104768952Y-114251619D01*
X104744761Y-114227428D01*
X104720571Y-114179047D01*
X104696380Y-114082285D01*
X104696380Y-113961333D01*
X104720571Y-113864571D01*
X104744761Y-113816190D01*
X104768952Y-113792000D01*
X104817333Y-113767809D01*
X105276952Y-113985523D02*
X105228571Y-113961333D01*
X105204380Y-113937142D01*
X105180190Y-113888761D01*
X105180190Y-113864571D01*
X105204380Y-113816190D01*
X105228571Y-113792000D01*
X105276952Y-113767809D01*
X105373714Y-113767809D01*
X105422095Y-113792000D01*
X105446285Y-113816190D01*
X105470476Y-113864571D01*
X105470476Y-113888761D01*
X105446285Y-113937142D01*
X105422095Y-113961333D01*
X105373714Y-113985523D01*
X105276952Y-113985523D01*
X105228571Y-114009714D01*
X105204380Y-114033904D01*
X105180190Y-114082285D01*
X105180190Y-114179047D01*
X105204380Y-114227428D01*
X105228571Y-114251619D01*
X105276952Y-114275809D01*
X105373714Y-114275809D01*
X105422095Y-114251619D01*
X105446285Y-114227428D01*
X105470476Y-114179047D01*
X105470476Y-114082285D01*
X105446285Y-114033904D01*
X105422095Y-114009714D01*
X105373714Y-113985523D01*
X105688190Y-114275809D02*
X105688190Y-113767809D01*
X105809142Y-113767809D01*
X105881714Y-113792000D01*
X105930095Y-113840380D01*
X105954285Y-113888761D01*
X105978476Y-113985523D01*
X105978476Y-114058095D01*
X105954285Y-114154857D01*
X105930095Y-114203238D01*
X105881714Y-114251619D01*
X105809142Y-114275809D01*
X105688190Y-114275809D01*
D12*
X95207666Y-120359714D02*
X95195571Y-120371809D01*
X95159285Y-120383904D01*
X95135095Y-120383904D01*
X95098809Y-120371809D01*
X95074619Y-120347619D01*
X95062523Y-120323428D01*
X95050428Y-120275047D01*
X95050428Y-120238761D01*
X95062523Y-120190380D01*
X95074619Y-120166190D01*
X95098809Y-120142000D01*
X95135095Y-120129904D01*
X95159285Y-120129904D01*
X95195571Y-120142000D01*
X95207666Y-120154095D01*
X95449571Y-120383904D02*
X95304428Y-120383904D01*
X95377000Y-120383904D02*
X95377000Y-120129904D01*
X95352809Y-120166190D01*
X95328619Y-120190380D01*
X95304428Y-120202476D01*
X94941571Y-119804095D02*
X94953666Y-119792000D01*
X94977857Y-119779904D01*
X95038333Y-119779904D01*
X95062523Y-119792000D01*
X95074619Y-119804095D01*
X95086714Y-119828285D01*
X95086714Y-119852476D01*
X95074619Y-119888761D01*
X94929476Y-120033904D01*
X95086714Y-120033904D01*
X95304428Y-119864571D02*
X95304428Y-120033904D01*
X95195571Y-119864571D02*
X95195571Y-119997619D01*
X95207666Y-120021809D01*
X95231857Y-120033904D01*
X95268142Y-120033904D01*
X95292333Y-120021809D01*
X95304428Y-120009714D01*
X95413285Y-119804095D02*
X95425380Y-119792000D01*
X95449571Y-119779904D01*
X95510047Y-119779904D01*
X95534238Y-119792000D01*
X95546333Y-119804095D01*
X95558428Y-119828285D01*
X95558428Y-119852476D01*
X95546333Y-119888761D01*
X95401190Y-120033904D01*
X95558428Y-120033904D01*
D13*
X130190723Y-98614895D02*
X130190723Y-99272876D01*
X130229428Y-99350285D01*
X130268133Y-99388990D01*
X130345542Y-99427695D01*
X130500361Y-99427695D01*
X130577771Y-99388990D01*
X130616476Y-99350285D01*
X130655180Y-99272876D01*
X130655180Y-98614895D01*
X131467980Y-99427695D02*
X131003523Y-99427695D01*
X131235752Y-99427695D02*
X131235752Y-98614895D01*
X131158342Y-98731009D01*
X131080933Y-98808419D01*
X131003523Y-98847123D01*
D14*
X128475619Y-100144666D02*
X128717523Y-100144666D01*
X128427238Y-100289809D02*
X128596571Y-99781809D01*
X128765904Y-100289809D01*
X128911047Y-100265619D02*
X128983619Y-100289809D01*
X129104571Y-100289809D01*
X129152952Y-100265619D01*
X129177142Y-100241428D01*
X129201333Y-100193047D01*
X129201333Y-100144666D01*
X129177142Y-100096285D01*
X129152952Y-100072095D01*
X129104571Y-100047904D01*
X129007809Y-100023714D01*
X128959428Y-99999523D01*
X128935238Y-99975333D01*
X128911047Y-99926952D01*
X128911047Y-99878571D01*
X128935238Y-99830190D01*
X128959428Y-99806000D01*
X129007809Y-99781809D01*
X129128761Y-99781809D01*
X129201333Y-99806000D01*
X129636761Y-99951142D02*
X129636761Y-100289809D01*
X129515809Y-99757619D02*
X129394857Y-100120476D01*
X129709333Y-100120476D01*
X130193142Y-100241428D02*
X130168952Y-100265619D01*
X130096380Y-100289809D01*
X130048000Y-100289809D01*
X129975428Y-100265619D01*
X129927047Y-100217238D01*
X129902857Y-100168857D01*
X129878666Y-100072095D01*
X129878666Y-99999523D01*
X129902857Y-99902761D01*
X129927047Y-99854380D01*
X129975428Y-99806000D01*
X130048000Y-99781809D01*
X130096380Y-99781809D01*
X130168952Y-99806000D01*
X130193142Y-99830190D01*
X130676952Y-100289809D02*
X130386666Y-100289809D01*
X130531809Y-100289809D02*
X130531809Y-99781809D01*
X130483428Y-99854380D01*
X130435047Y-99902761D01*
X130386666Y-99926952D01*
X130894666Y-100289809D02*
X130894666Y-99781809D01*
X131064000Y-100144666D01*
X131233333Y-99781809D01*
X131233333Y-100289809D01*
X131741333Y-100289809D02*
X131451047Y-100289809D01*
X131596190Y-100289809D02*
X131596190Y-99781809D01*
X131547809Y-99854380D01*
X131499428Y-99902761D01*
X131451047Y-99926952D01*
X132176761Y-99781809D02*
X132080000Y-99781809D01*
X132031619Y-99806000D01*
X132007428Y-99830190D01*
X131959047Y-99902761D01*
X131934857Y-99999523D01*
X131934857Y-100193047D01*
X131959047Y-100241428D01*
X131983238Y-100265619D01*
X132031619Y-100289809D01*
X132128380Y-100289809D01*
X132176761Y-100265619D01*
X132200952Y-100241428D01*
X132225142Y-100193047D01*
X132225142Y-100072095D01*
X132200952Y-100023714D01*
X132176761Y-99999523D01*
X132128380Y-99975333D01*
X132031619Y-99975333D01*
X131983238Y-99999523D01*
X131959047Y-100023714D01*
X131934857Y-100072095D01*
X132612190Y-100023714D02*
X132442857Y-100023714D01*
X132442857Y-100289809D02*
X132442857Y-99781809D01*
X132684761Y-99781809D01*
X133120190Y-99781809D02*
X132878285Y-99781809D01*
X132854095Y-100023714D01*
X132878285Y-99999523D01*
X132926666Y-99975333D01*
X133047619Y-99975333D01*
X133096000Y-99999523D01*
X133120190Y-100023714D01*
X133144380Y-100072095D01*
X133144380Y-100193047D01*
X133120190Y-100241428D01*
X133096000Y-100265619D01*
X133047619Y-100289809D01*
X132926666Y-100289809D01*
X132878285Y-100265619D01*
X132854095Y-100241428D01*
D13*
X130190723Y-112584895D02*
X130190723Y-113242876D01*
X130229428Y-113320285D01*
X130268133Y-113358990D01*
X130345542Y-113397695D01*
X130500361Y-113397695D01*
X130577771Y-113358990D01*
X130616476Y-113320285D01*
X130655180Y-113242876D01*
X130655180Y-112584895D01*
X131003523Y-112662304D02*
X131042228Y-112623600D01*
X131119638Y-112584895D01*
X131313161Y-112584895D01*
X131390571Y-112623600D01*
X131429276Y-112662304D01*
X131467980Y-112739714D01*
X131467980Y-112817123D01*
X131429276Y-112933238D01*
X130964819Y-113397695D01*
X131467980Y-113397695D01*
D14*
X128475619Y-114114666D02*
X128717523Y-114114666D01*
X128427238Y-114259809D02*
X128596571Y-113751809D01*
X128765904Y-114259809D01*
X128911047Y-114235619D02*
X128983619Y-114259809D01*
X129104571Y-114259809D01*
X129152952Y-114235619D01*
X129177142Y-114211428D01*
X129201333Y-114163047D01*
X129201333Y-114114666D01*
X129177142Y-114066285D01*
X129152952Y-114042095D01*
X129104571Y-114017904D01*
X129007809Y-113993714D01*
X128959428Y-113969523D01*
X128935238Y-113945333D01*
X128911047Y-113896952D01*
X128911047Y-113848571D01*
X128935238Y-113800190D01*
X128959428Y-113776000D01*
X129007809Y-113751809D01*
X129128761Y-113751809D01*
X129201333Y-113776000D01*
X129636761Y-113921142D02*
X129636761Y-114259809D01*
X129515809Y-113727619D02*
X129394857Y-114090476D01*
X129709333Y-114090476D01*
X130193142Y-114211428D02*
X130168952Y-114235619D01*
X130096380Y-114259809D01*
X130048000Y-114259809D01*
X129975428Y-114235619D01*
X129927047Y-114187238D01*
X129902857Y-114138857D01*
X129878666Y-114042095D01*
X129878666Y-113969523D01*
X129902857Y-113872761D01*
X129927047Y-113824380D01*
X129975428Y-113776000D01*
X130048000Y-113751809D01*
X130096380Y-113751809D01*
X130168952Y-113776000D01*
X130193142Y-113800190D01*
X130676952Y-114259809D02*
X130386666Y-114259809D01*
X130531809Y-114259809D02*
X130531809Y-113751809D01*
X130483428Y-113824380D01*
X130435047Y-113872761D01*
X130386666Y-113896952D01*
X130894666Y-114259809D02*
X130894666Y-113751809D01*
X131064000Y-114114666D01*
X131233333Y-113751809D01*
X131233333Y-114259809D01*
X131741333Y-114259809D02*
X131451047Y-114259809D01*
X131596190Y-114259809D02*
X131596190Y-113751809D01*
X131547809Y-113824380D01*
X131499428Y-113872761D01*
X131451047Y-113896952D01*
X132176761Y-113751809D02*
X132080000Y-113751809D01*
X132031619Y-113776000D01*
X132007428Y-113800190D01*
X131959047Y-113872761D01*
X131934857Y-113969523D01*
X131934857Y-114163047D01*
X131959047Y-114211428D01*
X131983238Y-114235619D01*
X132031619Y-114259809D01*
X132128380Y-114259809D01*
X132176761Y-114235619D01*
X132200952Y-114211428D01*
X132225142Y-114163047D01*
X132225142Y-114042095D01*
X132200952Y-113993714D01*
X132176761Y-113969523D01*
X132128380Y-113945333D01*
X132031619Y-113945333D01*
X131983238Y-113969523D01*
X131959047Y-113993714D01*
X131934857Y-114042095D01*
X132612190Y-113993714D02*
X132442857Y-113993714D01*
X132442857Y-114259809D02*
X132442857Y-113751809D01*
X132684761Y-113751809D01*
X133120190Y-113751809D02*
X132878285Y-113751809D01*
X132854095Y-113993714D01*
X132878285Y-113969523D01*
X132926666Y-113945333D01*
X133047619Y-113945333D01*
X133096000Y-113969523D01*
X133120190Y-113993714D01*
X133144380Y-114042095D01*
X133144380Y-114163047D01*
X133120190Y-114211428D01*
X133096000Y-114235619D01*
X133047619Y-114259809D01*
X132926666Y-114259809D01*
X132878285Y-114235619D01*
X132854095Y-114211428D01*
M02*
