G04 #@! TF.GenerationSoftware,KiCad,Pcbnew,(6.0.2-0)*
G04 #@! TF.CreationDate,2022-08-10T03:19:08-04:00*
G04 #@! TF.ProjectId,MacClassicRAMCard,4d616343-6c61-4737-9369-6352414d4361,rev?*
G04 #@! TF.SameCoordinates,Original*
G04 #@! TF.FileFunction,Legend,Bot*
G04 #@! TF.FilePolarity,Positive*
%FSLAX46Y46*%
G04 Gerber Fmt 4.6, Leading zero omitted, Abs format (unit mm)*
G04 Created by KiCad (PCBNEW (6.0.2-0)) date 2022-08-10 03:19:08*
%MOMM*%
%LPD*%
G01*
G04 APERTURE LIST*
G04 Aperture macros list*
%AMRoundRect*
0 Rectangle with rounded corners*
0 $1 Rounding radius*
0 $2 $3 $4 $5 $6 $7 $8 $9 X,Y pos of 4 corners*
0 Add a 4 corners polygon primitive as box body*
4,1,4,$2,$3,$4,$5,$6,$7,$8,$9,$2,$3,0*
0 Add four circle primitives for the rounded corners*
1,1,$1+$1,$2,$3*
1,1,$1+$1,$4,$5*
1,1,$1+$1,$6,$7*
1,1,$1+$1,$8,$9*
0 Add four rect primitives between the rounded corners*
20,1,$1+$1,$2,$3,$4,$5,0*
20,1,$1+$1,$4,$5,$6,$7,0*
20,1,$1+$1,$6,$7,$8,$9,0*
20,1,$1+$1,$8,$9,$2,$3,0*%
G04 Aperture macros list end*
%ADD10C,0.203200*%
%ADD11C,1.448000*%
%ADD12C,2.150000*%
%ADD13RoundRect,0.075000X0.850000X-0.850000X0.850000X0.850000X-0.850000X0.850000X-0.850000X-0.850000X0*%
%ADD14O,1.850000X1.850000*%
%ADD15C,3.296000*%
G04 APERTURE END LIST*
D10*
X98074238Y-130364895D02*
X97532371Y-130364895D01*
X98074238Y-131177695D01*
X97532371Y-131177695D01*
X97222733Y-131177695D02*
X97222733Y-130364895D01*
X96758276Y-131177695D02*
X97106619Y-130713238D01*
X96758276Y-130364895D02*
X97222733Y-130829352D01*
X96371228Y-131138990D02*
X96371228Y-131177695D01*
X96409933Y-131255104D01*
X96448638Y-131293809D01*
X94977857Y-130403600D02*
X95055266Y-130364895D01*
X95171380Y-130364895D01*
X95287495Y-130403600D01*
X95364904Y-130481009D01*
X95403609Y-130558419D01*
X95442314Y-130713238D01*
X95442314Y-130829352D01*
X95403609Y-130984171D01*
X95364904Y-131061580D01*
X95287495Y-131138990D01*
X95171380Y-131177695D01*
X95093971Y-131177695D01*
X94977857Y-131138990D01*
X94939152Y-131100285D01*
X94939152Y-130829352D01*
X95093971Y-130829352D01*
X94319876Y-130751942D02*
X94590809Y-130751942D01*
X94590809Y-131177695D02*
X94590809Y-130364895D01*
X94203761Y-130364895D01*
%LPC*%
D11*
X87884000Y-92964000D03*
X87884000Y-133350000D03*
X153416000Y-133350000D03*
D12*
X87884000Y-90424000D03*
X153416000Y-90424000D03*
D13*
X93980000Y-123190000D03*
D14*
X93980000Y-125730000D03*
X96520000Y-123190000D03*
X96520000Y-125730000D03*
X99060000Y-123190000D03*
X99060000Y-125730000D03*
X101600000Y-123190000D03*
X101600000Y-125730000D03*
X104140000Y-123190000D03*
X104140000Y-125730000D03*
X106680000Y-123190000D03*
X106680000Y-125730000D03*
X109220000Y-123190000D03*
X109220000Y-125730000D03*
X111760000Y-123190000D03*
X111760000Y-125730000D03*
X114300000Y-123190000D03*
X114300000Y-125730000D03*
X116840000Y-123190000D03*
X116840000Y-125730000D03*
X119380000Y-123190000D03*
X119380000Y-125730000D03*
X121920000Y-123190000D03*
X121920000Y-125730000D03*
X124460000Y-123190000D03*
X124460000Y-125730000D03*
X127000000Y-123190000D03*
X127000000Y-125730000D03*
X129540000Y-123190000D03*
X129540000Y-125730000D03*
X132080000Y-123190000D03*
X132080000Y-125730000D03*
X134620000Y-123190000D03*
X134620000Y-125730000D03*
X137160000Y-123190000D03*
X137160000Y-125730000D03*
X139700000Y-123190000D03*
X139700000Y-125730000D03*
X142240000Y-123190000D03*
X142240000Y-125730000D03*
X144780000Y-123190000D03*
X144780000Y-125730000D03*
X147320000Y-123190000D03*
X147320000Y-125730000D03*
D12*
X147066000Y-133350000D03*
X94234000Y-133350000D03*
D15*
X93472000Y-91313000D03*
X147828000Y-91313000D03*
M02*
